M48
;Layer_Color=9474304
;FILE_FORMAT=2:5
INCH,LZ
;TYPE=PLATED
T1F00S00C0.02756
T2F00S00C0.03346
T3F00S00C0.03543
T4F00S00C0.04724
%
T01
X00615Y0024
Y0054
X00945
Y0024
X00385
X0015
Y0054
X00385
X00735Y0115
X01035
T02
X02115Y009
X02535Y0085
Y0055
X01595Y00575
X01425Y0057
X0126
Y0027
X01425
X01595Y00275
X01815Y009
X00375Y0097
X0016Y00975
Y01275
X00375Y0127
X01815Y0112
X02115
T03
X02195Y003
Y004
Y005
Y006
X02315Y0091
Y0101
X01665Y0102
Y0092
Y0082
X01365
Y0092
Y0102
X00535Y00975
Y00875
X01755Y005
Y004
Y003
X00275Y00785
Y00885
X00535Y01075
X01365Y0112
X01665
X02315Y0111
T04
X0069909Y00805
X0111091
M30
