G04 Layer_Color=255*
%FSLAX25Y25*%
%MOIN*%
G70*
G01*
G75*
%ADD11C,0.05512*%
%ADD12C,0.05906*%
%ADD13R,0.05906X0.05906*%
%ADD14O,0.07874X0.03937*%
%ADD15O,0.07874X0.03937*%
%ADD16C,0.05315*%
%ADD17R,0.05315X0.05315*%
%ADD18R,0.05906X0.05906*%
%ADD19O,0.03937X0.07874*%
%ADD20O,0.03937X0.07874*%
%ADD21R,0.04724X0.04724*%
%ADD22C,0.04724*%
%ADD23R,0.04724X0.04724*%
G04:AMPARAMS|DCode=24|XSize=40mil|YSize=40mil|CornerRadius=10mil|HoleSize=0mil|Usage=FLASHONLY|Rotation=0.000|XOffset=0mil|YOffset=0mil|HoleType=Round|Shape=RoundedRectangle|*
%AMROUNDEDRECTD24*
21,1,0.04000,0.02000,0,0,0.0*
21,1,0.02000,0.04000,0,0,0.0*
1,1,0.02000,0.01000,-0.01000*
1,1,0.02000,-0.01000,-0.01000*
1,1,0.02000,-0.01000,0.01000*
1,1,0.02000,0.01000,0.01000*
%
%ADD24ROUNDEDRECTD24*%
%ADD25C,0.04000*%
%ADD26R,0.07000X0.07000*%
%ADD27C,0.07000*%
D11*
X497400Y-321600D02*
D03*
X467400D02*
D03*
X405500Y-76100D02*
D03*
Y-46100D02*
D03*
X518300Y-17000D02*
D03*
X488300D02*
D03*
X557400Y-161600D02*
D03*
Y-191600D02*
D03*
X437400Y-251600D02*
D03*
X467400D02*
D03*
X285300Y-92500D02*
D03*
Y-62500D02*
D03*
D12*
X227200Y-86300D02*
D03*
X217200D02*
D03*
X266900Y-195600D02*
D03*
X256900D02*
D03*
X246900D02*
D03*
X236900D02*
D03*
X226900D02*
D03*
X216900D02*
D03*
X206900D02*
D03*
X196900D02*
D03*
X186900D02*
D03*
X176900D02*
D03*
X166900D02*
D03*
X156900D02*
D03*
X146900D02*
D03*
X136900D02*
D03*
X126900D02*
D03*
X116900D02*
D03*
X106900D02*
D03*
X96900D02*
D03*
X86900D02*
D03*
X482400Y-162624D02*
D03*
X496376Y-231600D02*
D03*
X42700Y-38100D02*
D03*
X52700D02*
D03*
X62700D02*
D03*
X135200Y-85800D02*
D03*
Y-75800D02*
D03*
X517400Y-151600D02*
D03*
X76900Y-286242D02*
D03*
X86900D02*
D03*
X96900D02*
D03*
X106900D02*
D03*
X116900D02*
D03*
X126900D02*
D03*
X136900D02*
D03*
X146900D02*
D03*
X156900D02*
D03*
X166900D02*
D03*
X176900D02*
D03*
X186900D02*
D03*
X196900D02*
D03*
X206900D02*
D03*
X216900D02*
D03*
X226900D02*
D03*
X236900D02*
D03*
X246900D02*
D03*
X256900D02*
D03*
X76900Y-270100D02*
D03*
X86900D02*
D03*
X96900D02*
D03*
X106900D02*
D03*
X116900D02*
D03*
X126900D02*
D03*
X136900D02*
D03*
X146900D02*
D03*
X156900D02*
D03*
X166900D02*
D03*
X176900D02*
D03*
X186900D02*
D03*
X196900D02*
D03*
X206900D02*
D03*
X216900D02*
D03*
X226900D02*
D03*
X236900D02*
D03*
X246900D02*
D03*
X256900D02*
D03*
X266900D02*
D03*
X76900Y-210100D02*
D03*
X86900D02*
D03*
X96900D02*
D03*
X106900D02*
D03*
X116900D02*
D03*
X126900D02*
D03*
X136900D02*
D03*
X146900D02*
D03*
X156900D02*
D03*
X166900D02*
D03*
X176900D02*
D03*
X186900D02*
D03*
X196900D02*
D03*
X206900D02*
D03*
X216900D02*
D03*
X226900D02*
D03*
X236900D02*
D03*
X246900D02*
D03*
X256900D02*
D03*
X346800Y-127100D02*
D03*
X356800D02*
D03*
X366800D02*
D03*
X336800Y-97100D02*
D03*
X346800D02*
D03*
X356800D02*
D03*
X366800D02*
D03*
D13*
X207200Y-86300D02*
D03*
X76900Y-195600D02*
D03*
X468424Y-231600D02*
D03*
X72700Y-38100D02*
D03*
X527400Y-151600D02*
D03*
X266900Y-286242D02*
D03*
D14*
X542700Y-296600D02*
D03*
Y-301600D02*
D03*
X462400Y-61600D02*
D03*
Y-56600D02*
D03*
D15*
X542700Y-306600D02*
D03*
X462400Y-51600D02*
D03*
D16*
X492400Y-96443D02*
D03*
X537400Y-86443D02*
D03*
X442400Y-176757D02*
D03*
D17*
X492400Y-76757D02*
D03*
X537400Y-66757D02*
D03*
X442400Y-196443D02*
D03*
D18*
X482400Y-190576D02*
D03*
X135200Y-95800D02*
D03*
X266900Y-210100D02*
D03*
X336800Y-127100D02*
D03*
D19*
X437400Y-321600D02*
D03*
X432400D02*
D03*
D20*
X427400D02*
D03*
D21*
X307900Y-27200D02*
D03*
D22*
X317900D02*
D03*
X327900D02*
D03*
X88300Y-112100D02*
D03*
Y-122100D02*
D03*
X143300Y-144700D02*
D03*
X173300D02*
D03*
X166500Y-33300D02*
D03*
X136500D02*
D03*
X245300Y-39400D02*
D03*
X215300D02*
D03*
X219300Y-125000D02*
D03*
X249300D02*
D03*
D23*
X88300Y-102100D02*
D03*
D24*
X300900Y-203450D02*
D03*
D25*
Y-211324D02*
D03*
Y-219198D02*
D03*
Y-227073D02*
D03*
Y-234947D02*
D03*
Y-242821D02*
D03*
Y-250695D02*
D03*
Y-258569D02*
D03*
Y-266443D02*
D03*
Y-274317D02*
D03*
X387514D02*
D03*
Y-266443D02*
D03*
Y-258569D02*
D03*
Y-250695D02*
D03*
Y-242821D02*
D03*
Y-234947D02*
D03*
Y-227073D02*
D03*
Y-219198D02*
D03*
Y-211324D02*
D03*
Y-203450D02*
D03*
D26*
X105400Y-325100D02*
D03*
D27*
X115400D02*
D03*
X125400D02*
D03*
X135400D02*
D03*
X145400D02*
D03*
X155400D02*
D03*
X165400D02*
D03*
X175400D02*
D03*
X185400D02*
D03*
X195400D02*
D03*
X205400D02*
D03*
X215400D02*
D03*
X225400D02*
D03*
X235400D02*
D03*
X245400D02*
D03*
X255400D02*
D03*
M02*
