G04 Layer_Color=65535*
%FSLAX25Y25*%
%MOIN*%
G70*
G01*
G75*
%ADD10C,0.01000*%
%ADD29C,0.00787*%
%ADD30C,0.00984*%
%ADD31C,0.02362*%
%ADD32C,0.00700*%
%ADD33R,0.07480X0.03150*%
%ADD34R,0.03150X0.07480*%
D10*
X291530Y-286450D02*
X396884D01*
X291530Y-307427D02*
Y-203450D01*
Y-307427D02*
X396884D01*
X321412Y-177742D02*
X367002D01*
X396884Y-203450D01*
Y-203435D01*
Y-307427D02*
Y-203450D01*
X291530D02*
X321412Y-177742D01*
X388865Y-458958D02*
Y-317226D01*
X73904Y-458958D02*
X388865D01*
X73904Y-317226D02*
X388865D01*
X73904Y-458958D02*
Y-317226D01*
X93392Y-339667D02*
X380794D01*
X93392Y-438880D02*
X380794D01*
X93392D02*
Y-339667D01*
X380794Y-438880D02*
Y-339667D01*
X133786Y-409667D02*
Y-368880D01*
X333294D01*
X133786Y-409667D02*
X333294D01*
Y-368880D01*
X202800Y-71902D02*
Y-77900D01*
X206799D01*
X208798Y-71902D02*
X212797D01*
Y-72902D01*
X208798Y-76900D01*
Y-77900D01*
X214796Y-72902D02*
X215796Y-71902D01*
X217795D01*
X218795Y-72902D01*
Y-73901D01*
X217795Y-74901D01*
X218795Y-75901D01*
Y-76900D01*
X217795Y-77900D01*
X215796D01*
X214796Y-76900D01*
Y-75901D01*
X215796Y-74901D01*
X214796Y-73901D01*
Y-72902D01*
X215796Y-74901D02*
X217795D01*
X220794Y-72902D02*
X221794Y-71902D01*
X223793D01*
X224793Y-72902D01*
Y-76900D01*
X223793Y-77900D01*
X221794D01*
X220794Y-76900D01*
Y-72902D01*
X230791Y-71902D02*
X226792D01*
Y-74901D01*
X228792Y-73901D01*
X229791D01*
X230791Y-74901D01*
Y-76900D01*
X229791Y-77900D01*
X227792D01*
X226792Y-76900D01*
X541299Y-284800D02*
Y-280802D01*
X540299Y-279802D01*
X538300D01*
X537300Y-280802D01*
Y-284800D01*
X538300Y-285800D01*
X540299D01*
X539299Y-283801D02*
X541299Y-285800D01*
X540299D02*
X541299Y-284800D01*
X546297Y-285800D02*
Y-279802D01*
X543298Y-282801D01*
X547297D01*
X72500Y-187200D02*
Y-181202D01*
X75499D01*
X76499Y-182202D01*
Y-184201D01*
X75499Y-185201D01*
X72500D01*
X78498Y-182202D02*
X79498Y-181202D01*
X81497D01*
X82497Y-182202D01*
Y-183201D01*
X81497Y-184201D01*
X80497D01*
X81497D01*
X82497Y-185201D01*
Y-186200D01*
X81497Y-187200D01*
X79498D01*
X78498Y-186200D01*
X555000Y-155400D02*
Y-149402D01*
X557999D01*
X558999Y-150402D01*
Y-152401D01*
X557999Y-153401D01*
X555000D01*
X556999D02*
X558999Y-155400D01*
X560998D02*
X562997D01*
X561998D01*
Y-149402D01*
X560998Y-150402D01*
X565996D02*
X566996Y-149402D01*
X568996D01*
X569995Y-150402D01*
Y-154400D01*
X568996Y-155400D01*
X566996D01*
X565996Y-154400D01*
Y-150402D01*
X486100Y-10600D02*
Y-4602D01*
X489099D01*
X490099Y-5602D01*
Y-7601D01*
X489099Y-8601D01*
X486100D01*
X488099D02*
X490099Y-10600D01*
X492098Y-9600D02*
X493098Y-10600D01*
X495097D01*
X496097Y-9600D01*
Y-5602D01*
X495097Y-4602D01*
X493098D01*
X492098Y-5602D01*
Y-6601D01*
X493098Y-7601D01*
X496097D01*
X403100Y-39900D02*
Y-33902D01*
X406099D01*
X407099Y-34902D01*
Y-36901D01*
X406099Y-37901D01*
X403100D01*
X405099D02*
X407099Y-39900D01*
X409098Y-34902D02*
X410098Y-33902D01*
X412097D01*
X413097Y-34902D01*
Y-35901D01*
X412097Y-36901D01*
X413097Y-37901D01*
Y-38900D01*
X412097Y-39900D01*
X410098D01*
X409098Y-38900D01*
Y-37901D01*
X410098Y-36901D01*
X409098Y-35901D01*
Y-34902D01*
X410098Y-36901D02*
X412097D01*
X435200Y-245200D02*
Y-239202D01*
X438199D01*
X439199Y-240202D01*
Y-242201D01*
X438199Y-243201D01*
X435200D01*
X437199D02*
X439199Y-245200D01*
X441198Y-239202D02*
X445197D01*
Y-240202D01*
X441198Y-244200D01*
Y-245200D01*
X472400Y-311600D02*
Y-305602D01*
X475399D01*
X476399Y-306602D01*
Y-308601D01*
X475399Y-309601D01*
X472400D01*
X474399D02*
X476399Y-311600D01*
X482397Y-305602D02*
X480397Y-306602D01*
X478398Y-308601D01*
Y-310600D01*
X479398Y-311600D01*
X481397D01*
X482397Y-310600D01*
Y-309601D01*
X481397Y-308601D01*
X478398D01*
X282900Y-56300D02*
Y-50302D01*
X285899D01*
X286899Y-51302D01*
Y-53301D01*
X285899Y-54301D01*
X282900D01*
X284899D02*
X286899Y-56300D01*
X292897Y-50302D02*
X288898D01*
Y-53301D01*
X290897Y-52301D01*
X291897D01*
X292897Y-53301D01*
Y-55300D01*
X291897Y-56300D01*
X289898D01*
X288898Y-55300D01*
X456549Y-41750D02*
Y-37752D01*
X455549Y-36752D01*
X453550D01*
X452550Y-37752D01*
Y-41750D01*
X453550Y-42750D01*
X455549D01*
X454549Y-40751D02*
X456549Y-42750D01*
X455549D02*
X456549Y-41750D01*
X458548Y-37752D02*
X459548Y-36752D01*
X461547D01*
X462547Y-37752D01*
Y-38751D01*
X461547Y-39751D01*
X460547D01*
X461547D01*
X462547Y-40751D01*
Y-41750D01*
X461547Y-42750D01*
X459548D01*
X458548Y-41750D01*
X426599Y-262600D02*
Y-258602D01*
X425599Y-257602D01*
X423600D01*
X422600Y-258602D01*
Y-262600D01*
X423600Y-263600D01*
X425599D01*
X424599Y-261601D02*
X426599Y-263600D01*
X425599D02*
X426599Y-262600D01*
X432597Y-263600D02*
X428598D01*
X432597Y-259601D01*
Y-258602D01*
X431597Y-257602D01*
X429598D01*
X428598Y-258602D01*
X479300Y-150302D02*
Y-156300D01*
X482299D01*
X483299Y-155300D01*
Y-151302D01*
X482299Y-150302D01*
X479300D01*
X489297Y-156300D02*
X485298D01*
X489297Y-152301D01*
Y-151302D01*
X488297Y-150302D01*
X486298D01*
X485298Y-151302D01*
X466100Y-218502D02*
Y-224500D01*
X469099D01*
X470099Y-223500D01*
Y-219502D01*
X469099Y-218502D01*
X466100D01*
X472098Y-224500D02*
X474097D01*
X473098D01*
Y-218502D01*
X472098Y-219502D01*
X534099Y-55702D02*
X533099Y-54702D01*
X531100D01*
X530100Y-55702D01*
Y-59700D01*
X531100Y-60700D01*
X533099D01*
X534099Y-59700D01*
X536098Y-54702D02*
X540097D01*
Y-55702D01*
X536098Y-59700D01*
Y-60700D01*
X489099Y-65702D02*
X488099Y-64702D01*
X486100D01*
X485100Y-65702D01*
Y-69700D01*
X486100Y-70700D01*
X488099D01*
X489099Y-69700D01*
X495097Y-64702D02*
X493097Y-65702D01*
X491098Y-67701D01*
Y-69700D01*
X492098Y-70700D01*
X494097D01*
X495097Y-69700D01*
Y-68701D01*
X494097Y-67701D01*
X491098D01*
X439099Y-165702D02*
X438099Y-164702D01*
X436100D01*
X435100Y-165702D01*
Y-169700D01*
X436100Y-170700D01*
X438099D01*
X439099Y-169700D01*
X445097Y-164702D02*
X441098D01*
Y-167701D01*
X443097Y-166701D01*
X444097D01*
X445097Y-167701D01*
Y-169700D01*
X444097Y-170700D01*
X442098D01*
X441098Y-169700D01*
X130800Y-61402D02*
Y-67400D01*
X134799D01*
X136798Y-61402D02*
Y-67400D01*
X139797D01*
X140797Y-66400D01*
Y-62402D01*
X139797Y-61402D01*
X136798D01*
X142796Y-67400D02*
X144796D01*
X143796D01*
Y-61402D01*
X142796Y-62402D01*
X147794Y-67400D02*
X149794D01*
X148794D01*
Y-61402D01*
X147794Y-62402D01*
X152793Y-67400D02*
X154792D01*
X153793D01*
Y-61402D01*
X152793Y-62402D01*
X157791Y-61402D02*
X161790D01*
Y-62402D01*
X157791Y-66400D01*
Y-67400D01*
X292000Y-168244D02*
Y-173242D01*
X293000Y-174242D01*
X294999D01*
X295999Y-173242D01*
Y-168244D01*
X297998Y-169243D02*
X298998Y-168244D01*
X300997D01*
X301997Y-169243D01*
Y-170243D01*
X300997Y-171243D01*
X299997D01*
X300997D01*
X301997Y-172242D01*
Y-173242D01*
X300997Y-174242D01*
X298998D01*
X297998Y-173242D01*
X298500Y-13800D02*
Y-7802D01*
X301499D01*
X302499Y-8802D01*
Y-10801D01*
X301499Y-11801D01*
X298500D01*
X300499D02*
X302499Y-13800D01*
X308497D02*
X304498D01*
X308497Y-9801D01*
Y-8802D01*
X307497Y-7802D01*
X305498D01*
X304498Y-8802D01*
X78900Y-88700D02*
Y-82702D01*
X81899D01*
X82899Y-83702D01*
Y-85701D01*
X81899Y-86701D01*
X78900D01*
X80899D02*
X82899Y-88700D01*
X84898D02*
X86897D01*
X85898D01*
Y-82702D01*
X84898Y-83702D01*
X38300Y-29700D02*
Y-23702D01*
X41299D01*
X42299Y-24702D01*
Y-26701D01*
X41299Y-27701D01*
X38300D01*
X44298Y-29700D02*
X46297D01*
X45298D01*
Y-23702D01*
X44298Y-24702D01*
X512500Y-136702D02*
Y-142700D01*
X516499D01*
X522497Y-137702D02*
X521497Y-136702D01*
X519498D01*
X518498Y-137702D01*
Y-138701D01*
X519498Y-139701D01*
X521497D01*
X522497Y-140701D01*
Y-141700D01*
X521497Y-142700D01*
X519498D01*
X518498Y-141700D01*
X524496Y-142700D02*
X526496D01*
X525496D01*
Y-136702D01*
X524496Y-137702D01*
X140399Y-128802D02*
X139399Y-127802D01*
X137400D01*
X136400Y-128802D01*
Y-132800D01*
X137400Y-133800D01*
X139399D01*
X140399Y-132800D01*
X142398Y-133800D02*
X144397D01*
X143398D01*
Y-127802D01*
X142398Y-128802D01*
X133599Y-17402D02*
X132599Y-16402D01*
X130600D01*
X129600Y-17402D01*
Y-21400D01*
X130600Y-22400D01*
X132599D01*
X133599Y-21400D01*
X139597Y-22400D02*
X135598D01*
X139597Y-18401D01*
Y-17402D01*
X138597Y-16402D01*
X136598D01*
X135598Y-17402D01*
X212399Y-23502D02*
X211399Y-22502D01*
X209400D01*
X208400Y-23502D01*
Y-27500D01*
X209400Y-28500D01*
X211399D01*
X212399Y-27500D01*
X217397Y-28500D02*
Y-22502D01*
X214398Y-25501D01*
X218397D01*
X216399Y-109060D02*
X215399Y-108060D01*
X213400D01*
X212400Y-109060D01*
Y-113058D01*
X213400Y-114058D01*
X215399D01*
X216399Y-113058D01*
X218398Y-109060D02*
X219398Y-108060D01*
X221397D01*
X222397Y-109060D01*
Y-110059D01*
X221397Y-111059D01*
X220397D01*
X221397D01*
X222397Y-112059D01*
Y-113058D01*
X221397Y-114058D01*
X219398D01*
X218398Y-113058D01*
X72500Y-277842D02*
Y-271844D01*
X75499D01*
X76499Y-272843D01*
Y-274843D01*
X75499Y-275842D01*
X72500D01*
X82497Y-277842D02*
X78498D01*
X82497Y-273843D01*
Y-272843D01*
X81497Y-271844D01*
X79498D01*
X78498Y-272843D01*
X74400Y-307702D02*
Y-313700D01*
X77399D01*
X78399Y-312700D01*
Y-308702D01*
X77399Y-307702D01*
X74400D01*
X84397Y-308702D02*
X83397Y-307702D01*
X81398D01*
X80398Y-308702D01*
Y-309701D01*
X81398Y-310701D01*
X83397D01*
X84397Y-311701D01*
Y-312700D01*
X83397Y-313700D01*
X81398D01*
X80398Y-312700D01*
X86396Y-313700D02*
X88396D01*
X87396D01*
Y-307702D01*
X86396Y-308702D01*
X68200Y-197702D02*
Y-202700D01*
X69200Y-203700D01*
X71199D01*
X72199Y-202700D01*
Y-197702D01*
X74198Y-203700D02*
X76197D01*
X75198D01*
Y-197702D01*
X74198Y-198702D01*
X331700Y-84702D02*
Y-89700D01*
X332700Y-90700D01*
X334699D01*
X335699Y-89700D01*
Y-84702D01*
X341697Y-90700D02*
X337698D01*
X341697Y-86701D01*
Y-85702D01*
X340697Y-84702D01*
X338698D01*
X337698Y-85702D01*
D29*
X536716Y-310146D02*
G03*
X536716Y-293054I5984J8546D01*
G01*
X495674Y-93761D02*
G03*
X496632Y-79960I-3274J7161D01*
G01*
X488168D02*
G03*
X489126Y-93761I4232J-6640D01*
G01*
X468384Y-48054D02*
G03*
X468384Y-65146I-5984J-8546D01*
G01*
X540674Y-83761D02*
G03*
X541632Y-69960I-3274J7161D01*
G01*
X533168D02*
G03*
X534126Y-83761I4232J-6640D01*
G01*
X439126Y-179439D02*
G03*
X438168Y-193240I3274J-7161D01*
G01*
X446632D02*
G03*
X445674Y-179439I-4232J6640D01*
G01*
X423854Y-315616D02*
G03*
X440946Y-315616I8546J-5984D01*
G01*
X276231Y-237600D02*
G03*
X276231Y-242600I0J-2500D01*
G01*
X331524Y-114600D02*
G03*
X331524Y-109600I0J2500D01*
G01*
X492400Y-321600D02*
Y-318600D01*
X472400D02*
X492400D01*
X472400Y-324600D02*
Y-318600D01*
Y-324600D02*
X492400D01*
Y-321600D01*
X471500D02*
X472400D01*
X492400D02*
X493300D01*
X202200Y-91300D02*
Y-81300D01*
X232200D01*
Y-91300D02*
Y-81300D01*
X202200Y-91300D02*
X232200D01*
X536716Y-310146D02*
Y-293054D01*
X79400Y-190600D02*
X271900D01*
X71900D02*
X79400D01*
X71900Y-200600D02*
Y-190600D01*
Y-200600D02*
X271900D01*
Y-190600D01*
X405500Y-71100D02*
X408500D01*
Y-51100D01*
X402500D02*
X408500D01*
X402500Y-71100D02*
Y-51100D01*
Y-71100D02*
X405500D01*
Y-51100D02*
Y-50200D01*
Y-72000D02*
Y-71100D01*
X468384Y-65146D02*
Y-48054D01*
X513300Y-17000D02*
Y-14000D01*
X493300D02*
X513300D01*
X493300Y-20000D02*
Y-14000D01*
Y-20000D02*
X513300D01*
Y-17000D01*
X492400D02*
X493300D01*
X513300D02*
X514200D01*
X478660Y-168923D02*
X486140D01*
Y-184277D02*
Y-168923D01*
X478660Y-184277D02*
Y-168923D01*
X554400Y-166600D02*
X557400D01*
X554400Y-186600D02*
Y-166600D01*
Y-186600D02*
X560400D01*
Y-166600D01*
X557400D02*
X560400D01*
X557400Y-187500D02*
Y-186600D01*
Y-166600D02*
Y-165700D01*
X490077Y-235340D02*
Y-227860D01*
X474723Y-235340D02*
X490077D01*
X474723Y-227860D02*
X490077D01*
X442400Y-254600D02*
Y-251600D01*
Y-254600D02*
X462400D01*
Y-248600D01*
X442400D02*
X462400D01*
X442400Y-251600D02*
Y-248600D01*
X462400Y-251600D02*
X463300D01*
X441500D02*
X442400D01*
X285300Y-87500D02*
X288300D01*
Y-67500D01*
X282300D02*
X288300D01*
X282300Y-87500D02*
Y-67500D01*
Y-87500D02*
X285300D01*
Y-67500D02*
Y-66600D01*
Y-88400D02*
Y-87500D01*
X423854Y-315616D02*
X440946D01*
X297900Y-37200D02*
Y-17200D01*
Y-37200D02*
X342900D01*
Y-27200D01*
X337900D02*
X342900D01*
X337900D02*
Y-17200D01*
X297900D02*
X337900D01*
X78300Y-92100D02*
X98300D01*
X78300Y-137100D02*
Y-92100D01*
Y-137100D02*
X88300D01*
Y-132100D01*
X98300D01*
Y-92100D01*
X77700Y-43100D02*
Y-33100D01*
X37700Y-43100D02*
X77700D01*
X37700Y-33100D02*
X77700D01*
X37700Y-43100D02*
Y-33100D01*
X140200Y-100800D02*
Y-70800D01*
X130200D02*
X140200D01*
X130200Y-100800D02*
Y-70800D01*
Y-100800D02*
X140200D01*
X135800Y-152200D02*
Y-137200D01*
X180800D01*
Y-152200D02*
Y-137200D01*
X135800Y-152200D02*
X180800D01*
X174000Y-40800D02*
Y-25800D01*
X129000Y-40800D02*
X174000D01*
X129000D02*
Y-25800D01*
X174000D01*
X511888Y-146088D02*
X532912D01*
X511888Y-157112D02*
X532912D01*
X511888D02*
Y-146088D01*
X532912Y-157112D02*
Y-146088D01*
X207800Y-46900D02*
X252800D01*
Y-31900D01*
X207800D02*
X252800D01*
X207800Y-46900D02*
Y-31900D01*
X211800Y-117500D02*
X256800D01*
X211800Y-132500D02*
Y-117500D01*
Y-132500D02*
X256800D01*
Y-117500D01*
X71900Y-291242D02*
X264400D01*
X271900D01*
Y-281242D01*
X71900D02*
X271900D01*
X71900Y-291242D02*
Y-281242D01*
X67569Y-265494D02*
Y-214706D01*
X276231Y-265494D02*
Y-242600D01*
Y-237600D02*
Y-214706D01*
X67569Y-265494D02*
X276231D01*
X67569Y-214706D02*
X276231D01*
X331524Y-122533D02*
X372076D01*
X331524Y-101667D02*
X372076D01*
X331524Y-122533D02*
Y-114600D01*
Y-109600D02*
Y-101667D01*
X372076Y-122533D02*
Y-101667D01*
D30*
X537794Y-289777D02*
G03*
X537794Y-289777I-492J0D01*
G01*
X468290Y-68423D02*
G03*
X468290Y-68423I-492J0D01*
G01*
X444715Y-316202D02*
G03*
X444715Y-316202I-492J0D01*
G01*
X527892Y-159671D02*
G03*
X527892Y-159671I-492J0D01*
G01*
X272510Y-210100D02*
G03*
X272510Y-210100I-492J0D01*
G01*
X332174Y-127100D02*
G03*
X332174Y-127100I-492J0D01*
G01*
D31*
X273475Y-218643D02*
G03*
X273475Y-218643I-1181J0D01*
G01*
X336643Y-118596D02*
G03*
X336643Y-118596I-1181J0D01*
G01*
D32*
X337900Y-280452D02*
X340566Y-284451D01*
Y-280452D02*
X337900Y-284451D01*
X341899Y-280452D02*
Y-284451D01*
X343898D01*
X344565Y-283784D01*
Y-283118D01*
X343898Y-282451D01*
X341899D01*
X343898D01*
X344565Y-281785D01*
Y-281118D01*
X343898Y-280452D01*
X341899D01*
X348563D02*
X345897D01*
Y-284451D01*
X348563D01*
X345897Y-282451D02*
X347230D01*
X352562Y-280452D02*
X349896D01*
Y-284451D01*
X352562D01*
X349896Y-282451D02*
X351229D01*
X330400Y-300452D02*
X333066Y-304450D01*
Y-300452D02*
X330400Y-304450D01*
X334399Y-300452D02*
Y-304450D01*
X336398D01*
X337065Y-303784D01*
Y-303118D01*
X336398Y-302451D01*
X334399D01*
X336398D01*
X337065Y-301785D01*
Y-301118D01*
X336398Y-300452D01*
X334399D01*
X341063D02*
X338397D01*
Y-304450D01*
X341063D01*
X338397Y-302451D02*
X339730D01*
X345062Y-300452D02*
X342396D01*
Y-304450D01*
X345062D01*
X342396Y-302451D02*
X343729D01*
X346395Y-305117D02*
X349061D01*
X350394Y-304450D02*
Y-300452D01*
X352393D01*
X353059Y-301118D01*
Y-302451D01*
X352393Y-303118D01*
X350394D01*
X354392Y-304450D02*
Y-300452D01*
X356392D01*
X357058Y-301118D01*
Y-302451D01*
X356392Y-303118D01*
X354392D01*
X355725D02*
X357058Y-304450D01*
X360390Y-300452D02*
X359057D01*
X358391Y-301118D01*
Y-303784D01*
X359057Y-304450D01*
X360390D01*
X361057Y-303784D01*
Y-301118D01*
X360390Y-300452D01*
X294900Y-205950D02*
X296233D01*
X295566D01*
Y-201952D01*
X294900Y-202618D01*
X293400Y-282451D02*
X294733D01*
X294066D01*
Y-278452D01*
X293400Y-279118D01*
X296732D02*
X297399Y-278452D01*
X298732D01*
X299398Y-279118D01*
Y-281784D01*
X298732Y-282451D01*
X297399D01*
X296732Y-281784D01*
Y-279118D01*
X389900Y-282950D02*
X391233D01*
X390566D01*
Y-278952D01*
X389900Y-279618D01*
X393232Y-282950D02*
X394565D01*
X393899D01*
Y-278952D01*
X393232Y-279618D01*
X393066Y-206950D02*
X390400D01*
X393066Y-204285D01*
Y-203618D01*
X392399Y-202952D01*
X391066D01*
X390400Y-203618D01*
X394399D02*
X395065Y-202952D01*
X396398D01*
X397064Y-203618D01*
Y-206284D01*
X396398Y-206950D01*
X395065D01*
X394399Y-206284D01*
Y-203618D01*
D33*
X482400Y-183096D02*
D03*
D34*
X475904Y-231600D02*
D03*
M02*
