G04 Layer_Physical_Order=2*
G04 Layer_Color=16711680*
%FSLAX25Y25*%
%MOIN*%
G70*
G01*
G75*
%ADD11C,0.05512*%
%ADD12C,0.05906*%
%ADD13R,0.05906X0.05906*%
%ADD14O,0.07874X0.03937*%
%ADD15O,0.07874X0.03937*%
%ADD16C,0.05315*%
%ADD17R,0.05315X0.05315*%
%ADD18R,0.05906X0.05906*%
%ADD19O,0.03937X0.07874*%
%ADD20O,0.03937X0.07874*%
%ADD21R,0.04724X0.04724*%
%ADD22C,0.04724*%
%ADD23R,0.04724X0.04724*%
G04:AMPARAMS|DCode=24|XSize=40mil|YSize=40mil|CornerRadius=10mil|HoleSize=0mil|Usage=FLASHONLY|Rotation=0.000|XOffset=0mil|YOffset=0mil|HoleType=Round|Shape=RoundedRectangle|*
%AMROUNDEDRECTD24*
21,1,0.04000,0.02000,0,0,0.0*
21,1,0.02000,0.04000,0,0,0.0*
1,1,0.02000,0.01000,-0.01000*
1,1,0.02000,-0.01000,-0.01000*
1,1,0.02000,-0.01000,0.01000*
1,1,0.02000,0.01000,0.01000*
%
%ADD24ROUNDEDRECTD24*%
%ADD25C,0.04000*%
%ADD26R,0.07000X0.07000*%
%ADD27C,0.07000*%
%ADD28C,0.02000*%
G36*
X521063Y-17284D02*
X521089Y-17534D01*
X521135Y-17776D01*
X521199Y-18012D01*
X521283Y-18241D01*
X521387Y-18462D01*
X521509Y-18677D01*
X521651Y-18884D01*
X521812Y-19085D01*
X521992Y-19278D01*
X520578Y-20692D01*
X520385Y-20512D01*
X520184Y-20351D01*
X519977Y-20209D01*
X519762Y-20087D01*
X519541Y-19983D01*
X519312Y-19899D01*
X519076Y-19835D01*
X518834Y-19789D01*
X518584Y-19763D01*
X518328Y-19756D01*
X521056Y-17028D01*
X521063Y-17284D01*
D02*
G37*
G36*
X490053Y-19155D02*
X489895Y-19350D01*
X489755Y-19553D01*
X489635Y-19766D01*
X489532Y-19987D01*
X489449Y-20216D01*
X489384Y-20455D01*
X489337Y-20702D01*
X489309Y-20957D01*
X489300Y-21222D01*
X487300D01*
X487291Y-20957D01*
X487263Y-20702D01*
X487216Y-20455D01*
X487151Y-20216D01*
X487068Y-19987D01*
X486966Y-19766D01*
X486845Y-19553D01*
X486705Y-19350D01*
X486547Y-19155D01*
X486371Y-18968D01*
X490229D01*
X490053Y-19155D01*
D02*
G37*
G36*
X311664Y-24850D02*
X311267Y-25261D01*
X310643Y-25998D01*
X310415Y-26324D01*
X310244Y-26621D01*
X310130Y-26889D01*
X310072Y-27129D01*
X310071Y-27341D01*
X310126Y-27524D01*
X310238Y-27678D01*
X307422Y-24862D01*
X307576Y-24974D01*
X307759Y-25029D01*
X307971Y-25028D01*
X308211Y-24970D01*
X308479Y-24856D01*
X308776Y-24685D01*
X309102Y-24457D01*
X309456Y-24173D01*
X310250Y-23436D01*
X311664Y-24850D01*
D02*
G37*
G36*
X321123Y-25392D02*
X320957Y-25566D01*
X320810Y-25741D01*
X320680Y-25918D01*
X320567Y-26095D01*
X320473Y-26273D01*
X320395Y-26452D01*
X320336Y-26631D01*
X320294Y-26812D01*
X320269Y-26994D01*
X320262Y-27176D01*
X317924Y-24838D01*
X318106Y-24831D01*
X318288Y-24806D01*
X318469Y-24764D01*
X318648Y-24705D01*
X318827Y-24627D01*
X319005Y-24532D01*
X319182Y-24420D01*
X319359Y-24290D01*
X319534Y-24143D01*
X319708Y-23977D01*
X321123Y-25392D01*
D02*
G37*
G36*
X308378Y-29550D02*
X308223Y-29437D01*
X308039Y-29381D01*
X307827D01*
X307586Y-29437D01*
X307318Y-29550D01*
X307021Y-29720D01*
X306695Y-29946D01*
X306342Y-30229D01*
X305550Y-30964D01*
X304136Y-29550D01*
X304532Y-29140D01*
X305154Y-28405D01*
X305380Y-28079D01*
X305550Y-27782D01*
X305663Y-27514D01*
X305719Y-27273D01*
Y-27061D01*
X305663Y-26877D01*
X305550Y-26722D01*
X308378Y-29550D01*
D02*
G37*
G36*
X327876Y-29562D02*
X327694Y-29569D01*
X327512Y-29594D01*
X327331Y-29636D01*
X327152Y-29695D01*
X326973Y-29773D01*
X326795Y-29868D01*
X326618Y-29980D01*
X326441Y-30110D01*
X326266Y-30257D01*
X326092Y-30423D01*
X324677Y-29008D01*
X324843Y-28834D01*
X324990Y-28659D01*
X325120Y-28482D01*
X325233Y-28305D01*
X325327Y-28127D01*
X325405Y-27948D01*
X325464Y-27769D01*
X325506Y-27588D01*
X325531Y-27406D01*
X325538Y-27224D01*
X327876Y-29562D01*
D02*
G37*
G36*
X317876D02*
X317694Y-29569D01*
X317512Y-29594D01*
X317331Y-29636D01*
X317152Y-29695D01*
X316973Y-29773D01*
X316795Y-29868D01*
X316617Y-29980D01*
X316441Y-30110D01*
X316266Y-30257D01*
X316092Y-30423D01*
X314677Y-29008D01*
X314843Y-28834D01*
X314990Y-28659D01*
X315120Y-28482D01*
X315232Y-28305D01*
X315327Y-28127D01*
X315405Y-27948D01*
X315464Y-27769D01*
X315506Y-27588D01*
X315531Y-27406D01*
X315538Y-27224D01*
X317876Y-29562D01*
D02*
G37*
G36*
X139723Y-31492D02*
X139557Y-31666D01*
X139410Y-31841D01*
X139280Y-32017D01*
X139167Y-32195D01*
X139073Y-32373D01*
X138995Y-32552D01*
X138936Y-32731D01*
X138894Y-32912D01*
X138869Y-33094D01*
X138862Y-33276D01*
X136524Y-30938D01*
X136706Y-30931D01*
X136888Y-30906D01*
X137069Y-30864D01*
X137248Y-30805D01*
X137427Y-30727D01*
X137605Y-30632D01*
X137783Y-30520D01*
X137959Y-30390D01*
X138134Y-30243D01*
X138308Y-30077D01*
X139723Y-31492D01*
D02*
G37*
G36*
X168321Y-31771D02*
X168467Y-31882D01*
X168624Y-31980D01*
X168794Y-32065D01*
X168975Y-32137D01*
X169168Y-32195D01*
X169372Y-32241D01*
X169589Y-32274D01*
X169817Y-32293D01*
X170057Y-32300D01*
Y-34300D01*
X169817Y-34306D01*
X169589Y-34326D01*
X169372Y-34359D01*
X169168Y-34405D01*
X168975Y-34463D01*
X168794Y-34535D01*
X168624Y-34620D01*
X168467Y-34718D01*
X168321Y-34829D01*
X168187Y-34953D01*
Y-31646D01*
X168321Y-31771D01*
D02*
G37*
G36*
X134813Y-34953D02*
X134679Y-34829D01*
X134533Y-34718D01*
X134376Y-34620D01*
X134206Y-34535D01*
X134025Y-34463D01*
X133832Y-34405D01*
X133627Y-34359D01*
X133411Y-34326D01*
X133183Y-34306D01*
X132943Y-34300D01*
Y-32300D01*
X133183Y-32293D01*
X133411Y-32274D01*
X133627Y-32241D01*
X133832Y-32195D01*
X134025Y-32137D01*
X134206Y-32065D01*
X134376Y-31980D01*
X134533Y-31882D01*
X134679Y-31771D01*
X134813Y-31646D01*
Y-34953D01*
D02*
G37*
G36*
X77055Y-35159D02*
X76658Y-35570D01*
X76033Y-36307D01*
X75806Y-36633D01*
X75635Y-36930D01*
X75520Y-37199D01*
X75463Y-37439D01*
X75461Y-37650D01*
X75517Y-37833D01*
X75629Y-37988D01*
X72812Y-35171D01*
X72967Y-35283D01*
X73150Y-35339D01*
X73361Y-35337D01*
X73601Y-35280D01*
X73870Y-35165D01*
X74167Y-34994D01*
X74493Y-34767D01*
X74847Y-34483D01*
X75641Y-33745D01*
X77055Y-35159D01*
D02*
G37*
G36*
X60392Y-34363D02*
X60605Y-34530D01*
X60827Y-34677D01*
X61060Y-34805D01*
X61303Y-34912D01*
X61557Y-34999D01*
X61820Y-35066D01*
X62093Y-35113D01*
X62377Y-35140D01*
X62670Y-35147D01*
X59747Y-38070D01*
X59740Y-37777D01*
X59713Y-37493D01*
X59666Y-37220D01*
X59599Y-36957D01*
X59512Y-36703D01*
X59405Y-36460D01*
X59277Y-36228D01*
X59130Y-36005D01*
X58963Y-35792D01*
X58776Y-35590D01*
X60190Y-34176D01*
X60392Y-34363D01*
D02*
G37*
G36*
X243666Y-36343D02*
X243841Y-36490D01*
X244018Y-36620D01*
X244195Y-36733D01*
X244373Y-36827D01*
X244552Y-36905D01*
X244731Y-36964D01*
X244912Y-37006D01*
X245094Y-37031D01*
X245276Y-37038D01*
X242938Y-39376D01*
X242931Y-39194D01*
X242906Y-39012D01*
X242864Y-38831D01*
X242805Y-38652D01*
X242727Y-38473D01*
X242633Y-38295D01*
X242520Y-38118D01*
X242390Y-37941D01*
X242243Y-37766D01*
X242077Y-37592D01*
X243492Y-36177D01*
X243666Y-36343D01*
D02*
G37*
G36*
X159244Y-34743D02*
X159665Y-36131D01*
X160349Y-37410D01*
X161269Y-38531D01*
X162390Y-39451D01*
X163669Y-40135D01*
X165057Y-40556D01*
X166500Y-40698D01*
X167943Y-40556D01*
X169331Y-40135D01*
X170610Y-39451D01*
X170759Y-39329D01*
X206191D01*
X206383Y-39791D01*
X202503Y-43671D01*
X79564D01*
X79411Y-43534D01*
X79259Y-43171D01*
X79308Y-43091D01*
X79420Y-42712D01*
X79571Y-42346D01*
X79606Y-42083D01*
X79681Y-41829D01*
X79691Y-41433D01*
X79743Y-41041D01*
X79722Y-40877D01*
X79753Y-40826D01*
X79996Y-40509D01*
X80096Y-40268D01*
X80233Y-40045D01*
X80347Y-39662D01*
X80485Y-39329D01*
X132311D01*
X132381Y-39358D01*
X132460Y-39414D01*
X132988Y-39609D01*
X133508Y-39825D01*
X133604Y-39838D01*
X133694Y-39871D01*
X134255Y-39923D01*
X134813Y-39997D01*
X134909Y-39984D01*
X135005Y-39993D01*
X135560Y-39898D01*
X136118Y-39825D01*
X136208Y-39788D01*
X136303Y-39772D01*
X136814Y-39536D01*
X137335Y-39321D01*
X137411Y-39262D01*
X137475Y-39233D01*
X137676Y-39213D01*
X138807Y-38870D01*
X139849Y-38313D01*
X140006Y-38185D01*
X140072Y-38160D01*
X140167Y-38148D01*
X140688Y-37932D01*
X141216Y-37737D01*
X141295Y-37681D01*
X141384Y-37644D01*
X141830Y-37301D01*
X142290Y-36975D01*
X142351Y-36901D01*
X142428Y-36842D01*
X142771Y-36396D01*
X143131Y-35962D01*
X143171Y-35875D01*
X143230Y-35798D01*
X143445Y-35278D01*
X143680Y-34766D01*
X143696Y-34671D01*
X143725Y-34601D01*
X143797Y-34529D01*
X159223D01*
X159244Y-34743D01*
D02*
G37*
G36*
X247121Y-37871D02*
X247267Y-37982D01*
X247424Y-38080D01*
X247594Y-38165D01*
X247775Y-38237D01*
X247968Y-38295D01*
X248172Y-38341D01*
X248389Y-38374D01*
X248617Y-38394D01*
X248857Y-38400D01*
Y-40400D01*
X248617Y-40407D01*
X248389Y-40426D01*
X248172Y-40459D01*
X247968Y-40505D01*
X247775Y-40563D01*
X247594Y-40635D01*
X247424Y-40720D01*
X247267Y-40818D01*
X247121Y-40929D01*
X246987Y-41054D01*
Y-37747D01*
X247121Y-37871D01*
D02*
G37*
G36*
X55660Y-38423D02*
X55687Y-38707D01*
X55734Y-38980D01*
X55801Y-39244D01*
X55888Y-39497D01*
X55995Y-39740D01*
X56122Y-39972D01*
X56270Y-40195D01*
X56437Y-40408D01*
X56624Y-40610D01*
X55210Y-42024D01*
X55008Y-41837D01*
X54795Y-41670D01*
X54572Y-41522D01*
X54340Y-41395D01*
X54097Y-41288D01*
X53843Y-41201D01*
X53580Y-41134D01*
X53307Y-41087D01*
X53023Y-41060D01*
X52729Y-41053D01*
X55653Y-38129D01*
X55660Y-38423D01*
D02*
G37*
G36*
X215276Y-41762D02*
X215094Y-41769D01*
X214912Y-41794D01*
X214731Y-41836D01*
X214552Y-41895D01*
X214373Y-41973D01*
X214195Y-42068D01*
X214018Y-42180D01*
X213841Y-42310D01*
X213666Y-42457D01*
X213492Y-42623D01*
X212077Y-41208D01*
X212243Y-41034D01*
X212390Y-40859D01*
X212520Y-40683D01*
X212632Y-40505D01*
X212727Y-40327D01*
X212805Y-40148D01*
X212864Y-39969D01*
X212906Y-39788D01*
X212931Y-39606D01*
X212938Y-39424D01*
X215276Y-41762D01*
D02*
G37*
G36*
X44564Y-40421D02*
X44383Y-40641D01*
X44223Y-40868D01*
X44084Y-41101D01*
X43967Y-41342D01*
X43871Y-41589D01*
X43796Y-41844D01*
X43743Y-42106D01*
X43711Y-42374D01*
X43700Y-42650D01*
X41700D01*
X41689Y-42374D01*
X41657Y-42106D01*
X41604Y-41844D01*
X41529Y-41589D01*
X41433Y-41342D01*
X41316Y-41101D01*
X41177Y-40868D01*
X41017Y-40641D01*
X40836Y-40421D01*
X40633Y-40209D01*
X44767D01*
X44564Y-40421D01*
D02*
G37*
G36*
X74510Y-41061D02*
X74340Y-41121D01*
X74190Y-41221D01*
X74060Y-41361D01*
X73950Y-41541D01*
X73860Y-41761D01*
X73790Y-42021D01*
X73740Y-42321D01*
X73710Y-42661D01*
X73700Y-43041D01*
X71700D01*
X71690Y-42661D01*
X71660Y-42321D01*
X71610Y-42021D01*
X71540Y-41761D01*
X71450Y-41541D01*
X71340Y-41361D01*
X71210Y-41221D01*
X71060Y-41121D01*
X70890Y-41061D01*
X70700Y-41041D01*
X74700D01*
X74510Y-41061D01*
D02*
G37*
G36*
X271914Y-45000D02*
X271520Y-45014D01*
X271138Y-45057D01*
X270767Y-45127D01*
X270408Y-45226D01*
X270061Y-45354D01*
X269725Y-45509D01*
X269401Y-45693D01*
X269089Y-45905D01*
X268789Y-46145D01*
X268500Y-46414D01*
X265672D01*
X265920Y-46145D01*
X266101Y-45905D01*
X266213Y-45693D01*
X266257Y-45509D01*
X266232Y-45354D01*
X266140Y-45226D01*
X265979Y-45127D01*
X265749Y-45057D01*
X265452Y-45014D01*
X265086Y-45000D01*
X269500Y-43000D01*
X271914Y-45000D01*
D02*
G37*
G36*
X466864Y-48550D02*
X466515Y-48913D01*
X466000Y-49541D01*
X465833Y-49807D01*
X465727Y-50039D01*
X465681Y-50240D01*
X465697Y-50407D01*
X465773Y-50543D01*
X465909Y-50645D01*
X466107Y-50715D01*
X461545Y-49639D01*
X461777Y-49673D01*
X462021Y-49667D01*
X462276Y-49623D01*
X462542Y-49539D01*
X462819Y-49416D01*
X463108Y-49254D01*
X463407Y-49052D01*
X463718Y-48812D01*
X464040Y-48532D01*
X464373Y-48212D01*
X466864Y-48550D01*
D02*
G37*
G36*
X408263Y-46384D02*
X408289Y-46634D01*
X408335Y-46876D01*
X408399Y-47112D01*
X408483Y-47341D01*
X408587Y-47562D01*
X408709Y-47777D01*
X408851Y-47984D01*
X409012Y-48185D01*
X409192Y-48378D01*
X407778Y-49792D01*
X407585Y-49612D01*
X407384Y-49451D01*
X407177Y-49309D01*
X406962Y-49187D01*
X406741Y-49083D01*
X406512Y-48999D01*
X406277Y-48935D01*
X406034Y-48889D01*
X405784Y-48863D01*
X405528Y-48856D01*
X408256Y-46128D01*
X408263Y-46384D01*
D02*
G37*
G36*
X480656Y-18520D02*
X481100Y-19982D01*
X481820Y-21330D01*
X482271Y-21879D01*
Y-23203D01*
X460954Y-44520D01*
X460885Y-44570D01*
X460856Y-44598D01*
X460431D01*
X459065Y-44732D01*
X457752Y-45131D01*
X456541Y-45778D01*
X455480Y-46649D01*
X454609Y-47710D01*
X453962Y-48920D01*
X453564Y-50234D01*
X453531Y-50571D01*
X418497D01*
X413213Y-45287D01*
X413144Y-44580D01*
X412700Y-43118D01*
X411980Y-41770D01*
X411011Y-40589D01*
X409830Y-39620D01*
X408482Y-38900D01*
X407020Y-38456D01*
X405500Y-38307D01*
X403980Y-38456D01*
X402518Y-38900D01*
X401170Y-39620D01*
X399989Y-40589D01*
X399020Y-41770D01*
X398300Y-43118D01*
X397856Y-44580D01*
X397707Y-46100D01*
X397856Y-47620D01*
X398300Y-49082D01*
X399020Y-50430D01*
X399989Y-51611D01*
X401170Y-52580D01*
X402518Y-53300D01*
X403980Y-53744D01*
X404687Y-53813D01*
X411737Y-60863D01*
X411759Y-61315D01*
X405500Y-67574D01*
X356655Y-18729D01*
X356862Y-18229D01*
X480628D01*
X480656Y-18520D01*
D02*
G37*
G36*
X209346Y-46789D02*
X209105Y-47089D01*
X208893Y-47401D01*
X208709Y-47725D01*
X208554Y-48061D01*
X208426Y-48408D01*
X208327Y-48767D01*
X208257Y-49138D01*
X208214Y-49520D01*
X208200Y-49914D01*
X206200Y-51914D01*
X206180Y-51214D01*
X206156Y-50939D01*
X206121Y-50713D01*
X206077Y-50537D01*
X206023Y-50412D01*
X205959Y-50336D01*
X205885Y-50310D01*
X205801Y-50333D01*
X205707Y-50407D01*
X207200Y-47500D01*
X209614Y-46500D01*
X209346Y-46789D01*
D02*
G37*
G36*
X465549Y-55026D02*
X465759Y-55146D01*
X465987Y-55253D01*
X466233Y-55345D01*
X466495Y-55423D01*
X466775Y-55487D01*
X467072Y-55536D01*
X467387Y-55572D01*
X468067Y-55600D01*
Y-57600D01*
X467718Y-57607D01*
X467072Y-57664D01*
X466775Y-57713D01*
X466495Y-57777D01*
X466233Y-57855D01*
X465987Y-57947D01*
X465759Y-58054D01*
X465549Y-58174D01*
X465355Y-58309D01*
Y-54891D01*
X465549Y-55026D01*
D02*
G37*
G36*
X459445Y-58309D02*
X459251Y-58174D01*
X459041Y-58054D01*
X458813Y-57947D01*
X458567Y-57855D01*
X458305Y-57777D01*
X458025Y-57713D01*
X457728Y-57664D01*
X457413Y-57628D01*
X456733Y-57600D01*
Y-55600D01*
X457082Y-55593D01*
X457728Y-55536D01*
X458025Y-55487D01*
X458305Y-55423D01*
X458567Y-55345D01*
X458813Y-55253D01*
X459041Y-55146D01*
X459251Y-55026D01*
X459445Y-54891D01*
Y-58309D01*
D02*
G37*
G36*
Y-63309D02*
X459251Y-63174D01*
X459041Y-63054D01*
X458813Y-62947D01*
X458567Y-62855D01*
X458305Y-62777D01*
X458025Y-62713D01*
X457728Y-62664D01*
X457413Y-62628D01*
X456733Y-62600D01*
Y-60600D01*
X457082Y-60593D01*
X457728Y-60536D01*
X458025Y-60487D01*
X458305Y-60423D01*
X458567Y-60345D01*
X458813Y-60253D01*
X459041Y-60146D01*
X459251Y-60026D01*
X459445Y-59891D01*
Y-63309D01*
D02*
G37*
G36*
X538410Y-62494D02*
X538440Y-62836D01*
X538490Y-63138D01*
X538560Y-63400D01*
X538650Y-63621D01*
X538760Y-63802D01*
X538890Y-63943D01*
X539040Y-64043D01*
X539210Y-64104D01*
X539400Y-64124D01*
X535400D01*
X535590Y-64104D01*
X535760Y-64043D01*
X535910Y-63943D01*
X536040Y-63802D01*
X536150Y-63621D01*
X536240Y-63400D01*
X536310Y-63138D01*
X536360Y-62836D01*
X536390Y-62494D01*
X536400Y-62112D01*
X538400D01*
X538410Y-62494D01*
D02*
G37*
G36*
X287455Y-60747D02*
X287650Y-60905D01*
X287853Y-61045D01*
X288066Y-61165D01*
X288287Y-61268D01*
X288516Y-61351D01*
X288755Y-61416D01*
X289002Y-61463D01*
X289257Y-61491D01*
X289522Y-61500D01*
Y-63500D01*
X289257Y-63509D01*
X289002Y-63537D01*
X288755Y-63584D01*
X288516Y-63649D01*
X288287Y-63732D01*
X288066Y-63835D01*
X287853Y-63955D01*
X287650Y-64095D01*
X287455Y-64253D01*
X287268Y-64429D01*
Y-60571D01*
X287455Y-60747D01*
D02*
G37*
G36*
X464209Y-63578D02*
X464039Y-63638D01*
X463889Y-63739D01*
X463759Y-63880D01*
X463650Y-64061D01*
X463560Y-64283D01*
X463490Y-64545D01*
X463440Y-64848D01*
X463410Y-65190D01*
X463400Y-65573D01*
X461400D01*
X461390Y-65190D01*
X461360Y-64848D01*
X461310Y-64545D01*
X461240Y-64283D01*
X461150Y-64061D01*
X461041Y-63880D01*
X460911Y-63739D01*
X460761Y-63638D01*
X460591Y-63578D01*
X460402Y-63557D01*
X464398D01*
X464209Y-63578D01*
D02*
G37*
G36*
X489212Y-68638D02*
X489020Y-69100D01*
X484742D01*
Y-70728D01*
X472997D01*
X469296Y-67027D01*
X469320Y-66551D01*
X470191Y-65490D01*
X470838Y-64280D01*
X471236Y-62966D01*
X471269Y-62629D01*
X483203D01*
X489212Y-68638D01*
D02*
G37*
G36*
X539932Y-66730D02*
X539876Y-66914D01*
Y-67126D01*
X539932Y-67366D01*
X540045Y-67635D01*
X540215Y-67932D01*
X540442Y-68257D01*
X540724Y-68611D01*
X541460Y-69403D01*
X540045Y-70817D01*
X539635Y-70421D01*
X538900Y-69799D01*
X538575Y-69573D01*
X538278Y-69403D01*
X538009Y-69290D01*
X537769Y-69233D01*
X537557D01*
X537373Y-69290D01*
X537217Y-69403D01*
X540045Y-66575D01*
X539932Y-66730D01*
D02*
G37*
G36*
X409192Y-73822D02*
X409012Y-74015D01*
X408851Y-74216D01*
X408709Y-74423D01*
X408587Y-74638D01*
X408483Y-74859D01*
X408399Y-75088D01*
X408335Y-75323D01*
X408289Y-75566D01*
X408263Y-75816D01*
X408256Y-76072D01*
X405528Y-73344D01*
X405784Y-73337D01*
X406034Y-73311D01*
X406277Y-73265D01*
X406512Y-73201D01*
X406741Y-73117D01*
X406962Y-73013D01*
X407177Y-72891D01*
X407384Y-72749D01*
X407585Y-72588D01*
X407778Y-72408D01*
X409192Y-73822D01*
D02*
G37*
G36*
X403415Y-72588D02*
X403616Y-72749D01*
X403823Y-72891D01*
X404038Y-73013D01*
X404259Y-73117D01*
X404488Y-73201D01*
X404724Y-73265D01*
X404966Y-73311D01*
X405216Y-73337D01*
X405472Y-73344D01*
X402744Y-76072D01*
X402737Y-75816D01*
X402711Y-75566D01*
X402665Y-75323D01*
X402601Y-75088D01*
X402517Y-74859D01*
X402413Y-74638D01*
X402291Y-74423D01*
X402149Y-74216D01*
X401988Y-74015D01*
X401808Y-73822D01*
X403222Y-72408D01*
X403415Y-72588D01*
D02*
G37*
G36*
X230937Y-48263D02*
X230937Y-48263D01*
X231851Y-49013D01*
X232893Y-49570D01*
X234024Y-49913D01*
X235200Y-50029D01*
X235200Y-50029D01*
X254291D01*
X254483Y-50491D01*
X227200Y-77774D01*
X226463Y-77037D01*
X225550Y-76287D01*
X224507Y-75730D01*
X223376Y-75387D01*
X222200Y-75271D01*
X214900D01*
X214900Y-75271D01*
X213729Y-75386D01*
X213614Y-75396D01*
X213229Y-75070D01*
Y-50160D01*
X213240Y-50095D01*
X213243Y-50003D01*
X213306Y-49936D01*
X213344Y-49883D01*
X216552Y-46674D01*
X216743Y-46656D01*
X218131Y-46235D01*
X219410Y-45551D01*
X220531Y-44631D01*
X221451Y-43510D01*
X222135Y-42231D01*
X222556Y-40843D01*
X222585Y-40550D01*
X223055Y-40382D01*
X230937Y-48263D01*
D02*
G37*
G36*
X137521Y-73936D02*
X137741Y-74117D01*
X137968Y-74277D01*
X138201Y-74416D01*
X138442Y-74533D01*
X138689Y-74629D01*
X138944Y-74704D01*
X139206Y-74757D01*
X139474Y-74789D01*
X139750Y-74800D01*
Y-76800D01*
X139474Y-76811D01*
X139206Y-76843D01*
X138944Y-76896D01*
X138689Y-76971D01*
X138442Y-77067D01*
X138201Y-77184D01*
X137968Y-77323D01*
X137741Y-77483D01*
X137521Y-77664D01*
X137309Y-77867D01*
Y-73733D01*
X137521Y-73936D01*
D02*
G37*
G36*
X133091Y-77867D02*
X132879Y-77664D01*
X132659Y-77483D01*
X132432Y-77323D01*
X132199Y-77184D01*
X131958Y-77067D01*
X131711Y-76971D01*
X131456Y-76896D01*
X131194Y-76843D01*
X130926Y-76811D01*
X130650Y-76800D01*
Y-74800D01*
X130926Y-74789D01*
X131194Y-74757D01*
X131456Y-74704D01*
X131711Y-74629D01*
X131958Y-74533D01*
X132199Y-74416D01*
X132432Y-74277D01*
X132659Y-74117D01*
X132879Y-73936D01*
X133091Y-73733D01*
Y-77867D01*
D02*
G37*
G36*
X489767Y-78757D02*
X489746Y-78567D01*
X489686Y-78397D01*
X489585Y-78247D01*
X489445Y-78117D01*
X489263Y-78007D01*
X489042Y-77917D01*
X488781Y-77847D01*
X488479Y-77797D01*
X488137Y-77767D01*
X487754Y-77757D01*
Y-75757D01*
X488137Y-75747D01*
X488479Y-75717D01*
X488781Y-75667D01*
X489042Y-75597D01*
X489263Y-75507D01*
X489445Y-75397D01*
X489585Y-75267D01*
X489686Y-75117D01*
X489746Y-74947D01*
X489767Y-74757D01*
Y-78757D01*
D02*
G37*
G36*
X456371Y-68657D02*
X456487Y-69834D01*
X456830Y-70965D01*
X457387Y-72007D01*
X458137Y-72921D01*
X466237Y-81021D01*
X467150Y-81770D01*
X468193Y-82328D01*
X469151Y-82618D01*
X469077Y-83118D01*
X409852D01*
X409730Y-82633D01*
X409830Y-82580D01*
X411011Y-81611D01*
X411980Y-80430D01*
X412700Y-79082D01*
X413144Y-77620D01*
X413213Y-76913D01*
X422497Y-67629D01*
X456371D01*
Y-68657D01*
D02*
G37*
G36*
X208210Y-81741D02*
X208240Y-82084D01*
X208290Y-82385D01*
X208360Y-82647D01*
X208450Y-82868D01*
X208560Y-83049D01*
X208690Y-83190D01*
X208840Y-83291D01*
X209010Y-83351D01*
X209200Y-83371D01*
X205200D01*
X205390Y-83351D01*
X205560Y-83291D01*
X205710Y-83190D01*
X205840Y-83049D01*
X205950Y-82868D01*
X206040Y-82647D01*
X206110Y-82385D01*
X206160Y-82084D01*
X206190Y-81741D01*
X206200Y-81359D01*
X208200D01*
X208210Y-81741D01*
D02*
G37*
G36*
X44249Y-55270D02*
X45380Y-55613D01*
X46556Y-55729D01*
X201171D01*
Y-78347D01*
X199247D01*
Y-85571D01*
X196997D01*
X182963Y-71537D01*
X182050Y-70787D01*
X181007Y-70230D01*
X179876Y-69887D01*
X178700Y-69771D01*
X140390D01*
X139640Y-69156D01*
X138258Y-68417D01*
X136759Y-67962D01*
X135200Y-67809D01*
X133641Y-67962D01*
X132142Y-68417D01*
X130760Y-69156D01*
X130010Y-69771D01*
X114600D01*
X114600Y-69771D01*
X113424Y-69887D01*
X112293Y-70230D01*
X111250Y-70787D01*
X110337Y-71537D01*
X87270Y-94604D01*
X87217Y-94641D01*
X87113Y-94738D01*
X80938D01*
Y-95558D01*
X80476Y-95749D01*
X43729Y-59003D01*
Y-55478D01*
X44158Y-55221D01*
X44249Y-55270D01*
D02*
G37*
G36*
X231124Y-83790D02*
X230937Y-83992D01*
X230770Y-84205D01*
X230623Y-84427D01*
X230495Y-84660D01*
X230388Y-84903D01*
X230301Y-85157D01*
X230234Y-85420D01*
X230187Y-85693D01*
X230160Y-85977D01*
X230153Y-86270D01*
X227229Y-83347D01*
X227523Y-83340D01*
X227807Y-83313D01*
X228080Y-83266D01*
X228344Y-83199D01*
X228597Y-83112D01*
X228840Y-83005D01*
X229072Y-82877D01*
X229295Y-82730D01*
X229508Y-82563D01*
X229710Y-82376D01*
X231124Y-83790D01*
D02*
G37*
G36*
X224892Y-82563D02*
X225105Y-82730D01*
X225327Y-82877D01*
X225560Y-83005D01*
X225803Y-83112D01*
X226057Y-83199D01*
X226320Y-83266D01*
X226593Y-83313D01*
X226877Y-83340D01*
X227170Y-83347D01*
X224247Y-86270D01*
X224240Y-85977D01*
X224213Y-85693D01*
X224166Y-85420D01*
X224099Y-85157D01*
X224012Y-84903D01*
X223905Y-84660D01*
X223778Y-84427D01*
X223630Y-84205D01*
X223463Y-83992D01*
X223276Y-83790D01*
X224690Y-82376D01*
X224892Y-82563D01*
D02*
G37*
G36*
X138160Y-86123D02*
X138187Y-86407D01*
X138234Y-86680D01*
X138301Y-86944D01*
X138388Y-87197D01*
X138495Y-87440D01*
X138622Y-87673D01*
X138770Y-87895D01*
X138937Y-88108D01*
X139124Y-88310D01*
X137710Y-89724D01*
X137508Y-89537D01*
X137295Y-89370D01*
X137073Y-89223D01*
X136840Y-89095D01*
X136597Y-88988D01*
X136344Y-88901D01*
X136080Y-88834D01*
X135807Y-88787D01*
X135523Y-88760D01*
X135230Y-88753D01*
X138153Y-85830D01*
X138160Y-86123D01*
D02*
G37*
G36*
X537373Y-89100D02*
X537135Y-89107D01*
X536903Y-89133D01*
X536675Y-89178D01*
X536454Y-89241D01*
X536237Y-89324D01*
X536027Y-89425D01*
X535821Y-89545D01*
X535622Y-89684D01*
X535427Y-89842D01*
X535239Y-90018D01*
X533824Y-88604D01*
X534001Y-88415D01*
X534159Y-88221D01*
X534298Y-88021D01*
X534418Y-87816D01*
X534519Y-87605D01*
X534601Y-87389D01*
X534665Y-87167D01*
X534710Y-86940D01*
X534736Y-86707D01*
X534743Y-86469D01*
X537373Y-89100D01*
D02*
G37*
G36*
X230160Y-86623D02*
X230187Y-86907D01*
X230234Y-87180D01*
X230301Y-87444D01*
X230388Y-87697D01*
X230495Y-87940D01*
X230623Y-88173D01*
X230770Y-88395D01*
X230937Y-88608D01*
X231124Y-88810D01*
X229710Y-90224D01*
X229508Y-90037D01*
X229295Y-89870D01*
X229072Y-89723D01*
X228840Y-89595D01*
X228597Y-89488D01*
X228344Y-89401D01*
X228080Y-89334D01*
X227807Y-89287D01*
X227523Y-89260D01*
X227229Y-89253D01*
X230153Y-86330D01*
X230160Y-86623D01*
D02*
G37*
G36*
X219064Y-88621D02*
X218883Y-88841D01*
X218723Y-89068D01*
X218584Y-89301D01*
X218467Y-89542D01*
X218371Y-89789D01*
X218296Y-90044D01*
X218243Y-90306D01*
X218211Y-90574D01*
X218200Y-90850D01*
X216200D01*
X216189Y-90574D01*
X216157Y-90306D01*
X216104Y-90044D01*
X216029Y-89789D01*
X215933Y-89542D01*
X215816Y-89301D01*
X215677Y-89068D01*
X215517Y-88841D01*
X215336Y-88621D01*
X215133Y-88409D01*
X219267D01*
X219064Y-88621D01*
D02*
G37*
G36*
X397787Y-76913D02*
X397856Y-77620D01*
X398300Y-79082D01*
X399020Y-80430D01*
X399989Y-81611D01*
X401170Y-82580D01*
X401270Y-82633D01*
X401148Y-83118D01*
X348800D01*
X347624Y-83234D01*
X346493Y-83577D01*
X345450Y-84134D01*
X344537Y-84884D01*
X343787Y-85798D01*
X343230Y-86840D01*
X342887Y-87971D01*
X342771Y-89147D01*
Y-91002D01*
X342745Y-91044D01*
X342092Y-91155D01*
X341240Y-90456D01*
X339858Y-89717D01*
X338359Y-89262D01*
X337394Y-89167D01*
X306463Y-58237D01*
X306161Y-57989D01*
X306137Y-57490D01*
X329152Y-34475D01*
X329343Y-34456D01*
X330731Y-34035D01*
X332010Y-33351D01*
X333131Y-32431D01*
X334051Y-31310D01*
X334735Y-30031D01*
X335099Y-28829D01*
X349703D01*
X397787Y-76913D01*
D02*
G37*
G36*
X132670Y-91842D02*
X133407Y-92467D01*
X133733Y-92694D01*
X134030Y-92865D01*
X134299Y-92980D01*
X134539Y-93037D01*
X134750Y-93039D01*
X134933Y-92983D01*
X135088Y-92871D01*
X132271Y-95688D01*
X132383Y-95533D01*
X132439Y-95350D01*
X132437Y-95139D01*
X132380Y-94899D01*
X132265Y-94630D01*
X132094Y-94333D01*
X131867Y-94007D01*
X131583Y-93653D01*
X130845Y-92859D01*
X132259Y-91445D01*
X132670Y-91842D01*
D02*
G37*
G36*
X288063Y-92784D02*
X288089Y-93034D01*
X288135Y-93277D01*
X288199Y-93512D01*
X288283Y-93741D01*
X288387Y-93962D01*
X288509Y-94177D01*
X288651Y-94384D01*
X288812Y-94585D01*
X288992Y-94778D01*
X287578Y-96192D01*
X287385Y-96012D01*
X287184Y-95851D01*
X286977Y-95709D01*
X286762Y-95587D01*
X286541Y-95483D01*
X286312Y-95399D01*
X286076Y-95335D01*
X285834Y-95289D01*
X285584Y-95263D01*
X285328Y-95256D01*
X288056Y-92528D01*
X288063Y-92784D01*
D02*
G37*
G36*
X490427Y-93044D02*
X490622Y-93201D01*
X490822Y-93340D01*
X491027Y-93461D01*
X491237Y-93562D01*
X491454Y-93644D01*
X491675Y-93708D01*
X491903Y-93752D01*
X492135Y-93778D01*
X492373Y-93785D01*
X489743Y-96416D01*
X489736Y-96178D01*
X489710Y-95945D01*
X489665Y-95718D01*
X489602Y-95496D01*
X489519Y-95280D01*
X489418Y-95069D01*
X489298Y-94864D01*
X489159Y-94664D01*
X489001Y-94470D01*
X488824Y-94281D01*
X490239Y-92867D01*
X490427Y-93044D01*
D02*
G37*
G36*
X349800Y-93156D02*
X349706Y-96576D01*
X346708Y-94149D01*
X346915Y-94126D01*
X347101Y-94074D01*
X347265Y-93990D01*
X347407Y-93876D01*
X347527Y-93732D01*
X347625Y-93557D01*
X347702Y-93351D01*
X347756Y-93115D01*
X347789Y-92848D01*
X347800Y-92550D01*
X349800Y-93156D01*
D02*
G37*
G36*
X334492Y-93363D02*
X334705Y-93530D01*
X334928Y-93678D01*
X335160Y-93805D01*
X335403Y-93912D01*
X335656Y-93999D01*
X335920Y-94066D01*
X336193Y-94113D01*
X336477Y-94140D01*
X336771Y-94147D01*
X333847Y-97070D01*
X333840Y-96777D01*
X333813Y-96493D01*
X333766Y-96220D01*
X333699Y-95956D01*
X333612Y-95703D01*
X333505Y-95460D01*
X333378Y-95227D01*
X333230Y-95005D01*
X333063Y-94792D01*
X332876Y-94590D01*
X334290Y-93176D01*
X334492Y-93363D01*
D02*
G37*
G36*
X328867Y-97694D02*
X328962Y-98659D01*
X329148Y-99269D01*
X328850Y-99671D01*
X300997D01*
X293013Y-91687D01*
X292944Y-90980D01*
X292500Y-89518D01*
X291780Y-88170D01*
X290811Y-86989D01*
X289630Y-86020D01*
X288282Y-85300D01*
X286820Y-84856D01*
X286529Y-84828D01*
Y-70172D01*
X286820Y-70144D01*
X288282Y-69700D01*
X289630Y-68980D01*
X290179Y-68529D01*
X299703D01*
X328867Y-97694D01*
D02*
G37*
G36*
X92064Y-99750D02*
X91667Y-100161D01*
X91043Y-100898D01*
X90815Y-101224D01*
X90644Y-101521D01*
X90530Y-101789D01*
X90472Y-102029D01*
X90471Y-102241D01*
X90526Y-102424D01*
X90638Y-102578D01*
X87822Y-99762D01*
X87976Y-99874D01*
X88159Y-99929D01*
X88371Y-99928D01*
X88611Y-99870D01*
X88879Y-99756D01*
X89176Y-99585D01*
X89502Y-99357D01*
X89856Y-99073D01*
X90650Y-98336D01*
X92064Y-99750D01*
D02*
G37*
G36*
X492373Y-99100D02*
X492135Y-99107D01*
X491903Y-99133D01*
X491675Y-99177D01*
X491454Y-99241D01*
X491237Y-99323D01*
X491027Y-99425D01*
X490822Y-99545D01*
X490622Y-99684D01*
X490427Y-99841D01*
X490239Y-100018D01*
X488824Y-98604D01*
X489001Y-98415D01*
X489159Y-98221D01*
X489298Y-98021D01*
X489418Y-97816D01*
X489519Y-97605D01*
X489602Y-97389D01*
X489665Y-97167D01*
X489710Y-96940D01*
X489736Y-96707D01*
X489743Y-96469D01*
X492373Y-99100D01*
D02*
G37*
G36*
X135088Y-98741D02*
X137200D01*
X137010Y-98761D01*
X136840Y-98821D01*
X136690Y-98921D01*
X136560Y-99061D01*
X136450Y-99241D01*
X136360Y-99461D01*
X136290Y-99721D01*
X136240Y-100021D01*
X136210Y-100361D01*
X136200Y-100741D01*
X134200D01*
X134190Y-100361D01*
X134160Y-100021D01*
X134110Y-99721D01*
X134040Y-99461D01*
X133950Y-99241D01*
X133840Y-99061D01*
X133712Y-98923D01*
X133405Y-99137D01*
X133051Y-99420D01*
X132259Y-100155D01*
X130845Y-98741D01*
X131241Y-98331D01*
X131863Y-97595D01*
X132089Y-97270D01*
X132259Y-96973D01*
X132372Y-96704D01*
X132429Y-96464D01*
Y-96252D01*
X132372Y-96068D01*
X132259Y-95912D01*
X135088Y-98741D01*
D02*
G37*
G36*
X358664Y-99421D02*
X358483Y-99641D01*
X358323Y-99868D01*
X358184Y-100101D01*
X358067Y-100342D01*
X357971Y-100590D01*
X357896Y-100844D01*
X357843Y-101106D01*
X357811Y-101374D01*
X357800Y-101650D01*
X355800D01*
X355789Y-101374D01*
X355757Y-101106D01*
X355704Y-100844D01*
X355629Y-100590D01*
X355533Y-100342D01*
X355416Y-100101D01*
X355277Y-99868D01*
X355117Y-99641D01*
X354936Y-99421D01*
X354733Y-99209D01*
X358867D01*
X358664Y-99421D01*
D02*
G37*
G36*
X124171Y-90800D02*
X124287Y-91976D01*
X124630Y-93107D01*
X125187Y-94150D01*
X125937Y-95063D01*
X126674Y-95800D01*
X116403Y-106071D01*
X95662D01*
Y-103284D01*
X95692Y-103253D01*
X95745Y-103181D01*
X117097Y-81829D01*
X124171D01*
Y-90800D01*
D02*
G37*
G36*
X211171Y-107691D02*
X210709Y-107883D01*
X200917Y-98091D01*
X201109Y-97629D01*
X211171D01*
Y-107691D01*
D02*
G37*
G36*
X296083Y-50491D02*
X294903Y-51671D01*
X280500D01*
X279324Y-51787D01*
X278193Y-52130D01*
X277151Y-52687D01*
X276237Y-53437D01*
X275487Y-54351D01*
X274930Y-55393D01*
X274587Y-56524D01*
X274471Y-57700D01*
Y-100700D01*
X274587Y-101876D01*
X274930Y-103007D01*
X275487Y-104050D01*
X276237Y-104963D01*
X280883Y-109609D01*
X280691Y-110071D01*
X258200D01*
X257024Y-110187D01*
X255893Y-110530D01*
X255758Y-110602D01*
X255329Y-110345D01*
Y-108400D01*
X255213Y-107224D01*
X254870Y-106093D01*
X254313Y-105051D01*
X253563Y-104137D01*
X235726Y-86300D01*
X271883Y-50144D01*
X271936Y-50106D01*
X272003Y-50043D01*
X272095Y-50040D01*
X272160Y-50029D01*
X295891D01*
X296083Y-50491D01*
D02*
G37*
G36*
X86666Y-109043D02*
X86841Y-109190D01*
X87018Y-109320D01*
X87195Y-109432D01*
X87373Y-109527D01*
X87552Y-109605D01*
X87731Y-109664D01*
X87912Y-109706D01*
X88094Y-109731D01*
X88276Y-109738D01*
X85938Y-112076D01*
X85931Y-111894D01*
X85906Y-111712D01*
X85864Y-111531D01*
X85805Y-111352D01*
X85727Y-111173D01*
X85632Y-110995D01*
X85520Y-110818D01*
X85390Y-110641D01*
X85243Y-110466D01*
X85077Y-110292D01*
X86492Y-108877D01*
X86666Y-109043D01*
D02*
G37*
G36*
X90121Y-110571D02*
X90267Y-110682D01*
X90424Y-110780D01*
X90594Y-110865D01*
X90775Y-110937D01*
X90968Y-110995D01*
X91172Y-111041D01*
X91389Y-111074D01*
X91617Y-111093D01*
X91857Y-111100D01*
Y-113100D01*
X91617Y-113107D01*
X91389Y-113126D01*
X91172Y-113159D01*
X90968Y-113205D01*
X90775Y-113263D01*
X90594Y-113335D01*
X90424Y-113420D01*
X90267Y-113518D01*
X90121Y-113629D01*
X89987Y-113753D01*
Y-110447D01*
X90121Y-110571D01*
D02*
G37*
G36*
X250307Y-121683D02*
X250326Y-121911D01*
X250359Y-122127D01*
X250405Y-122332D01*
X250405Y-122333D01*
X250405Y-122333D01*
X250583Y-122220D01*
X250759Y-122090D01*
X250934Y-121943D01*
X251108Y-121777D01*
X252523Y-123192D01*
X252357Y-123366D01*
X252210Y-123541D01*
X252080Y-123717D01*
X251968Y-123895D01*
X251873Y-124073D01*
X251795Y-124252D01*
X251736Y-124431D01*
X251694Y-124612D01*
X251669Y-124794D01*
X251662Y-124976D01*
X249999Y-123313D01*
X247646D01*
X247771Y-123179D01*
X247882Y-123033D01*
X247980Y-122876D01*
X248065Y-122706D01*
X248137Y-122525D01*
X248195Y-122332D01*
X248241Y-122127D01*
X248274Y-121911D01*
X248293Y-121683D01*
X248300Y-121443D01*
X250300D01*
X250307Y-121683D01*
D02*
G37*
G36*
X367811Y-122826D02*
X367843Y-123094D01*
X367896Y-123356D01*
X367971Y-123610D01*
X368067Y-123858D01*
X368184Y-124099D01*
X368323Y-124332D01*
X368483Y-124559D01*
X368664Y-124779D01*
X368867Y-124991D01*
X364733D01*
X364936Y-124779D01*
X365117Y-124559D01*
X365277Y-124332D01*
X365416Y-124099D01*
X365533Y-123858D01*
X365629Y-123610D01*
X365704Y-123356D01*
X365757Y-123094D01*
X365789Y-122826D01*
X365800Y-122550D01*
X367800D01*
X367811Y-122826D01*
D02*
G37*
G36*
X90669Y-122306D02*
X90694Y-122488D01*
X90736Y-122669D01*
X90795Y-122848D01*
X90873Y-123027D01*
X90968Y-123205D01*
X91080Y-123382D01*
X91210Y-123559D01*
X91357Y-123734D01*
X91523Y-123908D01*
X90108Y-125323D01*
X89934Y-125157D01*
X89759Y-125010D01*
X89583Y-124880D01*
X89405Y-124767D01*
X89227Y-124673D01*
X89048Y-124595D01*
X88869Y-124536D01*
X88688Y-124494D01*
X88506Y-124469D01*
X88324Y-124462D01*
X90662Y-122124D01*
X90669Y-122306D01*
D02*
G37*
G36*
X354492Y-123363D02*
X354705Y-123530D01*
X354927Y-123678D01*
X355160Y-123805D01*
X355403Y-123912D01*
X355657Y-123999D01*
X355920Y-124066D01*
X356193Y-124113D01*
X356477Y-124140D01*
X356770Y-124147D01*
X353847Y-127070D01*
X353840Y-126777D01*
X353813Y-126493D01*
X353766Y-126220D01*
X353699Y-125956D01*
X353612Y-125703D01*
X353505Y-125460D01*
X353378Y-125227D01*
X353230Y-125005D01*
X353063Y-124792D01*
X352876Y-124590D01*
X354290Y-123176D01*
X354492Y-123363D01*
D02*
G37*
G36*
X249276Y-127362D02*
X249094Y-127369D01*
X248912Y-127394D01*
X248731Y-127436D01*
X248552Y-127495D01*
X248373Y-127573D01*
X248195Y-127667D01*
X248018Y-127780D01*
X247841Y-127910D01*
X247666Y-128057D01*
X247492Y-128223D01*
X246077Y-126808D01*
X246243Y-126634D01*
X246390Y-126459D01*
X246520Y-126283D01*
X246633Y-126105D01*
X246727Y-125927D01*
X246805Y-125748D01*
X246864Y-125569D01*
X246906Y-125388D01*
X246931Y-125206D01*
X246938Y-125024D01*
X249276Y-127362D01*
D02*
G37*
G36*
X336688Y-130041D02*
X336532Y-129928D01*
X336348Y-129871D01*
X336136D01*
X335896Y-129928D01*
X335627Y-130041D01*
X335330Y-130210D01*
X335005Y-130437D01*
X334651Y-130720D01*
X333859Y-131455D01*
X332445Y-130041D01*
X332841Y-129631D01*
X333463Y-128895D01*
X333689Y-128570D01*
X333859Y-128273D01*
X333972Y-128004D01*
X334029Y-127764D01*
Y-127552D01*
X333972Y-127368D01*
X333859Y-127212D01*
X336688Y-130041D01*
D02*
G37*
G36*
X348664Y-129421D02*
X348483Y-129641D01*
X348323Y-129868D01*
X348184Y-130101D01*
X348067Y-130342D01*
X347971Y-130589D01*
X347896Y-130844D01*
X347843Y-131106D01*
X347811Y-131374D01*
X347800Y-131650D01*
X345800D01*
X345789Y-131374D01*
X345757Y-131106D01*
X345704Y-130844D01*
X345629Y-130589D01*
X345533Y-130342D01*
X345416Y-130101D01*
X345277Y-129868D01*
X345117Y-129641D01*
X344936Y-129421D01*
X344733Y-129209D01*
X348867D01*
X348664Y-129421D01*
D02*
G37*
G36*
X372800Y-131600D02*
X370800Y-136014D01*
X370787Y-135647D01*
X370748Y-135346D01*
X370684Y-135111D01*
X370593Y-134941D01*
X370477Y-134837D01*
X370335Y-134800D01*
X370166Y-134828D01*
X369973Y-134922D01*
X369753Y-135082D01*
X369507Y-135307D01*
X369386Y-132600D01*
X369654Y-132311D01*
X369895Y-132011D01*
X370107Y-131699D01*
X370291Y-131375D01*
X370446Y-131039D01*
X370574Y-130692D01*
X370673Y-130333D01*
X370743Y-129962D01*
X370786Y-129580D01*
X370800Y-129186D01*
X372800Y-131600D01*
D02*
G37*
G36*
X176371Y-135497D02*
Y-137831D01*
X175874Y-138029D01*
X175798Y-137970D01*
X175278Y-137755D01*
X174766Y-137520D01*
X174671Y-137504D01*
X174601Y-137475D01*
X141229Y-104103D01*
Y-101735D01*
X141326Y-101576D01*
X141507Y-101341D01*
X141800Y-101254D01*
X142117Y-101243D01*
X176371Y-135497D01*
D02*
G37*
G36*
X130032Y-109901D02*
X130231Y-110003D01*
X130937Y-110863D01*
X158283Y-138209D01*
X158091Y-138671D01*
X154597D01*
X151963Y-136037D01*
X151049Y-135287D01*
X150007Y-134730D01*
X148876Y-134387D01*
X147700Y-134271D01*
X138900D01*
X137724Y-134387D01*
X136593Y-134730D01*
X135550Y-135287D01*
X134637Y-136037D01*
X123391Y-147283D01*
X122929Y-147091D01*
Y-136600D01*
X122813Y-135424D01*
X122470Y-134293D01*
X121913Y-133250D01*
X121163Y-132337D01*
X121163Y-132337D01*
X107417Y-118591D01*
X107609Y-118129D01*
X118900D01*
X120076Y-118013D01*
X121207Y-117670D01*
X122249Y-117113D01*
X123163Y-116363D01*
X129678Y-109849D01*
X130032Y-109901D01*
D02*
G37*
G36*
X328183Y-127191D02*
X309703Y-145671D01*
X276009D01*
X275817Y-145209D01*
X294297Y-126729D01*
X327991D01*
X328183Y-127191D01*
D02*
G37*
G36*
X171666Y-141643D02*
X171841Y-141790D01*
X172018Y-141920D01*
X172195Y-142033D01*
X172373Y-142127D01*
X172552Y-142205D01*
X172731Y-142264D01*
X172912Y-142306D01*
X173094Y-142331D01*
X173276Y-142338D01*
X171613Y-144001D01*
Y-145399D01*
X173276Y-147062D01*
X173094Y-147069D01*
X172912Y-147094D01*
X172731Y-147136D01*
X172552Y-147195D01*
X172373Y-147273D01*
X172195Y-147368D01*
X172018Y-147480D01*
X171841Y-147610D01*
X171666Y-147757D01*
X171492Y-147923D01*
X170077Y-146508D01*
X170243Y-146334D01*
X170390Y-146159D01*
X170520Y-145983D01*
X170633Y-145805D01*
X170633Y-145805D01*
X170632Y-145805D01*
X170428Y-145759D01*
X170211Y-145726D01*
X169983Y-145706D01*
X169743Y-145700D01*
Y-143700D01*
X169983Y-143693D01*
X170211Y-143674D01*
X170428Y-143641D01*
X170632Y-143595D01*
X170633Y-143595D01*
X170633Y-143595D01*
X170520Y-143418D01*
X170390Y-143241D01*
X170243Y-143066D01*
X170077Y-142892D01*
X171492Y-141477D01*
X171666Y-141643D01*
D02*
G37*
G36*
X145669Y-144906D02*
X145694Y-145088D01*
X145736Y-145269D01*
X145795Y-145448D01*
X145873Y-145627D01*
X145967Y-145805D01*
X146080Y-145983D01*
X146210Y-146159D01*
X146357Y-146334D01*
X146523Y-146508D01*
X145108Y-147923D01*
X144934Y-147757D01*
X144759Y-147610D01*
X144582Y-147480D01*
X144405Y-147368D01*
X144227Y-147273D01*
X144048Y-147195D01*
X143869Y-147136D01*
X143688Y-147094D01*
X143506Y-147069D01*
X143324Y-147062D01*
X145662Y-144724D01*
X145669Y-144906D01*
D02*
G37*
G36*
X528410Y-147041D02*
X528440Y-147384D01*
X528490Y-147685D01*
X528560Y-147947D01*
X528650Y-148168D01*
X528760Y-148349D01*
X528890Y-148490D01*
X529040Y-148591D01*
X529210Y-148651D01*
X529400Y-148671D01*
X525400D01*
X525590Y-148651D01*
X525760Y-148591D01*
X525910Y-148490D01*
X526040Y-148349D01*
X526150Y-148168D01*
X526240Y-147947D01*
X526310Y-147685D01*
X526360Y-147384D01*
X526390Y-147041D01*
X526400Y-146659D01*
X528400D01*
X528410Y-147041D01*
D02*
G37*
G36*
X518411Y-147326D02*
X518443Y-147594D01*
X518496Y-147856D01*
X518571Y-148110D01*
X518667Y-148358D01*
X518784Y-148599D01*
X518923Y-148832D01*
X519083Y-149059D01*
X519264Y-149279D01*
X519467Y-149491D01*
X515333D01*
X515536Y-149279D01*
X515717Y-149059D01*
X515877Y-148832D01*
X516016Y-148599D01*
X516133Y-148358D01*
X516229Y-148110D01*
X516304Y-147856D01*
X516357Y-147594D01*
X516389Y-147326D01*
X516400Y-147050D01*
X518400D01*
X518411Y-147326D01*
D02*
G37*
G36*
X491071Y-106951D02*
Y-145426D01*
X483891Y-152606D01*
X483429Y-152415D01*
Y-113940D01*
X490609Y-106760D01*
X491071Y-106951D01*
D02*
G37*
G36*
X517371Y-154553D02*
X517077Y-154560D01*
X516793Y-154587D01*
X516520Y-154634D01*
X516257Y-154701D01*
X516003Y-154788D01*
X515760Y-154895D01*
X515527Y-155023D01*
X515305Y-155170D01*
X515092Y-155337D01*
X514890Y-155524D01*
X513476Y-154110D01*
X513663Y-153908D01*
X513830Y-153695D01*
X513977Y-153472D01*
X514105Y-153240D01*
X514212Y-152997D01*
X514299Y-152743D01*
X514366Y-152480D01*
X514413Y-152207D01*
X514440Y-151923D01*
X514447Y-151629D01*
X517371Y-154553D01*
D02*
G37*
G36*
X558409Y-157643D02*
X558437Y-157898D01*
X558484Y-158145D01*
X558549Y-158384D01*
X558632Y-158613D01*
X558735Y-158834D01*
X558855Y-159047D01*
X558995Y-159250D01*
X559153Y-159445D01*
X559329Y-159632D01*
X555471D01*
X555647Y-159445D01*
X555805Y-159250D01*
X555945Y-159047D01*
X556066Y-158834D01*
X556168Y-158613D01*
X556251Y-158384D01*
X556316Y-158145D01*
X556363Y-157898D01*
X556391Y-157643D01*
X556400Y-157378D01*
X558400D01*
X558409Y-157643D01*
D02*
G37*
G36*
X486324Y-160113D02*
X486137Y-160316D01*
X485970Y-160528D01*
X485822Y-160751D01*
X485695Y-160984D01*
X485588Y-161227D01*
X485501Y-161480D01*
X485434Y-161743D01*
X485387Y-162017D01*
X485360Y-162300D01*
X485353Y-162594D01*
X482430Y-159671D01*
X482723Y-159664D01*
X483007Y-159637D01*
X483280Y-159590D01*
X483543Y-159523D01*
X483797Y-159435D01*
X484040Y-159328D01*
X484272Y-159201D01*
X484495Y-159054D01*
X484708Y-158887D01*
X484910Y-158699D01*
X486324Y-160113D01*
D02*
G37*
G36*
X511371Y-40097D02*
Y-146439D01*
X511330Y-146495D01*
X510966Y-146970D01*
X510942Y-147026D01*
X510907Y-147075D01*
X510691Y-147633D01*
X510462Y-148186D01*
X510454Y-148246D01*
X510432Y-148303D01*
X510390Y-148696D01*
X510142Y-149004D01*
X510117Y-149060D01*
X510080Y-149108D01*
X509851Y-149661D01*
X509609Y-150208D01*
X509599Y-150268D01*
X509576Y-150324D01*
X509498Y-150918D01*
X509487Y-150986D01*
X495217Y-165256D01*
X495164Y-165294D01*
X495097Y-165357D01*
X495005Y-165360D01*
X494940Y-165371D01*
X490297D01*
X489999Y-164969D01*
X490238Y-164183D01*
X490333Y-163217D01*
X501363Y-152187D01*
X502113Y-151273D01*
X502670Y-150231D01*
X503013Y-149100D01*
X503129Y-147924D01*
Y-68000D01*
X503013Y-66824D01*
X502670Y-65693D01*
X502113Y-64650D01*
X501363Y-63737D01*
X501363Y-63737D01*
X489963Y-52337D01*
X489049Y-51587D01*
X488007Y-51030D01*
X486876Y-50687D01*
X485700Y-50571D01*
X472609D01*
X472417Y-50109D01*
X492563Y-29963D01*
X493313Y-29050D01*
X493870Y-28007D01*
X494213Y-26876D01*
X494329Y-25700D01*
Y-23709D01*
X494791Y-23517D01*
X511371Y-40097D01*
D02*
G37*
G36*
X574552Y-346953D02*
X481165D01*
X480997Y-346482D01*
X481263Y-346263D01*
X498242Y-329284D01*
X498678Y-329227D01*
X498742Y-329201D01*
X498810Y-329190D01*
X499349Y-328949D01*
X499894Y-328723D01*
X499949Y-328681D01*
X500012Y-328653D01*
X500470Y-328281D01*
X500939Y-327922D01*
X500981Y-327867D01*
X501035Y-327823D01*
X501381Y-327345D01*
X501740Y-326877D01*
X501766Y-326813D01*
X501807Y-326757D01*
X502015Y-326215D01*
X502557Y-326007D01*
X502613Y-325967D01*
X502677Y-325940D01*
X503145Y-325581D01*
X503623Y-325235D01*
X503667Y-325181D01*
X503722Y-325138D01*
X504081Y-324670D01*
X504453Y-324213D01*
X504481Y-324149D01*
X504523Y-324094D01*
X504749Y-323549D01*
X504990Y-323010D01*
X505000Y-322942D01*
X505027Y-322878D01*
X505084Y-322442D01*
X514897Y-312629D01*
X536767D01*
X536823Y-312639D01*
X537194Y-312654D01*
X537223Y-312677D01*
X537636Y-312847D01*
X538032Y-313052D01*
X538241Y-313098D01*
X538440Y-313180D01*
X538882Y-313239D01*
X539318Y-313334D01*
X539532Y-313324D01*
X539745Y-313352D01*
X540187Y-313294D01*
X540633Y-313273D01*
X540838Y-313208D01*
X541050Y-313180D01*
X541462Y-313010D01*
X541888Y-312874D01*
X542068Y-312758D01*
X542266Y-312677D01*
X542328Y-312629D01*
X542700D01*
X543876Y-312513D01*
X545007Y-312170D01*
X546049Y-311613D01*
X546963Y-310863D01*
X547713Y-309949D01*
X548270Y-308907D01*
X548613Y-307776D01*
X548656Y-307342D01*
X549620Y-306551D01*
X550491Y-305490D01*
X551138Y-304280D01*
X551536Y-302966D01*
X551671Y-301600D01*
X551603Y-300912D01*
X551663Y-300863D01*
X561663Y-290863D01*
X561663Y-290863D01*
X562413Y-289949D01*
X562970Y-288907D01*
X563313Y-287776D01*
X563429Y-286600D01*
X563429Y-286600D01*
Y-196479D01*
X563880Y-195930D01*
X564600Y-194582D01*
X565044Y-193120D01*
X565193Y-191600D01*
X565044Y-190080D01*
X564600Y-188618D01*
X563880Y-187270D01*
X562911Y-186089D01*
X561730Y-185120D01*
X560382Y-184400D01*
X558920Y-183956D01*
X557400Y-183807D01*
X555880Y-183956D01*
X554418Y-184400D01*
X553070Y-185120D01*
X551889Y-186089D01*
X550920Y-187270D01*
X550200Y-188618D01*
X549756Y-190080D01*
X549607Y-191600D01*
X549756Y-193120D01*
X550200Y-194582D01*
X550920Y-195930D01*
X551371Y-196479D01*
Y-284103D01*
X545768Y-289706D01*
X544668Y-289598D01*
X540731D01*
X539365Y-289732D01*
X538052Y-290131D01*
X536841Y-290778D01*
X535780Y-291649D01*
X534909Y-292710D01*
X534262Y-293920D01*
X533864Y-295234D01*
X533831Y-295571D01*
X462109D01*
X461917Y-295109D01*
X471663Y-285363D01*
X472413Y-284450D01*
X472970Y-283407D01*
X473313Y-282276D01*
X473429Y-281100D01*
X473429Y-281100D01*
Y-256479D01*
X473880Y-255930D01*
X474600Y-254582D01*
X475044Y-253120D01*
X475193Y-251600D01*
X475044Y-250080D01*
X474600Y-248618D01*
X473880Y-247270D01*
X473429Y-246721D01*
Y-244535D01*
X473437Y-244526D01*
X473994Y-243484D01*
X474337Y-242353D01*
X474453Y-241176D01*
Y-239553D01*
X476376D01*
Y-223647D01*
X460471D01*
Y-239553D01*
X461511D01*
X461781Y-240053D01*
X461487Y-241024D01*
X461371Y-242200D01*
Y-246721D01*
X460920Y-247270D01*
X460200Y-248618D01*
X459756Y-250080D01*
X459607Y-251600D01*
X459756Y-253120D01*
X460200Y-254582D01*
X460920Y-255930D01*
X461371Y-256479D01*
Y-278603D01*
X438891Y-301083D01*
X438429Y-300891D01*
Y-259292D01*
X438920Y-259244D01*
X440382Y-258800D01*
X441730Y-258080D01*
X442911Y-257111D01*
X443880Y-255930D01*
X444600Y-254582D01*
X445044Y-253120D01*
X445113Y-252413D01*
X446663Y-250863D01*
X447413Y-249950D01*
X447970Y-248907D01*
X448313Y-247776D01*
X448429Y-246600D01*
Y-204100D01*
X450058D01*
Y-190329D01*
X474447D01*
Y-198529D01*
X476371D01*
Y-217624D01*
X476487Y-218800D01*
X476830Y-219931D01*
X477387Y-220973D01*
X478137Y-221887D01*
X488444Y-232194D01*
X488539Y-233159D01*
X488994Y-234658D01*
X489732Y-236040D01*
X490726Y-237251D01*
X491937Y-238245D01*
X493318Y-238983D01*
X494817Y-239438D01*
X496376Y-239591D01*
X497935Y-239438D01*
X499435Y-238983D01*
X500816Y-238245D01*
X502027Y-237251D01*
X503021Y-236040D01*
X503759Y-234658D01*
X504214Y-233159D01*
X504368Y-231600D01*
X504214Y-230041D01*
X503759Y-228542D01*
X503021Y-227160D01*
X502027Y-225949D01*
X500816Y-224956D01*
X499435Y-224217D01*
X497935Y-223762D01*
X496970Y-223667D01*
X488429Y-215126D01*
Y-198529D01*
X490353D01*
Y-187174D01*
X501863Y-175663D01*
X501863Y-175663D01*
X518014Y-159513D01*
X518082Y-159502D01*
X518676Y-159424D01*
X518732Y-159401D01*
X518792Y-159391D01*
X518947Y-159323D01*
X519447Y-159553D01*
Y-159553D01*
X535353D01*
Y-143647D01*
X533429D01*
Y-98940D01*
X538323Y-94046D01*
X538901Y-93989D01*
X540345Y-93551D01*
X541675Y-92840D01*
X542841Y-91883D01*
X543798Y-90717D01*
X544509Y-89387D01*
X544947Y-87944D01*
X545094Y-86443D01*
X544947Y-84942D01*
X544509Y-83498D01*
X544051Y-82642D01*
X544457Y-82341D01*
X551371Y-89255D01*
Y-156721D01*
X550920Y-157270D01*
X550200Y-158618D01*
X549756Y-160080D01*
X549607Y-161600D01*
X549756Y-163120D01*
X550200Y-164582D01*
X550920Y-165930D01*
X551889Y-167111D01*
X553070Y-168080D01*
X554418Y-168800D01*
X555880Y-169244D01*
X557400Y-169393D01*
X558920Y-169244D01*
X560382Y-168800D01*
X561730Y-168080D01*
X562911Y-167111D01*
X563880Y-165930D01*
X564600Y-164582D01*
X565044Y-163120D01*
X565193Y-161600D01*
X565044Y-160080D01*
X564600Y-158618D01*
X563880Y-157270D01*
X563429Y-156721D01*
Y-86757D01*
X563313Y-85581D01*
X562970Y-84450D01*
X562413Y-83408D01*
X561663Y-82494D01*
X545192Y-66023D01*
X545155Y-65971D01*
X545057Y-65866D01*
Y-59100D01*
X543429D01*
Y-36100D01*
X543313Y-34924D01*
X542970Y-33793D01*
X542413Y-32750D01*
X541663Y-31837D01*
X526013Y-16187D01*
X525944Y-15480D01*
X525500Y-14018D01*
X524780Y-12670D01*
X523811Y-11489D01*
X522630Y-10520D01*
X521282Y-9800D01*
X519820Y-9356D01*
X518300Y-9207D01*
X516780Y-9356D01*
X515318Y-9800D01*
X513970Y-10520D01*
X512789Y-11489D01*
X511820Y-12670D01*
X511100Y-14018D01*
X510656Y-15480D01*
X510507Y-17000D01*
X510656Y-18520D01*
X511100Y-19982D01*
X511820Y-21330D01*
X512789Y-22511D01*
X513970Y-23480D01*
X515318Y-24200D01*
X516780Y-24644D01*
X517487Y-24713D01*
X531371Y-38597D01*
Y-59100D01*
X529742D01*
Y-74415D01*
X536511D01*
X536543Y-74445D01*
X536615Y-74499D01*
X541502Y-79385D01*
X541200Y-79791D01*
X540345Y-79334D01*
X538901Y-78896D01*
X537400Y-78748D01*
X535899Y-78896D01*
X534455Y-79334D01*
X533125Y-80045D01*
X531959Y-81002D01*
X531002Y-82168D01*
X530291Y-83498D01*
X529853Y-84942D01*
X529796Y-85520D01*
X523891Y-91425D01*
X523429Y-91234D01*
Y-37600D01*
X523313Y-36424D01*
X522970Y-35293D01*
X522413Y-34251D01*
X521663Y-33337D01*
X521663Y-33337D01*
X496263Y-7937D01*
X495350Y-7187D01*
X494307Y-6630D01*
X493176Y-6287D01*
X492000Y-6171D01*
X322900D01*
X321724Y-6287D01*
X320593Y-6630D01*
X319550Y-7187D01*
X318637Y-7937D01*
X306870Y-19704D01*
X306817Y-19741D01*
X306667Y-19881D01*
X306626Y-19882D01*
X306376Y-19956D01*
X306117Y-19990D01*
X305748Y-20143D01*
X305365Y-20257D01*
X305142Y-20394D01*
X304900Y-20494D01*
X304583Y-20738D01*
X304243Y-20947D01*
X304063Y-21137D01*
X303856Y-21296D01*
X303613Y-21613D01*
X303338Y-21903D01*
X303214Y-22133D01*
X303054Y-22340D01*
X303053Y-22344D01*
X303028Y-22354D01*
X302817Y-22516D01*
X302584Y-22643D01*
X302297Y-22915D01*
X301984Y-23156D01*
X301822Y-23367D01*
X301629Y-23550D01*
X301423Y-23887D01*
X301182Y-24200D01*
X301080Y-24446D01*
X300942Y-24673D01*
X300830Y-25052D01*
X300678Y-25416D01*
X300644Y-25680D01*
X300568Y-25935D01*
X300567Y-25986D01*
X300508Y-26047D01*
X300454Y-26120D01*
X293203Y-33371D01*
X249489D01*
X249419Y-33342D01*
X249340Y-33286D01*
X248812Y-33091D01*
X248292Y-32875D01*
X248196Y-32862D01*
X248106Y-32829D01*
X248025Y-32821D01*
X247962Y-32770D01*
X247874Y-32729D01*
X247798Y-32670D01*
X247278Y-32455D01*
X246766Y-32220D01*
X246671Y-32204D01*
X246601Y-32175D01*
X238663Y-24237D01*
X237750Y-23487D01*
X236707Y-22930D01*
X235576Y-22587D01*
X234400Y-22471D01*
X141300D01*
X141300Y-22471D01*
X140124Y-22587D01*
X138993Y-22930D01*
X137951Y-23487D01*
X137037Y-24237D01*
X137037Y-24237D01*
X135199Y-26075D01*
X135129Y-26104D01*
X135034Y-26120D01*
X134522Y-26355D01*
X134002Y-26570D01*
X133925Y-26629D01*
X133838Y-26669D01*
X133775Y-26721D01*
X133694Y-26729D01*
X133604Y-26763D01*
X133508Y-26775D01*
X132988Y-26991D01*
X132460Y-27186D01*
X132381Y-27242D01*
X132311Y-27271D01*
X77500D01*
X77500Y-27271D01*
X76324Y-27387D01*
X75193Y-27730D01*
X74151Y-28287D01*
X73911Y-28483D01*
X73433Y-28338D01*
X73223Y-27646D01*
X72666Y-26603D01*
X71916Y-25690D01*
X61663Y-15437D01*
X60750Y-14687D01*
X59707Y-14130D01*
X58576Y-13787D01*
X57400Y-13671D01*
X34400D01*
X33224Y-13787D01*
X32093Y-14130D01*
X31051Y-14687D01*
X30137Y-15437D01*
X25737Y-19837D01*
X24987Y-20751D01*
X24430Y-21793D01*
X24087Y-22924D01*
X23971Y-24100D01*
Y-223200D01*
X24087Y-224376D01*
X24430Y-225507D01*
X24987Y-226550D01*
X25737Y-227463D01*
X68967Y-270694D01*
X69062Y-271659D01*
X69517Y-273158D01*
X70256Y-274540D01*
X70871Y-275290D01*
Y-281052D01*
X70256Y-281802D01*
X69517Y-283184D01*
X69062Y-284683D01*
X68909Y-286242D01*
X69062Y-287801D01*
X69517Y-289300D01*
X70256Y-290682D01*
X71249Y-291893D01*
X72460Y-292886D01*
X73842Y-293625D01*
X75341Y-294079D01*
X76900Y-294233D01*
X78459Y-294079D01*
X79958Y-293625D01*
X81340Y-292886D01*
X81900Y-292426D01*
X82460Y-292886D01*
X83842Y-293625D01*
X85341Y-294079D01*
X86900Y-294233D01*
X88459Y-294079D01*
X89958Y-293625D01*
X91340Y-292886D01*
X91900Y-292426D01*
X92460Y-292886D01*
X93842Y-293625D01*
X95341Y-294079D01*
X96900Y-294233D01*
X98459Y-294079D01*
X99958Y-293625D01*
X101340Y-292886D01*
X101900Y-292426D01*
X102460Y-292886D01*
X103842Y-293625D01*
X105341Y-294079D01*
X105871Y-294132D01*
Y-300703D01*
X95637Y-310937D01*
X94887Y-311851D01*
X94330Y-312893D01*
X93987Y-314024D01*
X93871Y-315200D01*
Y-330600D01*
X93987Y-331776D01*
X94330Y-332907D01*
X94887Y-333949D01*
X95637Y-334863D01*
X96551Y-335613D01*
X97593Y-336170D01*
X98724Y-336513D01*
X99900Y-336629D01*
X119900D01*
X121076Y-336513D01*
X122207Y-336170D01*
X123249Y-335613D01*
X124163Y-334863D01*
X125383Y-333643D01*
X125454Y-333642D01*
X125578Y-333624D01*
X127066Y-333477D01*
X128669Y-332991D01*
X130145Y-332202D01*
X130400Y-331993D01*
X130655Y-332202D01*
X132131Y-332991D01*
X133734Y-333477D01*
X135400Y-333641D01*
X137066Y-333477D01*
X138669Y-332991D01*
X140145Y-332202D01*
X140942Y-331548D01*
X140982Y-331553D01*
X141523Y-331718D01*
X141807Y-332102D01*
X141842Y-332130D01*
X141869Y-332166D01*
X142356Y-332540D01*
X142837Y-332922D01*
X142878Y-332940D01*
X142913Y-332967D01*
X143481Y-333202D01*
X144044Y-333447D01*
X144088Y-333454D01*
X144130Y-333471D01*
X144739Y-333551D01*
X145346Y-333642D01*
X145417Y-333643D01*
X158037Y-346263D01*
X158303Y-346482D01*
X158135Y-346953D01*
X6398D01*
X5548Y-346102D01*
Y-5548D01*
X574552D01*
Y-346953D01*
D02*
G37*
G36*
X498307Y-172107D02*
X493772Y-173814D01*
X494020Y-173546D01*
X494201Y-173305D01*
X494313Y-173093D01*
X494357Y-172909D01*
X494332Y-172754D01*
X494240Y-172626D01*
X494078Y-172527D01*
X493849Y-172457D01*
X493552Y-172414D01*
X493186Y-172400D01*
X495186Y-170400D01*
X495580Y-170386D01*
X495962Y-170343D01*
X496333Y-170273D01*
X496692Y-170174D01*
X497039Y-170046D01*
X497375Y-169891D01*
X497699Y-169707D01*
X498011Y-169495D01*
X498311Y-169255D01*
X498600Y-168986D01*
X498307Y-172107D01*
D02*
G37*
G36*
X440427Y-173358D02*
X440622Y-173516D01*
X440822Y-173655D01*
X441027Y-173775D01*
X441237Y-173877D01*
X441454Y-173959D01*
X441675Y-174022D01*
X441903Y-174067D01*
X442135Y-174093D01*
X442373Y-174100D01*
X439743Y-176731D01*
X439736Y-176493D01*
X439710Y-176260D01*
X439665Y-176033D01*
X439602Y-175811D01*
X439519Y-175595D01*
X439418Y-175384D01*
X439298Y-175179D01*
X439159Y-174979D01*
X439001Y-174785D01*
X438824Y-174596D01*
X440239Y-173182D01*
X440427Y-173358D01*
D02*
G37*
G36*
X483874Y-96443D02*
X473137Y-107179D01*
X472387Y-108093D01*
X471830Y-109135D01*
X471487Y-110266D01*
X471371Y-111443D01*
Y-166400D01*
X471487Y-167576D01*
X471830Y-168707D01*
X472387Y-169749D01*
X473137Y-170663D01*
X478137Y-175663D01*
X479050Y-176413D01*
X480093Y-176970D01*
X481224Y-177313D01*
X482343Y-177423D01*
X482479Y-177620D01*
X482589Y-177885D01*
X482203Y-178271D01*
X450448D01*
X449995Y-177771D01*
X450095Y-176757D01*
X449947Y-175256D01*
X449509Y-173813D01*
X448798Y-172483D01*
X447841Y-171317D01*
X446675Y-170360D01*
X445345Y-169649D01*
X443901Y-169211D01*
X443323Y-169154D01*
X374217Y-100048D01*
X374638Y-98659D01*
X374791Y-97100D01*
X374651Y-95676D01*
X374967Y-95176D01*
X482607D01*
X483874Y-96443D01*
D02*
G37*
G36*
X212937Y-127163D02*
X215037Y-129263D01*
X215950Y-130013D01*
X216993Y-130570D01*
X218124Y-130913D01*
X219300Y-131029D01*
X220476Y-130913D01*
X221607Y-130570D01*
X222650Y-130013D01*
X223563Y-129263D01*
X224313Y-128349D01*
X224870Y-127307D01*
X225213Y-126176D01*
X225329Y-125000D01*
X225213Y-123824D01*
X224870Y-122693D01*
X224313Y-121651D01*
X223563Y-120737D01*
X223229Y-120403D01*
Y-93681D01*
X223658Y-93424D01*
X224142Y-93683D01*
X225641Y-94138D01*
X226606Y-94233D01*
X243271Y-110897D01*
Y-120741D01*
X243149Y-120890D01*
X242465Y-122169D01*
X242044Y-123557D01*
X242025Y-123748D01*
X188569Y-177205D01*
X188166Y-177244D01*
X187035Y-177587D01*
X185993Y-178144D01*
X185079Y-178894D01*
X178391Y-185583D01*
X177929Y-185391D01*
Y-155997D01*
X186663Y-147263D01*
X187413Y-146350D01*
X187970Y-145307D01*
X188313Y-144176D01*
X188429Y-143000D01*
Y-133000D01*
X188313Y-131824D01*
X187970Y-130693D01*
X187413Y-129650D01*
X186663Y-128737D01*
X145217Y-87291D01*
X145409Y-86829D01*
X172603D01*
X212937Y-127163D01*
D02*
G37*
G36*
X281383Y-122591D02*
X216306Y-187667D01*
X215341Y-187762D01*
X213842Y-188217D01*
X212460Y-188955D01*
X211900Y-189415D01*
X211340Y-188955D01*
X209958Y-188217D01*
X208459Y-187762D01*
X206900Y-187609D01*
X205341Y-187762D01*
X203842Y-188217D01*
X202460Y-188955D01*
X201900Y-189415D01*
X201340Y-188955D01*
X199958Y-188217D01*
X198459Y-187762D01*
X196900Y-187609D01*
X195818Y-187715D01*
X195591Y-187235D01*
X250552Y-132274D01*
X250743Y-132256D01*
X252131Y-131835D01*
X253410Y-131151D01*
X254531Y-130231D01*
X255451Y-129110D01*
X256135Y-127831D01*
X256556Y-126443D01*
X256575Y-126252D01*
X260697Y-122129D01*
X281191D01*
X281383Y-122591D01*
D02*
G37*
G36*
X138069Y-149931D02*
X139190Y-150851D01*
X140469Y-151535D01*
X141857Y-151956D01*
X142048Y-151974D01*
X155871Y-165797D01*
Y-187710D01*
X155341Y-187762D01*
X153842Y-188217D01*
X152460Y-188955D01*
X151900Y-189415D01*
X151340Y-188955D01*
X149958Y-188217D01*
X148459Y-187762D01*
X146900Y-187609D01*
X145341Y-187762D01*
X143842Y-188217D01*
X142460Y-188955D01*
X141900Y-189415D01*
X141340Y-188955D01*
X139958Y-188217D01*
X138459Y-187762D01*
X136900Y-187609D01*
X135341Y-187762D01*
X133842Y-188217D01*
X132460Y-188955D01*
X131900Y-189415D01*
X131340Y-188955D01*
X129958Y-188217D01*
X128459Y-187762D01*
X127929Y-187710D01*
Y-159797D01*
X137808Y-149918D01*
X138069Y-149931D01*
D02*
G37*
G36*
X77937Y-121363D02*
X78851Y-122113D01*
X79893Y-122670D01*
X80991Y-123003D01*
X81044Y-123543D01*
X81465Y-124931D01*
X82149Y-126210D01*
X83069Y-127331D01*
X84190Y-128251D01*
X85469Y-128935D01*
X86857Y-129356D01*
X87048Y-129375D01*
X105871Y-148197D01*
Y-187710D01*
X105341Y-187762D01*
X103842Y-188217D01*
X102460Y-188955D01*
X101900Y-189415D01*
X101340Y-188955D01*
X99958Y-188217D01*
X98459Y-187762D01*
X96900Y-187609D01*
X95341Y-187762D01*
X93842Y-188217D01*
X92460Y-188955D01*
X91900Y-189415D01*
X91340Y-188955D01*
X89958Y-188217D01*
X88459Y-187762D01*
X86900Y-187609D01*
X85353Y-187761D01*
X85023Y-187774D01*
X84853Y-187647D01*
Y-187647D01*
X68947D01*
Y-203553D01*
X70871D01*
Y-204910D01*
X70256Y-205660D01*
X69517Y-207042D01*
X69062Y-208541D01*
X68909Y-210100D01*
X69062Y-211659D01*
X69517Y-213158D01*
X70256Y-214540D01*
X71249Y-215751D01*
X72460Y-216744D01*
X73842Y-217483D01*
X75341Y-217938D01*
X76900Y-218091D01*
X78459Y-217938D01*
X79958Y-217483D01*
X81340Y-216744D01*
X81900Y-216285D01*
X82460Y-216744D01*
X83842Y-217483D01*
X85341Y-217938D01*
X86900Y-218091D01*
X88459Y-217938D01*
X89958Y-217483D01*
X91340Y-216744D01*
X91900Y-216285D01*
X92460Y-216744D01*
X93842Y-217483D01*
X95341Y-217938D01*
X96900Y-218091D01*
X98459Y-217938D01*
X99958Y-217483D01*
X101340Y-216744D01*
X101900Y-216285D01*
X102460Y-216744D01*
X103842Y-217483D01*
X105341Y-217938D01*
X105871Y-217990D01*
Y-262210D01*
X105341Y-262262D01*
X103842Y-262717D01*
X102460Y-263456D01*
X101900Y-263915D01*
X101340Y-263456D01*
X99958Y-262717D01*
X98459Y-262262D01*
X96900Y-262109D01*
X95341Y-262262D01*
X93842Y-262717D01*
X92460Y-263456D01*
X91900Y-263915D01*
X91340Y-263456D01*
X89958Y-262717D01*
X88459Y-262262D01*
X86900Y-262109D01*
X85341Y-262262D01*
X83842Y-262717D01*
X82460Y-263456D01*
X81900Y-263915D01*
X81340Y-263456D01*
X79958Y-262717D01*
X78459Y-262262D01*
X77494Y-262167D01*
X36029Y-220703D01*
Y-80109D01*
X36491Y-79917D01*
X77937Y-121363D01*
D02*
G37*
G36*
X167911Y-191326D02*
X167943Y-191594D01*
X167996Y-191856D01*
X168071Y-192111D01*
X168167Y-192358D01*
X168284Y-192599D01*
X168423Y-192832D01*
X168583Y-193059D01*
X168764Y-193279D01*
X168967Y-193491D01*
X164833D01*
X165036Y-193279D01*
X165217Y-193059D01*
X165377Y-192832D01*
X165516Y-192599D01*
X165633Y-192358D01*
X165729Y-192111D01*
X165804Y-191856D01*
X165857Y-191594D01*
X165889Y-191326D01*
X165900Y-191050D01*
X167900D01*
X167911Y-191326D01*
D02*
G37*
G36*
X117911D02*
X117943Y-191594D01*
X117996Y-191856D01*
X118071Y-192111D01*
X118167Y-192358D01*
X118284Y-192599D01*
X118423Y-192832D01*
X118583Y-193059D01*
X118764Y-193279D01*
X118967Y-193491D01*
X114833D01*
X115036Y-193279D01*
X115217Y-193059D01*
X115377Y-192832D01*
X115516Y-192599D01*
X115633Y-192358D01*
X115729Y-192111D01*
X115804Y-191856D01*
X115857Y-191594D01*
X115889Y-191326D01*
X115900Y-191050D01*
X117900D01*
X117911Y-191326D01*
D02*
G37*
G36*
X484210Y-193537D02*
X484040Y-193597D01*
X483890Y-193697D01*
X483760Y-193837D01*
X483650Y-194017D01*
X483560Y-194237D01*
X483490Y-194497D01*
X483440Y-194797D01*
X483410Y-195137D01*
X483400Y-195517D01*
X481400D01*
X481390Y-195137D01*
X481360Y-194797D01*
X481310Y-194497D01*
X481240Y-194237D01*
X481150Y-194017D01*
X481040Y-193837D01*
X480910Y-193697D01*
X480760Y-193597D01*
X480590Y-193537D01*
X480400Y-193517D01*
X484400D01*
X484210Y-193537D01*
D02*
G37*
G36*
X230824Y-193090D02*
X230637Y-193292D01*
X230470Y-193505D01*
X230323Y-193728D01*
X230195Y-193960D01*
X230088Y-194203D01*
X230001Y-194457D01*
X229934Y-194720D01*
X229887Y-194993D01*
X229860Y-195277D01*
X229853Y-195571D01*
X226929Y-192647D01*
X227223Y-192640D01*
X227507Y-192613D01*
X227780Y-192566D01*
X228044Y-192499D01*
X228297Y-192412D01*
X228540Y-192305D01*
X228772Y-192177D01*
X228995Y-192030D01*
X229208Y-191863D01*
X229410Y-191676D01*
X230824Y-193090D01*
D02*
G37*
G36*
X220824D02*
X220637Y-193292D01*
X220470Y-193505D01*
X220322Y-193728D01*
X220195Y-193960D01*
X220088Y-194203D01*
X220001Y-194457D01*
X219934Y-194720D01*
X219887Y-194993D01*
X219860Y-195277D01*
X219853Y-195571D01*
X216930Y-192647D01*
X217223Y-192640D01*
X217507Y-192613D01*
X217780Y-192566D01*
X218043Y-192499D01*
X218297Y-192412D01*
X218540Y-192305D01*
X218773Y-192177D01*
X218995Y-192030D01*
X219208Y-191863D01*
X219410Y-191676D01*
X220824Y-193090D01*
D02*
G37*
G36*
X180824D02*
X180637Y-193292D01*
X180470Y-193505D01*
X180323Y-193728D01*
X180195Y-193960D01*
X180088Y-194203D01*
X180001Y-194457D01*
X179934Y-194720D01*
X179887Y-194993D01*
X179860Y-195277D01*
X179853Y-195571D01*
X176929Y-192647D01*
X177223Y-192640D01*
X177507Y-192613D01*
X177780Y-192566D01*
X178043Y-192499D01*
X178297Y-192412D01*
X178540Y-192305D01*
X178772Y-192177D01*
X178995Y-192030D01*
X179208Y-191863D01*
X179410Y-191676D01*
X180824Y-193090D01*
D02*
G37*
G36*
X559153Y-193755D02*
X558995Y-193950D01*
X558855Y-194153D01*
X558735Y-194366D01*
X558632Y-194587D01*
X558549Y-194817D01*
X558484Y-195055D01*
X558437Y-195302D01*
X558409Y-195557D01*
X558400Y-195822D01*
X556400D01*
X556391Y-195557D01*
X556363Y-195302D01*
X556316Y-195055D01*
X556251Y-194817D01*
X556168Y-194587D01*
X556066Y-194366D01*
X555945Y-194153D01*
X555805Y-193950D01*
X555647Y-193755D01*
X555471Y-193568D01*
X559329D01*
X559153Y-193755D01*
D02*
G37*
G36*
X268764Y-197921D02*
X268583Y-198141D01*
X268423Y-198368D01*
X268284Y-198601D01*
X268167Y-198842D01*
X268071Y-199090D01*
X267996Y-199344D01*
X267943Y-199606D01*
X267911Y-199874D01*
X267900Y-200150D01*
X265900D01*
X265889Y-199874D01*
X265857Y-199606D01*
X265804Y-199344D01*
X265729Y-199090D01*
X265633Y-198842D01*
X265516Y-198601D01*
X265377Y-198368D01*
X265217Y-198141D01*
X265036Y-197921D01*
X264833Y-197709D01*
X268967D01*
X268764Y-197921D01*
D02*
G37*
G36*
X258764D02*
X258583Y-198141D01*
X258423Y-198368D01*
X258284Y-198601D01*
X258167Y-198842D01*
X258071Y-199090D01*
X257996Y-199344D01*
X257943Y-199606D01*
X257911Y-199874D01*
X257900Y-200150D01*
X255900D01*
X255889Y-199874D01*
X255857Y-199606D01*
X255804Y-199344D01*
X255729Y-199090D01*
X255633Y-198842D01*
X255516Y-198601D01*
X255377Y-198368D01*
X255217Y-198141D01*
X255036Y-197921D01*
X254833Y-197709D01*
X258967D01*
X258764Y-197921D01*
D02*
G37*
G36*
X248764D02*
X248583Y-198141D01*
X248423Y-198368D01*
X248284Y-198601D01*
X248167Y-198842D01*
X248071Y-199090D01*
X247996Y-199344D01*
X247943Y-199606D01*
X247911Y-199874D01*
X247900Y-200150D01*
X245900D01*
X245889Y-199874D01*
X245857Y-199606D01*
X245804Y-199344D01*
X245729Y-199090D01*
X245633Y-198842D01*
X245516Y-198601D01*
X245377Y-198368D01*
X245217Y-198141D01*
X245036Y-197921D01*
X244833Y-197709D01*
X248967D01*
X248764Y-197921D01*
D02*
G37*
G36*
X238764D02*
X238583Y-198141D01*
X238423Y-198368D01*
X238284Y-198601D01*
X238167Y-198842D01*
X238071Y-199090D01*
X237996Y-199344D01*
X237943Y-199606D01*
X237911Y-199874D01*
X237900Y-200150D01*
X235900D01*
X235889Y-199874D01*
X235857Y-199606D01*
X235804Y-199344D01*
X235729Y-199090D01*
X235633Y-198842D01*
X235516Y-198601D01*
X235377Y-198368D01*
X235217Y-198141D01*
X235036Y-197921D01*
X234833Y-197709D01*
X238967D01*
X238764Y-197921D01*
D02*
G37*
G36*
X228764D02*
X228583Y-198141D01*
X228423Y-198368D01*
X228284Y-198601D01*
X228167Y-198842D01*
X228071Y-199090D01*
X227996Y-199344D01*
X227943Y-199606D01*
X227911Y-199874D01*
X227900Y-200150D01*
X225900D01*
X225889Y-199874D01*
X225857Y-199606D01*
X225804Y-199344D01*
X225729Y-199090D01*
X225633Y-198842D01*
X225516Y-198601D01*
X225377Y-198368D01*
X225217Y-198141D01*
X225036Y-197921D01*
X224833Y-197709D01*
X228967D01*
X228764Y-197921D01*
D02*
G37*
G36*
X218764D02*
X218583Y-198141D01*
X218423Y-198368D01*
X218284Y-198601D01*
X218167Y-198842D01*
X218071Y-199090D01*
X217996Y-199344D01*
X217943Y-199606D01*
X217911Y-199874D01*
X217900Y-200150D01*
X215900D01*
X215889Y-199874D01*
X215857Y-199606D01*
X215804Y-199344D01*
X215729Y-199090D01*
X215633Y-198842D01*
X215516Y-198601D01*
X215377Y-198368D01*
X215217Y-198141D01*
X215036Y-197921D01*
X214833Y-197709D01*
X218967D01*
X218764Y-197921D01*
D02*
G37*
G36*
X208764D02*
X208583Y-198141D01*
X208423Y-198368D01*
X208284Y-198601D01*
X208167Y-198842D01*
X208071Y-199090D01*
X207996Y-199344D01*
X207943Y-199606D01*
X207911Y-199874D01*
X207900Y-200150D01*
X205900D01*
X205889Y-199874D01*
X205857Y-199606D01*
X205804Y-199344D01*
X205729Y-199090D01*
X205633Y-198842D01*
X205516Y-198601D01*
X205377Y-198368D01*
X205217Y-198141D01*
X205036Y-197921D01*
X204833Y-197709D01*
X208967D01*
X208764Y-197921D01*
D02*
G37*
G36*
X198764D02*
X198583Y-198141D01*
X198423Y-198368D01*
X198284Y-198601D01*
X198167Y-198842D01*
X198071Y-199090D01*
X197996Y-199344D01*
X197943Y-199606D01*
X197911Y-199874D01*
X197900Y-200150D01*
X195900D01*
X195889Y-199874D01*
X195857Y-199606D01*
X195804Y-199344D01*
X195729Y-199090D01*
X195633Y-198842D01*
X195516Y-198601D01*
X195377Y-198368D01*
X195217Y-198141D01*
X195036Y-197921D01*
X194833Y-197709D01*
X198967D01*
X198764Y-197921D01*
D02*
G37*
G36*
X188764D02*
X188583Y-198141D01*
X188423Y-198368D01*
X188284Y-198601D01*
X188167Y-198842D01*
X188071Y-199090D01*
X187996Y-199344D01*
X187943Y-199606D01*
X187911Y-199874D01*
X187900Y-200150D01*
X185900D01*
X185889Y-199874D01*
X185857Y-199606D01*
X185804Y-199344D01*
X185729Y-199090D01*
X185633Y-198842D01*
X185516Y-198601D01*
X185377Y-198368D01*
X185217Y-198141D01*
X185036Y-197921D01*
X184833Y-197709D01*
X188967D01*
X188764Y-197921D01*
D02*
G37*
G36*
X178764D02*
X178583Y-198141D01*
X178423Y-198368D01*
X178284Y-198601D01*
X178167Y-198842D01*
X178071Y-199090D01*
X177996Y-199344D01*
X177943Y-199606D01*
X177911Y-199874D01*
X177900Y-200150D01*
X175900D01*
X175889Y-199874D01*
X175857Y-199606D01*
X175804Y-199344D01*
X175729Y-199090D01*
X175633Y-198842D01*
X175516Y-198601D01*
X175377Y-198368D01*
X175217Y-198141D01*
X175036Y-197921D01*
X174833Y-197709D01*
X178967D01*
X178764Y-197921D01*
D02*
G37*
G36*
X168764D02*
X168583Y-198141D01*
X168423Y-198368D01*
X168284Y-198601D01*
X168167Y-198842D01*
X168071Y-199090D01*
X167996Y-199344D01*
X167943Y-199606D01*
X167911Y-199874D01*
X167900Y-200150D01*
X165900D01*
X165889Y-199874D01*
X165857Y-199606D01*
X165804Y-199344D01*
X165729Y-199090D01*
X165633Y-198842D01*
X165516Y-198601D01*
X165377Y-198368D01*
X165217Y-198141D01*
X165036Y-197921D01*
X164833Y-197709D01*
X168967D01*
X168764Y-197921D01*
D02*
G37*
G36*
X158764D02*
X158583Y-198141D01*
X158423Y-198368D01*
X158284Y-198601D01*
X158167Y-198842D01*
X158071Y-199090D01*
X157996Y-199344D01*
X157943Y-199606D01*
X157911Y-199874D01*
X157900Y-200150D01*
X155900D01*
X155889Y-199874D01*
X155857Y-199606D01*
X155804Y-199344D01*
X155729Y-199090D01*
X155633Y-198842D01*
X155516Y-198601D01*
X155377Y-198368D01*
X155217Y-198141D01*
X155036Y-197921D01*
X154833Y-197709D01*
X158967D01*
X158764Y-197921D01*
D02*
G37*
G36*
X148764D02*
X148583Y-198141D01*
X148423Y-198368D01*
X148284Y-198601D01*
X148167Y-198842D01*
X148071Y-199090D01*
X147996Y-199344D01*
X147943Y-199606D01*
X147911Y-199874D01*
X147900Y-200150D01*
X145900D01*
X145889Y-199874D01*
X145857Y-199606D01*
X145804Y-199344D01*
X145729Y-199090D01*
X145633Y-198842D01*
X145516Y-198601D01*
X145377Y-198368D01*
X145217Y-198141D01*
X145036Y-197921D01*
X144833Y-197709D01*
X148967D01*
X148764Y-197921D01*
D02*
G37*
G36*
X138764D02*
X138583Y-198141D01*
X138423Y-198368D01*
X138284Y-198601D01*
X138167Y-198842D01*
X138071Y-199090D01*
X137996Y-199344D01*
X137943Y-199606D01*
X137911Y-199874D01*
X137900Y-200150D01*
X135900D01*
X135889Y-199874D01*
X135857Y-199606D01*
X135804Y-199344D01*
X135729Y-199090D01*
X135633Y-198842D01*
X135516Y-198601D01*
X135377Y-198368D01*
X135217Y-198141D01*
X135036Y-197921D01*
X134833Y-197709D01*
X138967D01*
X138764Y-197921D01*
D02*
G37*
G36*
X128764D02*
X128583Y-198141D01*
X128423Y-198368D01*
X128284Y-198601D01*
X128167Y-198842D01*
X128071Y-199090D01*
X127996Y-199344D01*
X127943Y-199606D01*
X127911Y-199874D01*
X127900Y-200150D01*
X125900D01*
X125889Y-199874D01*
X125857Y-199606D01*
X125804Y-199344D01*
X125729Y-199090D01*
X125633Y-198842D01*
X125516Y-198601D01*
X125377Y-198368D01*
X125217Y-198141D01*
X125036Y-197921D01*
X124833Y-197709D01*
X128967D01*
X128764Y-197921D01*
D02*
G37*
G36*
X118764D02*
X118583Y-198141D01*
X118423Y-198368D01*
X118284Y-198601D01*
X118167Y-198842D01*
X118071Y-199090D01*
X117996Y-199344D01*
X117943Y-199606D01*
X117911Y-199874D01*
X117900Y-200150D01*
X115900D01*
X115889Y-199874D01*
X115857Y-199606D01*
X115804Y-199344D01*
X115729Y-199090D01*
X115633Y-198842D01*
X115516Y-198601D01*
X115377Y-198368D01*
X115217Y-198141D01*
X115036Y-197921D01*
X114833Y-197709D01*
X118967D01*
X118764Y-197921D01*
D02*
G37*
G36*
X108764D02*
X108583Y-198141D01*
X108423Y-198368D01*
X108284Y-198601D01*
X108167Y-198842D01*
X108071Y-199090D01*
X107996Y-199344D01*
X107943Y-199606D01*
X107911Y-199874D01*
X107900Y-200150D01*
X105900D01*
X105889Y-199874D01*
X105857Y-199606D01*
X105804Y-199344D01*
X105729Y-199090D01*
X105633Y-198842D01*
X105516Y-198601D01*
X105377Y-198368D01*
X105217Y-198141D01*
X105036Y-197921D01*
X104833Y-197709D01*
X108967D01*
X108764Y-197921D01*
D02*
G37*
G36*
X98764D02*
X98583Y-198141D01*
X98423Y-198368D01*
X98284Y-198601D01*
X98167Y-198842D01*
X98071Y-199090D01*
X97996Y-199344D01*
X97943Y-199606D01*
X97911Y-199874D01*
X97900Y-200150D01*
X95900D01*
X95889Y-199874D01*
X95857Y-199606D01*
X95804Y-199344D01*
X95729Y-199090D01*
X95633Y-198842D01*
X95516Y-198601D01*
X95377Y-198368D01*
X95217Y-198141D01*
X95036Y-197921D01*
X94833Y-197709D01*
X98967D01*
X98764Y-197921D01*
D02*
G37*
G36*
X88764D02*
X88583Y-198141D01*
X88423Y-198368D01*
X88284Y-198601D01*
X88167Y-198842D01*
X88071Y-199090D01*
X87996Y-199344D01*
X87943Y-199606D01*
X87911Y-199874D01*
X87900Y-200150D01*
X85900D01*
X85889Y-199874D01*
X85857Y-199606D01*
X85804Y-199344D01*
X85729Y-199090D01*
X85633Y-198842D01*
X85516Y-198601D01*
X85377Y-198368D01*
X85217Y-198141D01*
X85036Y-197921D01*
X84833Y-197709D01*
X88967D01*
X88764Y-197921D01*
D02*
G37*
G36*
X78710Y-198561D02*
X78540Y-198621D01*
X78390Y-198721D01*
X78260Y-198861D01*
X78150Y-199041D01*
X78060Y-199261D01*
X77990Y-199521D01*
X77940Y-199821D01*
X77910Y-200161D01*
X77900Y-200541D01*
X75900D01*
X75890Y-200161D01*
X75860Y-199821D01*
X75810Y-199521D01*
X75740Y-199261D01*
X75650Y-199041D01*
X75540Y-198861D01*
X75410Y-198721D01*
X75260Y-198621D01*
X75090Y-198561D01*
X74900Y-198541D01*
X78900D01*
X78710Y-198561D01*
D02*
G37*
G36*
X444210Y-199108D02*
X444040Y-199168D01*
X443890Y-199268D01*
X443760Y-199408D01*
X443650Y-199588D01*
X443560Y-199808D01*
X443490Y-200068D01*
X443440Y-200368D01*
X443410Y-200708D01*
X443400Y-201088D01*
X441400D01*
X441390Y-200708D01*
X441360Y-200368D01*
X441310Y-200068D01*
X441240Y-199808D01*
X441150Y-199588D01*
X441040Y-199408D01*
X440910Y-199268D01*
X440760Y-199168D01*
X440590Y-199108D01*
X440400Y-199088D01*
X444400D01*
X444210Y-199108D01*
D02*
G37*
G36*
X340771Y-138603D02*
X275315Y-204059D01*
X274853Y-203868D01*
Y-202147D01*
X272929D01*
Y-200790D01*
X273545Y-200040D01*
X274283Y-198658D01*
X274738Y-197159D01*
X274891Y-195600D01*
X274738Y-194041D01*
X274283Y-192542D01*
X273545Y-191160D01*
X272551Y-189949D01*
X271340Y-188955D01*
X269958Y-188217D01*
X268459Y-187762D01*
X266900Y-187609D01*
X265341Y-187762D01*
X263842Y-188217D01*
X262460Y-188955D01*
X261900Y-189415D01*
X261340Y-188955D01*
X259958Y-188217D01*
X258459Y-187762D01*
X256900Y-187609D01*
X255341Y-187762D01*
X253842Y-188217D01*
X252460Y-188955D01*
X251900Y-189415D01*
X251340Y-188955D01*
X249958Y-188217D01*
X248459Y-187762D01*
X246900Y-187609D01*
X245341Y-187762D01*
X243842Y-188217D01*
X243143Y-188591D01*
X242842Y-188185D01*
X273297Y-157729D01*
X312200D01*
X313376Y-157613D01*
X314507Y-157270D01*
X315549Y-156713D01*
X316463Y-155963D01*
X337239Y-135187D01*
X337291Y-135151D01*
X337396Y-135053D01*
X340771D01*
Y-138603D01*
D02*
G37*
G36*
X301721Y-205446D02*
X301567Y-205334D01*
X301384Y-205278D01*
X301172Y-205280D01*
X300932Y-205337D01*
X300663Y-205452D01*
X300366Y-205623D01*
X300041Y-205850D01*
X299687Y-206134D01*
X298893Y-206872D01*
X297478Y-205458D01*
X297876Y-205047D01*
X298500Y-204310D01*
X298728Y-203984D01*
X298899Y-203687D01*
X299013Y-203418D01*
X299071Y-203178D01*
X299072Y-202967D01*
X299017Y-202784D01*
X298905Y-202629D01*
X301721Y-205446D01*
D02*
G37*
G36*
X267910Y-205541D02*
X267940Y-205884D01*
X267990Y-206185D01*
X268060Y-206447D01*
X268150Y-206668D01*
X268260Y-206849D01*
X268390Y-206990D01*
X268540Y-207091D01*
X268710Y-207151D01*
X268900Y-207171D01*
X264900D01*
X265090Y-207151D01*
X265260Y-207091D01*
X265410Y-206990D01*
X265540Y-206849D01*
X265650Y-206668D01*
X265740Y-206447D01*
X265810Y-206185D01*
X265860Y-205884D01*
X265890Y-205541D01*
X265900Y-205159D01*
X267900D01*
X267910Y-205541D01*
D02*
G37*
G36*
X257911Y-205826D02*
X257943Y-206094D01*
X257996Y-206356D01*
X258071Y-206610D01*
X258167Y-206858D01*
X258284Y-207099D01*
X258423Y-207332D01*
X258583Y-207559D01*
X258764Y-207779D01*
X258967Y-207991D01*
X254833D01*
X255036Y-207779D01*
X255217Y-207559D01*
X255377Y-207332D01*
X255516Y-207099D01*
X255633Y-206858D01*
X255729Y-206610D01*
X255804Y-206356D01*
X255857Y-206094D01*
X255889Y-205826D01*
X255900Y-205550D01*
X257900D01*
X257911Y-205826D01*
D02*
G37*
G36*
X247911D02*
X247943Y-206094D01*
X247996Y-206356D01*
X248071Y-206610D01*
X248167Y-206858D01*
X248284Y-207099D01*
X248423Y-207332D01*
X248583Y-207559D01*
X248764Y-207779D01*
X248967Y-207991D01*
X244833D01*
X245036Y-207779D01*
X245217Y-207559D01*
X245377Y-207332D01*
X245516Y-207099D01*
X245633Y-206858D01*
X245729Y-206610D01*
X245804Y-206356D01*
X245857Y-206094D01*
X245889Y-205826D01*
X245900Y-205550D01*
X247900D01*
X247911Y-205826D01*
D02*
G37*
G36*
X237911D02*
X237943Y-206094D01*
X237996Y-206356D01*
X238071Y-206610D01*
X238167Y-206858D01*
X238284Y-207099D01*
X238423Y-207332D01*
X238583Y-207559D01*
X238764Y-207779D01*
X238967Y-207991D01*
X234833D01*
X235036Y-207779D01*
X235217Y-207559D01*
X235377Y-207332D01*
X235516Y-207099D01*
X235633Y-206858D01*
X235729Y-206610D01*
X235804Y-206356D01*
X235857Y-206094D01*
X235889Y-205826D01*
X235900Y-205550D01*
X237900D01*
X237911Y-205826D01*
D02*
G37*
G36*
X227911D02*
X227943Y-206094D01*
X227996Y-206356D01*
X228071Y-206610D01*
X228167Y-206858D01*
X228284Y-207099D01*
X228423Y-207332D01*
X228583Y-207559D01*
X228764Y-207779D01*
X228967Y-207991D01*
X224833D01*
X225036Y-207779D01*
X225217Y-207559D01*
X225377Y-207332D01*
X225516Y-207099D01*
X225633Y-206858D01*
X225729Y-206610D01*
X225804Y-206356D01*
X225857Y-206094D01*
X225889Y-205826D01*
X225900Y-205550D01*
X227900D01*
X227911Y-205826D01*
D02*
G37*
G36*
X217911D02*
X217943Y-206094D01*
X217996Y-206356D01*
X218071Y-206610D01*
X218167Y-206858D01*
X218284Y-207099D01*
X218423Y-207332D01*
X218583Y-207559D01*
X218764Y-207779D01*
X218967Y-207991D01*
X214833D01*
X215036Y-207779D01*
X215217Y-207559D01*
X215377Y-207332D01*
X215516Y-207099D01*
X215633Y-206858D01*
X215729Y-206610D01*
X215804Y-206356D01*
X215857Y-206094D01*
X215889Y-205826D01*
X215900Y-205550D01*
X217900D01*
X217911Y-205826D01*
D02*
G37*
G36*
X207911D02*
X207943Y-206094D01*
X207996Y-206356D01*
X208071Y-206610D01*
X208167Y-206858D01*
X208284Y-207099D01*
X208423Y-207332D01*
X208583Y-207559D01*
X208764Y-207779D01*
X208967Y-207991D01*
X204833D01*
X205036Y-207779D01*
X205217Y-207559D01*
X205377Y-207332D01*
X205516Y-207099D01*
X205633Y-206858D01*
X205729Y-206610D01*
X205804Y-206356D01*
X205857Y-206094D01*
X205889Y-205826D01*
X205900Y-205550D01*
X207900D01*
X207911Y-205826D01*
D02*
G37*
G36*
X197911D02*
X197943Y-206094D01*
X197996Y-206356D01*
X198071Y-206610D01*
X198167Y-206858D01*
X198284Y-207099D01*
X198423Y-207332D01*
X198583Y-207559D01*
X198764Y-207779D01*
X198967Y-207991D01*
X194833D01*
X195036Y-207779D01*
X195217Y-207559D01*
X195377Y-207332D01*
X195516Y-207099D01*
X195633Y-206858D01*
X195729Y-206610D01*
X195804Y-206356D01*
X195857Y-206094D01*
X195889Y-205826D01*
X195900Y-205550D01*
X197900D01*
X197911Y-205826D01*
D02*
G37*
G36*
X187911D02*
X187943Y-206094D01*
X187996Y-206356D01*
X188071Y-206610D01*
X188167Y-206858D01*
X188284Y-207099D01*
X188423Y-207332D01*
X188583Y-207559D01*
X188764Y-207779D01*
X188967Y-207991D01*
X184833D01*
X185036Y-207779D01*
X185217Y-207559D01*
X185377Y-207332D01*
X185516Y-207099D01*
X185633Y-206858D01*
X185729Y-206610D01*
X185804Y-206356D01*
X185857Y-206094D01*
X185889Y-205826D01*
X185900Y-205550D01*
X187900D01*
X187911Y-205826D01*
D02*
G37*
G36*
X177911D02*
X177943Y-206094D01*
X177996Y-206356D01*
X178071Y-206610D01*
X178167Y-206858D01*
X178284Y-207099D01*
X178423Y-207332D01*
X178583Y-207559D01*
X178764Y-207779D01*
X178967Y-207991D01*
X174833D01*
X175036Y-207779D01*
X175217Y-207559D01*
X175377Y-207332D01*
X175516Y-207099D01*
X175633Y-206858D01*
X175729Y-206610D01*
X175804Y-206356D01*
X175857Y-206094D01*
X175889Y-205826D01*
X175900Y-205550D01*
X177900D01*
X177911Y-205826D01*
D02*
G37*
G36*
X167911D02*
X167943Y-206094D01*
X167996Y-206356D01*
X168071Y-206610D01*
X168167Y-206858D01*
X168284Y-207099D01*
X168423Y-207332D01*
X168583Y-207559D01*
X168764Y-207779D01*
X168967Y-207991D01*
X164833D01*
X165036Y-207779D01*
X165217Y-207559D01*
X165377Y-207332D01*
X165516Y-207099D01*
X165633Y-206858D01*
X165729Y-206610D01*
X165804Y-206356D01*
X165857Y-206094D01*
X165889Y-205826D01*
X165900Y-205550D01*
X167900D01*
X167911Y-205826D01*
D02*
G37*
G36*
X157911D02*
X157943Y-206094D01*
X157996Y-206356D01*
X158071Y-206610D01*
X158167Y-206858D01*
X158284Y-207099D01*
X158423Y-207332D01*
X158583Y-207559D01*
X158764Y-207779D01*
X158967Y-207991D01*
X154833D01*
X155036Y-207779D01*
X155217Y-207559D01*
X155377Y-207332D01*
X155516Y-207099D01*
X155633Y-206858D01*
X155729Y-206610D01*
X155804Y-206356D01*
X155857Y-206094D01*
X155889Y-205826D01*
X155900Y-205550D01*
X157900D01*
X157911Y-205826D01*
D02*
G37*
G36*
X147911D02*
X147943Y-206094D01*
X147996Y-206356D01*
X148071Y-206610D01*
X148167Y-206858D01*
X148284Y-207099D01*
X148423Y-207332D01*
X148583Y-207559D01*
X148764Y-207779D01*
X148967Y-207991D01*
X144833D01*
X145036Y-207779D01*
X145217Y-207559D01*
X145377Y-207332D01*
X145516Y-207099D01*
X145633Y-206858D01*
X145729Y-206610D01*
X145804Y-206356D01*
X145857Y-206094D01*
X145889Y-205826D01*
X145900Y-205550D01*
X147900D01*
X147911Y-205826D01*
D02*
G37*
G36*
X137911D02*
X137943Y-206094D01*
X137996Y-206356D01*
X138071Y-206610D01*
X138167Y-206858D01*
X138284Y-207099D01*
X138423Y-207332D01*
X138583Y-207559D01*
X138764Y-207779D01*
X138967Y-207991D01*
X134833D01*
X135036Y-207779D01*
X135217Y-207559D01*
X135377Y-207332D01*
X135516Y-207099D01*
X135633Y-206858D01*
X135729Y-206610D01*
X135804Y-206356D01*
X135857Y-206094D01*
X135889Y-205826D01*
X135900Y-205550D01*
X137900D01*
X137911Y-205826D01*
D02*
G37*
G36*
X127911D02*
X127943Y-206094D01*
X127996Y-206356D01*
X128071Y-206610D01*
X128167Y-206858D01*
X128284Y-207099D01*
X128423Y-207332D01*
X128583Y-207559D01*
X128764Y-207779D01*
X128967Y-207991D01*
X124833D01*
X125036Y-207779D01*
X125217Y-207559D01*
X125377Y-207332D01*
X125516Y-207099D01*
X125633Y-206858D01*
X125729Y-206610D01*
X125804Y-206356D01*
X125857Y-206094D01*
X125889Y-205826D01*
X125900Y-205550D01*
X127900D01*
X127911Y-205826D01*
D02*
G37*
G36*
X117911D02*
X117943Y-206094D01*
X117996Y-206356D01*
X118071Y-206610D01*
X118167Y-206858D01*
X118284Y-207099D01*
X118423Y-207332D01*
X118583Y-207559D01*
X118764Y-207779D01*
X118967Y-207991D01*
X114833D01*
X115036Y-207779D01*
X115217Y-207559D01*
X115377Y-207332D01*
X115516Y-207099D01*
X115633Y-206858D01*
X115729Y-206610D01*
X115804Y-206356D01*
X115857Y-206094D01*
X115889Y-205826D01*
X115900Y-205550D01*
X117900D01*
X117911Y-205826D01*
D02*
G37*
G36*
X107911D02*
X107943Y-206094D01*
X107996Y-206356D01*
X108071Y-206610D01*
X108167Y-206858D01*
X108284Y-207099D01*
X108423Y-207332D01*
X108583Y-207559D01*
X108764Y-207779D01*
X108967Y-207991D01*
X104833D01*
X105036Y-207779D01*
X105217Y-207559D01*
X105377Y-207332D01*
X105516Y-207099D01*
X105633Y-206858D01*
X105729Y-206610D01*
X105804Y-206356D01*
X105857Y-206094D01*
X105889Y-205826D01*
X105900Y-205550D01*
X107900D01*
X107911Y-205826D01*
D02*
G37*
G36*
X97911D02*
X97943Y-206094D01*
X97996Y-206356D01*
X98071Y-206610D01*
X98167Y-206858D01*
X98284Y-207099D01*
X98423Y-207332D01*
X98583Y-207559D01*
X98764Y-207779D01*
X98967Y-207991D01*
X94833D01*
X95036Y-207779D01*
X95217Y-207559D01*
X95377Y-207332D01*
X95516Y-207099D01*
X95633Y-206858D01*
X95729Y-206610D01*
X95804Y-206356D01*
X95857Y-206094D01*
X95889Y-205826D01*
X95900Y-205550D01*
X97900D01*
X97911Y-205826D01*
D02*
G37*
G36*
X87911D02*
X87943Y-206094D01*
X87996Y-206356D01*
X88071Y-206610D01*
X88167Y-206858D01*
X88284Y-207099D01*
X88423Y-207332D01*
X88583Y-207559D01*
X88764Y-207779D01*
X88967Y-207991D01*
X84833D01*
X85036Y-207779D01*
X85217Y-207559D01*
X85377Y-207332D01*
X85516Y-207099D01*
X85633Y-206858D01*
X85729Y-206610D01*
X85804Y-206356D01*
X85857Y-206094D01*
X85889Y-205826D01*
X85900Y-205550D01*
X87900D01*
X87911Y-205826D01*
D02*
G37*
G36*
X77911D02*
X77943Y-206094D01*
X77996Y-206356D01*
X78071Y-206610D01*
X78167Y-206858D01*
X78284Y-207099D01*
X78423Y-207332D01*
X78583Y-207559D01*
X78764Y-207779D01*
X78967Y-207991D01*
X74833D01*
X75036Y-207779D01*
X75217Y-207559D01*
X75377Y-207332D01*
X75516Y-207099D01*
X75633Y-206858D01*
X75729Y-206610D01*
X75804Y-206356D01*
X75857Y-206094D01*
X75889Y-205826D01*
X75900Y-205550D01*
X77900D01*
X77911Y-205826D01*
D02*
G37*
G36*
X199860Y-210423D02*
X199887Y-210707D01*
X199934Y-210980D01*
X200001Y-211244D01*
X200088Y-211497D01*
X200195Y-211740D01*
X200323Y-211972D01*
X200470Y-212195D01*
X200637Y-212408D01*
X200824Y-212610D01*
X199410Y-214024D01*
X199208Y-213837D01*
X198995Y-213670D01*
X198773Y-213523D01*
X198540Y-213395D01*
X198297Y-213288D01*
X198044Y-213201D01*
X197780Y-213134D01*
X197507Y-213087D01*
X197223Y-213060D01*
X196930Y-213053D01*
X199853Y-210129D01*
X199860Y-210423D01*
D02*
G37*
G36*
X129860D02*
X129887Y-210707D01*
X129934Y-210980D01*
X130001Y-211244D01*
X130088Y-211497D01*
X130195Y-211740D01*
X130323Y-211972D01*
X130470Y-212195D01*
X130637Y-212408D01*
X130824Y-212610D01*
X129410Y-214024D01*
X129208Y-213837D01*
X128995Y-213670D01*
X128772Y-213523D01*
X128540Y-213395D01*
X128297Y-213288D01*
X128043Y-213201D01*
X127780Y-213134D01*
X127507Y-213087D01*
X127223Y-213060D01*
X126929Y-213053D01*
X129853Y-210129D01*
X129860Y-210423D01*
D02*
G37*
G36*
X192460Y-216744D02*
X193842Y-217483D01*
X195341Y-217938D01*
X196306Y-218033D01*
X203037Y-224763D01*
X203951Y-225513D01*
X204433Y-225771D01*
X204308Y-226271D01*
X169897D01*
X167929Y-224303D01*
Y-221129D01*
X171900D01*
X173076Y-221013D01*
X174207Y-220670D01*
X175250Y-220113D01*
X176163Y-219363D01*
X176913Y-218449D01*
X177116Y-218070D01*
X178459Y-217938D01*
X179958Y-217483D01*
X181340Y-216744D01*
X181900Y-216285D01*
X182460Y-216744D01*
X183842Y-217483D01*
X185341Y-217938D01*
X186900Y-218091D01*
X188459Y-217938D01*
X189958Y-217483D01*
X191340Y-216744D01*
X191900Y-216285D01*
X192460Y-216744D01*
D02*
G37*
G36*
X152460D02*
X153842Y-217483D01*
X155341Y-217938D01*
X155871Y-217990D01*
Y-226800D01*
X155987Y-227976D01*
X156330Y-229107D01*
X156887Y-230150D01*
X157637Y-231063D01*
X159383Y-232809D01*
X159191Y-233271D01*
X158597D01*
X142841Y-217515D01*
X143143Y-217109D01*
X143842Y-217483D01*
X145341Y-217938D01*
X146900Y-218091D01*
X148459Y-217938D01*
X149958Y-217483D01*
X151340Y-216744D01*
X151900Y-216285D01*
X152460Y-216744D01*
D02*
G37*
G36*
X162920Y-212480D02*
X162980Y-212820D01*
X163080Y-213120D01*
X163220Y-213380D01*
X163400Y-213600D01*
X163620Y-213780D01*
X163880Y-213920D01*
X164180Y-214020D01*
X164520Y-214080D01*
X164900Y-214100D01*
Y-216100D01*
X164520Y-216120D01*
X164180Y-216180D01*
X163880Y-216280D01*
X163620Y-216420D01*
X163400Y-216600D01*
X163220Y-216820D01*
X163080Y-217080D01*
X162980Y-217380D01*
X162920Y-217720D01*
X162900Y-218100D01*
X160900Y-215100D01*
X162900Y-212100D01*
X162920Y-212480D01*
D02*
G37*
G36*
X300880Y-221198D02*
X300766Y-221205D01*
X300647Y-221228D01*
X300524Y-221266D01*
X300396Y-221321D01*
X300263Y-221391D01*
X300127Y-221477D01*
X299985Y-221578D01*
X299839Y-221696D01*
X299534Y-221979D01*
X298120Y-220565D01*
X298269Y-220410D01*
X298520Y-220113D01*
X298622Y-219972D01*
X298708Y-219835D01*
X298778Y-219703D01*
X298832Y-219575D01*
X298871Y-219451D01*
X298893Y-219333D01*
X298900Y-219218D01*
X300880Y-221198D01*
D02*
G37*
G36*
X494069Y-227863D02*
X494281Y-228030D01*
X494504Y-228177D01*
X494737Y-228305D01*
X494980Y-228412D01*
X495233Y-228499D01*
X495496Y-228566D01*
X495770Y-228613D01*
X496053Y-228640D01*
X496347Y-228647D01*
X493424Y-231571D01*
X493417Y-231277D01*
X493390Y-230993D01*
X493343Y-230720D01*
X493275Y-230456D01*
X493188Y-230203D01*
X493081Y-229960D01*
X492954Y-229728D01*
X492807Y-229505D01*
X492639Y-229292D01*
X492452Y-229090D01*
X493866Y-227676D01*
X494069Y-227863D01*
D02*
G37*
G36*
X470234Y-234561D02*
X470064Y-234621D01*
X469914Y-234721D01*
X469784Y-234861D01*
X469674Y-235041D01*
X469584Y-235261D01*
X469514Y-235521D01*
X469464Y-235821D01*
X469434Y-236161D01*
X469424Y-236541D01*
X467424D01*
X467414Y-236161D01*
X467384Y-235821D01*
X467334Y-235521D01*
X467264Y-235261D01*
X467174Y-235041D01*
X467064Y-234861D01*
X466934Y-234721D01*
X466784Y-234621D01*
X466614Y-234561D01*
X466424Y-234541D01*
X470424D01*
X470234Y-234561D01*
D02*
G37*
G36*
X434742Y-202437D02*
Y-204100D01*
X436371D01*
Y-243908D01*
X435880Y-243956D01*
X434418Y-244400D01*
X433858Y-244699D01*
X433429Y-244442D01*
Y-203097D01*
X434281Y-202246D01*
X434742Y-202437D01*
D02*
G37*
G36*
X468409Y-247643D02*
X468437Y-247898D01*
X468484Y-248145D01*
X468549Y-248383D01*
X468632Y-248613D01*
X468735Y-248834D01*
X468855Y-249047D01*
X468995Y-249250D01*
X469153Y-249445D01*
X469329Y-249632D01*
X465471D01*
X465647Y-249445D01*
X465805Y-249250D01*
X465945Y-249047D01*
X466066Y-248834D01*
X466168Y-248613D01*
X466251Y-248383D01*
X466316Y-248145D01*
X466363Y-247898D01*
X466391Y-247643D01*
X466400Y-247378D01*
X468400D01*
X468409Y-247643D01*
D02*
G37*
G36*
X441092Y-249322D02*
X440912Y-249515D01*
X440751Y-249716D01*
X440609Y-249923D01*
X440487Y-250138D01*
X440383Y-250359D01*
X440299Y-250588D01*
X440235Y-250823D01*
X440189Y-251066D01*
X440163Y-251316D01*
X440156Y-251572D01*
X437428Y-248844D01*
X437684Y-248837D01*
X437934Y-248811D01*
X438176Y-248765D01*
X438412Y-248701D01*
X438641Y-248617D01*
X438862Y-248513D01*
X439077Y-248391D01*
X439284Y-248249D01*
X439485Y-248088D01*
X439678Y-247908D01*
X441092Y-249322D01*
D02*
G37*
G36*
X437372Y-254356D02*
X437116Y-254363D01*
X436866Y-254389D01*
X436623Y-254435D01*
X436388Y-254499D01*
X436159Y-254583D01*
X435938Y-254687D01*
X435723Y-254809D01*
X435516Y-254951D01*
X435315Y-255112D01*
X435122Y-255292D01*
X433708Y-253878D01*
X433888Y-253685D01*
X434049Y-253484D01*
X434191Y-253277D01*
X434313Y-253062D01*
X434417Y-252841D01*
X434501Y-252612D01*
X434565Y-252377D01*
X434611Y-252134D01*
X434637Y-251884D01*
X434644Y-251628D01*
X437372Y-254356D01*
D02*
G37*
G36*
X469153Y-253755D02*
X468995Y-253950D01*
X468855Y-254153D01*
X468735Y-254366D01*
X468632Y-254587D01*
X468549Y-254817D01*
X468484Y-255055D01*
X468437Y-255302D01*
X468409Y-255557D01*
X468400Y-255822D01*
X466400D01*
X466391Y-255557D01*
X466363Y-255302D01*
X466316Y-255055D01*
X466251Y-254817D01*
X466168Y-254587D01*
X466066Y-254366D01*
X465945Y-254153D01*
X465805Y-253950D01*
X465647Y-253755D01*
X465471Y-253568D01*
X469329D01*
X469153Y-253755D01*
D02*
G37*
G36*
X293913Y-235419D02*
X294001Y-236319D01*
X294402Y-237638D01*
X295052Y-238854D01*
X295075Y-238884D01*
X295052Y-238913D01*
X294402Y-240129D01*
X294001Y-241448D01*
X293866Y-242821D01*
X294001Y-244193D01*
X294402Y-245512D01*
X295052Y-246728D01*
X295075Y-246758D01*
X295052Y-246787D01*
X294402Y-248003D01*
X294001Y-249322D01*
X293866Y-250695D01*
X294001Y-252067D01*
X294402Y-253386D01*
X295052Y-254602D01*
X295075Y-254632D01*
X295052Y-254661D01*
X294402Y-255877D01*
X294001Y-257196D01*
X293913Y-258096D01*
X293392Y-258282D01*
X289947Y-254837D01*
X289033Y-254087D01*
X287991Y-253530D01*
X286860Y-253187D01*
X285683Y-253071D01*
X187900D01*
X186724Y-253187D01*
X185593Y-253530D01*
X184550Y-254087D01*
X183637Y-254837D01*
X176900Y-261574D01*
X176163Y-260837D01*
X161117Y-245791D01*
X161309Y-245329D01*
X280798D01*
X281975Y-245213D01*
X283106Y-244870D01*
X284148Y-244313D01*
X285062Y-243563D01*
X293392Y-235233D01*
X293913Y-235419D01*
D02*
G37*
G36*
X156883Y-258609D02*
X156691Y-259071D01*
X121900D01*
X120724Y-259187D01*
X119593Y-259530D01*
X118551Y-260087D01*
X118381Y-260226D01*
X117929Y-260012D01*
Y-220309D01*
X118391Y-220117D01*
X156883Y-258609D01*
D02*
G37*
G36*
X353742Y-134483D02*
X355241Y-134938D01*
X356800Y-135091D01*
X356896Y-135082D01*
X357537Y-135863D01*
X360537Y-138863D01*
X361451Y-139613D01*
X362493Y-140170D01*
X363624Y-140513D01*
X364800Y-140629D01*
X365771D01*
Y-209203D01*
X308367Y-266607D01*
X307924Y-266342D01*
X307799Y-265070D01*
X307399Y-263751D01*
X306749Y-262535D01*
X306725Y-262506D01*
X306749Y-262476D01*
X307399Y-261260D01*
X307799Y-259941D01*
X307934Y-258569D01*
X307799Y-257196D01*
X307399Y-255877D01*
X306749Y-254661D01*
X306725Y-254632D01*
X306749Y-254602D01*
X307399Y-253386D01*
X307799Y-252067D01*
X307934Y-250695D01*
X307799Y-249322D01*
X307399Y-248003D01*
X306749Y-246787D01*
X306725Y-246758D01*
X306749Y-246728D01*
X307399Y-245512D01*
X307799Y-244193D01*
X307934Y-242821D01*
X307799Y-241448D01*
X307399Y-240129D01*
X306749Y-238913D01*
X306725Y-238884D01*
X306749Y-238854D01*
X307399Y-237638D01*
X307799Y-236319D01*
X307934Y-234947D01*
X307799Y-233574D01*
X307399Y-232255D01*
X306749Y-231039D01*
X306725Y-231010D01*
X306749Y-230980D01*
X307399Y-229764D01*
X307799Y-228445D01*
X307934Y-227073D01*
X307799Y-225700D01*
X307399Y-224381D01*
X306749Y-223165D01*
X306724Y-223135D01*
X306749Y-223106D01*
X307399Y-221890D01*
X307799Y-220571D01*
X307934Y-219198D01*
X307799Y-217826D01*
X307399Y-216507D01*
X306749Y-215291D01*
X306725Y-215261D01*
X306749Y-215232D01*
X307399Y-214016D01*
X307799Y-212697D01*
X307934Y-211324D01*
X307799Y-209952D01*
X307399Y-208633D01*
X306933Y-207762D01*
X307470Y-206758D01*
X307813Y-205627D01*
X307929Y-204450D01*
Y-202450D01*
X307813Y-201274D01*
X307470Y-200143D01*
X306913Y-199101D01*
X306163Y-198187D01*
X305250Y-197437D01*
X304207Y-196880D01*
X303076Y-196537D01*
X301900Y-196421D01*
X300658D01*
X300467Y-195959D01*
X351063Y-145363D01*
X351813Y-144449D01*
X352370Y-143407D01*
X352713Y-142276D01*
X352829Y-141100D01*
X352829Y-141100D01*
Y-134481D01*
X353258Y-134224D01*
X353742Y-134483D01*
D02*
G37*
G36*
X172607Y-264393D02*
X172900Y-267514D01*
X172611Y-267246D01*
X172311Y-267005D01*
X171999Y-266793D01*
X171675Y-266609D01*
X171339Y-266454D01*
X170992Y-266326D01*
X170633Y-266227D01*
X170262Y-266157D01*
X169880Y-266114D01*
X169486Y-266100D01*
X167486Y-264100D01*
X167852Y-264086D01*
X168149Y-264043D01*
X168378Y-263973D01*
X168540Y-263874D01*
X168632Y-263747D01*
X168657Y-263591D01*
X168613Y-263407D01*
X168501Y-263195D01*
X168320Y-262954D01*
X168072Y-262686D01*
X172607Y-264393D01*
D02*
G37*
G36*
X230824Y-267590D02*
X230637Y-267792D01*
X230470Y-268005D01*
X230323Y-268228D01*
X230195Y-268460D01*
X230088Y-268703D01*
X230001Y-268956D01*
X229934Y-269220D01*
X229887Y-269493D01*
X229860Y-269777D01*
X229853Y-270071D01*
X226929Y-267147D01*
X227223Y-267140D01*
X227507Y-267113D01*
X227780Y-267066D01*
X228044Y-266999D01*
X228297Y-266912D01*
X228540Y-266805D01*
X228772Y-266677D01*
X228995Y-266530D01*
X229208Y-266363D01*
X229410Y-266176D01*
X230824Y-267590D01*
D02*
G37*
G36*
X190824D02*
X190637Y-267792D01*
X190470Y-268005D01*
X190322Y-268228D01*
X190195Y-268460D01*
X190088Y-268703D01*
X190001Y-268956D01*
X189934Y-269220D01*
X189887Y-269493D01*
X189860Y-269777D01*
X189853Y-270071D01*
X186930Y-267147D01*
X187223Y-267140D01*
X187507Y-267113D01*
X187780Y-267066D01*
X188043Y-266999D01*
X188297Y-266912D01*
X188540Y-266805D01*
X188772Y-266677D01*
X188995Y-266530D01*
X189208Y-266363D01*
X189410Y-266176D01*
X190824Y-267590D01*
D02*
G37*
G36*
X180824D02*
X180637Y-267792D01*
X180470Y-268005D01*
X180323Y-268228D01*
X180195Y-268460D01*
X180088Y-268703D01*
X180001Y-268956D01*
X179934Y-269220D01*
X179887Y-269493D01*
X179860Y-269777D01*
X179853Y-270071D01*
X176929Y-267147D01*
X177223Y-267140D01*
X177507Y-267113D01*
X177780Y-267066D01*
X178043Y-266999D01*
X178297Y-266912D01*
X178540Y-266805D01*
X178772Y-266677D01*
X178995Y-266530D01*
X179208Y-266363D01*
X179410Y-266176D01*
X180824Y-267590D01*
D02*
G37*
G36*
X174592Y-266363D02*
X174805Y-266530D01*
X175028Y-266677D01*
X175260Y-266805D01*
X175503Y-266912D01*
X175757Y-266999D01*
X176020Y-267066D01*
X176293Y-267113D01*
X176577Y-267140D01*
X176871Y-267147D01*
X173947Y-270071D01*
X173940Y-269777D01*
X173913Y-269493D01*
X173866Y-269220D01*
X173799Y-268956D01*
X173712Y-268703D01*
X173605Y-268460D01*
X173477Y-268228D01*
X173330Y-268005D01*
X173163Y-267792D01*
X172976Y-267590D01*
X174390Y-266176D01*
X174592Y-266363D01*
D02*
G37*
G36*
X74592D02*
X74805Y-266530D01*
X75028Y-266677D01*
X75260Y-266805D01*
X75503Y-266912D01*
X75757Y-266999D01*
X76020Y-267066D01*
X76293Y-267113D01*
X76577Y-267140D01*
X76871Y-267147D01*
X73947Y-270071D01*
X73940Y-269777D01*
X73913Y-269493D01*
X73866Y-269220D01*
X73799Y-268956D01*
X73712Y-268703D01*
X73605Y-268460D01*
X73478Y-268228D01*
X73330Y-268005D01*
X73163Y-267792D01*
X72976Y-267590D01*
X74390Y-266176D01*
X74592Y-266363D01*
D02*
G37*
G36*
X186871Y-273053D02*
X186577Y-273060D01*
X186293Y-273087D01*
X186020Y-273134D01*
X185757Y-273201D01*
X185503Y-273288D01*
X185260Y-273395D01*
X185028Y-273522D01*
X184805Y-273670D01*
X184592Y-273837D01*
X184390Y-274024D01*
X182976Y-272610D01*
X183163Y-272408D01*
X183330Y-272195D01*
X183477Y-271972D01*
X183605Y-271740D01*
X183712Y-271497D01*
X183799Y-271244D01*
X183866Y-270980D01*
X183913Y-270707D01*
X183940Y-270423D01*
X183947Y-270129D01*
X186871Y-273053D01*
D02*
G37*
G36*
X169860Y-270423D02*
X169887Y-270707D01*
X169934Y-270980D01*
X170001Y-271244D01*
X170088Y-271497D01*
X170195Y-271740D01*
X170323Y-271972D01*
X170470Y-272195D01*
X170637Y-272408D01*
X170824Y-272610D01*
X169410Y-274024D01*
X169208Y-273837D01*
X168995Y-273670D01*
X168772Y-273522D01*
X168540Y-273395D01*
X168297Y-273288D01*
X168208Y-273257D01*
X168167Y-273342D01*
X168071Y-273589D01*
X167996Y-273844D01*
X167943Y-274106D01*
X167911Y-274374D01*
X167900Y-274650D01*
X165900D01*
X165889Y-274374D01*
X165857Y-274106D01*
X165804Y-273844D01*
X165729Y-273589D01*
X165633Y-273342D01*
X165516Y-273101D01*
X165377Y-272868D01*
X165217Y-272641D01*
X165036Y-272421D01*
X164833Y-272209D01*
X167773D01*
X169853Y-270129D01*
X169860Y-270423D01*
D02*
G37*
G36*
X299689Y-271686D02*
X299985Y-271937D01*
X300127Y-272038D01*
X300263Y-272124D01*
X300396Y-272195D01*
X300524Y-272249D01*
X300647Y-272287D01*
X300766Y-272310D01*
X300880Y-272317D01*
X298900Y-274297D01*
X298893Y-274182D01*
X298871Y-274063D01*
X298832Y-273940D01*
X298778Y-273812D01*
X298708Y-273680D01*
X298622Y-273543D01*
X298520Y-273402D01*
X298402Y-273256D01*
X298120Y-272950D01*
X299534Y-271536D01*
X299689Y-271686D01*
D02*
G37*
G36*
X248764Y-272421D02*
X248583Y-272641D01*
X248423Y-272868D01*
X248284Y-273101D01*
X248167Y-273342D01*
X248071Y-273589D01*
X247996Y-273844D01*
X247943Y-274106D01*
X247911Y-274374D01*
X247900Y-274650D01*
X245900D01*
X245889Y-274374D01*
X245857Y-274106D01*
X245804Y-273844D01*
X245729Y-273589D01*
X245633Y-273342D01*
X245516Y-273101D01*
X245377Y-272868D01*
X245217Y-272641D01*
X245036Y-272421D01*
X244833Y-272209D01*
X248967D01*
X248764Y-272421D01*
D02*
G37*
G36*
X238764D02*
X238583Y-272641D01*
X238423Y-272868D01*
X238284Y-273101D01*
X238167Y-273342D01*
X238071Y-273589D01*
X237996Y-273844D01*
X237943Y-274106D01*
X237911Y-274374D01*
X237900Y-274650D01*
X235900D01*
X235889Y-274374D01*
X235857Y-274106D01*
X235804Y-273844D01*
X235729Y-273589D01*
X235633Y-273342D01*
X235516Y-273101D01*
X235377Y-272868D01*
X235217Y-272641D01*
X235036Y-272421D01*
X234833Y-272209D01*
X238967D01*
X238764Y-272421D01*
D02*
G37*
G36*
X228764D02*
X228583Y-272641D01*
X228423Y-272868D01*
X228284Y-273101D01*
X228167Y-273342D01*
X228071Y-273589D01*
X227996Y-273844D01*
X227943Y-274106D01*
X227911Y-274374D01*
X227900Y-274650D01*
X225900D01*
X225889Y-274374D01*
X225857Y-274106D01*
X225804Y-273844D01*
X225729Y-273589D01*
X225633Y-273342D01*
X225516Y-273101D01*
X225377Y-272868D01*
X225217Y-272641D01*
X225036Y-272421D01*
X224833Y-272209D01*
X228967D01*
X228764Y-272421D01*
D02*
G37*
G36*
X218764D02*
X218583Y-272641D01*
X218423Y-272868D01*
X218284Y-273101D01*
X218167Y-273342D01*
X218071Y-273589D01*
X217996Y-273844D01*
X217943Y-274106D01*
X217911Y-274374D01*
X217900Y-274650D01*
X215900D01*
X215889Y-274374D01*
X215857Y-274106D01*
X215804Y-273844D01*
X215729Y-273589D01*
X215633Y-273342D01*
X215516Y-273101D01*
X215377Y-272868D01*
X215217Y-272641D01*
X215036Y-272421D01*
X214833Y-272209D01*
X218967D01*
X218764Y-272421D01*
D02*
G37*
G36*
X208764D02*
X208583Y-272641D01*
X208423Y-272868D01*
X208284Y-273101D01*
X208167Y-273342D01*
X208071Y-273589D01*
X207996Y-273844D01*
X207943Y-274106D01*
X207911Y-274374D01*
X207900Y-274650D01*
X205900D01*
X205889Y-274374D01*
X205857Y-274106D01*
X205804Y-273844D01*
X205729Y-273589D01*
X205633Y-273342D01*
X205516Y-273101D01*
X205377Y-272868D01*
X205217Y-272641D01*
X205036Y-272421D01*
X204833Y-272209D01*
X208967D01*
X208764Y-272421D01*
D02*
G37*
G36*
X198764D02*
X198583Y-272641D01*
X198423Y-272868D01*
X198284Y-273101D01*
X198167Y-273342D01*
X198071Y-273589D01*
X197996Y-273844D01*
X197943Y-274106D01*
X197911Y-274374D01*
X197900Y-274650D01*
X195900D01*
X195889Y-274374D01*
X195857Y-274106D01*
X195804Y-273844D01*
X195729Y-273589D01*
X195633Y-273342D01*
X195516Y-273101D01*
X195377Y-272868D01*
X195217Y-272641D01*
X195036Y-272421D01*
X194833Y-272209D01*
X198967D01*
X198764Y-272421D01*
D02*
G37*
G36*
X158764D02*
X158583Y-272641D01*
X158423Y-272868D01*
X158284Y-273101D01*
X158167Y-273342D01*
X158071Y-273589D01*
X157996Y-273844D01*
X157943Y-274106D01*
X157911Y-274374D01*
X157900Y-274650D01*
X155900D01*
X155889Y-274374D01*
X155857Y-274106D01*
X155804Y-273844D01*
X155729Y-273589D01*
X155633Y-273342D01*
X155516Y-273101D01*
X155377Y-272868D01*
X155217Y-272641D01*
X155036Y-272421D01*
X154833Y-272209D01*
X158967D01*
X158764Y-272421D01*
D02*
G37*
G36*
X148764D02*
X148583Y-272641D01*
X148423Y-272868D01*
X148284Y-273101D01*
X148167Y-273342D01*
X148071Y-273589D01*
X147996Y-273844D01*
X147943Y-274106D01*
X147911Y-274374D01*
X147900Y-274650D01*
X145900D01*
X145889Y-274374D01*
X145857Y-274106D01*
X145804Y-273844D01*
X145729Y-273589D01*
X145633Y-273342D01*
X145516Y-273101D01*
X145377Y-272868D01*
X145217Y-272641D01*
X145036Y-272421D01*
X144833Y-272209D01*
X148967D01*
X148764Y-272421D01*
D02*
G37*
G36*
X138764D02*
X138583Y-272641D01*
X138423Y-272868D01*
X138284Y-273101D01*
X138167Y-273342D01*
X138071Y-273589D01*
X137996Y-273844D01*
X137943Y-274106D01*
X137911Y-274374D01*
X137900Y-274650D01*
X135900D01*
X135889Y-274374D01*
X135857Y-274106D01*
X135804Y-273844D01*
X135729Y-273589D01*
X135633Y-273342D01*
X135516Y-273101D01*
X135377Y-272868D01*
X135217Y-272641D01*
X135036Y-272421D01*
X134833Y-272209D01*
X138967D01*
X138764Y-272421D01*
D02*
G37*
G36*
X128764D02*
X128583Y-272641D01*
X128423Y-272868D01*
X128284Y-273101D01*
X128167Y-273342D01*
X128071Y-273589D01*
X127996Y-273844D01*
X127943Y-274106D01*
X127911Y-274374D01*
X127900Y-274650D01*
X125900D01*
X125889Y-274374D01*
X125857Y-274106D01*
X125804Y-273844D01*
X125729Y-273589D01*
X125633Y-273342D01*
X125516Y-273101D01*
X125377Y-272868D01*
X125217Y-272641D01*
X125036Y-272421D01*
X124833Y-272209D01*
X128967D01*
X128764Y-272421D01*
D02*
G37*
G36*
X118764D02*
X118583Y-272641D01*
X118423Y-272868D01*
X118284Y-273101D01*
X118167Y-273342D01*
X118071Y-273589D01*
X117996Y-273844D01*
X117943Y-274106D01*
X117911Y-274374D01*
X117900Y-274650D01*
X115900D01*
X115889Y-274374D01*
X115857Y-274106D01*
X115804Y-273844D01*
X115729Y-273589D01*
X115633Y-273342D01*
X115516Y-273101D01*
X115377Y-272868D01*
X115217Y-272641D01*
X115036Y-272421D01*
X114833Y-272209D01*
X118967D01*
X118764Y-272421D01*
D02*
G37*
G36*
X108764D02*
X108583Y-272641D01*
X108423Y-272868D01*
X108284Y-273101D01*
X108167Y-273342D01*
X108071Y-273589D01*
X107996Y-273844D01*
X107943Y-274106D01*
X107911Y-274374D01*
X107900Y-274650D01*
X105900D01*
X105889Y-274374D01*
X105857Y-274106D01*
X105804Y-273844D01*
X105729Y-273589D01*
X105633Y-273342D01*
X105516Y-273101D01*
X105377Y-272868D01*
X105217Y-272641D01*
X105036Y-272421D01*
X104833Y-272209D01*
X108967D01*
X108764Y-272421D01*
D02*
G37*
G36*
X98764D02*
X98583Y-272641D01*
X98423Y-272868D01*
X98284Y-273101D01*
X98167Y-273342D01*
X98071Y-273589D01*
X97996Y-273844D01*
X97943Y-274106D01*
X97911Y-274374D01*
X97900Y-274650D01*
X95900D01*
X95889Y-274374D01*
X95857Y-274106D01*
X95804Y-273844D01*
X95729Y-273589D01*
X95633Y-273342D01*
X95516Y-273101D01*
X95377Y-272868D01*
X95217Y-272641D01*
X95036Y-272421D01*
X94833Y-272209D01*
X98967D01*
X98764Y-272421D01*
D02*
G37*
G36*
X88764D02*
X88583Y-272641D01*
X88423Y-272868D01*
X88284Y-273101D01*
X88167Y-273342D01*
X88071Y-273589D01*
X87996Y-273844D01*
X87943Y-274106D01*
X87911Y-274374D01*
X87900Y-274650D01*
X85900D01*
X85889Y-274374D01*
X85857Y-274106D01*
X85804Y-273844D01*
X85729Y-273589D01*
X85633Y-273342D01*
X85516Y-273101D01*
X85377Y-272868D01*
X85217Y-272641D01*
X85036Y-272421D01*
X84833Y-272209D01*
X88967D01*
X88764Y-272421D01*
D02*
G37*
G36*
X267910Y-281683D02*
X267940Y-282025D01*
X267990Y-282327D01*
X268060Y-282589D01*
X268150Y-282810D01*
X268260Y-282991D01*
X268390Y-283132D01*
X268540Y-283233D01*
X268710Y-283293D01*
X268900Y-283313D01*
X264900D01*
X265090Y-283293D01*
X265260Y-283233D01*
X265410Y-283132D01*
X265540Y-282991D01*
X265650Y-282810D01*
X265740Y-282589D01*
X265810Y-282327D01*
X265860Y-282025D01*
X265890Y-281683D01*
X265900Y-281301D01*
X267900D01*
X267910Y-281683D01*
D02*
G37*
G36*
X257911Y-281967D02*
X257943Y-282236D01*
X257996Y-282498D01*
X258071Y-282752D01*
X258167Y-283000D01*
X258284Y-283241D01*
X258423Y-283474D01*
X258583Y-283701D01*
X258764Y-283921D01*
X258967Y-284133D01*
X254833D01*
X255036Y-283921D01*
X255217Y-283701D01*
X255377Y-283474D01*
X255516Y-283241D01*
X255633Y-283000D01*
X255729Y-282752D01*
X255804Y-282498D01*
X255857Y-282236D01*
X255889Y-281967D01*
X255900Y-281692D01*
X257900D01*
X257911Y-281967D01*
D02*
G37*
G36*
X247911D02*
X247943Y-282236D01*
X247996Y-282498D01*
X248071Y-282752D01*
X248167Y-283000D01*
X248284Y-283241D01*
X248423Y-283474D01*
X248583Y-283701D01*
X248764Y-283921D01*
X248967Y-284133D01*
X244833D01*
X245036Y-283921D01*
X245217Y-283701D01*
X245377Y-283474D01*
X245516Y-283241D01*
X245633Y-283000D01*
X245729Y-282752D01*
X245804Y-282498D01*
X245857Y-282236D01*
X245889Y-281967D01*
X245900Y-281692D01*
X247900D01*
X247911Y-281967D01*
D02*
G37*
G36*
X237911D02*
X237943Y-282236D01*
X237996Y-282498D01*
X238071Y-282752D01*
X238167Y-283000D01*
X238284Y-283241D01*
X238423Y-283474D01*
X238583Y-283701D01*
X238764Y-283921D01*
X238967Y-284133D01*
X234833D01*
X235036Y-283921D01*
X235217Y-283701D01*
X235377Y-283474D01*
X235516Y-283241D01*
X235633Y-283000D01*
X235729Y-282752D01*
X235804Y-282498D01*
X235857Y-282236D01*
X235889Y-281967D01*
X235900Y-281692D01*
X237900D01*
X237911Y-281967D01*
D02*
G37*
G36*
X227911D02*
X227943Y-282236D01*
X227996Y-282498D01*
X228071Y-282752D01*
X228167Y-283000D01*
X228284Y-283241D01*
X228423Y-283474D01*
X228583Y-283701D01*
X228764Y-283921D01*
X228967Y-284133D01*
X224833D01*
X225036Y-283921D01*
X225217Y-283701D01*
X225377Y-283474D01*
X225516Y-283241D01*
X225633Y-283000D01*
X225729Y-282752D01*
X225804Y-282498D01*
X225857Y-282236D01*
X225889Y-281967D01*
X225900Y-281692D01*
X227900D01*
X227911Y-281967D01*
D02*
G37*
G36*
X217911D02*
X217943Y-282236D01*
X217996Y-282498D01*
X218071Y-282752D01*
X218167Y-283000D01*
X218284Y-283241D01*
X218423Y-283474D01*
X218583Y-283701D01*
X218764Y-283921D01*
X218967Y-284133D01*
X214833D01*
X215036Y-283921D01*
X215217Y-283701D01*
X215377Y-283474D01*
X215516Y-283241D01*
X215633Y-283000D01*
X215729Y-282752D01*
X215804Y-282498D01*
X215857Y-282236D01*
X215889Y-281967D01*
X215900Y-281692D01*
X217900D01*
X217911Y-281967D01*
D02*
G37*
G36*
X207911D02*
X207943Y-282236D01*
X207996Y-282498D01*
X208071Y-282752D01*
X208167Y-283000D01*
X208284Y-283241D01*
X208423Y-283474D01*
X208583Y-283701D01*
X208764Y-283921D01*
X208967Y-284133D01*
X204833D01*
X205036Y-283921D01*
X205217Y-283701D01*
X205377Y-283474D01*
X205516Y-283241D01*
X205633Y-283000D01*
X205729Y-282752D01*
X205804Y-282498D01*
X205857Y-282236D01*
X205889Y-281967D01*
X205900Y-281692D01*
X207900D01*
X207911Y-281967D01*
D02*
G37*
G36*
X197911D02*
X197943Y-282236D01*
X197996Y-282498D01*
X198071Y-282752D01*
X198167Y-283000D01*
X198284Y-283241D01*
X198423Y-283474D01*
X198583Y-283701D01*
X198764Y-283921D01*
X198967Y-284133D01*
X194833D01*
X195036Y-283921D01*
X195217Y-283701D01*
X195377Y-283474D01*
X195516Y-283241D01*
X195633Y-283000D01*
X195729Y-282752D01*
X195804Y-282498D01*
X195857Y-282236D01*
X195889Y-281967D01*
X195900Y-281692D01*
X197900D01*
X197911Y-281967D01*
D02*
G37*
G36*
X187911D02*
X187943Y-282236D01*
X187996Y-282498D01*
X188071Y-282752D01*
X188167Y-283000D01*
X188284Y-283241D01*
X188423Y-283474D01*
X188583Y-283701D01*
X188764Y-283921D01*
X188967Y-284133D01*
X184833D01*
X185036Y-283921D01*
X185217Y-283701D01*
X185377Y-283474D01*
X185516Y-283241D01*
X185633Y-283000D01*
X185729Y-282752D01*
X185804Y-282498D01*
X185857Y-282236D01*
X185889Y-281967D01*
X185900Y-281692D01*
X187900D01*
X187911Y-281967D01*
D02*
G37*
G36*
X167911D02*
X167943Y-282236D01*
X167996Y-282498D01*
X168071Y-282752D01*
X168167Y-283000D01*
X168284Y-283241D01*
X168423Y-283474D01*
X168583Y-283701D01*
X168764Y-283921D01*
X168967Y-284133D01*
X164833D01*
X165036Y-283921D01*
X165217Y-283701D01*
X165377Y-283474D01*
X165516Y-283241D01*
X165633Y-283000D01*
X165729Y-282752D01*
X165804Y-282498D01*
X165857Y-282236D01*
X165889Y-281967D01*
X165900Y-281692D01*
X167900D01*
X167911Y-281967D01*
D02*
G37*
G36*
X157911D02*
X157943Y-282236D01*
X157996Y-282498D01*
X158071Y-282752D01*
X158167Y-283000D01*
X158284Y-283241D01*
X158423Y-283474D01*
X158583Y-283701D01*
X158764Y-283921D01*
X158967Y-284133D01*
X154833D01*
X155036Y-283921D01*
X155217Y-283701D01*
X155377Y-283474D01*
X155516Y-283241D01*
X155633Y-283000D01*
X155729Y-282752D01*
X155804Y-282498D01*
X155857Y-282236D01*
X155889Y-281967D01*
X155900Y-281692D01*
X157900D01*
X157911Y-281967D01*
D02*
G37*
G36*
X147911D02*
X147943Y-282236D01*
X147996Y-282498D01*
X148071Y-282752D01*
X148167Y-283000D01*
X148284Y-283241D01*
X148423Y-283474D01*
X148583Y-283701D01*
X148764Y-283921D01*
X148967Y-284133D01*
X144833D01*
X145036Y-283921D01*
X145217Y-283701D01*
X145377Y-283474D01*
X145516Y-283241D01*
X145633Y-283000D01*
X145729Y-282752D01*
X145804Y-282498D01*
X145857Y-282236D01*
X145889Y-281967D01*
X145900Y-281692D01*
X147900D01*
X147911Y-281967D01*
D02*
G37*
G36*
X137911D02*
X137943Y-282236D01*
X137996Y-282498D01*
X138071Y-282752D01*
X138167Y-283000D01*
X138284Y-283241D01*
X138423Y-283474D01*
X138583Y-283701D01*
X138764Y-283921D01*
X138967Y-284133D01*
X134833D01*
X135036Y-283921D01*
X135217Y-283701D01*
X135377Y-283474D01*
X135516Y-283241D01*
X135633Y-283000D01*
X135729Y-282752D01*
X135804Y-282498D01*
X135857Y-282236D01*
X135889Y-281967D01*
X135900Y-281692D01*
X137900D01*
X137911Y-281967D01*
D02*
G37*
G36*
X127911D02*
X127943Y-282236D01*
X127996Y-282498D01*
X128071Y-282752D01*
X128167Y-283000D01*
X128284Y-283241D01*
X128423Y-283474D01*
X128583Y-283701D01*
X128764Y-283921D01*
X128967Y-284133D01*
X124833D01*
X125036Y-283921D01*
X125217Y-283701D01*
X125377Y-283474D01*
X125516Y-283241D01*
X125633Y-283000D01*
X125729Y-282752D01*
X125804Y-282498D01*
X125857Y-282236D01*
X125889Y-281967D01*
X125900Y-281692D01*
X127900D01*
X127911Y-281967D01*
D02*
G37*
G36*
X117911D02*
X117943Y-282236D01*
X117996Y-282498D01*
X118071Y-282752D01*
X118167Y-283000D01*
X118284Y-283241D01*
X118423Y-283474D01*
X118583Y-283701D01*
X118764Y-283921D01*
X118967Y-284133D01*
X114833D01*
X115036Y-283921D01*
X115217Y-283701D01*
X115377Y-283474D01*
X115516Y-283241D01*
X115633Y-283000D01*
X115729Y-282752D01*
X115804Y-282498D01*
X115857Y-282236D01*
X115889Y-281967D01*
X115900Y-281692D01*
X117900D01*
X117911Y-281967D01*
D02*
G37*
G36*
X107911D02*
X107943Y-282236D01*
X107996Y-282498D01*
X108071Y-282752D01*
X108167Y-283000D01*
X108284Y-283241D01*
X108423Y-283474D01*
X108583Y-283701D01*
X108764Y-283921D01*
X108967Y-284133D01*
X104833D01*
X105036Y-283921D01*
X105217Y-283701D01*
X105377Y-283474D01*
X105516Y-283241D01*
X105633Y-283000D01*
X105729Y-282752D01*
X105804Y-282498D01*
X105857Y-282236D01*
X105889Y-281967D01*
X105900Y-281692D01*
X107900D01*
X107911Y-281967D01*
D02*
G37*
G36*
X97911D02*
X97943Y-282236D01*
X97996Y-282498D01*
X98071Y-282752D01*
X98167Y-283000D01*
X98284Y-283241D01*
X98423Y-283474D01*
X98583Y-283701D01*
X98764Y-283921D01*
X98967Y-284133D01*
X94833D01*
X95036Y-283921D01*
X95217Y-283701D01*
X95377Y-283474D01*
X95516Y-283241D01*
X95633Y-283000D01*
X95729Y-282752D01*
X95804Y-282498D01*
X95857Y-282236D01*
X95889Y-281967D01*
X95900Y-281692D01*
X97900D01*
X97911Y-281967D01*
D02*
G37*
G36*
X87911D02*
X87943Y-282236D01*
X87996Y-282498D01*
X88071Y-282752D01*
X88167Y-283000D01*
X88284Y-283241D01*
X88423Y-283474D01*
X88583Y-283701D01*
X88764Y-283921D01*
X88967Y-284133D01*
X84833D01*
X85036Y-283921D01*
X85217Y-283701D01*
X85377Y-283474D01*
X85516Y-283241D01*
X85633Y-283000D01*
X85729Y-282752D01*
X85804Y-282498D01*
X85857Y-282236D01*
X85889Y-281967D01*
X85900Y-281692D01*
X87900D01*
X87911Y-281967D01*
D02*
G37*
G36*
X77911D02*
X77943Y-282236D01*
X77996Y-282498D01*
X78071Y-282752D01*
X78167Y-283000D01*
X78284Y-283241D01*
X78423Y-283474D01*
X78583Y-283701D01*
X78764Y-283921D01*
X78967Y-284133D01*
X74833D01*
X75036Y-283921D01*
X75217Y-283701D01*
X75377Y-283474D01*
X75516Y-283241D01*
X75633Y-283000D01*
X75729Y-282752D01*
X75804Y-282498D01*
X75857Y-282236D01*
X75889Y-281967D01*
X75900Y-281692D01*
X77900D01*
X77911Y-281967D01*
D02*
G37*
G36*
X434796Y-177680D02*
X434853Y-178259D01*
X435291Y-179702D01*
X436002Y-181032D01*
X436959Y-182198D01*
X436974Y-182500D01*
X423137Y-196337D01*
X422387Y-197250D01*
X421830Y-198293D01*
X421487Y-199424D01*
X421371Y-200600D01*
Y-315667D01*
X421361Y-315723D01*
X421346Y-316094D01*
X421323Y-316123D01*
X421153Y-316536D01*
X420948Y-316932D01*
X420902Y-317142D01*
X420820Y-317340D01*
X420761Y-317782D01*
X420666Y-318218D01*
X420676Y-318432D01*
X420648Y-318645D01*
X420706Y-319087D01*
X420727Y-319533D01*
X420792Y-319738D01*
X420820Y-319950D01*
X420991Y-320362D01*
X421126Y-320788D01*
X421242Y-320968D01*
X421323Y-321166D01*
X421371Y-321228D01*
Y-321972D01*
X421323Y-322034D01*
X421242Y-322232D01*
X421126Y-322412D01*
X420991Y-322837D01*
X420820Y-323250D01*
X420792Y-323463D01*
X420727Y-323667D01*
X420706Y-324113D01*
X420648Y-324555D01*
X420676Y-324768D01*
X420666Y-324982D01*
X420761Y-325418D01*
X420820Y-325860D01*
X420902Y-326059D01*
X420948Y-326268D01*
X421153Y-326664D01*
X421323Y-327077D01*
X421347Y-327107D01*
X421354Y-327190D01*
X421358Y-327370D01*
X421371Y-327455D01*
Y-335971D01*
X268742D01*
X268551Y-335509D01*
X276163Y-327897D01*
X276913Y-326983D01*
X277470Y-325941D01*
X277813Y-324810D01*
X277929Y-323633D01*
Y-268129D01*
X279403D01*
X293937Y-282663D01*
X294850Y-283413D01*
X295893Y-283970D01*
X297024Y-284313D01*
X298200Y-284429D01*
X305100D01*
X306276Y-284313D01*
X307407Y-283970D01*
X308450Y-283413D01*
X309363Y-282663D01*
X376063Y-215963D01*
X376063Y-215963D01*
X376813Y-215050D01*
X377370Y-214007D01*
X377713Y-212876D01*
X377829Y-211700D01*
Y-131600D01*
Y-121366D01*
X378291Y-121175D01*
X434796Y-177680D01*
D02*
G37*
G36*
X246870Y-289194D02*
X246577Y-289201D01*
X246293Y-289229D01*
X246020Y-289276D01*
X245757Y-289343D01*
X245503Y-289430D01*
X245260Y-289537D01*
X245027Y-289664D01*
X244805Y-289812D01*
X244592Y-289979D01*
X244390Y-290166D01*
X242976Y-288752D01*
X243163Y-288550D01*
X243330Y-288337D01*
X243478Y-288114D01*
X243605Y-287881D01*
X243712Y-287638D01*
X243799Y-287385D01*
X243866Y-287122D01*
X243913Y-286849D01*
X243940Y-286565D01*
X243947Y-286271D01*
X246870Y-289194D01*
D02*
G37*
G36*
X236871D02*
X236577Y-289201D01*
X236293Y-289229D01*
X236020Y-289276D01*
X235756Y-289343D01*
X235503Y-289430D01*
X235260Y-289537D01*
X235028Y-289664D01*
X234805Y-289812D01*
X234592Y-289979D01*
X234390Y-290166D01*
X232976Y-288752D01*
X233163Y-288550D01*
X233330Y-288337D01*
X233477Y-288114D01*
X233605Y-287881D01*
X233712Y-287638D01*
X233799Y-287385D01*
X233866Y-287122D01*
X233913Y-286849D01*
X233940Y-286565D01*
X233947Y-286271D01*
X236871Y-289194D01*
D02*
G37*
G36*
X216870D02*
X216577Y-289201D01*
X216293Y-289229D01*
X216020Y-289276D01*
X215757Y-289343D01*
X215503Y-289430D01*
X215260Y-289537D01*
X215027Y-289664D01*
X214805Y-289812D01*
X214592Y-289979D01*
X214390Y-290166D01*
X212976Y-288752D01*
X213163Y-288550D01*
X213330Y-288337D01*
X213477Y-288114D01*
X213605Y-287881D01*
X213712Y-287638D01*
X213799Y-287385D01*
X213866Y-287122D01*
X213913Y-286849D01*
X213940Y-286565D01*
X213947Y-286271D01*
X216870Y-289194D01*
D02*
G37*
G36*
X166870D02*
X166577Y-289201D01*
X166293Y-289229D01*
X166020Y-289276D01*
X165756Y-289343D01*
X165503Y-289430D01*
X165260Y-289537D01*
X165027Y-289664D01*
X164805Y-289812D01*
X164592Y-289979D01*
X164390Y-290166D01*
X162976Y-288752D01*
X163163Y-288550D01*
X163330Y-288337D01*
X163478Y-288114D01*
X163605Y-287881D01*
X163712Y-287638D01*
X163799Y-287385D01*
X163866Y-287122D01*
X163913Y-286849D01*
X163940Y-286565D01*
X163947Y-286271D01*
X166870Y-289194D01*
D02*
G37*
G36*
X258764Y-288563D02*
X258583Y-288783D01*
X258423Y-289009D01*
X258284Y-289243D01*
X258167Y-289484D01*
X258071Y-289731D01*
X257996Y-289986D01*
X257943Y-290248D01*
X257911Y-290516D01*
X257900Y-290792D01*
X255900D01*
X255889Y-290516D01*
X255857Y-290248D01*
X255804Y-289986D01*
X255729Y-289731D01*
X255633Y-289484D01*
X255516Y-289243D01*
X255377Y-289009D01*
X255217Y-288783D01*
X255036Y-288563D01*
X254833Y-288351D01*
X258967D01*
X258764Y-288563D01*
D02*
G37*
G36*
X178764D02*
X178583Y-288783D01*
X178423Y-289009D01*
X178284Y-289243D01*
X178167Y-289484D01*
X178071Y-289731D01*
X177996Y-289986D01*
X177943Y-290248D01*
X177911Y-290516D01*
X177900Y-290792D01*
X175900D01*
X175889Y-290516D01*
X175857Y-290248D01*
X175804Y-289986D01*
X175729Y-289731D01*
X175633Y-289484D01*
X175516Y-289243D01*
X175377Y-289009D01*
X175217Y-288783D01*
X175036Y-288563D01*
X174833Y-288351D01*
X178967D01*
X178764Y-288563D01*
D02*
G37*
G36*
X268710Y-289203D02*
X268540Y-289263D01*
X268390Y-289363D01*
X268260Y-289503D01*
X268150Y-289683D01*
X268060Y-289903D01*
X267990Y-290163D01*
X267940Y-290463D01*
X267910Y-290803D01*
X267900Y-291182D01*
X265900D01*
X265890Y-290803D01*
X265860Y-290463D01*
X265810Y-290163D01*
X265740Y-289903D01*
X265650Y-289683D01*
X265540Y-289503D01*
X265410Y-289363D01*
X265260Y-289263D01*
X265090Y-289203D01*
X264900Y-289182D01*
X268900D01*
X268710Y-289203D01*
D02*
G37*
G36*
X539745Y-303309D02*
X539551Y-303174D01*
X539341Y-303054D01*
X539113Y-302947D01*
X538867Y-302855D01*
X538605Y-302777D01*
X538325Y-302713D01*
X538028Y-302664D01*
X537713Y-302628D01*
X537033Y-302600D01*
Y-300600D01*
X537382Y-300593D01*
X538028Y-300536D01*
X538325Y-300487D01*
X538605Y-300423D01*
X538867Y-300345D01*
X539113Y-300253D01*
X539341Y-300146D01*
X539551Y-300026D01*
X539745Y-299891D01*
Y-303309D01*
D02*
G37*
G36*
X132460Y-292886D02*
X133842Y-293625D01*
X135341Y-294079D01*
X136900Y-294233D01*
X137094Y-294214D01*
X137308Y-294666D01*
X128391Y-303583D01*
X127929Y-303391D01*
Y-294132D01*
X128459Y-294079D01*
X129958Y-293625D01*
X131340Y-292886D01*
X131900Y-292426D01*
X132460Y-292886D01*
D02*
G37*
G36*
X539745Y-308309D02*
X539551Y-308174D01*
X539341Y-308054D01*
X539113Y-307947D01*
X538867Y-307855D01*
X538605Y-307777D01*
X538325Y-307713D01*
X538028Y-307664D01*
X537713Y-307628D01*
X537033Y-307600D01*
Y-305600D01*
X537382Y-305593D01*
X538028Y-305536D01*
X538325Y-305487D01*
X538605Y-305423D01*
X538867Y-305345D01*
X539113Y-305253D01*
X539341Y-305146D01*
X539551Y-305026D01*
X539745Y-304891D01*
Y-308309D01*
D02*
G37*
G36*
X150683Y-301391D02*
X135504Y-316569D01*
X135400Y-316559D01*
X133734Y-316723D01*
X132695Y-317038D01*
X132431Y-316596D01*
X148097Y-300929D01*
X150491D01*
X150683Y-301391D01*
D02*
G37*
G36*
X170871Y-298909D02*
Y-303984D01*
X169899Y-317525D01*
X169375Y-317849D01*
X169205Y-317779D01*
X169160Y-317773D01*
X169119Y-317757D01*
X168509Y-317687D01*
X168473Y-317682D01*
X168444Y-317660D01*
X167963Y-317278D01*
X167922Y-317260D01*
X167887Y-317233D01*
X167319Y-316998D01*
X166756Y-316753D01*
X166712Y-316746D01*
X166670Y-316729D01*
X166061Y-316649D01*
X165454Y-316558D01*
X165383Y-316557D01*
X163763Y-314937D01*
X162849Y-314187D01*
X161807Y-313630D01*
X160676Y-313287D01*
X159500Y-313171D01*
X156609D01*
X156417Y-312709D01*
X170409Y-298717D01*
X170871Y-298909D01*
D02*
G37*
G36*
X433407Y-316282D02*
X433464Y-316928D01*
X433513Y-317225D01*
X433577Y-317505D01*
X433655Y-317767D01*
X433747Y-318013D01*
X433854Y-318241D01*
X433974Y-318451D01*
X434109Y-318645D01*
X430691D01*
X430826Y-318451D01*
X430946Y-318241D01*
X431053Y-318013D01*
X431145Y-317767D01*
X431223Y-317505D01*
X431287Y-317225D01*
X431336Y-316928D01*
X431372Y-316613D01*
X431400Y-315933D01*
X433400D01*
X433407Y-316282D01*
D02*
G37*
G36*
X428407Y-316282D02*
X428464Y-316928D01*
X428513Y-317225D01*
X428577Y-317505D01*
X428655Y-317767D01*
X428747Y-318013D01*
X428854Y-318241D01*
X428974Y-318451D01*
X429109Y-318645D01*
X425691D01*
X425826Y-318451D01*
X425946Y-318241D01*
X426053Y-318013D01*
X426145Y-317767D01*
X426223Y-317505D01*
X426287Y-317225D01*
X426336Y-316928D01*
X426372Y-316613D01*
X426400Y-315933D01*
X428400D01*
X428407Y-316282D01*
D02*
G37*
G36*
X220958Y-293657D02*
X201137Y-313479D01*
X200387Y-314392D01*
X199830Y-315435D01*
X199487Y-316566D01*
X199371Y-317742D01*
Y-319047D01*
X199322Y-319098D01*
X199247Y-319199D01*
X198589Y-320001D01*
X197707Y-319530D01*
X196576Y-319187D01*
X196557Y-319185D01*
X196529Y-319147D01*
X196494Y-319120D01*
X196467Y-319084D01*
X195979Y-318710D01*
X195499Y-318328D01*
X195458Y-318310D01*
X195422Y-318283D01*
X194854Y-318047D01*
X194291Y-317802D01*
X194247Y-317796D01*
X194206Y-317779D01*
X193597Y-317699D01*
X192989Y-317608D01*
X192945Y-317613D01*
X192901Y-317607D01*
X192291Y-317687D01*
X191681Y-317757D01*
X191640Y-317773D01*
X191595Y-317779D01*
X191028Y-318014D01*
X190456Y-318239D01*
X190420Y-318265D01*
X190400Y-318274D01*
X190380Y-318265D01*
X190344Y-318239D01*
X189772Y-318014D01*
X189205Y-317779D01*
X189160Y-317773D01*
X189119Y-317757D01*
X188508Y-317687D01*
X187899Y-317607D01*
X187855Y-317613D01*
X187811Y-317608D01*
X187203Y-317699D01*
X186594Y-317779D01*
X186553Y-317796D01*
X186509Y-317802D01*
X185945Y-318047D01*
X185400Y-318273D01*
X184854Y-318047D01*
X184291Y-317802D01*
X184247Y-317796D01*
X184206Y-317779D01*
X183597Y-317699D01*
X182989Y-317608D01*
X182945Y-317613D01*
X182901Y-317607D01*
X182480Y-317662D01*
X182003Y-317320D01*
X182914Y-304632D01*
X182908Y-304415D01*
X182929Y-304200D01*
Y-297229D01*
X211942D01*
X213118Y-297113D01*
X214249Y-296770D01*
X215291Y-296213D01*
X216205Y-295463D01*
X217494Y-294175D01*
X218459Y-294079D01*
X219958Y-293625D01*
X220657Y-293251D01*
X220958Y-293657D01*
D02*
G37*
G36*
X438407Y-316282D02*
X438464Y-316928D01*
X438513Y-317225D01*
X438577Y-317505D01*
X438625Y-317665D01*
X438835Y-317525D01*
X439160Y-317270D01*
X439515Y-316957D01*
X439901Y-316585D01*
X440788Y-318527D01*
X440429Y-318899D01*
X439856Y-319584D01*
X439642Y-319897D01*
X439475Y-320190D01*
X439357Y-320462D01*
X439286Y-320715D01*
X439263Y-320949D01*
X439288Y-321162D01*
X439361Y-321355D01*
X437926Y-318645D01*
X435691D01*
X435826Y-318451D01*
X435946Y-318241D01*
X436053Y-318013D01*
X436145Y-317767D01*
X436223Y-317505D01*
X436287Y-317225D01*
X436336Y-316928D01*
X436372Y-316613D01*
X436400Y-315933D01*
X438400D01*
X438407Y-316282D01*
D02*
G37*
G36*
X501092Y-319322D02*
X500912Y-319515D01*
X500751Y-319716D01*
X500609Y-319923D01*
X500487Y-320138D01*
X500383Y-320359D01*
X500299Y-320588D01*
X500235Y-320824D01*
X500189Y-321066D01*
X500163Y-321316D01*
X500156Y-321572D01*
X497428Y-318844D01*
X497684Y-318837D01*
X497934Y-318811D01*
X498176Y-318765D01*
X498412Y-318701D01*
X498641Y-318617D01*
X498862Y-318513D01*
X499077Y-318391D01*
X499284Y-318249D01*
X499485Y-318088D01*
X499678Y-317908D01*
X501092Y-319322D01*
D02*
G37*
G36*
X110302Y-321612D02*
X109905Y-322023D01*
X109280Y-322760D01*
X109053Y-323086D01*
X108882Y-323383D01*
X108768Y-323651D01*
X108710Y-323891D01*
X108709Y-324103D01*
X108764Y-324286D01*
X108876Y-324440D01*
X106060Y-321624D01*
X106214Y-321736D01*
X106397Y-321791D01*
X106609Y-321790D01*
X106849Y-321732D01*
X107117Y-321618D01*
X107414Y-321447D01*
X107740Y-321220D01*
X108094Y-320936D01*
X108888Y-320198D01*
X110302Y-321612D01*
D02*
G37*
G36*
X216414Y-319951D02*
X216458Y-320255D01*
X216530Y-320556D01*
X216632Y-320855D01*
X216762Y-321151D01*
X216922Y-321446D01*
X217110Y-321738D01*
X217328Y-322027D01*
X217575Y-322315D01*
X217850Y-322601D01*
X212950D01*
X213226Y-322315D01*
X213472Y-322027D01*
X213689Y-321738D01*
X213878Y-321446D01*
X214037Y-321151D01*
X214168Y-320855D01*
X214269Y-320556D01*
X214342Y-320255D01*
X214386Y-319951D01*
X214400Y-319646D01*
X216400D01*
X216414Y-319951D01*
D02*
G37*
G36*
X206415D02*
X206458Y-320255D01*
X206530Y-320556D01*
X206632Y-320855D01*
X206763Y-321151D01*
X206922Y-321446D01*
X207111Y-321738D01*
X207328Y-322027D01*
X207575Y-322315D01*
X207850Y-322601D01*
X202950D01*
X203225Y-322315D01*
X203472Y-322027D01*
X203690Y-321738D01*
X203878Y-321446D01*
X204037Y-321151D01*
X204168Y-320855D01*
X204270Y-320556D01*
X204342Y-320255D01*
X204385Y-319951D01*
X204400Y-319646D01*
X206400D01*
X206415Y-319951D01*
D02*
G37*
G36*
X265871Y-303809D02*
Y-321136D01*
X264073Y-322934D01*
X263589Y-322812D01*
X263291Y-321831D01*
X262502Y-320355D01*
X261439Y-319060D01*
X260145Y-317998D01*
X258669Y-317209D01*
X257066Y-316723D01*
X255400Y-316559D01*
X253734Y-316723D01*
X252695Y-317038D01*
X252431Y-316596D01*
X265409Y-303617D01*
X265871Y-303809D01*
D02*
G37*
G36*
X192901Y-327550D02*
X192615Y-327274D01*
X192327Y-327028D01*
X192038Y-326811D01*
X191746Y-326622D01*
X191451Y-326463D01*
X191155Y-326332D01*
X190856Y-326231D01*
X190555Y-326158D01*
X190400Y-326136D01*
X190245Y-326158D01*
X189944Y-326231D01*
X189645Y-326332D01*
X189349Y-326463D01*
X189054Y-326622D01*
X188762Y-326811D01*
X188472Y-327028D01*
X188185Y-327274D01*
X187899Y-327550D01*
Y-322650D01*
X188185Y-322925D01*
X188472Y-323172D01*
X188762Y-323390D01*
X189054Y-323578D01*
X189349Y-323738D01*
X189645Y-323868D01*
X189944Y-323970D01*
X190245Y-324042D01*
X190400Y-324064D01*
X190555Y-324042D01*
X190856Y-323970D01*
X191155Y-323868D01*
X191451Y-323738D01*
X191746Y-323578D01*
X192038Y-323390D01*
X192327Y-323172D01*
X192615Y-322925D01*
X192901Y-322650D01*
Y-327550D01*
D02*
G37*
G36*
X172900D02*
X172615Y-327274D01*
X172327Y-327028D01*
X172038Y-326811D01*
X171746Y-326622D01*
X171451Y-326463D01*
X171155Y-326332D01*
X170856Y-326231D01*
X170555Y-326158D01*
X170400Y-326136D01*
X170245Y-326158D01*
X169944Y-326231D01*
X169645Y-326332D01*
X169349Y-326463D01*
X169054Y-326622D01*
X168762Y-326811D01*
X168473Y-327028D01*
X168185Y-327274D01*
X167900Y-327550D01*
Y-322650D01*
X168185Y-322925D01*
X168473Y-323172D01*
X168762Y-323390D01*
X169054Y-323578D01*
X169349Y-323738D01*
X169645Y-323868D01*
X169944Y-323970D01*
X170245Y-324042D01*
X170400Y-324064D01*
X170555Y-324042D01*
X170856Y-323970D01*
X171155Y-323868D01*
X171451Y-323738D01*
X171746Y-323578D01*
X172038Y-323390D01*
X172327Y-323172D01*
X172615Y-322925D01*
X172900Y-322650D01*
Y-327550D01*
D02*
G37*
G36*
X239964Y-321951D02*
X239758Y-322177D01*
X239574Y-322422D01*
X239413Y-322686D01*
X239273Y-322969D01*
X239156Y-323271D01*
X239060Y-323592D01*
X238987Y-323932D01*
X238936Y-324291D01*
X238907Y-324668D01*
X238900Y-325065D01*
X235435Y-321600D01*
X235832Y-321593D01*
X236209Y-321564D01*
X236568Y-321513D01*
X236908Y-321440D01*
X237229Y-321344D01*
X237531Y-321227D01*
X237814Y-321087D01*
X238078Y-320926D01*
X238323Y-320742D01*
X238549Y-320536D01*
X239964Y-321951D01*
D02*
G37*
G36*
X229964D02*
X229758Y-322177D01*
X229574Y-322422D01*
X229413Y-322686D01*
X229273Y-322969D01*
X229156Y-323271D01*
X229060Y-323592D01*
X228987Y-323932D01*
X228936Y-324291D01*
X228907Y-324668D01*
X228900Y-325065D01*
X225435Y-321600D01*
X225832Y-321593D01*
X226209Y-321564D01*
X226568Y-321513D01*
X226908Y-321440D01*
X227229Y-321344D01*
X227531Y-321227D01*
X227814Y-321087D01*
X228078Y-320926D01*
X228323Y-320742D01*
X228550Y-320536D01*
X229964Y-321951D01*
D02*
G37*
G36*
X162477Y-320742D02*
X162722Y-320926D01*
X162986Y-321087D01*
X163269Y-321227D01*
X163571Y-321344D01*
X163892Y-321440D01*
X164232Y-321513D01*
X164591Y-321564D01*
X164968Y-321593D01*
X165365Y-321600D01*
X161900Y-325065D01*
X161893Y-324668D01*
X161864Y-324291D01*
X161813Y-323932D01*
X161740Y-323592D01*
X161644Y-323271D01*
X161527Y-322969D01*
X161387Y-322686D01*
X161226Y-322422D01*
X161042Y-322177D01*
X160836Y-321951D01*
X162250Y-320536D01*
X162477Y-320742D01*
D02*
G37*
G36*
X149964Y-321951D02*
X149758Y-322177D01*
X149574Y-322422D01*
X149413Y-322686D01*
X149273Y-322969D01*
X149156Y-323271D01*
X149060Y-323592D01*
X148987Y-323932D01*
X148936Y-324291D01*
X148907Y-324668D01*
X148900Y-325065D01*
X145435Y-321600D01*
X145832Y-321593D01*
X146209Y-321564D01*
X146568Y-321513D01*
X146908Y-321440D01*
X147229Y-321344D01*
X147531Y-321227D01*
X147814Y-321087D01*
X148078Y-320926D01*
X148323Y-320742D01*
X148549Y-320536D01*
X149964Y-321951D01*
D02*
G37*
G36*
X119964D02*
X119758Y-322177D01*
X119574Y-322422D01*
X119413Y-322686D01*
X119273Y-322969D01*
X119156Y-323271D01*
X119060Y-323592D01*
X118987Y-323932D01*
X118936Y-324291D01*
X118907Y-324668D01*
X118900Y-325065D01*
X115435Y-321600D01*
X115832Y-321593D01*
X116209Y-321564D01*
X116568Y-321513D01*
X116908Y-321440D01*
X117229Y-321344D01*
X117531Y-321227D01*
X117814Y-321087D01*
X118078Y-320926D01*
X118323Y-320742D01*
X118550Y-320536D01*
X119964Y-321951D01*
D02*
G37*
G36*
X497372Y-324356D02*
X497116Y-324363D01*
X496866Y-324389D01*
X496624Y-324435D01*
X496388Y-324499D01*
X496159Y-324583D01*
X495938Y-324687D01*
X495723Y-324809D01*
X495516Y-324951D01*
X495315Y-325112D01*
X495122Y-325292D01*
X493708Y-323878D01*
X493888Y-323685D01*
X494049Y-323484D01*
X494191Y-323277D01*
X494313Y-323062D01*
X494417Y-322841D01*
X494501Y-322612D01*
X494565Y-322376D01*
X494611Y-322134D01*
X494637Y-321884D01*
X494644Y-321628D01*
X497372Y-324356D01*
D02*
G37*
G36*
X467372D02*
X467116Y-324363D01*
X466866Y-324389D01*
X466623Y-324435D01*
X466388Y-324499D01*
X466159Y-324583D01*
X465938Y-324687D01*
X465723Y-324809D01*
X465516Y-324951D01*
X465315Y-325112D01*
X465122Y-325292D01*
X463708Y-323878D01*
X463888Y-323685D01*
X464049Y-323484D01*
X464191Y-323277D01*
X464313Y-323062D01*
X464417Y-322841D01*
X464501Y-322612D01*
X464565Y-322376D01*
X464611Y-322134D01*
X464637Y-321884D01*
X464644Y-321628D01*
X467372Y-324356D01*
D02*
G37*
G36*
X433441Y-325227D02*
X433432Y-325269D01*
X433425Y-325338D01*
X433413Y-325560D01*
X433400Y-326600D01*
X431400D01*
X431349Y-325213D01*
X433451D01*
X433441Y-325227D01*
D02*
G37*
G36*
X428974Y-324749D02*
X428854Y-324959D01*
X428747Y-325187D01*
X428655Y-325433D01*
X428577Y-325695D01*
X428513Y-325975D01*
X428464Y-326272D01*
X428428Y-326587D01*
X428400Y-327267D01*
X426400D01*
X426393Y-326918D01*
X426336Y-326272D01*
X426287Y-325975D01*
X426223Y-325695D01*
X426145Y-325433D01*
X426053Y-325187D01*
X425946Y-324959D01*
X425826Y-324749D01*
X425691Y-324555D01*
X429109D01*
X428974Y-324749D01*
D02*
G37*
G36*
X176788Y-319731D02*
X176780Y-320037D01*
X176802Y-320343D01*
X176853Y-320648D01*
X176933Y-320954D01*
X177042Y-321259D01*
X177180Y-321564D01*
X177347Y-321869D01*
X177543Y-322173D01*
X177768Y-322478D01*
X177965Y-322713D01*
X178185Y-322925D01*
X178472Y-323172D01*
X178762Y-323390D01*
X179054Y-323578D01*
X179349Y-323738D01*
X179645Y-323868D01*
X179944Y-323970D01*
X180245Y-324042D01*
X180400Y-324064D01*
X180555Y-324042D01*
X180856Y-323970D01*
X181155Y-323868D01*
X181451Y-323738D01*
X181746Y-323578D01*
X182038Y-323390D01*
X182327Y-323172D01*
X182615Y-322925D01*
X182901Y-322650D01*
Y-327550D01*
X182615Y-327274D01*
X182327Y-327028D01*
X182038Y-326811D01*
X181746Y-326622D01*
X181451Y-326463D01*
X181155Y-326332D01*
X180856Y-326231D01*
X180555Y-326158D01*
X180400Y-326136D01*
X180245Y-326158D01*
X179944Y-326231D01*
X179645Y-326332D01*
X179349Y-326463D01*
X179054Y-326622D01*
X178762Y-326811D01*
X178472Y-327028D01*
X178185Y-327274D01*
X177900Y-327550D01*
Y-322774D01*
X173135Y-322431D01*
X173430Y-322167D01*
X173697Y-321897D01*
X173935Y-321624D01*
X174144Y-321346D01*
X174324Y-321064D01*
X174475Y-320777D01*
X174598Y-320486D01*
X174692Y-320191D01*
X174757Y-319892D01*
X174793Y-319588D01*
X176788Y-319731D01*
D02*
G37*
G36*
X158907Y-325532D02*
X158936Y-325909D01*
X158987Y-326268D01*
X159060Y-326608D01*
X159156Y-326929D01*
X159273Y-327231D01*
X159413Y-327514D01*
X159574Y-327778D01*
X159758Y-328023D01*
X159964Y-328250D01*
X158549Y-329664D01*
X158323Y-329458D01*
X158078Y-329274D01*
X157814Y-329113D01*
X157531Y-328973D01*
X157229Y-328856D01*
X156908Y-328760D01*
X156568Y-328687D01*
X156209Y-328636D01*
X155832Y-328607D01*
X155435Y-328600D01*
X158900Y-325135D01*
X158907Y-325532D01*
D02*
G37*
G36*
X148907D02*
X148936Y-325909D01*
X148987Y-326268D01*
X149060Y-326608D01*
X149156Y-326929D01*
X149273Y-327231D01*
X149413Y-327514D01*
X149574Y-327778D01*
X149758Y-328023D01*
X149964Y-328250D01*
X148549Y-329664D01*
X148323Y-329458D01*
X148078Y-329274D01*
X147814Y-329113D01*
X147531Y-328973D01*
X147229Y-328856D01*
X146908Y-328760D01*
X146568Y-328687D01*
X146209Y-328636D01*
X145832Y-328607D01*
X145435Y-328600D01*
X148900Y-325135D01*
X148907Y-325532D01*
D02*
G37*
G36*
X125365Y-328600D02*
X124968Y-328607D01*
X124591Y-328636D01*
X124232Y-328687D01*
X123892Y-328760D01*
X123571Y-328856D01*
X123269Y-328973D01*
X122986Y-329113D01*
X122722Y-329274D01*
X122477Y-329458D01*
X122250Y-329664D01*
X120836Y-328250D01*
X121042Y-328023D01*
X121226Y-327778D01*
X121387Y-327514D01*
X121527Y-327231D01*
X121644Y-326929D01*
X121740Y-326608D01*
X121813Y-326268D01*
X121864Y-325909D01*
X121893Y-325532D01*
X121900Y-325135D01*
X125365Y-328600D01*
D02*
G37*
G36*
X502383Y-308091D02*
X496558Y-313916D01*
X496122Y-313973D01*
X496058Y-314000D01*
X495990Y-314010D01*
X495451Y-314251D01*
X494906Y-314477D01*
X494851Y-314519D01*
X494788Y-314547D01*
X494330Y-314919D01*
X493861Y-315278D01*
X493819Y-315333D01*
X493765Y-315377D01*
X493419Y-315855D01*
X493060Y-316323D01*
X493034Y-316387D01*
X492993Y-316443D01*
X492785Y-316985D01*
X492243Y-317193D01*
X492187Y-317233D01*
X492123Y-317260D01*
X491655Y-317619D01*
X491177Y-317965D01*
X491133Y-318019D01*
X491078Y-318061D01*
X490719Y-318530D01*
X490347Y-318987D01*
X490319Y-319051D01*
X490277Y-319106D01*
X490051Y-319651D01*
X489810Y-320190D01*
X489799Y-320258D01*
X489773Y-320322D01*
X489716Y-320758D01*
X474503Y-335971D01*
X462209D01*
X462017Y-335509D01*
X468213Y-329313D01*
X468920Y-329244D01*
X470382Y-328800D01*
X471730Y-328080D01*
X472911Y-327111D01*
X473880Y-325930D01*
X474600Y-324582D01*
X475044Y-323120D01*
X475193Y-321600D01*
X475044Y-320080D01*
X474600Y-318618D01*
X473880Y-317270D01*
X472911Y-316089D01*
X471730Y-315120D01*
X470382Y-314400D01*
X468920Y-313956D01*
X467400Y-313807D01*
X465880Y-313956D01*
X464418Y-314400D01*
X463070Y-315120D01*
X461889Y-316089D01*
X460920Y-317270D01*
X460200Y-318618D01*
X459756Y-320080D01*
X459687Y-320787D01*
X449903Y-330571D01*
X444897D01*
X442574Y-328248D01*
X443222Y-327459D01*
X443869Y-326248D01*
X444268Y-324935D01*
X444402Y-323569D01*
Y-322043D01*
X444421Y-322024D01*
X444474Y-321953D01*
X458797Y-307629D01*
X502191D01*
X502383Y-308091D01*
D02*
G37*
G36*
X431689Y-339855D02*
X431989Y-340095D01*
X432301Y-340307D01*
X432625Y-340491D01*
X432961Y-340647D01*
X433308Y-340774D01*
X433667Y-340873D01*
X434038Y-340943D01*
X434420Y-340986D01*
X434814Y-341000D01*
X432400Y-343000D01*
X427986Y-341000D01*
X428352Y-340986D01*
X428649Y-340943D01*
X428878Y-340873D01*
X429039Y-340774D01*
X429132Y-340647D01*
X429157Y-340491D01*
X429113Y-340307D01*
X429001Y-340095D01*
X428820Y-339855D01*
X428572Y-339586D01*
X431400D01*
X431689Y-339855D01*
D02*
G37*
%LPC*%
G36*
X134748Y-98571D02*
X134536D01*
X134296Y-98628D01*
X134027Y-98741D01*
X135088D01*
X134932Y-98628D01*
X134748Y-98571D01*
D02*
G37*
G36*
X387514Y-196416D02*
X386142Y-196552D01*
X384822Y-196952D01*
X383606Y-197602D01*
X382540Y-198477D01*
X381666Y-199543D01*
X381016Y-200759D01*
X380615Y-202078D01*
X380480Y-203450D01*
X380615Y-204823D01*
X381016Y-206142D01*
X381666Y-207358D01*
X381690Y-207387D01*
X381666Y-207417D01*
X381016Y-208633D01*
X380615Y-209952D01*
X380480Y-211324D01*
X380615Y-212697D01*
X381016Y-214016D01*
X381666Y-215232D01*
X381690Y-215261D01*
X381666Y-215291D01*
X381016Y-216507D01*
X380615Y-217826D01*
X380480Y-219198D01*
X380615Y-220571D01*
X381016Y-221890D01*
X381666Y-223106D01*
X381690Y-223135D01*
X381666Y-223165D01*
X381016Y-224381D01*
X380615Y-225700D01*
X380480Y-227073D01*
X380615Y-228445D01*
X381016Y-229764D01*
X381666Y-230980D01*
X381690Y-231010D01*
X381666Y-231039D01*
X381016Y-232255D01*
X380615Y-233574D01*
X380480Y-234947D01*
X380615Y-236319D01*
X381016Y-237638D01*
X381666Y-238854D01*
X381690Y-238884D01*
X381666Y-238913D01*
X381016Y-240129D01*
X380615Y-241448D01*
X380480Y-242821D01*
X380615Y-244193D01*
X381016Y-245512D01*
X381666Y-246728D01*
X381690Y-246758D01*
X381666Y-246787D01*
X381016Y-248003D01*
X380615Y-249322D01*
X380480Y-250695D01*
X380615Y-252067D01*
X381016Y-253386D01*
X381666Y-254602D01*
X381690Y-254632D01*
X381666Y-254661D01*
X381016Y-255877D01*
X380615Y-257196D01*
X380480Y-258569D01*
X380615Y-259941D01*
X381016Y-261260D01*
X381666Y-262476D01*
X381690Y-262506D01*
X381666Y-262535D01*
X381016Y-263751D01*
X380615Y-265070D01*
X380480Y-266443D01*
X380615Y-267815D01*
X381016Y-269134D01*
X381666Y-270350D01*
X381690Y-270380D01*
X381666Y-270409D01*
X381016Y-271625D01*
X380615Y-272944D01*
X380480Y-274317D01*
X380615Y-275689D01*
X381016Y-277008D01*
X381666Y-278224D01*
X382540Y-279290D01*
X383606Y-280165D01*
X384822Y-280815D01*
X386142Y-281215D01*
X387514Y-281350D01*
X388886Y-281215D01*
X390206Y-280815D01*
X391422Y-280165D01*
X392488Y-279290D01*
X393363Y-278224D01*
X394013Y-277008D01*
X394413Y-275689D01*
X394548Y-274317D01*
X394413Y-272944D01*
X394013Y-271625D01*
X393363Y-270409D01*
X393339Y-270380D01*
X393363Y-270350D01*
X394013Y-269134D01*
X394413Y-267815D01*
X394548Y-266443D01*
X394413Y-265070D01*
X394013Y-263751D01*
X393363Y-262535D01*
X393339Y-262506D01*
X393363Y-262476D01*
X394013Y-261260D01*
X394413Y-259941D01*
X394548Y-258569D01*
X394413Y-257196D01*
X394013Y-255877D01*
X393363Y-254661D01*
X393339Y-254632D01*
X393363Y-254602D01*
X394013Y-253386D01*
X394413Y-252067D01*
X394548Y-250695D01*
X394413Y-249322D01*
X394013Y-248003D01*
X393363Y-246787D01*
X393339Y-246758D01*
X393363Y-246728D01*
X394013Y-245512D01*
X394413Y-244193D01*
X394548Y-242821D01*
X394413Y-241448D01*
X394013Y-240129D01*
X393363Y-238913D01*
X393339Y-238884D01*
X393363Y-238854D01*
X394013Y-237638D01*
X394413Y-236319D01*
X394548Y-234947D01*
X394413Y-233574D01*
X394013Y-232255D01*
X393363Y-231039D01*
X393339Y-231010D01*
X393363Y-230980D01*
X394013Y-229764D01*
X394413Y-228445D01*
X394548Y-227073D01*
X394413Y-225700D01*
X394013Y-224381D01*
X393363Y-223165D01*
X393339Y-223135D01*
X393363Y-223106D01*
X394013Y-221890D01*
X394413Y-220571D01*
X394548Y-219198D01*
X394413Y-217826D01*
X394013Y-216507D01*
X393363Y-215291D01*
X393339Y-215261D01*
X393363Y-215232D01*
X394013Y-214016D01*
X394413Y-212697D01*
X394548Y-211324D01*
X394413Y-209952D01*
X394013Y-208633D01*
X393363Y-207417D01*
X393339Y-207387D01*
X393363Y-207358D01*
X394013Y-206142D01*
X394413Y-204823D01*
X394548Y-203450D01*
X394413Y-202078D01*
X394013Y-200759D01*
X393363Y-199543D01*
X392488Y-198477D01*
X391422Y-197602D01*
X390206Y-196952D01*
X388886Y-196552D01*
X387514Y-196416D01*
D02*
G37*
%LPD*%
D11*
X497400Y-321600D02*
D03*
X467400D02*
D03*
X405500Y-76100D02*
D03*
Y-46100D02*
D03*
X518300Y-17000D02*
D03*
X488300D02*
D03*
X557400Y-161600D02*
D03*
Y-191600D02*
D03*
X437400Y-251600D02*
D03*
X467400D02*
D03*
X285300Y-92500D02*
D03*
Y-62500D02*
D03*
D12*
X227200Y-86300D02*
D03*
X217200D02*
D03*
X266900Y-195600D02*
D03*
X256900D02*
D03*
X246900D02*
D03*
X236900D02*
D03*
X226900D02*
D03*
X216900D02*
D03*
X206900D02*
D03*
X196900D02*
D03*
X186900D02*
D03*
X176900D02*
D03*
X166900D02*
D03*
X156900D02*
D03*
X146900D02*
D03*
X136900D02*
D03*
X126900D02*
D03*
X116900D02*
D03*
X106900D02*
D03*
X96900D02*
D03*
X86900D02*
D03*
X482400Y-162624D02*
D03*
X496376Y-231600D02*
D03*
X42700Y-38100D02*
D03*
X52700D02*
D03*
X62700D02*
D03*
X135200Y-85800D02*
D03*
Y-75800D02*
D03*
X517400Y-151600D02*
D03*
X76900Y-286242D02*
D03*
X86900D02*
D03*
X96900D02*
D03*
X106900D02*
D03*
X116900D02*
D03*
X126900D02*
D03*
X136900D02*
D03*
X146900D02*
D03*
X156900D02*
D03*
X166900D02*
D03*
X176900D02*
D03*
X186900D02*
D03*
X196900D02*
D03*
X206900D02*
D03*
X216900D02*
D03*
X226900D02*
D03*
X236900D02*
D03*
X246900D02*
D03*
X256900D02*
D03*
X76900Y-270100D02*
D03*
X86900D02*
D03*
X96900D02*
D03*
X106900D02*
D03*
X116900D02*
D03*
X126900D02*
D03*
X136900D02*
D03*
X146900D02*
D03*
X156900D02*
D03*
X166900D02*
D03*
X176900D02*
D03*
X186900D02*
D03*
X196900D02*
D03*
X206900D02*
D03*
X216900D02*
D03*
X226900D02*
D03*
X236900D02*
D03*
X246900D02*
D03*
X256900D02*
D03*
X266900D02*
D03*
X76900Y-210100D02*
D03*
X86900D02*
D03*
X96900D02*
D03*
X106900D02*
D03*
X116900D02*
D03*
X126900D02*
D03*
X136900D02*
D03*
X146900D02*
D03*
X156900D02*
D03*
X166900D02*
D03*
X176900D02*
D03*
X186900D02*
D03*
X196900D02*
D03*
X206900D02*
D03*
X216900D02*
D03*
X226900D02*
D03*
X236900D02*
D03*
X246900D02*
D03*
X256900D02*
D03*
X346800Y-127100D02*
D03*
X356800D02*
D03*
X366800D02*
D03*
X336800Y-97100D02*
D03*
X346800D02*
D03*
X356800D02*
D03*
X366800D02*
D03*
D13*
X207200Y-86300D02*
D03*
X76900Y-195600D02*
D03*
X468424Y-231600D02*
D03*
X72700Y-38100D02*
D03*
X527400Y-151600D02*
D03*
X266900Y-286242D02*
D03*
D14*
X542700Y-296600D02*
D03*
Y-301600D02*
D03*
X462400Y-61600D02*
D03*
Y-56600D02*
D03*
D15*
X542700Y-306600D02*
D03*
X462400Y-51600D02*
D03*
D16*
X492400Y-96443D02*
D03*
X537400Y-86443D02*
D03*
X442400Y-176757D02*
D03*
D17*
X492400Y-76757D02*
D03*
X537400Y-66757D02*
D03*
X442400Y-196443D02*
D03*
D18*
X482400Y-190576D02*
D03*
X135200Y-95800D02*
D03*
X266900Y-210100D02*
D03*
X336800Y-127100D02*
D03*
D19*
X437400Y-321600D02*
D03*
X432400D02*
D03*
D20*
X427400D02*
D03*
D21*
X307900Y-27200D02*
D03*
D22*
X317900D02*
D03*
X327900D02*
D03*
X88300Y-112100D02*
D03*
Y-122100D02*
D03*
X143300Y-144700D02*
D03*
X173300D02*
D03*
X166500Y-33300D02*
D03*
X136500D02*
D03*
X245300Y-39400D02*
D03*
X215300D02*
D03*
X219300Y-125000D02*
D03*
X249300D02*
D03*
D23*
X88300Y-102100D02*
D03*
D24*
X300900Y-203450D02*
D03*
D25*
Y-211324D02*
D03*
Y-219198D02*
D03*
Y-227073D02*
D03*
Y-234947D02*
D03*
Y-242821D02*
D03*
Y-250695D02*
D03*
Y-258569D02*
D03*
Y-266443D02*
D03*
Y-274317D02*
D03*
X387514D02*
D03*
Y-266443D02*
D03*
Y-258569D02*
D03*
Y-250695D02*
D03*
Y-242821D02*
D03*
Y-234947D02*
D03*
Y-227073D02*
D03*
Y-219198D02*
D03*
Y-211324D02*
D03*
Y-203450D02*
D03*
D26*
X105400Y-325100D02*
D03*
D27*
X115400D02*
D03*
X125400D02*
D03*
X135400D02*
D03*
X145400D02*
D03*
X155400D02*
D03*
X165400D02*
D03*
X175400D02*
D03*
X185400D02*
D03*
X195400D02*
D03*
X205400D02*
D03*
X215400D02*
D03*
X225400D02*
D03*
X235400D02*
D03*
X245400D02*
D03*
X255400D02*
D03*
D28*
X161900Y-226800D02*
Y-215100D01*
X235200Y-44000D02*
X269500D01*
X371800Y-211700D02*
Y-131600D01*
X217200Y-122900D02*
X219300Y-125000D01*
X175100Y-80800D02*
X217200Y-122900D01*
X484700Y-184300D02*
X497600Y-171400D01*
X171900Y-265100D02*
X176900Y-270100D01*
X121900Y-215100D02*
X171900Y-265100D01*
X162300Y-342000D02*
X432400D01*
X437400Y-320500D02*
Y-311100D01*
X139000Y-325100D02*
Y-321600D01*
X205000Y-49700D02*
X207200Y-47500D01*
X161900Y-215100D02*
Y-163300D01*
Y-215100D02*
X171900D01*
Y-153500D01*
X182400Y-143000D01*
Y-133000D01*
X135200Y-85800D02*
X182400Y-133000D01*
X30000Y-223200D02*
X76900Y-270100D01*
X30000Y-223200D02*
Y-24100D01*
X34400Y-19700D01*
X57400D01*
X67653Y-29953D01*
Y-40300D02*
Y-29953D01*
X64900Y-43053D02*
X67653Y-40300D01*
X57653Y-43053D02*
X64900D01*
X52700Y-38100D02*
X57653Y-43053D01*
X356800Y-102000D02*
Y-97100D01*
X371800Y-131600D02*
Y-117000D01*
X368800Y-134600D02*
X371800Y-131600D01*
X364800Y-134600D02*
X368800D01*
X361800Y-131600D02*
X364800Y-134600D01*
X361800Y-131600D02*
Y-121600D01*
X356300Y-116100D02*
X361800Y-121600D01*
X258200Y-116100D02*
X356300D01*
X249300Y-125000D02*
X258200Y-116100D01*
X186900Y-270100D02*
X194900Y-262100D01*
X281900D01*
X298200Y-278400D01*
X305100D01*
X371800Y-211700D01*
X356800Y-102000D02*
X371800Y-117000D01*
X352200Y-22800D02*
X405500Y-76100D01*
X322300Y-22800D02*
X352200D01*
X317900Y-27200D02*
X322300Y-22800D01*
X420000Y-61600D02*
X462400D01*
X405500Y-76100D02*
X420000Y-61600D01*
X301100Y-44000D02*
X317900Y-27200D01*
X269500Y-44000D02*
X301100D01*
X227200Y-86300D02*
X269500Y-44000D01*
X77500Y-33300D02*
X136500D01*
X72700Y-38100D02*
X77500Y-33300D01*
X234400Y-28500D02*
X245300Y-39400D01*
X141300Y-28500D02*
X234400D01*
X136500Y-33300D02*
X141300Y-28500D01*
X485105Y-89147D02*
X492400Y-96443D01*
X348800Y-89147D02*
X485105D01*
X348800Y-95100D02*
Y-89147D01*
X346800Y-97100D02*
X348800Y-95100D01*
X135200Y-106600D02*
Y-95800D01*
Y-106600D02*
X173300Y-144700D01*
X130200Y-90800D02*
X135200Y-95800D01*
X130200Y-90800D02*
Y-80800D01*
X175100D01*
X166900Y-195600D02*
Y-151100D01*
X173300Y-144700D01*
X121900Y-215100D02*
Y-157300D01*
X138900Y-140300D01*
X147700D01*
X152100Y-144700D01*
X173300D01*
X285683Y-259100D02*
X300900Y-274317D01*
X187900Y-259100D02*
X285683D01*
X176900Y-270100D02*
X187900Y-259100D01*
X427400Y-337000D02*
Y-321600D01*
Y-337000D02*
X432400Y-342000D01*
X477000D01*
X497400Y-321600D01*
X145400Y-325100D02*
X162300Y-342000D01*
X176900Y-304200D02*
Y-286242D01*
X175400Y-325100D02*
X176900Y-304200D01*
X159500Y-319200D02*
X165400Y-325100D01*
X151300Y-319200D02*
X159500D01*
X145400Y-325100D02*
X151300Y-319200D01*
X442400Y-246600D02*
Y-196443D01*
X437400Y-251600D02*
X442400Y-246600D01*
X432400Y-321600D02*
Y-256600D01*
X437400Y-251600D01*
X367695Y-102053D02*
X442400Y-176757D01*
X361847Y-102053D02*
X367695D01*
X361847D02*
Y-92147D01*
X351800D02*
X361847D01*
X351800Y-101600D02*
Y-92147D01*
X347700Y-105700D02*
X351800Y-101600D01*
X298500Y-105700D02*
X347700D01*
X285300Y-92500D02*
X298500Y-105700D01*
X537400Y-66757D02*
Y-36100D01*
X518300Y-17000D02*
X537400Y-36100D01*
X527400Y-151600D02*
Y-96443D01*
X537400Y-86443D01*
X482400Y-217624D02*
Y-190576D01*
Y-217624D02*
X496376Y-231600D01*
X266900Y-293600D02*
Y-286242D01*
X235400Y-325100D02*
X266900Y-293600D01*
X215400Y-317742D02*
X246900Y-286242D01*
X215400Y-325100D02*
Y-317742D01*
X207200Y-86300D02*
Y-47500D01*
X215300Y-39400D01*
X196900Y-210100D02*
X207300Y-220500D01*
X267400D01*
X346800Y-141100D01*
Y-127100D01*
X216900Y-195600D02*
X291800Y-120700D01*
X350400D01*
X356800Y-127100D01*
X217200Y-122900D02*
Y-86300D01*
X115400Y-325100D02*
X145600Y-294900D01*
X158242D01*
X166900Y-286242D01*
X121900Y-265100D02*
X171900D01*
X121900Y-308600D02*
Y-265100D01*
X105400Y-325100D02*
X121900Y-308600D01*
X116900Y-195600D02*
Y-136600D01*
X97400Y-117100D02*
X116900Y-136600D01*
X82200Y-117100D02*
X97400D01*
X33000Y-67900D02*
X82200Y-117100D01*
X33000Y-67900D02*
Y-31600D01*
X38000Y-26600D01*
X51200D01*
X62700Y-38100D01*
X88300Y-122100D02*
X111900Y-145700D01*
Y-303200D02*
Y-145700D01*
X99900Y-315200D02*
X111900Y-303200D01*
X99900Y-330600D02*
Y-315200D01*
Y-330600D02*
X119900D01*
X125400Y-325100D01*
X72700Y-43253D02*
Y-38100D01*
X69900Y-46053D02*
X72700Y-43253D01*
X50800Y-46053D02*
X69900D01*
X47747Y-43000D02*
X50800Y-46053D01*
X47747Y-43000D02*
Y-35994D01*
X44900Y-33147D02*
X47747Y-35994D01*
X37700Y-33147D02*
X44900D01*
X37700Y-61500D02*
Y-33147D01*
Y-61500D02*
X88300Y-112100D01*
X135400Y-325100D02*
X139000D01*
Y-321600D02*
X171900Y-288700D01*
Y-284100D01*
X174800Y-281200D01*
X179000D01*
X181900Y-284100D01*
Y-291200D02*
Y-284100D01*
Y-291200D02*
X211942D01*
X216900Y-286242D01*
X280798Y-239300D02*
X300900Y-219198D01*
X156100Y-239300D02*
X280798D01*
X126900Y-210100D02*
X156100Y-239300D01*
X155400Y-325100D02*
X167700Y-337400D01*
X258133D01*
X271900Y-323633D01*
Y-265100D01*
X231900D02*
X271900D01*
X226900Y-270100D02*
X231900Y-265100D01*
X176900Y-195600D02*
X189343Y-183157D01*
X191143D01*
X249300Y-125000D01*
X366800Y-127100D02*
Y-116800D01*
X360900Y-110900D02*
X366800Y-116800D01*
X290700Y-110900D02*
X360900D01*
X280500Y-100700D02*
X290700Y-110900D01*
X280500Y-100700D02*
Y-57700D01*
X297400D01*
X327900Y-27200D01*
X272050Y-232300D02*
X300900Y-203450D01*
X167400Y-232300D02*
X272050D01*
X161900Y-226800D02*
X167400Y-232300D01*
X143300Y-144700D02*
X161900Y-163300D01*
X166900Y-270100D02*
X171900Y-275100D01*
X181900D01*
X186900Y-270100D01*
X307900Y-27200D02*
X322900Y-12200D01*
X492000D01*
X517400Y-37600D01*
Y-151600D02*
Y-37600D01*
X46556Y-49700D02*
X205000D01*
X42700Y-45844D02*
X46556Y-49700D01*
X42700Y-45844D02*
Y-38100D01*
X135200Y-75800D02*
X178700D01*
X194500Y-91600D01*
X212200D01*
Y-84000D01*
X214900Y-81300D01*
X222200D01*
X227200Y-86300D01*
X226900Y-195600D02*
X270800Y-151700D01*
X312200D01*
X336800Y-127100D01*
X557400Y-286600D02*
Y-191600D01*
X547400Y-296600D02*
X557400Y-286600D01*
X542700Y-296600D02*
X547400D01*
X285300Y-62500D02*
X302200D01*
X336800Y-97100D01*
X443700Y-184300D02*
X484700D01*
X427400Y-200600D02*
X443700Y-184300D01*
X427400Y-321600D02*
Y-200600D01*
X497600Y-171400D02*
X517400Y-151600D01*
X482400Y-171400D02*
X497600D01*
X477400Y-166400D02*
X482400Y-171400D01*
X477400Y-166400D02*
Y-111443D01*
X492400Y-96443D01*
X462400Y-56600D02*
X485700D01*
X497100Y-68000D01*
Y-147924D02*
Y-68000D01*
X482400Y-162624D02*
X497100Y-147924D01*
X467400Y-281100D02*
Y-251600D01*
X437400Y-311100D02*
X467400Y-281100D01*
X557400Y-161600D02*
Y-86757D01*
X537400Y-66757D02*
X557400Y-86757D01*
X224500Y-33300D02*
X235200Y-44000D01*
X166500Y-33300D02*
X224500D01*
X118900Y-112100D02*
X135200Y-95800D01*
X88300Y-112100D02*
X118900D01*
X205400Y-325100D02*
Y-317742D01*
X236900Y-286242D01*
X256900Y-293600D02*
Y-286242D01*
X225400Y-325100D02*
X256900Y-293600D01*
X488300Y-25700D02*
Y-17000D01*
X462400Y-51600D02*
X488300Y-25700D01*
X227200Y-86300D02*
X249300Y-108400D01*
Y-125000D02*
Y-108400D01*
X114600Y-75800D02*
X135200D01*
X88300Y-102100D02*
X114600Y-75800D01*
X462400Y-68657D02*
Y-61600D01*
Y-68657D02*
X470500Y-76757D01*
X492400D01*
X512400Y-306600D02*
X542700D01*
X497400Y-321600D02*
X512400Y-306600D01*
X245300Y-39400D02*
X295700D01*
X307900Y-27200D01*
X456300Y-301600D02*
X542700D01*
X437400Y-320500D02*
X456300Y-301600D01*
X437400Y-321600D02*
Y-320500D01*
X416000Y-56600D02*
X462400D01*
X405500Y-46100D02*
X416000Y-56600D01*
X452400Y-336600D02*
X467400Y-321600D01*
X442400Y-336600D02*
X452400D01*
X432400Y-326600D02*
X442400Y-336600D01*
X432400Y-326600D02*
Y-321600D01*
X76900Y-286242D02*
Y-270100D01*
X176900Y-210100D02*
Y-195600D01*
X186900Y-286242D02*
Y-270100D01*
X166900Y-286242D02*
Y-270100D01*
Y-210100D02*
Y-195600D01*
X185400Y-325100D02*
X195400D01*
X175400D02*
X185400D01*
X165400D02*
X175400D01*
X116900Y-210100D02*
Y-195600D01*
X216900Y-210100D02*
Y-195600D01*
X468424Y-241176D02*
Y-231600D01*
X467400Y-242200D02*
X468424Y-241176D01*
X467400Y-251600D02*
Y-242200D01*
X206900Y-286242D02*
Y-270100D01*
X196900Y-286242D02*
Y-270100D01*
X106900Y-286242D02*
Y-270100D01*
X96900Y-286242D02*
Y-270100D01*
X86900Y-286242D02*
Y-270100D01*
X76900Y-210100D02*
Y-195600D01*
X86900Y-210100D02*
Y-195600D01*
X96900Y-210100D02*
Y-195600D01*
X106900Y-210100D02*
Y-195600D01*
X206900Y-210100D02*
Y-195600D01*
X236900Y-210100D02*
Y-195600D01*
X246900Y-210100D02*
Y-195600D01*
X256900Y-210100D02*
Y-195600D01*
X266900Y-210100D02*
Y-195600D01*
Y-286242D02*
Y-270100D01*
X256900Y-286242D02*
Y-270100D01*
X246900Y-286242D02*
Y-270100D01*
X236900Y-286242D02*
Y-270100D01*
X226900Y-286242D02*
Y-270100D01*
X216900Y-286242D02*
Y-270100D01*
X116900Y-286242D02*
Y-270100D01*
X126900Y-286242D02*
Y-270100D01*
X136900Y-286242D02*
Y-270100D01*
X146900Y-286242D02*
Y-270100D01*
X156900Y-286242D02*
Y-270100D01*
X186900Y-210100D02*
Y-195600D01*
X136900Y-210100D02*
Y-195600D01*
X196900Y-210100D02*
Y-195600D01*
X226900Y-210100D02*
Y-195600D01*
X126900Y-210100D02*
Y-195600D01*
X146900Y-210100D02*
Y-195600D01*
X156900Y-210100D02*
Y-195600D01*
M02*
