G04 Layer_Physical_Order=1*
G04 Layer_Color=255*
%FSLAX25Y25*%
%MOIN*%
G70*
G01*
G75*
%ADD10C,0.01000*%
%ADD11C,0.05512*%
%ADD12C,0.05906*%
%ADD13R,0.05906X0.05906*%
%ADD14O,0.07874X0.03937*%
%ADD15O,0.07874X0.03937*%
%ADD16C,0.05315*%
%ADD17R,0.05315X0.05315*%
%ADD18R,0.05906X0.05906*%
%ADD19O,0.03937X0.07874*%
%ADD20O,0.03937X0.07874*%
%ADD21R,0.04724X0.04724*%
%ADD22C,0.04724*%
%ADD23R,0.04724X0.04724*%
G04:AMPARAMS|DCode=24|XSize=40mil|YSize=40mil|CornerRadius=10mil|HoleSize=0mil|Usage=FLASHONLY|Rotation=0.000|XOffset=0mil|YOffset=0mil|HoleType=Round|Shape=RoundedRectangle|*
%AMROUNDEDRECTD24*
21,1,0.04000,0.02000,0,0,0.0*
21,1,0.02000,0.04000,0,0,0.0*
1,1,0.02000,0.01000,-0.01000*
1,1,0.02000,-0.01000,-0.01000*
1,1,0.02000,-0.01000,0.01000*
1,1,0.02000,0.01000,0.01000*
%
%ADD24ROUNDEDRECTD24*%
%ADD25C,0.04000*%
%ADD26R,0.07000X0.07000*%
%ADD27C,0.07000*%
G36*
X574552Y-346953D02*
X6398D01*
X5548Y-346102D01*
Y-5548D01*
X574552D01*
Y-346953D01*
D02*
G37*
%LPC*%
G36*
X327900Y-19802D02*
X326457Y-19944D01*
X325069Y-20365D01*
X323790Y-21049D01*
X322900Y-21779D01*
X322010Y-21049D01*
X320731Y-20365D01*
X319343Y-19944D01*
X317900Y-19802D01*
X316457Y-19944D01*
X315069Y-20365D01*
X313790Y-21049D01*
X312669Y-21969D01*
X311749Y-23090D01*
X311556Y-23451D01*
X311262Y-23838D01*
Y-23838D01*
X311262Y-23838D01*
X308400D01*
Y-27200D01*
Y-30562D01*
X311262D01*
X311262Y-30562D01*
Y-30562D01*
X311561Y-30958D01*
X311749Y-31310D01*
X312669Y-32431D01*
X313790Y-33351D01*
X315069Y-34035D01*
X316457Y-34456D01*
X317900Y-34598D01*
X319343Y-34456D01*
X320731Y-34035D01*
X322010Y-33351D01*
X322900Y-32621D01*
X323790Y-33351D01*
X325069Y-34035D01*
X326457Y-34456D01*
X327900Y-34598D01*
X329343Y-34456D01*
X330731Y-34035D01*
X332010Y-33351D01*
X333131Y-32431D01*
X334051Y-31310D01*
X334735Y-30031D01*
X335156Y-28643D01*
X335298Y-27200D01*
X335156Y-25757D01*
X334735Y-24369D01*
X334051Y-23090D01*
X333131Y-21969D01*
X332010Y-21049D01*
X330731Y-20365D01*
X329343Y-19944D01*
X327900Y-19802D01*
D02*
G37*
G36*
X518300Y-9207D02*
X516780Y-9356D01*
X515318Y-9800D01*
X513970Y-10520D01*
X512789Y-11489D01*
X511820Y-12670D01*
X511100Y-14018D01*
X510656Y-15480D01*
X510507Y-17000D01*
X510656Y-18520D01*
X511100Y-19982D01*
X511820Y-21330D01*
X512789Y-22511D01*
X513970Y-23480D01*
X515318Y-24200D01*
X516780Y-24644D01*
X518300Y-24793D01*
X519820Y-24644D01*
X521282Y-24200D01*
X522630Y-23480D01*
X523811Y-22511D01*
X524780Y-21330D01*
X525500Y-19982D01*
X525944Y-18520D01*
X526093Y-17000D01*
X525944Y-15480D01*
X525500Y-14018D01*
X524780Y-12670D01*
X523811Y-11489D01*
X522630Y-10520D01*
X521282Y-9800D01*
X519820Y-9356D01*
X518300Y-9207D01*
D02*
G37*
G36*
X488300D02*
X486780Y-9356D01*
X485318Y-9800D01*
X483970Y-10520D01*
X482789Y-11489D01*
X481820Y-12670D01*
X481100Y-14018D01*
X480656Y-15480D01*
X480507Y-17000D01*
X480656Y-18520D01*
X481100Y-19982D01*
X481820Y-21330D01*
X482789Y-22511D01*
X483970Y-23480D01*
X485318Y-24200D01*
X486780Y-24644D01*
X488300Y-24793D01*
X489820Y-24644D01*
X491282Y-24200D01*
X492630Y-23480D01*
X493811Y-22511D01*
X494780Y-21330D01*
X495500Y-19982D01*
X495944Y-18520D01*
X496093Y-17000D01*
X495944Y-15480D01*
X495500Y-14018D01*
X494780Y-12670D01*
X493811Y-11489D01*
X492630Y-10520D01*
X491282Y-9800D01*
X489820Y-9356D01*
X488300Y-9207D01*
D02*
G37*
G36*
X307400Y-23838D02*
X304538D01*
Y-26700D01*
X307400D01*
Y-23838D01*
D02*
G37*
G36*
Y-27700D02*
X304538D01*
Y-30562D01*
X307400D01*
Y-27700D01*
D02*
G37*
G36*
X62700Y-30109D02*
X61141Y-30262D01*
X59642Y-30717D01*
X58260Y-31455D01*
X57700Y-31915D01*
X57140Y-31455D01*
X55758Y-30717D01*
X54259Y-30262D01*
X52700Y-30109D01*
X51141Y-30262D01*
X49642Y-30717D01*
X48260Y-31455D01*
X47700Y-31915D01*
X47140Y-31455D01*
X45758Y-30717D01*
X44259Y-30262D01*
X42700Y-30109D01*
X41141Y-30262D01*
X39642Y-30717D01*
X38260Y-31455D01*
X37049Y-32449D01*
X36055Y-33660D01*
X35317Y-35042D01*
X34862Y-36541D01*
X34709Y-38100D01*
X34862Y-39659D01*
X35317Y-41158D01*
X36055Y-42540D01*
X37049Y-43751D01*
X38260Y-44745D01*
X39642Y-45483D01*
X41141Y-45938D01*
X42700Y-46091D01*
X44259Y-45938D01*
X45758Y-45483D01*
X47140Y-44745D01*
X47700Y-44285D01*
X48260Y-44745D01*
X49642Y-45483D01*
X51141Y-45938D01*
X52700Y-46091D01*
X54259Y-45938D01*
X55758Y-45483D01*
X57140Y-44745D01*
X57700Y-44285D01*
X58260Y-44745D01*
X59642Y-45483D01*
X61141Y-45938D01*
X62700Y-46091D01*
X64259Y-45938D01*
X65758Y-45483D01*
X67140Y-44745D01*
X68351Y-43751D01*
X69345Y-42540D01*
X69605Y-42053D01*
X72200D01*
Y-38100D01*
Y-34147D01*
X69605D01*
X69345Y-33660D01*
X68351Y-32449D01*
X67140Y-31455D01*
X65758Y-30717D01*
X64259Y-30262D01*
X62700Y-30109D01*
D02*
G37*
G36*
X137000Y-29975D02*
Y-32800D01*
X139825D01*
X139776Y-32422D01*
X139437Y-31604D01*
X138898Y-30902D01*
X138196Y-30363D01*
X137378Y-30024D01*
X137000Y-29975D01*
D02*
G37*
G36*
X136000D02*
X135622Y-30024D01*
X134804Y-30363D01*
X134102Y-30902D01*
X133563Y-31604D01*
X133224Y-32422D01*
X133175Y-32800D01*
X136000D01*
Y-29975D01*
D02*
G37*
G36*
X139825Y-33800D02*
X137000D01*
Y-36625D01*
X137378Y-36576D01*
X138196Y-36237D01*
X138898Y-35698D01*
X139437Y-34996D01*
X139776Y-34178D01*
X139825Y-33800D01*
D02*
G37*
G36*
X136000D02*
X133175D01*
X133224Y-34178D01*
X133563Y-34996D01*
X134102Y-35698D01*
X134804Y-36237D01*
X135622Y-36576D01*
X136000Y-36625D01*
Y-33800D01*
D02*
G37*
G36*
X76653Y-34147D02*
X73200D01*
Y-37600D01*
X76653D01*
Y-34147D01*
D02*
G37*
G36*
X245800Y-36075D02*
Y-38900D01*
X248625D01*
X248576Y-38522D01*
X248237Y-37704D01*
X247698Y-37002D01*
X246996Y-36463D01*
X246178Y-36124D01*
X245800Y-36075D01*
D02*
G37*
G36*
X244800D02*
X244422Y-36124D01*
X243604Y-36463D01*
X242902Y-37002D01*
X242363Y-37704D01*
X242024Y-38522D01*
X241975Y-38900D01*
X244800D01*
Y-36075D01*
D02*
G37*
G36*
X166500Y-25902D02*
X165057Y-26044D01*
X163669Y-26465D01*
X162390Y-27149D01*
X161269Y-28069D01*
X160349Y-29190D01*
X159665Y-30469D01*
X159244Y-31857D01*
X159102Y-33300D01*
X159244Y-34743D01*
X159665Y-36131D01*
X160349Y-37410D01*
X161269Y-38531D01*
X162390Y-39451D01*
X163669Y-40135D01*
X165057Y-40556D01*
X166500Y-40698D01*
X167943Y-40556D01*
X169331Y-40135D01*
X170610Y-39451D01*
X171731Y-38531D01*
X172651Y-37410D01*
X173335Y-36131D01*
X173756Y-34743D01*
X173898Y-33300D01*
X173756Y-31857D01*
X173335Y-30469D01*
X172651Y-29190D01*
X171731Y-28069D01*
X170610Y-27149D01*
X169331Y-26465D01*
X167943Y-26044D01*
X166500Y-25902D01*
D02*
G37*
G36*
X76653Y-38600D02*
X73200D01*
Y-42053D01*
X76653D01*
Y-38600D01*
D02*
G37*
G36*
X248625Y-39900D02*
X245800D01*
Y-42725D01*
X246178Y-42676D01*
X246996Y-42337D01*
X247698Y-41798D01*
X248237Y-41096D01*
X248576Y-40278D01*
X248625Y-39900D01*
D02*
G37*
G36*
X244800D02*
X241975D01*
X242024Y-40278D01*
X242363Y-41096D01*
X242902Y-41798D01*
X243604Y-42337D01*
X244422Y-42676D01*
X244800Y-42725D01*
Y-39900D01*
D02*
G37*
G36*
X215300Y-32002D02*
X213857Y-32144D01*
X212469Y-32565D01*
X211190Y-33249D01*
X210069Y-34169D01*
X209149Y-35290D01*
X208465Y-36569D01*
X208044Y-37957D01*
X207902Y-39400D01*
X208044Y-40843D01*
X208465Y-42231D01*
X209149Y-43510D01*
X210069Y-44631D01*
X211190Y-45551D01*
X212469Y-46235D01*
X213857Y-46656D01*
X215300Y-46798D01*
X216743Y-46656D01*
X218131Y-46235D01*
X219410Y-45551D01*
X220531Y-44631D01*
X221451Y-43510D01*
X222135Y-42231D01*
X222556Y-40843D01*
X222698Y-39400D01*
X222556Y-37957D01*
X222135Y-36569D01*
X221451Y-35290D01*
X220531Y-34169D01*
X219410Y-33249D01*
X218131Y-32565D01*
X216743Y-32144D01*
X215300Y-32002D01*
D02*
G37*
G36*
X405500Y-38307D02*
X403980Y-38456D01*
X402518Y-38900D01*
X401170Y-39620D01*
X399989Y-40589D01*
X399020Y-41770D01*
X398300Y-43118D01*
X397856Y-44580D01*
X397707Y-46100D01*
X397856Y-47620D01*
X398300Y-49082D01*
X399020Y-50430D01*
X399989Y-51611D01*
X401170Y-52580D01*
X402518Y-53300D01*
X403980Y-53744D01*
X405500Y-53893D01*
X407020Y-53744D01*
X408482Y-53300D01*
X409830Y-52580D01*
X411011Y-51611D01*
X411980Y-50430D01*
X412700Y-49082D01*
X413144Y-47620D01*
X413293Y-46100D01*
X413144Y-44580D01*
X412700Y-43118D01*
X411980Y-41770D01*
X411011Y-40589D01*
X409830Y-39620D01*
X408482Y-38900D01*
X407020Y-38456D01*
X405500Y-38307D01*
D02*
G37*
G36*
X464368Y-44598D02*
X460431D01*
X459065Y-44732D01*
X457752Y-45131D01*
X456541Y-45778D01*
X455480Y-46649D01*
X454609Y-47710D01*
X453962Y-48920D01*
X453564Y-50234D01*
X453429Y-51600D01*
X453564Y-52966D01*
X453908Y-54100D01*
X453564Y-55234D01*
X453429Y-56600D01*
X453564Y-57966D01*
X453908Y-59100D01*
X453564Y-60234D01*
X453429Y-61600D01*
X453564Y-62966D01*
X453962Y-64280D01*
X454609Y-65490D01*
X455480Y-66551D01*
X456541Y-67422D01*
X457752Y-68069D01*
X459065Y-68468D01*
X460431Y-68602D01*
X464368D01*
X465735Y-68468D01*
X467048Y-68069D01*
X468259Y-67422D01*
X469320Y-66551D01*
X470191Y-65490D01*
X470838Y-64280D01*
X471236Y-62966D01*
X471371Y-61600D01*
X471236Y-60234D01*
X470892Y-59100D01*
X471236Y-57966D01*
X471371Y-56600D01*
X471236Y-55234D01*
X470892Y-54100D01*
X471236Y-52966D01*
X471371Y-51600D01*
X471236Y-50234D01*
X470838Y-48920D01*
X470191Y-47710D01*
X469320Y-46649D01*
X468259Y-45778D01*
X467048Y-45131D01*
X465735Y-44732D01*
X464368Y-44598D01*
D02*
G37*
G36*
X285300Y-54707D02*
X283780Y-54856D01*
X282318Y-55300D01*
X280970Y-56020D01*
X279789Y-56989D01*
X278820Y-58170D01*
X278100Y-59518D01*
X277656Y-60980D01*
X277507Y-62500D01*
X277656Y-64020D01*
X278100Y-65482D01*
X278820Y-66830D01*
X279789Y-68011D01*
X280970Y-68980D01*
X282318Y-69700D01*
X283780Y-70144D01*
X285300Y-70293D01*
X286820Y-70144D01*
X288282Y-69700D01*
X289630Y-68980D01*
X290811Y-68011D01*
X291780Y-66830D01*
X292500Y-65482D01*
X292944Y-64020D01*
X293093Y-62500D01*
X292944Y-60980D01*
X292500Y-59518D01*
X291780Y-58170D01*
X290811Y-56989D01*
X289630Y-56020D01*
X288282Y-55300D01*
X286820Y-54856D01*
X285300Y-54707D01*
D02*
G37*
G36*
X545057Y-59100D02*
X529742D01*
Y-74415D01*
X545057D01*
Y-59100D01*
D02*
G37*
G36*
X227200Y-78309D02*
X225641Y-78462D01*
X224142Y-78917D01*
X222760Y-79655D01*
X221549Y-80649D01*
X220555Y-81860D01*
X220024Y-82854D01*
X219383Y-82993D01*
X219193Y-82847D01*
X218232Y-82449D01*
X217700Y-82379D01*
Y-86300D01*
Y-90221D01*
X218232Y-90151D01*
X219193Y-89753D01*
X219383Y-89607D01*
X220024Y-89745D01*
X220555Y-90740D01*
X221549Y-91951D01*
X222760Y-92945D01*
X224142Y-93683D01*
X225641Y-94138D01*
X227200Y-94291D01*
X228759Y-94138D01*
X230258Y-93683D01*
X231640Y-92945D01*
X232851Y-91951D01*
X233844Y-90740D01*
X234583Y-89358D01*
X235038Y-87859D01*
X235191Y-86300D01*
X235038Y-84741D01*
X234583Y-83242D01*
X233844Y-81860D01*
X232851Y-80649D01*
X231640Y-79655D01*
X230258Y-78917D01*
X228759Y-78462D01*
X227200Y-78309D01*
D02*
G37*
G36*
X405500Y-68307D02*
X403980Y-68456D01*
X402518Y-68900D01*
X401170Y-69620D01*
X399989Y-70589D01*
X399020Y-71770D01*
X398300Y-73118D01*
X397856Y-74580D01*
X397707Y-76100D01*
X397856Y-77620D01*
X398300Y-79082D01*
X399020Y-80430D01*
X399989Y-81611D01*
X401170Y-82580D01*
X402518Y-83300D01*
X403980Y-83744D01*
X405500Y-83893D01*
X407020Y-83744D01*
X408482Y-83300D01*
X409830Y-82580D01*
X411011Y-81611D01*
X411980Y-80430D01*
X412700Y-79082D01*
X413144Y-77620D01*
X413293Y-76100D01*
X413144Y-74580D01*
X412700Y-73118D01*
X411980Y-71770D01*
X411011Y-70589D01*
X409830Y-69620D01*
X408482Y-68900D01*
X407020Y-68456D01*
X405500Y-68307D01*
D02*
G37*
G36*
X500058Y-69100D02*
X484742D01*
Y-84415D01*
X500058D01*
Y-69100D01*
D02*
G37*
G36*
X215153Y-78347D02*
X199247D01*
Y-94253D01*
X215153D01*
Y-90272D01*
X215653Y-89938D01*
X216168Y-90151D01*
X216700Y-90221D01*
Y-86300D01*
Y-82379D01*
X216168Y-82449D01*
X215653Y-82662D01*
X215153Y-82328D01*
Y-78347D01*
D02*
G37*
G36*
X366800Y-89109D02*
X365241Y-89262D01*
X363742Y-89717D01*
X362360Y-90456D01*
X361800Y-90915D01*
X361240Y-90456D01*
X359858Y-89717D01*
X358359Y-89262D01*
X356800Y-89109D01*
X355241Y-89262D01*
X353742Y-89717D01*
X352360Y-90456D01*
X351149Y-91449D01*
X350155Y-92660D01*
X349624Y-93655D01*
X348983Y-93793D01*
X348793Y-93647D01*
X347832Y-93249D01*
X347300Y-93179D01*
Y-97100D01*
Y-101021D01*
X347832Y-100951D01*
X348793Y-100553D01*
X348983Y-100407D01*
X349624Y-100546D01*
X350155Y-101540D01*
X351149Y-102751D01*
X352360Y-103744D01*
X353742Y-104483D01*
X355241Y-104938D01*
X356800Y-105091D01*
X358359Y-104938D01*
X359858Y-104483D01*
X361240Y-103744D01*
X361800Y-103285D01*
X362360Y-103744D01*
X363742Y-104483D01*
X365241Y-104938D01*
X366800Y-105091D01*
X368359Y-104938D01*
X369858Y-104483D01*
X371240Y-103744D01*
X372451Y-102751D01*
X373445Y-101540D01*
X374183Y-100158D01*
X374638Y-98659D01*
X374791Y-97100D01*
X374638Y-95541D01*
X374183Y-94042D01*
X373445Y-92660D01*
X372451Y-91449D01*
X371240Y-90456D01*
X369858Y-89717D01*
X368359Y-89262D01*
X366800Y-89109D01*
D02*
G37*
G36*
X537400Y-78748D02*
X535899Y-78896D01*
X534455Y-79334D01*
X533125Y-80045D01*
X531959Y-81002D01*
X531002Y-82168D01*
X530291Y-83498D01*
X529853Y-84942D01*
X529705Y-86443D01*
X529853Y-87944D01*
X530291Y-89387D01*
X531002Y-90717D01*
X531959Y-91883D01*
X533125Y-92840D01*
X534455Y-93551D01*
X535899Y-93989D01*
X537400Y-94137D01*
X538901Y-93989D01*
X540345Y-93551D01*
X541675Y-92840D01*
X542841Y-91883D01*
X543798Y-90717D01*
X544509Y-89387D01*
X544947Y-87944D01*
X545094Y-86443D01*
X544947Y-84942D01*
X544509Y-83498D01*
X543798Y-82168D01*
X542841Y-81002D01*
X541675Y-80045D01*
X540345Y-79334D01*
X538901Y-78896D01*
X537400Y-78748D01*
D02*
G37*
G36*
X135200Y-67809D02*
X133641Y-67962D01*
X132142Y-68417D01*
X130760Y-69156D01*
X129549Y-70149D01*
X128556Y-71360D01*
X127817Y-72742D01*
X127362Y-74241D01*
X127209Y-75800D01*
X127362Y-77359D01*
X127817Y-78858D01*
X128556Y-80240D01*
X129015Y-80800D01*
X128556Y-81360D01*
X127817Y-82742D01*
X127362Y-84241D01*
X127209Y-85800D01*
X127362Y-87359D01*
X127817Y-88858D01*
X128556Y-90240D01*
X129549Y-91451D01*
X130760Y-92444D01*
X131247Y-92705D01*
Y-95300D01*
X135200D01*
X139153D01*
Y-92705D01*
X139640Y-92444D01*
X140851Y-91451D01*
X141844Y-90240D01*
X142583Y-88858D01*
X143038Y-87359D01*
X143191Y-85800D01*
X143038Y-84241D01*
X142583Y-82742D01*
X141844Y-81360D01*
X141385Y-80800D01*
X141844Y-80240D01*
X142583Y-78858D01*
X143038Y-77359D01*
X143191Y-75800D01*
X143038Y-74241D01*
X142583Y-72742D01*
X141844Y-71360D01*
X140851Y-70149D01*
X139640Y-69156D01*
X138258Y-68417D01*
X136759Y-67962D01*
X135200Y-67809D01*
D02*
G37*
G36*
X492900Y-92819D02*
Y-95943D01*
X496023D01*
X495963Y-95488D01*
X495595Y-94598D01*
X495009Y-93834D01*
X494244Y-93248D01*
X493355Y-92879D01*
X492900Y-92819D01*
D02*
G37*
G36*
X491900D02*
X491445Y-92879D01*
X490555Y-93248D01*
X489791Y-93834D01*
X489205Y-94598D01*
X488837Y-95488D01*
X488777Y-95943D01*
X491900D01*
Y-92819D01*
D02*
G37*
G36*
X139153Y-96300D02*
X135700D01*
Y-99753D01*
X139153D01*
Y-96300D01*
D02*
G37*
G36*
X134700D02*
X131247D01*
Y-99753D01*
X134700D01*
Y-96300D01*
D02*
G37*
G36*
X496023Y-96943D02*
X492900D01*
Y-100066D01*
X493355Y-100006D01*
X494244Y-99637D01*
X495009Y-99051D01*
X495595Y-98287D01*
X495963Y-97397D01*
X496023Y-96943D01*
D02*
G37*
G36*
X491900D02*
X488777D01*
X488837Y-97397D01*
X489205Y-98287D01*
X489791Y-99051D01*
X490555Y-99637D01*
X491445Y-100006D01*
X491900Y-100066D01*
Y-96943D01*
D02*
G37*
G36*
X285300Y-84707D02*
X283780Y-84856D01*
X282318Y-85300D01*
X280970Y-86020D01*
X279789Y-86989D01*
X278820Y-88170D01*
X278100Y-89518D01*
X277656Y-90980D01*
X277507Y-92500D01*
X277656Y-94020D01*
X278100Y-95482D01*
X278820Y-96830D01*
X279789Y-98011D01*
X280970Y-98980D01*
X282318Y-99700D01*
X283780Y-100144D01*
X285300Y-100293D01*
X286820Y-100144D01*
X288282Y-99700D01*
X289630Y-98980D01*
X290811Y-98011D01*
X291780Y-96830D01*
X292500Y-95482D01*
X292944Y-94020D01*
X293093Y-92500D01*
X292944Y-90980D01*
X292500Y-89518D01*
X291780Y-88170D01*
X290811Y-86989D01*
X289630Y-86020D01*
X288282Y-85300D01*
X286820Y-84856D01*
X285300Y-84707D01*
D02*
G37*
G36*
X336800Y-89109D02*
X335241Y-89262D01*
X333742Y-89717D01*
X332360Y-90456D01*
X331149Y-91449D01*
X330155Y-92660D01*
X329417Y-94042D01*
X328962Y-95541D01*
X328809Y-97100D01*
X328962Y-98659D01*
X329417Y-100158D01*
X330155Y-101540D01*
X331149Y-102751D01*
X332360Y-103744D01*
X333742Y-104483D01*
X335241Y-104938D01*
X336800Y-105091D01*
X338359Y-104938D01*
X339858Y-104483D01*
X341240Y-103744D01*
X342451Y-102751D01*
X343444Y-101540D01*
X343976Y-100546D01*
X344617Y-100407D01*
X344807Y-100553D01*
X345768Y-100951D01*
X346300Y-101021D01*
Y-97100D01*
Y-93179D01*
X345768Y-93249D01*
X344807Y-93647D01*
X344617Y-93793D01*
X343976Y-93655D01*
X343444Y-92660D01*
X342451Y-91449D01*
X341240Y-90456D01*
X339858Y-89717D01*
X338359Y-89262D01*
X336800Y-89109D01*
D02*
G37*
G36*
X95662Y-94738D02*
X80938D01*
Y-109462D01*
X85456D01*
X85702Y-109962D01*
X85363Y-110404D01*
X85024Y-111222D01*
X84975Y-111600D01*
X88300D01*
X91625D01*
X91576Y-111222D01*
X91237Y-110404D01*
X90898Y-109962D01*
X91144Y-109462D01*
X95662D01*
Y-94738D01*
D02*
G37*
G36*
X366800Y-119109D02*
X365241Y-119262D01*
X363742Y-119717D01*
X362360Y-120456D01*
X361800Y-120915D01*
X361240Y-120456D01*
X359858Y-119717D01*
X358359Y-119262D01*
X356800Y-119109D01*
X355241Y-119262D01*
X353742Y-119717D01*
X352360Y-120456D01*
X351800Y-120915D01*
X351240Y-120456D01*
X349858Y-119717D01*
X348359Y-119262D01*
X346800Y-119109D01*
X345253Y-119261D01*
X344923Y-119274D01*
X344753Y-119147D01*
Y-119147D01*
X328847D01*
Y-135053D01*
X344753D01*
Y-135053D01*
X344923Y-134926D01*
X345253Y-134939D01*
X346800Y-135091D01*
X348359Y-134938D01*
X349858Y-134483D01*
X351240Y-133745D01*
X351800Y-133285D01*
X352360Y-133745D01*
X353742Y-134483D01*
X355241Y-134938D01*
X356800Y-135091D01*
X358359Y-134938D01*
X359858Y-134483D01*
X361240Y-133745D01*
X361800Y-133285D01*
X362360Y-133745D01*
X363742Y-134483D01*
X365241Y-134938D01*
X366800Y-135091D01*
X368359Y-134938D01*
X369858Y-134483D01*
X371240Y-133745D01*
X372451Y-132751D01*
X373445Y-131540D01*
X374183Y-130158D01*
X374638Y-128659D01*
X374791Y-127100D01*
X374638Y-125541D01*
X374183Y-124042D01*
X373445Y-122660D01*
X372451Y-121449D01*
X371240Y-120456D01*
X369858Y-119717D01*
X368359Y-119262D01*
X366800Y-119109D01*
D02*
G37*
G36*
X219800Y-121675D02*
Y-124500D01*
X222625D01*
X222576Y-124122D01*
X222237Y-123304D01*
X221698Y-122602D01*
X220996Y-122063D01*
X220178Y-121724D01*
X219800Y-121675D01*
D02*
G37*
G36*
X218800D02*
X218422Y-121724D01*
X217604Y-122063D01*
X216902Y-122602D01*
X216363Y-123304D01*
X216024Y-124122D01*
X215975Y-124500D01*
X218800D01*
Y-121675D01*
D02*
G37*
G36*
X485800Y-87605D02*
X392300D01*
Y-125900D01*
X485800D01*
Y-87605D01*
D02*
G37*
G36*
X222625Y-125500D02*
X219800D01*
Y-128325D01*
X220178Y-128276D01*
X220996Y-127937D01*
X221698Y-127398D01*
X222237Y-126696D01*
X222576Y-125878D01*
X222625Y-125500D01*
D02*
G37*
G36*
X218800D02*
X215975D01*
X216024Y-125878D01*
X216363Y-126696D01*
X216902Y-127398D01*
X217604Y-127937D01*
X218422Y-128276D01*
X218800Y-128325D01*
Y-125500D01*
D02*
G37*
G36*
X91625Y-112600D02*
X88300D01*
X84975D01*
X85024Y-112978D01*
X85363Y-113796D01*
X85902Y-114498D01*
X86062Y-114621D01*
X85972Y-115113D01*
X85469Y-115265D01*
X84190Y-115949D01*
X83069Y-116869D01*
X82149Y-117990D01*
X81465Y-119269D01*
X81044Y-120657D01*
X80902Y-122100D01*
X81044Y-123543D01*
X81465Y-124931D01*
X82149Y-126210D01*
X83069Y-127331D01*
X84190Y-128251D01*
X85469Y-128935D01*
X86857Y-129356D01*
X88300Y-129498D01*
X89743Y-129356D01*
X91131Y-128935D01*
X92410Y-128251D01*
X93531Y-127331D01*
X94451Y-126210D01*
X95135Y-124931D01*
X95556Y-123543D01*
X95698Y-122100D01*
X95556Y-120657D01*
X95135Y-119269D01*
X94451Y-117990D01*
X93531Y-116869D01*
X92410Y-115949D01*
X91131Y-115265D01*
X90627Y-115113D01*
X90538Y-114621D01*
X90698Y-114498D01*
X91237Y-113796D01*
X91576Y-112978D01*
X91625Y-112600D01*
D02*
G37*
G36*
X249300Y-117602D02*
X247857Y-117744D01*
X246469Y-118165D01*
X245190Y-118849D01*
X244069Y-119769D01*
X243149Y-120890D01*
X242465Y-122169D01*
X242044Y-123557D01*
X241902Y-125000D01*
X242044Y-126443D01*
X242465Y-127831D01*
X243149Y-129110D01*
X244069Y-130231D01*
X245190Y-131151D01*
X246469Y-131835D01*
X247857Y-132256D01*
X249300Y-132398D01*
X250743Y-132256D01*
X252131Y-131835D01*
X253410Y-131151D01*
X254531Y-130231D01*
X255451Y-129110D01*
X256135Y-127831D01*
X256556Y-126443D01*
X256698Y-125000D01*
X256556Y-123557D01*
X256135Y-122169D01*
X255451Y-120890D01*
X254531Y-119769D01*
X253410Y-118849D01*
X252131Y-118165D01*
X250743Y-117744D01*
X249300Y-117602D01*
D02*
G37*
G36*
X173800Y-141375D02*
Y-144200D01*
X176625D01*
X176576Y-143822D01*
X176237Y-143004D01*
X175698Y-142302D01*
X174996Y-141763D01*
X174178Y-141424D01*
X173800Y-141375D01*
D02*
G37*
G36*
X172800D02*
X172422Y-141424D01*
X171604Y-141763D01*
X170902Y-142302D01*
X170363Y-143004D01*
X170024Y-143822D01*
X169975Y-144200D01*
X172800D01*
Y-141375D01*
D02*
G37*
G36*
X535353Y-143647D02*
X519447D01*
Y-147628D01*
X518947Y-147962D01*
X518432Y-147749D01*
X517900Y-147679D01*
Y-151600D01*
Y-155521D01*
X518432Y-155451D01*
X518947Y-155237D01*
X519447Y-155572D01*
Y-159553D01*
X535353D01*
Y-143647D01*
D02*
G37*
G36*
X176625Y-145200D02*
X173800D01*
Y-148025D01*
X174178Y-147976D01*
X174996Y-147637D01*
X175698Y-147098D01*
X176237Y-146396D01*
X176576Y-145578D01*
X176625Y-145200D01*
D02*
G37*
G36*
X172800D02*
X169975D01*
X170024Y-145578D01*
X170363Y-146396D01*
X170902Y-147098D01*
X171604Y-147637D01*
X172422Y-147976D01*
X172800Y-148025D01*
Y-145200D01*
D02*
G37*
G36*
X516900Y-147679D02*
X516368Y-147749D01*
X515407Y-148147D01*
X514581Y-148781D01*
X513947Y-149607D01*
X513549Y-150568D01*
X513479Y-151100D01*
X516900D01*
Y-147679D01*
D02*
G37*
G36*
X143300Y-137302D02*
X141857Y-137444D01*
X140469Y-137865D01*
X139190Y-138549D01*
X138069Y-139469D01*
X137149Y-140590D01*
X136465Y-141869D01*
X136044Y-143257D01*
X135902Y-144700D01*
X136044Y-146143D01*
X136465Y-147531D01*
X137149Y-148810D01*
X138069Y-149931D01*
X139190Y-150851D01*
X140469Y-151535D01*
X141857Y-151956D01*
X143300Y-152098D01*
X144743Y-151956D01*
X146131Y-151535D01*
X147410Y-150851D01*
X148531Y-149931D01*
X149451Y-148810D01*
X150135Y-147531D01*
X150556Y-146143D01*
X150698Y-144700D01*
X150556Y-143257D01*
X150135Y-141869D01*
X149451Y-140590D01*
X148531Y-139469D01*
X147410Y-138549D01*
X146131Y-137865D01*
X144743Y-137444D01*
X143300Y-137302D01*
D02*
G37*
G36*
X516900Y-152100D02*
X513479D01*
X513549Y-152632D01*
X513947Y-153593D01*
X514581Y-154419D01*
X515407Y-155053D01*
X516368Y-155451D01*
X516900Y-155521D01*
Y-152100D01*
D02*
G37*
G36*
X557400Y-153807D02*
X555880Y-153956D01*
X554418Y-154400D01*
X553070Y-155120D01*
X551889Y-156089D01*
X550920Y-157270D01*
X550200Y-158618D01*
X549756Y-160080D01*
X549607Y-161600D01*
X549756Y-163120D01*
X550200Y-164582D01*
X550920Y-165930D01*
X551889Y-167111D01*
X553070Y-168080D01*
X554418Y-168800D01*
X555880Y-169244D01*
X557400Y-169393D01*
X558920Y-169244D01*
X560382Y-168800D01*
X561730Y-168080D01*
X562911Y-167111D01*
X563880Y-165930D01*
X564600Y-164582D01*
X565044Y-163120D01*
X565193Y-161600D01*
X565044Y-160080D01*
X564600Y-158618D01*
X563880Y-157270D01*
X562911Y-156089D01*
X561730Y-155120D01*
X560382Y-154400D01*
X558920Y-153956D01*
X557400Y-153807D01*
D02*
G37*
G36*
X482400Y-154632D02*
X480841Y-154786D01*
X479342Y-155241D01*
X477960Y-155979D01*
X476749Y-156973D01*
X475756Y-158184D01*
X475017Y-159565D01*
X474562Y-161065D01*
X474409Y-162624D01*
X474562Y-164183D01*
X475017Y-165682D01*
X475756Y-167063D01*
X476749Y-168274D01*
X477960Y-169268D01*
X479342Y-170007D01*
X480841Y-170461D01*
X482400Y-170615D01*
X483959Y-170461D01*
X485458Y-170007D01*
X486840Y-169268D01*
X488051Y-168274D01*
X489045Y-167063D01*
X489783Y-165682D01*
X490238Y-164183D01*
X490391Y-162624D01*
X490238Y-161065D01*
X489783Y-159565D01*
X489045Y-158184D01*
X488051Y-156973D01*
X486840Y-155979D01*
X485458Y-155241D01*
X483959Y-154786D01*
X482400Y-154632D01*
D02*
G37*
G36*
X442400Y-169063D02*
X440899Y-169211D01*
X439455Y-169649D01*
X438125Y-170360D01*
X436959Y-171317D01*
X436002Y-172483D01*
X435291Y-173813D01*
X434853Y-175256D01*
X434705Y-176757D01*
X434853Y-178259D01*
X435291Y-179702D01*
X436002Y-181032D01*
X436959Y-182198D01*
X438125Y-183155D01*
X439455Y-183866D01*
X440899Y-184304D01*
X442400Y-184452D01*
X443901Y-184304D01*
X445345Y-183866D01*
X446675Y-183155D01*
X447841Y-182198D01*
X448798Y-181032D01*
X449509Y-179702D01*
X449947Y-178259D01*
X450095Y-176757D01*
X449947Y-175256D01*
X449509Y-173813D01*
X448798Y-172483D01*
X447841Y-171317D01*
X446675Y-170360D01*
X445345Y-169649D01*
X443901Y-169211D01*
X442400Y-169063D01*
D02*
G37*
G36*
X266900Y-187609D02*
X265341Y-187762D01*
X263842Y-188217D01*
X262460Y-188955D01*
X261900Y-189415D01*
X261340Y-188955D01*
X259958Y-188217D01*
X258459Y-187762D01*
X256900Y-187609D01*
X255341Y-187762D01*
X253842Y-188217D01*
X252460Y-188955D01*
X251900Y-189415D01*
X251340Y-188955D01*
X249958Y-188217D01*
X248459Y-187762D01*
X246900Y-187609D01*
X245341Y-187762D01*
X243842Y-188217D01*
X242460Y-188955D01*
X241900Y-189415D01*
X241340Y-188955D01*
X239958Y-188217D01*
X238459Y-187762D01*
X236900Y-187609D01*
X235341Y-187762D01*
X233842Y-188217D01*
X232460Y-188955D01*
X231900Y-189415D01*
X231340Y-188955D01*
X229958Y-188217D01*
X228459Y-187762D01*
X226900Y-187609D01*
X225341Y-187762D01*
X223842Y-188217D01*
X222460Y-188955D01*
X221900Y-189415D01*
X221340Y-188955D01*
X219958Y-188217D01*
X218459Y-187762D01*
X216900Y-187609D01*
X215341Y-187762D01*
X213842Y-188217D01*
X212460Y-188955D01*
X211900Y-189415D01*
X211340Y-188955D01*
X209958Y-188217D01*
X208459Y-187762D01*
X206900Y-187609D01*
X205341Y-187762D01*
X203842Y-188217D01*
X202460Y-188955D01*
X201900Y-189415D01*
X201340Y-188955D01*
X199958Y-188217D01*
X198459Y-187762D01*
X196900Y-187609D01*
X195341Y-187762D01*
X193842Y-188217D01*
X192460Y-188955D01*
X191900Y-189415D01*
X191340Y-188955D01*
X189958Y-188217D01*
X188459Y-187762D01*
X186900Y-187609D01*
X185341Y-187762D01*
X183842Y-188217D01*
X182460Y-188955D01*
X181900Y-189415D01*
X181340Y-188955D01*
X179958Y-188217D01*
X178459Y-187762D01*
X176900Y-187609D01*
X175341Y-187762D01*
X173842Y-188217D01*
X172460Y-188955D01*
X171249Y-189949D01*
X170255Y-191160D01*
X169724Y-192155D01*
X169083Y-192293D01*
X168893Y-192147D01*
X167932Y-191749D01*
X167400Y-191679D01*
Y-195600D01*
Y-199521D01*
X167932Y-199451D01*
X168893Y-199053D01*
X169083Y-198907D01*
X169724Y-199046D01*
X170255Y-200040D01*
X171249Y-201251D01*
X172460Y-202244D01*
X173126Y-202600D01*
Y-203100D01*
X172460Y-203455D01*
X171249Y-204449D01*
X170255Y-205660D01*
X169724Y-206655D01*
X169083Y-206793D01*
X168893Y-206647D01*
X167932Y-206249D01*
X167400Y-206179D01*
Y-210100D01*
Y-214021D01*
X167932Y-213951D01*
X168893Y-213553D01*
X169083Y-213407D01*
X169724Y-213545D01*
X170255Y-214540D01*
X171249Y-215751D01*
X172460Y-216744D01*
X173842Y-217483D01*
X175341Y-217938D01*
X176900Y-218091D01*
X178459Y-217938D01*
X179958Y-217483D01*
X181340Y-216744D01*
X181900Y-216285D01*
X182460Y-216744D01*
X183842Y-217483D01*
X185341Y-217938D01*
X186900Y-218091D01*
X188459Y-217938D01*
X189958Y-217483D01*
X191340Y-216744D01*
X191900Y-216285D01*
X192460Y-216744D01*
X193842Y-217483D01*
X195341Y-217938D01*
X196900Y-218091D01*
X198459Y-217938D01*
X199958Y-217483D01*
X201340Y-216744D01*
X201900Y-216285D01*
X202460Y-216744D01*
X203842Y-217483D01*
X205341Y-217938D01*
X206900Y-218091D01*
X208459Y-217938D01*
X209958Y-217483D01*
X211340Y-216744D01*
X211900Y-216285D01*
X212460Y-216744D01*
X213842Y-217483D01*
X215341Y-217938D01*
X216900Y-218091D01*
X218459Y-217938D01*
X219958Y-217483D01*
X221340Y-216744D01*
X221900Y-216285D01*
X222460Y-216744D01*
X223842Y-217483D01*
X225341Y-217938D01*
X226900Y-218091D01*
X228459Y-217938D01*
X229958Y-217483D01*
X231340Y-216744D01*
X231900Y-216285D01*
X232460Y-216744D01*
X233842Y-217483D01*
X235341Y-217938D01*
X236900Y-218091D01*
X238459Y-217938D01*
X239958Y-217483D01*
X241340Y-216744D01*
X241900Y-216285D01*
X242460Y-216744D01*
X243842Y-217483D01*
X245341Y-217938D01*
X246900Y-218091D01*
X248459Y-217938D01*
X249958Y-217483D01*
X251340Y-216744D01*
X251900Y-216285D01*
X252460Y-216744D01*
X253842Y-217483D01*
X255341Y-217938D01*
X256900Y-218091D01*
X258447Y-217939D01*
X258776Y-217926D01*
X258947Y-218053D01*
Y-218053D01*
X274853D01*
Y-202147D01*
X272200D01*
X272032Y-201677D01*
X272551Y-201251D01*
X273545Y-200040D01*
X274283Y-198658D01*
X274738Y-197159D01*
X274891Y-195600D01*
X274738Y-194041D01*
X274283Y-192542D01*
X273545Y-191160D01*
X272551Y-189949D01*
X271340Y-188955D01*
X269958Y-188217D01*
X268459Y-187762D01*
X266900Y-187609D01*
D02*
G37*
G36*
X156900D02*
X155341Y-187762D01*
X153842Y-188217D01*
X152460Y-188955D01*
X151900Y-189415D01*
X151340Y-188955D01*
X149958Y-188217D01*
X148459Y-187762D01*
X146900Y-187609D01*
X145341Y-187762D01*
X143842Y-188217D01*
X142460Y-188955D01*
X141900Y-189415D01*
X141340Y-188955D01*
X139958Y-188217D01*
X138459Y-187762D01*
X136900Y-187609D01*
X135341Y-187762D01*
X133842Y-188217D01*
X132460Y-188955D01*
X131900Y-189415D01*
X131340Y-188955D01*
X129958Y-188217D01*
X128459Y-187762D01*
X126900Y-187609D01*
X125341Y-187762D01*
X123842Y-188217D01*
X122460Y-188955D01*
X121900Y-189415D01*
X121340Y-188955D01*
X119958Y-188217D01*
X118459Y-187762D01*
X116900Y-187609D01*
X115341Y-187762D01*
X113842Y-188217D01*
X112460Y-188955D01*
X111900Y-189415D01*
X111340Y-188955D01*
X109958Y-188217D01*
X108459Y-187762D01*
X106900Y-187609D01*
X105341Y-187762D01*
X103842Y-188217D01*
X102460Y-188955D01*
X101900Y-189415D01*
X101340Y-188955D01*
X99958Y-188217D01*
X98459Y-187762D01*
X96900Y-187609D01*
X95341Y-187762D01*
X93842Y-188217D01*
X92460Y-188955D01*
X91900Y-189415D01*
X91340Y-188955D01*
X89958Y-188217D01*
X88459Y-187762D01*
X86900Y-187609D01*
X85353Y-187761D01*
X85023Y-187774D01*
X84853Y-187647D01*
Y-187647D01*
X68947D01*
Y-203553D01*
X71600D01*
X71768Y-204024D01*
X71249Y-204449D01*
X70256Y-205660D01*
X69517Y-207042D01*
X69062Y-208541D01*
X68909Y-210100D01*
X69062Y-211659D01*
X69517Y-213158D01*
X70256Y-214540D01*
X71249Y-215751D01*
X72460Y-216744D01*
X73842Y-217483D01*
X75341Y-217938D01*
X76900Y-218091D01*
X78459Y-217938D01*
X79958Y-217483D01*
X81340Y-216744D01*
X81900Y-216285D01*
X82460Y-216744D01*
X83842Y-217483D01*
X85341Y-217938D01*
X86900Y-218091D01*
X88459Y-217938D01*
X89958Y-217483D01*
X91340Y-216744D01*
X91900Y-216285D01*
X92460Y-216744D01*
X93842Y-217483D01*
X95341Y-217938D01*
X96900Y-218091D01*
X98459Y-217938D01*
X99958Y-217483D01*
X101340Y-216744D01*
X101900Y-216285D01*
X102460Y-216744D01*
X103842Y-217483D01*
X105341Y-217938D01*
X106900Y-218091D01*
X108459Y-217938D01*
X109958Y-217483D01*
X111340Y-216744D01*
X111900Y-216285D01*
X112460Y-216744D01*
X113842Y-217483D01*
X115341Y-217938D01*
X116900Y-218091D01*
X118459Y-217938D01*
X119958Y-217483D01*
X121340Y-216744D01*
X121900Y-216285D01*
X122460Y-216744D01*
X123842Y-217483D01*
X125341Y-217938D01*
X126900Y-218091D01*
X128459Y-217938D01*
X129958Y-217483D01*
X131340Y-216744D01*
X131900Y-216285D01*
X132460Y-216744D01*
X133842Y-217483D01*
X135341Y-217938D01*
X136900Y-218091D01*
X138459Y-217938D01*
X139958Y-217483D01*
X141340Y-216744D01*
X141900Y-216285D01*
X142460Y-216744D01*
X143842Y-217483D01*
X145341Y-217938D01*
X146900Y-218091D01*
X148459Y-217938D01*
X149958Y-217483D01*
X151340Y-216744D01*
X151900Y-216285D01*
X152460Y-216744D01*
X153842Y-217483D01*
X155341Y-217938D01*
X156900Y-218091D01*
X158459Y-217938D01*
X159958Y-217483D01*
X161340Y-216744D01*
X162551Y-215751D01*
X163544Y-214540D01*
X164076Y-213545D01*
X164717Y-213407D01*
X164907Y-213553D01*
X165868Y-213951D01*
X166400Y-214021D01*
Y-210100D01*
Y-206179D01*
X165868Y-206249D01*
X164907Y-206647D01*
X164717Y-206793D01*
X164076Y-206655D01*
X163544Y-205660D01*
X162551Y-204449D01*
X161340Y-203455D01*
X160675Y-203100D01*
Y-202600D01*
X161340Y-202244D01*
X162551Y-201251D01*
X163544Y-200040D01*
X164076Y-199046D01*
X164717Y-198907D01*
X164907Y-199053D01*
X165868Y-199451D01*
X166400Y-199521D01*
Y-195600D01*
Y-191679D01*
X165868Y-191749D01*
X164907Y-192147D01*
X164717Y-192293D01*
X164076Y-192155D01*
X163544Y-191160D01*
X162551Y-189949D01*
X161340Y-188955D01*
X159958Y-188217D01*
X158459Y-187762D01*
X156900Y-187609D01*
D02*
G37*
G36*
X490353Y-182624D02*
X474447D01*
Y-198529D01*
X490353D01*
Y-182624D01*
D02*
G37*
G36*
X557400Y-183807D02*
X555880Y-183956D01*
X554418Y-184400D01*
X553070Y-185120D01*
X551889Y-186089D01*
X550920Y-187270D01*
X550200Y-188618D01*
X549756Y-190080D01*
X549607Y-191600D01*
X549756Y-193120D01*
X550200Y-194582D01*
X550920Y-195930D01*
X551889Y-197111D01*
X553070Y-198080D01*
X554418Y-198800D01*
X555880Y-199244D01*
X557400Y-199393D01*
X558920Y-199244D01*
X560382Y-198800D01*
X561730Y-198080D01*
X562911Y-197111D01*
X563880Y-195930D01*
X564600Y-194582D01*
X565044Y-193120D01*
X565193Y-191600D01*
X565044Y-190080D01*
X564600Y-188618D01*
X563880Y-187270D01*
X562911Y-186089D01*
X561730Y-185120D01*
X560382Y-184400D01*
X558920Y-183956D01*
X557400Y-183807D01*
D02*
G37*
G36*
X450058Y-188785D02*
X434742D01*
Y-204100D01*
X450058D01*
Y-188785D01*
D02*
G37*
G36*
X476376Y-223647D02*
X460471D01*
Y-239553D01*
X476376D01*
Y-223647D01*
D02*
G37*
G36*
X496376Y-223609D02*
X494817Y-223762D01*
X493318Y-224217D01*
X491937Y-224956D01*
X490726Y-225949D01*
X489732Y-227160D01*
X488994Y-228542D01*
X488539Y-230041D01*
X488385Y-231600D01*
X488539Y-233159D01*
X488994Y-234658D01*
X489732Y-236040D01*
X490726Y-237251D01*
X491937Y-238245D01*
X493318Y-238983D01*
X494817Y-239438D01*
X496376Y-239591D01*
X497935Y-239438D01*
X499435Y-238983D01*
X500816Y-238245D01*
X502027Y-237251D01*
X503021Y-236040D01*
X503759Y-234658D01*
X504214Y-233159D01*
X504368Y-231600D01*
X504214Y-230041D01*
X503759Y-228542D01*
X503021Y-227160D01*
X502027Y-225949D01*
X500816Y-224956D01*
X499435Y-224217D01*
X497935Y-223762D01*
X496376Y-223609D01*
D02*
G37*
G36*
X467400Y-243807D02*
X465880Y-243956D01*
X464418Y-244400D01*
X463070Y-245120D01*
X461889Y-246089D01*
X460920Y-247270D01*
X460200Y-248618D01*
X459756Y-250080D01*
X459607Y-251600D01*
X459756Y-253120D01*
X460200Y-254582D01*
X460920Y-255930D01*
X461889Y-257111D01*
X463070Y-258080D01*
X464418Y-258800D01*
X465880Y-259244D01*
X467400Y-259393D01*
X468920Y-259244D01*
X470382Y-258800D01*
X471730Y-258080D01*
X472911Y-257111D01*
X473880Y-255930D01*
X474600Y-254582D01*
X475044Y-253120D01*
X475193Y-251600D01*
X475044Y-250080D01*
X474600Y-248618D01*
X473880Y-247270D01*
X472911Y-246089D01*
X471730Y-245120D01*
X470382Y-244400D01*
X468920Y-243956D01*
X467400Y-243807D01*
D02*
G37*
G36*
X437400D02*
X435880Y-243956D01*
X434418Y-244400D01*
X433070Y-245120D01*
X431889Y-246089D01*
X430920Y-247270D01*
X430200Y-248618D01*
X429756Y-250080D01*
X429607Y-251600D01*
X429756Y-253120D01*
X430200Y-254582D01*
X430920Y-255930D01*
X431889Y-257111D01*
X433070Y-258080D01*
X434418Y-258800D01*
X435880Y-259244D01*
X437400Y-259393D01*
X438920Y-259244D01*
X440382Y-258800D01*
X441730Y-258080D01*
X442911Y-257111D01*
X443880Y-255930D01*
X444600Y-254582D01*
X445044Y-253120D01*
X445193Y-251600D01*
X445044Y-250080D01*
X444600Y-248618D01*
X443880Y-247270D01*
X442911Y-246089D01*
X441730Y-245120D01*
X440382Y-244400D01*
X438920Y-243956D01*
X437400Y-243807D01*
D02*
G37*
G36*
X266900Y-262109D02*
X265341Y-262262D01*
X263842Y-262717D01*
X262460Y-263456D01*
X261900Y-263915D01*
X261340Y-263456D01*
X259958Y-262717D01*
X258459Y-262262D01*
X256900Y-262109D01*
X255341Y-262262D01*
X253842Y-262717D01*
X252460Y-263456D01*
X251900Y-263915D01*
X251340Y-263456D01*
X249958Y-262717D01*
X248459Y-262262D01*
X246900Y-262109D01*
X245341Y-262262D01*
X243842Y-262717D01*
X242460Y-263456D01*
X241900Y-263915D01*
X241340Y-263456D01*
X239958Y-262717D01*
X238459Y-262262D01*
X236900Y-262109D01*
X235341Y-262262D01*
X233842Y-262717D01*
X232460Y-263456D01*
X231900Y-263915D01*
X231340Y-263456D01*
X229958Y-262717D01*
X228459Y-262262D01*
X226900Y-262109D01*
X225341Y-262262D01*
X223842Y-262717D01*
X222460Y-263456D01*
X221900Y-263915D01*
X221340Y-263456D01*
X219958Y-262717D01*
X218459Y-262262D01*
X216900Y-262109D01*
X215341Y-262262D01*
X213842Y-262717D01*
X212460Y-263456D01*
X211900Y-263915D01*
X211340Y-263456D01*
X209958Y-262717D01*
X208459Y-262262D01*
X206900Y-262109D01*
X205341Y-262262D01*
X203842Y-262717D01*
X202460Y-263456D01*
X201900Y-263915D01*
X201340Y-263456D01*
X199958Y-262717D01*
X198459Y-262262D01*
X196900Y-262109D01*
X195341Y-262262D01*
X193842Y-262717D01*
X192460Y-263456D01*
X191900Y-263915D01*
X191340Y-263456D01*
X189958Y-262717D01*
X188459Y-262262D01*
X186900Y-262109D01*
X185341Y-262262D01*
X183842Y-262717D01*
X182460Y-263456D01*
X181249Y-264449D01*
X180255Y-265660D01*
X179724Y-266654D01*
X179083Y-266793D01*
X178893Y-266647D01*
X177932Y-266249D01*
X177400Y-266179D01*
Y-270100D01*
Y-274021D01*
X177932Y-273951D01*
X178893Y-273553D01*
X179083Y-273407D01*
X179724Y-273546D01*
X180255Y-274540D01*
X181249Y-275751D01*
X182460Y-276745D01*
X183842Y-277483D01*
X185341Y-277938D01*
Y-278404D01*
X183842Y-278859D01*
X182460Y-279597D01*
X181249Y-280591D01*
X180255Y-281802D01*
X179724Y-282796D01*
X179083Y-282935D01*
X178893Y-282789D01*
X177932Y-282391D01*
X177400Y-282321D01*
Y-286242D01*
Y-290163D01*
X177932Y-290093D01*
X178893Y-289694D01*
X179083Y-289549D01*
X179724Y-289687D01*
X180255Y-290682D01*
X181249Y-291893D01*
X182460Y-292886D01*
X183842Y-293625D01*
X185341Y-294079D01*
X186900Y-294233D01*
X188459Y-294079D01*
X189958Y-293625D01*
X191340Y-292886D01*
X191900Y-292426D01*
X192460Y-292886D01*
X193842Y-293625D01*
X195341Y-294079D01*
X196900Y-294233D01*
X198459Y-294079D01*
X199958Y-293625D01*
X201340Y-292886D01*
X201900Y-292426D01*
X202460Y-292886D01*
X203842Y-293625D01*
X205341Y-294079D01*
X206900Y-294233D01*
X208459Y-294079D01*
X209958Y-293625D01*
X211340Y-292886D01*
X211900Y-292426D01*
X212460Y-292886D01*
X213842Y-293625D01*
X215341Y-294079D01*
X216900Y-294233D01*
X218459Y-294079D01*
X219958Y-293625D01*
X221340Y-292886D01*
X221900Y-292426D01*
X222460Y-292886D01*
X223842Y-293625D01*
X225341Y-294079D01*
X226900Y-294233D01*
X228459Y-294079D01*
X229958Y-293625D01*
X231340Y-292886D01*
X231900Y-292426D01*
X232460Y-292886D01*
X233842Y-293625D01*
X235341Y-294079D01*
X236900Y-294233D01*
X238459Y-294079D01*
X239958Y-293625D01*
X241340Y-292886D01*
X241900Y-292426D01*
X242460Y-292886D01*
X243842Y-293625D01*
X245341Y-294079D01*
X246900Y-294233D01*
X248459Y-294079D01*
X249958Y-293625D01*
X251340Y-292886D01*
X251900Y-292426D01*
X252460Y-292886D01*
X253842Y-293625D01*
X255341Y-294079D01*
X256900Y-294233D01*
X258447Y-294081D01*
X258776Y-294068D01*
X258947Y-294195D01*
Y-294195D01*
X274853D01*
Y-278289D01*
X269023D01*
X268949Y-277789D01*
X269958Y-277483D01*
X271340Y-276745D01*
X272551Y-275751D01*
X273545Y-274540D01*
X274283Y-273158D01*
X274738Y-271659D01*
X274891Y-270100D01*
X274738Y-268541D01*
X274283Y-267042D01*
X273545Y-265660D01*
X272551Y-264449D01*
X271340Y-263456D01*
X269958Y-262717D01*
X268459Y-262262D01*
X266900Y-262109D01*
D02*
G37*
G36*
X166900D02*
X165341Y-262262D01*
X163842Y-262717D01*
X162460Y-263456D01*
X161900Y-263915D01*
X161340Y-263456D01*
X159958Y-262717D01*
X158459Y-262262D01*
X156900Y-262109D01*
X155341Y-262262D01*
X153842Y-262717D01*
X152460Y-263456D01*
X151900Y-263915D01*
X151340Y-263456D01*
X149958Y-262717D01*
X148459Y-262262D01*
X146900Y-262109D01*
X145341Y-262262D01*
X143842Y-262717D01*
X142460Y-263456D01*
X141900Y-263915D01*
X141340Y-263456D01*
X139958Y-262717D01*
X138459Y-262262D01*
X136900Y-262109D01*
X135341Y-262262D01*
X133842Y-262717D01*
X132460Y-263456D01*
X131900Y-263915D01*
X131340Y-263456D01*
X129958Y-262717D01*
X128459Y-262262D01*
X126900Y-262109D01*
X125341Y-262262D01*
X123842Y-262717D01*
X122460Y-263456D01*
X121900Y-263915D01*
X121340Y-263456D01*
X119958Y-262717D01*
X118459Y-262262D01*
X116900Y-262109D01*
X115341Y-262262D01*
X113842Y-262717D01*
X112460Y-263456D01*
X111900Y-263915D01*
X111340Y-263456D01*
X109958Y-262717D01*
X108459Y-262262D01*
X106900Y-262109D01*
X105341Y-262262D01*
X103842Y-262717D01*
X102460Y-263456D01*
X101900Y-263915D01*
X101340Y-263456D01*
X99958Y-262717D01*
X98459Y-262262D01*
X96900Y-262109D01*
X95341Y-262262D01*
X93842Y-262717D01*
X92460Y-263456D01*
X91900Y-263915D01*
X91340Y-263456D01*
X89958Y-262717D01*
X88459Y-262262D01*
X86900Y-262109D01*
X85341Y-262262D01*
X83842Y-262717D01*
X82460Y-263456D01*
X81900Y-263915D01*
X81340Y-263456D01*
X79958Y-262717D01*
X78459Y-262262D01*
X76900Y-262109D01*
X75341Y-262262D01*
X73842Y-262717D01*
X72460Y-263456D01*
X71249Y-264449D01*
X70256Y-265660D01*
X69517Y-267042D01*
X69062Y-268541D01*
X68909Y-270100D01*
X69062Y-271659D01*
X69517Y-273158D01*
X70256Y-274540D01*
X71249Y-275751D01*
X72460Y-276745D01*
X73842Y-277483D01*
X75341Y-277938D01*
Y-278404D01*
X73842Y-278859D01*
X72460Y-279597D01*
X71249Y-280591D01*
X70256Y-281802D01*
X69517Y-283184D01*
X69062Y-284683D01*
X68909Y-286242D01*
X69062Y-287801D01*
X69517Y-289300D01*
X70256Y-290682D01*
X71249Y-291893D01*
X72460Y-292886D01*
X73842Y-293625D01*
X75341Y-294079D01*
X76900Y-294233D01*
X78459Y-294079D01*
X79958Y-293625D01*
X81340Y-292886D01*
X81900Y-292426D01*
X82460Y-292886D01*
X83842Y-293625D01*
X85341Y-294079D01*
X86900Y-294233D01*
X88459Y-294079D01*
X89958Y-293625D01*
X91340Y-292886D01*
X91900Y-292426D01*
X92460Y-292886D01*
X93842Y-293625D01*
X95341Y-294079D01*
X96900Y-294233D01*
X98459Y-294079D01*
X99958Y-293625D01*
X101340Y-292886D01*
X101900Y-292426D01*
X102460Y-292886D01*
X103842Y-293625D01*
X105341Y-294079D01*
X106900Y-294233D01*
X108459Y-294079D01*
X109958Y-293625D01*
X111340Y-292886D01*
X111900Y-292426D01*
X112460Y-292886D01*
X113842Y-293625D01*
X115341Y-294079D01*
X116900Y-294233D01*
X118459Y-294079D01*
X119958Y-293625D01*
X121340Y-292886D01*
X121900Y-292426D01*
X122460Y-292886D01*
X123842Y-293625D01*
X125341Y-294079D01*
X126900Y-294233D01*
X128459Y-294079D01*
X129958Y-293625D01*
X131340Y-292886D01*
X131900Y-292426D01*
X132460Y-292886D01*
X133842Y-293625D01*
X135341Y-294079D01*
X136900Y-294233D01*
X138459Y-294079D01*
X139958Y-293625D01*
X141340Y-292886D01*
X141900Y-292426D01*
X142460Y-292886D01*
X143842Y-293625D01*
X145341Y-294079D01*
X146900Y-294233D01*
X148459Y-294079D01*
X149958Y-293625D01*
X151340Y-292886D01*
X151900Y-292426D01*
X152460Y-292886D01*
X153842Y-293625D01*
X155341Y-294079D01*
X156900Y-294233D01*
X158459Y-294079D01*
X159958Y-293625D01*
X161340Y-292886D01*
X161900Y-292426D01*
X162460Y-292886D01*
X163842Y-293625D01*
X165341Y-294079D01*
X166900Y-294233D01*
X168459Y-294079D01*
X169958Y-293625D01*
X171340Y-292886D01*
X172551Y-291893D01*
X173545Y-290682D01*
X174076Y-289687D01*
X174717Y-289549D01*
X174907Y-289694D01*
X175868Y-290093D01*
X176400Y-290163D01*
Y-286242D01*
Y-282321D01*
X175868Y-282391D01*
X174907Y-282789D01*
X174717Y-282935D01*
X174076Y-282796D01*
X173545Y-281802D01*
X172551Y-280591D01*
X171340Y-279597D01*
X169958Y-278859D01*
X168459Y-278404D01*
Y-277938D01*
X169958Y-277483D01*
X171340Y-276745D01*
X172551Y-275751D01*
X173545Y-274540D01*
X174076Y-273546D01*
X174717Y-273407D01*
X174907Y-273553D01*
X175868Y-273951D01*
X176400Y-274021D01*
Y-270100D01*
Y-266179D01*
X175868Y-266249D01*
X174907Y-266647D01*
X174717Y-266793D01*
X174076Y-266654D01*
X173545Y-265660D01*
X172551Y-264449D01*
X171340Y-263456D01*
X169958Y-262717D01*
X168459Y-262262D01*
X166900Y-262109D01*
D02*
G37*
G36*
X301900Y-196421D02*
X299900D01*
X298724Y-196537D01*
X297593Y-196880D01*
X296550Y-197437D01*
X295637Y-198187D01*
X294887Y-199101D01*
X294330Y-200143D01*
X293987Y-201274D01*
X293871Y-202450D01*
Y-204450D01*
X293987Y-205627D01*
X294330Y-206758D01*
X294867Y-207762D01*
X294402Y-208633D01*
X294001Y-209952D01*
X293866Y-211324D01*
X294001Y-212697D01*
X294402Y-214016D01*
X295052Y-215232D01*
X295075Y-215261D01*
X295052Y-215291D01*
X294402Y-216507D01*
X294001Y-217826D01*
X293866Y-219198D01*
X294001Y-220571D01*
X294402Y-221890D01*
X295052Y-223106D01*
X295076Y-223135D01*
X295052Y-223165D01*
X294402Y-224381D01*
X294001Y-225700D01*
X293866Y-227073D01*
X294001Y-228445D01*
X294402Y-229764D01*
X295052Y-230980D01*
X295075Y-231010D01*
X295052Y-231039D01*
X294402Y-232255D01*
X294001Y-233574D01*
X293866Y-234947D01*
X294001Y-236319D01*
X294402Y-237638D01*
X295052Y-238854D01*
X295075Y-238884D01*
X295052Y-238913D01*
X294402Y-240129D01*
X294001Y-241448D01*
X293866Y-242821D01*
X294001Y-244193D01*
X294402Y-245512D01*
X295052Y-246728D01*
X295075Y-246758D01*
X295052Y-246787D01*
X294402Y-248003D01*
X294001Y-249322D01*
X293866Y-250695D01*
X294001Y-252067D01*
X294402Y-253386D01*
X295052Y-254602D01*
X295075Y-254632D01*
X295052Y-254661D01*
X294402Y-255877D01*
X294001Y-257196D01*
X293866Y-258569D01*
X294001Y-259941D01*
X294402Y-261260D01*
X295052Y-262476D01*
X295075Y-262506D01*
X295052Y-262535D01*
X294402Y-263751D01*
X294001Y-265070D01*
X293866Y-266443D01*
X294001Y-267815D01*
X294402Y-269134D01*
X295052Y-270350D01*
X295926Y-271416D01*
X296992Y-272291D01*
X298208Y-272941D01*
X298216Y-272957D01*
X297977Y-273533D01*
X297940Y-273817D01*
X303860D01*
X303823Y-273533D01*
X303584Y-272957D01*
X303592Y-272941D01*
X304808Y-272291D01*
X305874Y-271416D01*
X306749Y-270350D01*
X307399Y-269134D01*
X307799Y-267815D01*
X307934Y-266443D01*
X307799Y-265070D01*
X307399Y-263751D01*
X306749Y-262535D01*
X306725Y-262506D01*
X306749Y-262476D01*
X307399Y-261260D01*
X307799Y-259941D01*
X307934Y-258569D01*
X307799Y-257196D01*
X307399Y-255877D01*
X306749Y-254661D01*
X306725Y-254632D01*
X306749Y-254602D01*
X307399Y-253386D01*
X307799Y-252067D01*
X307934Y-250695D01*
X307799Y-249322D01*
X307399Y-248003D01*
X306749Y-246787D01*
X306725Y-246758D01*
X306749Y-246728D01*
X307399Y-245512D01*
X307799Y-244193D01*
X307934Y-242821D01*
X307799Y-241448D01*
X307399Y-240129D01*
X306749Y-238913D01*
X306725Y-238884D01*
X306749Y-238854D01*
X307399Y-237638D01*
X307799Y-236319D01*
X307934Y-234947D01*
X307799Y-233574D01*
X307399Y-232255D01*
X306749Y-231039D01*
X306725Y-231010D01*
X306749Y-230980D01*
X307399Y-229764D01*
X307799Y-228445D01*
X307934Y-227073D01*
X307799Y-225700D01*
X307399Y-224381D01*
X306749Y-223165D01*
X306724Y-223135D01*
X306749Y-223106D01*
X307399Y-221890D01*
X307799Y-220571D01*
X307934Y-219198D01*
X307799Y-217826D01*
X307399Y-216507D01*
X306749Y-215291D01*
X306725Y-215261D01*
X306749Y-215232D01*
X307399Y-214016D01*
X307799Y-212697D01*
X307934Y-211324D01*
X307799Y-209952D01*
X307399Y-208633D01*
X306933Y-207762D01*
X307470Y-206758D01*
X307813Y-205627D01*
X307929Y-204450D01*
Y-202450D01*
X307813Y-201274D01*
X307470Y-200143D01*
X306913Y-199101D01*
X306163Y-198187D01*
X305250Y-197437D01*
X304207Y-196880D01*
X303076Y-196537D01*
X301900Y-196421D01*
D02*
G37*
G36*
X303860Y-274817D02*
X301400D01*
Y-277277D01*
X301683Y-277239D01*
X302413Y-276937D01*
X303040Y-276456D01*
X303520Y-275830D01*
X303823Y-275100D01*
X303860Y-274817D01*
D02*
G37*
G36*
X300400D02*
X297940D01*
X297977Y-275100D01*
X298280Y-275830D01*
X298760Y-276456D01*
X299387Y-276937D01*
X300117Y-277239D01*
X300400Y-277277D01*
Y-274817D01*
D02*
G37*
G36*
X387514Y-196416D02*
X386142Y-196552D01*
X384822Y-196952D01*
X383606Y-197602D01*
X382540Y-198477D01*
X381666Y-199543D01*
X381016Y-200759D01*
X380615Y-202078D01*
X380480Y-203450D01*
X380615Y-204823D01*
X381016Y-206142D01*
X381666Y-207358D01*
X381690Y-207387D01*
X381666Y-207417D01*
X381016Y-208633D01*
X380615Y-209952D01*
X380480Y-211324D01*
X380615Y-212697D01*
X381016Y-214016D01*
X381666Y-215232D01*
X381690Y-215261D01*
X381666Y-215291D01*
X381016Y-216507D01*
X380615Y-217826D01*
X380480Y-219198D01*
X380615Y-220571D01*
X381016Y-221890D01*
X381666Y-223106D01*
X381690Y-223135D01*
X381666Y-223165D01*
X381016Y-224381D01*
X380615Y-225700D01*
X380480Y-227073D01*
X380615Y-228445D01*
X381016Y-229764D01*
X381666Y-230980D01*
X381690Y-231010D01*
X381666Y-231039D01*
X381016Y-232255D01*
X380615Y-233574D01*
X380480Y-234947D01*
X380615Y-236319D01*
X381016Y-237638D01*
X381666Y-238854D01*
X381690Y-238884D01*
X381666Y-238913D01*
X381016Y-240129D01*
X380615Y-241448D01*
X380480Y-242821D01*
X380615Y-244193D01*
X381016Y-245512D01*
X381666Y-246728D01*
X381690Y-246758D01*
X381666Y-246787D01*
X381016Y-248003D01*
X380615Y-249322D01*
X380480Y-250695D01*
X380615Y-252067D01*
X381016Y-253386D01*
X381666Y-254602D01*
X381690Y-254632D01*
X381666Y-254661D01*
X381016Y-255877D01*
X380615Y-257196D01*
X380480Y-258569D01*
X380615Y-259941D01*
X381016Y-261260D01*
X381666Y-262476D01*
X381690Y-262506D01*
X381666Y-262535D01*
X381016Y-263751D01*
X380615Y-265070D01*
X380480Y-266443D01*
X380615Y-267815D01*
X381016Y-269134D01*
X381666Y-270350D01*
X381690Y-270380D01*
X381666Y-270409D01*
X381016Y-271625D01*
X380615Y-272944D01*
X380480Y-274317D01*
X380615Y-275689D01*
X381016Y-277008D01*
X381666Y-278224D01*
X382540Y-279290D01*
X383606Y-280165D01*
X384822Y-280815D01*
X386142Y-281215D01*
X387514Y-281350D01*
X388886Y-281215D01*
X390206Y-280815D01*
X391422Y-280165D01*
X392488Y-279290D01*
X393363Y-278224D01*
X394013Y-277008D01*
X394413Y-275689D01*
X394548Y-274317D01*
X394413Y-272944D01*
X394013Y-271625D01*
X393363Y-270409D01*
X393339Y-270380D01*
X393363Y-270350D01*
X394013Y-269134D01*
X394413Y-267815D01*
X394548Y-266443D01*
X394413Y-265070D01*
X394013Y-263751D01*
X393363Y-262535D01*
X393339Y-262506D01*
X393363Y-262476D01*
X394013Y-261260D01*
X394413Y-259941D01*
X394548Y-258569D01*
X394413Y-257196D01*
X394013Y-255877D01*
X393363Y-254661D01*
X393339Y-254632D01*
X393363Y-254602D01*
X394013Y-253386D01*
X394413Y-252067D01*
X394548Y-250695D01*
X394413Y-249322D01*
X394013Y-248003D01*
X393363Y-246787D01*
X393339Y-246758D01*
X393363Y-246728D01*
X394013Y-245512D01*
X394413Y-244193D01*
X394548Y-242821D01*
X394413Y-241448D01*
X394013Y-240129D01*
X393363Y-238913D01*
X393339Y-238884D01*
X393363Y-238854D01*
X394013Y-237638D01*
X394413Y-236319D01*
X394548Y-234947D01*
X394413Y-233574D01*
X394013Y-232255D01*
X393363Y-231039D01*
X393339Y-231010D01*
X393363Y-230980D01*
X394013Y-229764D01*
X394413Y-228445D01*
X394548Y-227073D01*
X394413Y-225700D01*
X394013Y-224381D01*
X393363Y-223165D01*
X393339Y-223135D01*
X393363Y-223106D01*
X394013Y-221890D01*
X394413Y-220571D01*
X394548Y-219198D01*
X394413Y-217826D01*
X394013Y-216507D01*
X393363Y-215291D01*
X393339Y-215261D01*
X393363Y-215232D01*
X394013Y-214016D01*
X394413Y-212697D01*
X394548Y-211324D01*
X394413Y-209952D01*
X394013Y-208633D01*
X393363Y-207417D01*
X393339Y-207387D01*
X393363Y-207358D01*
X394013Y-206142D01*
X394413Y-204823D01*
X394548Y-203450D01*
X394413Y-202078D01*
X394013Y-200759D01*
X393363Y-199543D01*
X392488Y-198477D01*
X391422Y-197602D01*
X390206Y-196952D01*
X388886Y-196552D01*
X387514Y-196416D01*
D02*
G37*
G36*
X544668Y-289598D02*
X540731D01*
X539365Y-289732D01*
X538052Y-290131D01*
X536841Y-290778D01*
X535780Y-291649D01*
X534909Y-292710D01*
X534262Y-293920D01*
X533864Y-295234D01*
X533729Y-296600D01*
X533864Y-297966D01*
X534208Y-299100D01*
X533864Y-300234D01*
X533729Y-301600D01*
X533864Y-302966D01*
X534262Y-304280D01*
X534909Y-305490D01*
X535780Y-306551D01*
X536841Y-307422D01*
X538052Y-308069D01*
X538138Y-308095D01*
X538138Y-308097D01*
X538614Y-308717D01*
X539234Y-309193D01*
X539957Y-309492D01*
X540731Y-309594D01*
X544668D01*
X545443Y-309492D01*
X546166Y-309193D01*
X546786Y-308717D01*
X547261Y-308097D01*
X547262Y-308095D01*
X547348Y-308069D01*
X548559Y-307422D01*
X549620Y-306551D01*
X550491Y-305490D01*
X551138Y-304280D01*
X551536Y-302966D01*
X551671Y-301600D01*
X551536Y-300234D01*
X551192Y-299100D01*
X551536Y-297966D01*
X551671Y-296600D01*
X551536Y-295234D01*
X551138Y-293920D01*
X550491Y-292710D01*
X549620Y-291649D01*
X548559Y-290778D01*
X547348Y-290131D01*
X546035Y-289732D01*
X544668Y-289598D01*
D02*
G37*
G36*
X437400Y-312629D02*
X436034Y-312764D01*
X434900Y-313108D01*
X433766Y-312764D01*
X432400Y-312629D01*
X431034Y-312764D01*
X429720Y-313162D01*
X428510Y-313809D01*
X427449Y-314680D01*
X426578Y-315741D01*
X425931Y-316952D01*
X425905Y-317038D01*
X425903Y-317038D01*
X425283Y-317514D01*
X424807Y-318134D01*
X424508Y-318857D01*
X424406Y-319632D01*
Y-323569D01*
X424508Y-324343D01*
X424807Y-325066D01*
X425283Y-325686D01*
X425903Y-326162D01*
X425905Y-326162D01*
X425931Y-326248D01*
X426578Y-327459D01*
X427449Y-328520D01*
X428510Y-329391D01*
X429720Y-330038D01*
X431034Y-330436D01*
X432400Y-330571D01*
X433766Y-330436D01*
X434900Y-330092D01*
X436034Y-330436D01*
X437400Y-330571D01*
X438766Y-330436D01*
X440080Y-330038D01*
X441290Y-329391D01*
X442351Y-328520D01*
X443222Y-327459D01*
X443869Y-326248D01*
X444268Y-324935D01*
X444402Y-323569D01*
Y-319632D01*
X444268Y-318265D01*
X443869Y-316952D01*
X443222Y-315741D01*
X442351Y-314680D01*
X441290Y-313809D01*
X440080Y-313162D01*
X438766Y-312764D01*
X437400Y-312629D01*
D02*
G37*
G36*
X135400Y-316559D02*
X133734Y-316723D01*
X132131Y-317209D01*
X130655Y-317998D01*
X130400Y-318207D01*
X130145Y-317998D01*
X128669Y-317209D01*
X127066Y-316723D01*
X125400Y-316559D01*
X123734Y-316723D01*
X122131Y-317209D01*
X120655Y-317998D01*
X120400Y-318207D01*
X120145Y-317998D01*
X118669Y-317209D01*
X117066Y-316723D01*
X115400Y-316559D01*
X113734Y-316723D01*
X112131Y-317209D01*
X110655Y-317998D01*
X109361Y-319060D01*
X108298Y-320355D01*
X108167Y-320600D01*
X105900D01*
Y-325100D01*
Y-329600D01*
X108167D01*
X108298Y-329845D01*
X109361Y-331139D01*
X110655Y-332202D01*
X112131Y-332991D01*
X113734Y-333477D01*
X115400Y-333641D01*
X117066Y-333477D01*
X118669Y-332991D01*
X120145Y-332202D01*
X120400Y-331993D01*
X120655Y-332202D01*
X122131Y-332991D01*
X123734Y-333477D01*
X125400Y-333641D01*
X127066Y-333477D01*
X128669Y-332991D01*
X130145Y-332202D01*
X130400Y-331993D01*
X130655Y-332202D01*
X132131Y-332991D01*
X133734Y-333477D01*
X135400Y-333641D01*
X137066Y-333477D01*
X138669Y-332991D01*
X140145Y-332202D01*
X141439Y-331139D01*
X142502Y-329845D01*
X142912Y-329078D01*
X143131Y-329031D01*
X144225Y-329484D01*
X144900Y-329573D01*
Y-325100D01*
Y-320627D01*
X144225Y-320716D01*
X143131Y-321169D01*
X142912Y-321122D01*
X142502Y-320355D01*
X141439Y-319060D01*
X140145Y-317998D01*
X138669Y-317209D01*
X137066Y-316723D01*
X135400Y-316559D01*
D02*
G37*
G36*
X255400D02*
X253734Y-316723D01*
X252131Y-317209D01*
X250655Y-317998D01*
X250400Y-318207D01*
X250145Y-317998D01*
X248669Y-317209D01*
X247066Y-316723D01*
X245400Y-316559D01*
X243734Y-316723D01*
X242131Y-317209D01*
X240655Y-317998D01*
X240400Y-318207D01*
X240145Y-317998D01*
X238669Y-317209D01*
X237066Y-316723D01*
X235400Y-316559D01*
X233734Y-316723D01*
X232131Y-317209D01*
X230655Y-317998D01*
X230400Y-318207D01*
X230145Y-317998D01*
X228669Y-317209D01*
X227066Y-316723D01*
X225400Y-316559D01*
X223734Y-316723D01*
X222131Y-317209D01*
X220655Y-317998D01*
X220400Y-318207D01*
X220145Y-317998D01*
X218669Y-317209D01*
X217066Y-316723D01*
X215400Y-316559D01*
X213734Y-316723D01*
X212131Y-317209D01*
X210655Y-317998D01*
X210400Y-318207D01*
X210145Y-317998D01*
X208669Y-317209D01*
X207066Y-316723D01*
X205400Y-316559D01*
X203734Y-316723D01*
X202131Y-317209D01*
X200655Y-317998D01*
X199361Y-319060D01*
X198298Y-320355D01*
X197888Y-321122D01*
X197669Y-321169D01*
X196575Y-320716D01*
X195900Y-320627D01*
Y-325100D01*
Y-329573D01*
X196575Y-329484D01*
X197669Y-329031D01*
X197888Y-329078D01*
X198298Y-329845D01*
X199361Y-331139D01*
X200655Y-332202D01*
X202131Y-332991D01*
X203734Y-333477D01*
X205400Y-333641D01*
X207066Y-333477D01*
X208669Y-332991D01*
X210145Y-332202D01*
X210400Y-331993D01*
X210655Y-332202D01*
X212131Y-332991D01*
X213734Y-333477D01*
X215400Y-333641D01*
X217066Y-333477D01*
X218669Y-332991D01*
X220145Y-332202D01*
X220400Y-331993D01*
X220655Y-332202D01*
X222131Y-332991D01*
X223734Y-333477D01*
X225400Y-333641D01*
X227066Y-333477D01*
X228669Y-332991D01*
X230145Y-332202D01*
X230400Y-331993D01*
X230655Y-332202D01*
X232131Y-332991D01*
X233734Y-333477D01*
X235400Y-333641D01*
X237066Y-333477D01*
X238669Y-332991D01*
X240145Y-332202D01*
X240400Y-331993D01*
X240655Y-332202D01*
X242131Y-332991D01*
X243734Y-333477D01*
X245400Y-333641D01*
X247066Y-333477D01*
X248669Y-332991D01*
X250145Y-332202D01*
X250400Y-331993D01*
X250655Y-332202D01*
X252131Y-332991D01*
X253734Y-333477D01*
X255400Y-333641D01*
X257066Y-333477D01*
X258669Y-332991D01*
X260145Y-332202D01*
X261439Y-331139D01*
X262502Y-329845D01*
X263291Y-328369D01*
X263777Y-326766D01*
X263941Y-325100D01*
X263777Y-323434D01*
X263291Y-321831D01*
X262502Y-320355D01*
X261439Y-319060D01*
X260145Y-317998D01*
X258669Y-317209D01*
X257066Y-316723D01*
X255400Y-316559D01*
D02*
G37*
G36*
X497900Y-317878D02*
Y-321100D01*
X501123D01*
X501059Y-320620D01*
X500681Y-319706D01*
X500079Y-318921D01*
X499294Y-318319D01*
X498381Y-317941D01*
X497900Y-317878D01*
D02*
G37*
G36*
X496900D02*
X496419Y-317941D01*
X495506Y-318319D01*
X494721Y-318921D01*
X494119Y-319706D01*
X493741Y-320620D01*
X493678Y-321100D01*
X496900D01*
Y-317878D01*
D02*
G37*
G36*
X155400Y-316559D02*
X153734Y-316723D01*
X152131Y-317209D01*
X150655Y-317998D01*
X149361Y-319060D01*
X148298Y-320355D01*
X147888Y-321122D01*
X147669Y-321169D01*
X146575Y-320716D01*
X145900Y-320627D01*
Y-325100D01*
Y-329573D01*
X146575Y-329484D01*
X147669Y-329031D01*
X147888Y-329078D01*
X148298Y-329845D01*
X149361Y-331139D01*
X150655Y-332202D01*
X152131Y-332991D01*
X153734Y-333477D01*
X155400Y-333641D01*
X157066Y-333477D01*
X158669Y-332991D01*
X160145Y-332202D01*
X161440Y-331139D01*
X162502Y-329845D01*
X162912Y-329078D01*
X163131Y-329031D01*
X164225Y-329484D01*
X164900Y-329573D01*
Y-325100D01*
Y-320627D01*
X164225Y-320716D01*
X163131Y-321169D01*
X162912Y-321122D01*
X162502Y-320355D01*
X161440Y-319060D01*
X160145Y-317998D01*
X158669Y-317209D01*
X157066Y-316723D01*
X155400Y-316559D01*
D02*
G37*
G36*
X185900Y-320627D02*
Y-324600D01*
X189873D01*
X189784Y-323925D01*
X189331Y-322831D01*
X188609Y-321891D01*
X187669Y-321169D01*
X186575Y-320716D01*
X185900Y-320627D01*
D02*
G37*
G36*
X175900D02*
Y-324600D01*
X179873D01*
X179784Y-323925D01*
X179331Y-322831D01*
X178609Y-321891D01*
X177669Y-321169D01*
X176575Y-320716D01*
X175900Y-320627D01*
D02*
G37*
G36*
X165900D02*
Y-324600D01*
X169873D01*
X169784Y-323925D01*
X169331Y-322831D01*
X168609Y-321891D01*
X167669Y-321169D01*
X166575Y-320716D01*
X165900Y-320627D01*
D02*
G37*
G36*
X194900D02*
X194225Y-320716D01*
X193131Y-321169D01*
X192191Y-321891D01*
X191469Y-322831D01*
X191016Y-323925D01*
X190927Y-324600D01*
X194900D01*
Y-320627D01*
D02*
G37*
G36*
X184900D02*
X184225Y-320716D01*
X183131Y-321169D01*
X182191Y-321891D01*
X181469Y-322831D01*
X181016Y-323925D01*
X180927Y-324600D01*
X184900D01*
Y-320627D01*
D02*
G37*
G36*
X174900D02*
X174225Y-320716D01*
X173131Y-321169D01*
X172191Y-321891D01*
X171469Y-322831D01*
X171016Y-323925D01*
X170927Y-324600D01*
X174900D01*
Y-320627D01*
D02*
G37*
G36*
X104900Y-320600D02*
X100900D01*
Y-324600D01*
X104900D01*
Y-320600D01*
D02*
G37*
G36*
X501123Y-322100D02*
X497900D01*
Y-325323D01*
X498381Y-325259D01*
X499294Y-324881D01*
X500079Y-324279D01*
X500681Y-323494D01*
X501059Y-322581D01*
X501123Y-322100D01*
D02*
G37*
G36*
X496900D02*
X493678D01*
X493741Y-322581D01*
X494119Y-323494D01*
X494721Y-324279D01*
X495506Y-324881D01*
X496419Y-325259D01*
X496900Y-325323D01*
Y-322100D01*
D02*
G37*
G36*
X467400Y-313807D02*
X465880Y-313956D01*
X464418Y-314400D01*
X463070Y-315120D01*
X461889Y-316089D01*
X460920Y-317270D01*
X460200Y-318618D01*
X459756Y-320080D01*
X459607Y-321600D01*
X459756Y-323120D01*
X460200Y-324582D01*
X460920Y-325930D01*
X461889Y-327111D01*
X463070Y-328080D01*
X464418Y-328800D01*
X465880Y-329244D01*
X467400Y-329393D01*
X468920Y-329244D01*
X470382Y-328800D01*
X471730Y-328080D01*
X472911Y-327111D01*
X473880Y-325930D01*
X474600Y-324582D01*
X475044Y-323120D01*
X475193Y-321600D01*
X475044Y-320080D01*
X474600Y-318618D01*
X473880Y-317270D01*
X472911Y-316089D01*
X471730Y-315120D01*
X470382Y-314400D01*
X468920Y-313956D01*
X467400Y-313807D01*
D02*
G37*
G36*
X189873Y-325600D02*
X185900D01*
Y-329573D01*
X186575Y-329484D01*
X187669Y-329031D01*
X188609Y-328309D01*
X189331Y-327369D01*
X189784Y-326275D01*
X189873Y-325600D01*
D02*
G37*
G36*
X179873D02*
X175900D01*
Y-329573D01*
X176575Y-329484D01*
X177669Y-329031D01*
X178609Y-328309D01*
X179331Y-327369D01*
X179784Y-326275D01*
X179873Y-325600D01*
D02*
G37*
G36*
X169873D02*
X165900D01*
Y-329573D01*
X166575Y-329484D01*
X167669Y-329031D01*
X168609Y-328309D01*
X169331Y-327369D01*
X169784Y-326275D01*
X169873Y-325600D01*
D02*
G37*
G36*
X194900D02*
X190927D01*
X191016Y-326275D01*
X191469Y-327369D01*
X192191Y-328309D01*
X193131Y-329031D01*
X194225Y-329484D01*
X194900Y-329573D01*
Y-325600D01*
D02*
G37*
G36*
X184900D02*
X180927D01*
X181016Y-326275D01*
X181469Y-327369D01*
X182191Y-328309D01*
X183131Y-329031D01*
X184225Y-329484D01*
X184900Y-329573D01*
Y-325600D01*
D02*
G37*
G36*
X174900D02*
X170927D01*
X171016Y-326275D01*
X171469Y-327369D01*
X172191Y-328309D01*
X173131Y-329031D01*
X174225Y-329484D01*
X174900Y-329573D01*
Y-325600D01*
D02*
G37*
G36*
X104900D02*
X100900D01*
Y-329600D01*
X104900D01*
Y-325600D01*
D02*
G37*
%LPD*%
D10*
X398300Y-108303D02*
Y-102305D01*
X400299Y-104304D01*
X402299Y-102305D01*
Y-108303D01*
X404298Y-104304D02*
Y-107303D01*
X405298Y-108303D01*
X408297D01*
Y-109303D01*
X407297Y-110302D01*
X406297D01*
X408297Y-108303D02*
Y-104304D01*
X420293Y-103305D02*
X419293Y-102305D01*
X417294D01*
X416294Y-103305D01*
Y-104304D01*
X417294Y-105304D01*
X419293D01*
X420293Y-106304D01*
Y-107303D01*
X419293Y-108303D01*
X417294D01*
X416294Y-107303D01*
X422292Y-102305D02*
Y-108303D01*
Y-105304D01*
X423292Y-104304D01*
X425291D01*
X426291Y-105304D01*
Y-108303D01*
X431289D02*
X429290D01*
X428290Y-107303D01*
Y-105304D01*
X429290Y-104304D01*
X431289D01*
X432289Y-105304D01*
Y-106304D01*
X428290D01*
X434288Y-108303D02*
X436288D01*
X435288D01*
Y-102305D01*
X434288D01*
X440286Y-103305D02*
Y-104304D01*
X439287D01*
X441286D01*
X440286D01*
Y-107303D01*
X441286Y-108303D01*
X447284D02*
X445285D01*
X444285Y-107303D01*
Y-105304D01*
X445285Y-104304D01*
X447284D01*
X448284Y-105304D01*
Y-106304D01*
X444285D01*
X450283Y-104304D02*
Y-108303D01*
Y-106304D01*
X451283Y-105304D01*
X452282Y-104304D01*
X453282D01*
X462279Y-108303D02*
Y-102305D01*
X465278D01*
X466278Y-103305D01*
Y-105304D01*
X465278Y-106304D01*
X462279D01*
X464279D02*
X466278Y-108303D01*
X472276Y-102305D02*
X468277D01*
Y-105304D01*
X470277D01*
X468277D01*
Y-108303D01*
X398300Y-119900D02*
Y-113902D01*
X400299Y-115901D01*
X402299Y-113902D01*
Y-119900D01*
X405298Y-115901D02*
X407297D01*
X408297Y-116901D01*
Y-119900D01*
X405298D01*
X404298Y-118900D01*
X405298Y-117901D01*
X408297D01*
X410296Y-119900D02*
X412295D01*
X411296D01*
Y-115901D01*
X410296D01*
X415295Y-119900D02*
Y-115901D01*
X418294D01*
X419293Y-116901D01*
Y-119900D01*
X427291Y-113902D02*
Y-119900D01*
X430290D01*
X431289Y-118900D01*
Y-117901D01*
X430290Y-116901D01*
X427291D01*
X430290D01*
X431289Y-115901D01*
Y-114902D01*
X430290Y-113902D01*
X427291D01*
X434288Y-119900D02*
X436288D01*
X437287Y-118900D01*
Y-116901D01*
X436288Y-115901D01*
X434288D01*
X433289Y-116901D01*
Y-118900D01*
X434288Y-119900D01*
X440286Y-115901D02*
X442286D01*
X443286Y-116901D01*
Y-119900D01*
X440286D01*
X439287Y-118900D01*
X440286Y-117901D01*
X443286D01*
X445285Y-115901D02*
Y-119900D01*
Y-117901D01*
X446284Y-116901D01*
X447284Y-115901D01*
X448284D01*
X455282Y-113902D02*
Y-119900D01*
X452282D01*
X451283Y-118900D01*
Y-116901D01*
X452282Y-115901D01*
X455282D01*
X463279Y-119900D02*
X465278D01*
X464279D01*
Y-113902D01*
X463279Y-114902D01*
X468277Y-119900D02*
X471276D01*
X472276Y-118900D01*
X471276Y-117901D01*
X469277D01*
X468277Y-116901D01*
X469277Y-115901D01*
X472276D01*
D11*
X497400Y-321600D02*
D03*
X467400D02*
D03*
X405500Y-76100D02*
D03*
Y-46100D02*
D03*
X518300Y-17000D02*
D03*
X488300D02*
D03*
X557400Y-161600D02*
D03*
Y-191600D02*
D03*
X437400Y-251600D02*
D03*
X467400D02*
D03*
X285300Y-92500D02*
D03*
Y-62500D02*
D03*
D12*
X227200Y-86300D02*
D03*
X217200D02*
D03*
X266900Y-195600D02*
D03*
X256900D02*
D03*
X246900D02*
D03*
X236900D02*
D03*
X226900D02*
D03*
X216900D02*
D03*
X206900D02*
D03*
X196900D02*
D03*
X186900D02*
D03*
X176900D02*
D03*
X166900D02*
D03*
X156900D02*
D03*
X146900D02*
D03*
X136900D02*
D03*
X126900D02*
D03*
X116900D02*
D03*
X106900D02*
D03*
X96900D02*
D03*
X86900D02*
D03*
X482400Y-162624D02*
D03*
X496376Y-231600D02*
D03*
X42700Y-38100D02*
D03*
X52700D02*
D03*
X62700D02*
D03*
X135200Y-85800D02*
D03*
Y-75800D02*
D03*
X517400Y-151600D02*
D03*
X76900Y-286242D02*
D03*
X86900D02*
D03*
X96900D02*
D03*
X106900D02*
D03*
X116900D02*
D03*
X126900D02*
D03*
X136900D02*
D03*
X146900D02*
D03*
X156900D02*
D03*
X166900D02*
D03*
X176900D02*
D03*
X186900D02*
D03*
X196900D02*
D03*
X206900D02*
D03*
X216900D02*
D03*
X226900D02*
D03*
X236900D02*
D03*
X246900D02*
D03*
X256900D02*
D03*
X76900Y-270100D02*
D03*
X86900D02*
D03*
X96900D02*
D03*
X106900D02*
D03*
X116900D02*
D03*
X126900D02*
D03*
X136900D02*
D03*
X146900D02*
D03*
X156900D02*
D03*
X166900D02*
D03*
X176900D02*
D03*
X186900D02*
D03*
X196900D02*
D03*
X206900D02*
D03*
X216900D02*
D03*
X226900D02*
D03*
X236900D02*
D03*
X246900D02*
D03*
X256900D02*
D03*
X266900D02*
D03*
X76900Y-210100D02*
D03*
X86900D02*
D03*
X96900D02*
D03*
X106900D02*
D03*
X116900D02*
D03*
X126900D02*
D03*
X136900D02*
D03*
X146900D02*
D03*
X156900D02*
D03*
X166900D02*
D03*
X176900D02*
D03*
X186900D02*
D03*
X196900D02*
D03*
X206900D02*
D03*
X216900D02*
D03*
X226900D02*
D03*
X236900D02*
D03*
X246900D02*
D03*
X256900D02*
D03*
X346800Y-127100D02*
D03*
X356800D02*
D03*
X366800D02*
D03*
X336800Y-97100D02*
D03*
X346800D02*
D03*
X356800D02*
D03*
X366800D02*
D03*
D13*
X207200Y-86300D02*
D03*
X76900Y-195600D02*
D03*
X468424Y-231600D02*
D03*
X72700Y-38100D02*
D03*
X527400Y-151600D02*
D03*
X266900Y-286242D02*
D03*
D14*
X542700Y-296600D02*
D03*
Y-301600D02*
D03*
X462400Y-61600D02*
D03*
Y-56600D02*
D03*
D15*
X542700Y-306600D02*
D03*
X462400Y-51600D02*
D03*
D16*
X492400Y-96443D02*
D03*
X537400Y-86443D02*
D03*
X442400Y-176757D02*
D03*
D17*
X492400Y-76757D02*
D03*
X537400Y-66757D02*
D03*
X442400Y-196443D02*
D03*
D18*
X482400Y-190576D02*
D03*
X135200Y-95800D02*
D03*
X266900Y-210100D02*
D03*
X336800Y-127100D02*
D03*
D19*
X437400Y-321600D02*
D03*
X432400D02*
D03*
D20*
X427400D02*
D03*
D21*
X307900Y-27200D02*
D03*
D22*
X317900D02*
D03*
X327900D02*
D03*
X88300Y-112100D02*
D03*
Y-122100D02*
D03*
X143300Y-144700D02*
D03*
X173300D02*
D03*
X166500Y-33300D02*
D03*
X136500D02*
D03*
X245300Y-39400D02*
D03*
X215300D02*
D03*
X219300Y-125000D02*
D03*
X249300D02*
D03*
D23*
X88300Y-102100D02*
D03*
D24*
X300900Y-203450D02*
D03*
D25*
Y-211324D02*
D03*
Y-219198D02*
D03*
Y-227073D02*
D03*
Y-234947D02*
D03*
Y-242821D02*
D03*
Y-250695D02*
D03*
Y-258569D02*
D03*
Y-266443D02*
D03*
Y-274317D02*
D03*
X387514D02*
D03*
Y-266443D02*
D03*
Y-258569D02*
D03*
Y-250695D02*
D03*
Y-242821D02*
D03*
Y-234947D02*
D03*
Y-227073D02*
D03*
Y-219198D02*
D03*
Y-211324D02*
D03*
Y-203450D02*
D03*
D26*
X105400Y-325100D02*
D03*
D27*
X115400D02*
D03*
X125400D02*
D03*
X135400D02*
D03*
X145400D02*
D03*
X155400D02*
D03*
X165400D02*
D03*
X175400D02*
D03*
X185400D02*
D03*
X195400D02*
D03*
X205400D02*
D03*
X215400D02*
D03*
X225400D02*
D03*
X235400D02*
D03*
X245400D02*
D03*
X255400D02*
D03*
M02*
