M48
;Layer_Color=9474304
;FILE_FORMAT=2:5
INCH,LZ
;TYPE=PLATED
T1F00S00C0.02500
T2F00S00C0.02756
T3F00S00C0.03150
T4F00S00C0.03346
T5F00S00C0.03543
T6F00S00C0.04000
%
T01
X03009Y-0274317
Y-0266443
Y-0258569
Y-0250695
Y-0242821
Y-0234947
Y-0227073
X0387514
Y-0234947
Y-0242821
Y-0250695
Y-0258569
Y-0266443
Y-0274317
Y-0219198
Y-0211324
Y-020345
X03009
Y-0211324
Y-0219198
T02
X00883Y-01221
Y-01121
Y-01021
X01433Y-01447
X01733
X02193Y-0125
X02493
X03079Y-00272
X03179
X03279
X02453Y-00394
X02153
X01665Y-00333
X01365
T03
X04424Y-0196443
Y-0176757
X04924Y-0096443
Y-0076757
X05374Y-0086443
Y-0066757
T04
X04674Y-03216
X04974
X04674Y-02516
X04374
X04055Y-00761
X02853Y-00925
X05574Y-01616
Y-01916
X05183Y-0017
X04883
X04055Y-00461
X02853Y-00625
T05
X04374Y-03216
X05427Y-03066
Y-03016
Y-02966
X0496376Y-02316
X0468424
X04324Y-03216
X04274
X02669Y-0286242
X02569
X02469
X02369
X02269
X02169
X02069
X01969
X01869
X01769
X01669
X01569
X01469
X01369
X01269
Y-02701
X01369
X01469
X01569
X01669
X01769
X01869
X01969
X02069
X02169
X02269
X02369
X02469
X02569
X02669
X01169
X01069
X00969
X00869
X00769
Y-0286242
X00869
X00969
X01069
X01169
Y-02101
X01069
X00969
X00869
X00769
Y-01956
X00869
X00969
X01069
X01169
X01269
X01369
X01469
X01569
X01669
X01769
X01869
X01969
X02069
X02169
X02269
X02369
X02469
X02569
X02669
Y-02101
X02569
X02469
X02369
X02269
X02169
X02069
X01969
X01869
X01769
X01669
X01569
X01469
X01369
X01269
X01352Y-00958
Y-00858
Y-00758
X02072Y-00863
X02172
X02272
X03368Y-00971
X03468
X03568
X03668
Y-01271
X03568
X03468
X03368
X04824Y-0162624
Y-0190576
X05174Y-01516
X05274
X04624Y-00616
Y-00566
Y-00516
X00727Y-00381
X00627
X00527
X00427
T06
X01254Y-03251
X01354
X01454
X01554
X01654
X01754
X01854
X01954
X02054
X02154
X02254
X02354
X02454
X02554
X01154
X01054
M30
