G04 Layer_Color=8388736*
%FSLAX25Y25*%
%MOIN*%
G70*
G01*
G75*
%ADD35C,0.06312*%
%ADD36C,0.06706*%
%ADD37R,0.06706X0.06706*%
%ADD38O,0.08674X0.04737*%
%ADD39O,0.08674X0.04737*%
%ADD40C,0.06115*%
%ADD41R,0.06115X0.06115*%
%ADD42R,0.06706X0.06706*%
%ADD43O,0.04737X0.08674*%
%ADD44O,0.04737X0.08674*%
%ADD45R,0.05524X0.05524*%
%ADD46C,0.05524*%
%ADD47R,0.05524X0.05524*%
G04:AMPARAMS|DCode=48|XSize=48mil|YSize=48mil|CornerRadius=14mil|HoleSize=0mil|Usage=FLASHONLY|Rotation=0.000|XOffset=0mil|YOffset=0mil|HoleType=Round|Shape=RoundedRectangle|*
%AMROUNDEDRECTD48*
21,1,0.04800,0.02000,0,0,0.0*
21,1,0.02000,0.04800,0,0,0.0*
1,1,0.02800,0.01000,-0.01000*
1,1,0.02800,-0.01000,-0.01000*
1,1,0.02800,-0.01000,0.01000*
1,1,0.02800,0.01000,0.01000*
%
%ADD48ROUNDEDRECTD48*%
%ADD49C,0.04800*%
%ADD50R,0.07800X0.07800*%
%ADD51C,0.07800*%
D35*
X497400Y-321600D02*
D03*
X467400D02*
D03*
X405500Y-76100D02*
D03*
Y-46100D02*
D03*
X518300Y-17000D02*
D03*
X488300D02*
D03*
X557400Y-161600D02*
D03*
Y-191600D02*
D03*
X437400Y-251600D02*
D03*
X467400D02*
D03*
X285300Y-92500D02*
D03*
Y-62500D02*
D03*
D36*
X227200Y-86300D02*
D03*
X217200D02*
D03*
X266900Y-195600D02*
D03*
X256900D02*
D03*
X246900D02*
D03*
X236900D02*
D03*
X226900D02*
D03*
X216900D02*
D03*
X206900D02*
D03*
X196900D02*
D03*
X186900D02*
D03*
X176900D02*
D03*
X166900D02*
D03*
X156900D02*
D03*
X146900D02*
D03*
X136900D02*
D03*
X126900D02*
D03*
X116900D02*
D03*
X106900D02*
D03*
X96900D02*
D03*
X86900D02*
D03*
X482400Y-162624D02*
D03*
X496376Y-231600D02*
D03*
X42700Y-38100D02*
D03*
X52700D02*
D03*
X62700D02*
D03*
X135200Y-85800D02*
D03*
Y-75800D02*
D03*
X517400Y-151600D02*
D03*
X76900Y-286242D02*
D03*
X86900D02*
D03*
X96900D02*
D03*
X106900D02*
D03*
X116900D02*
D03*
X126900D02*
D03*
X136900D02*
D03*
X146900D02*
D03*
X156900D02*
D03*
X166900D02*
D03*
X176900D02*
D03*
X186900D02*
D03*
X196900D02*
D03*
X206900D02*
D03*
X216900D02*
D03*
X226900D02*
D03*
X236900D02*
D03*
X246900D02*
D03*
X256900D02*
D03*
X76900Y-270100D02*
D03*
X86900D02*
D03*
X96900D02*
D03*
X106900D02*
D03*
X116900D02*
D03*
X126900D02*
D03*
X136900D02*
D03*
X146900D02*
D03*
X156900D02*
D03*
X166900D02*
D03*
X176900D02*
D03*
X186900D02*
D03*
X196900D02*
D03*
X206900D02*
D03*
X216900D02*
D03*
X226900D02*
D03*
X236900D02*
D03*
X246900D02*
D03*
X256900D02*
D03*
X266900D02*
D03*
X76900Y-210100D02*
D03*
X86900D02*
D03*
X96900D02*
D03*
X106900D02*
D03*
X116900D02*
D03*
X126900D02*
D03*
X136900D02*
D03*
X146900D02*
D03*
X156900D02*
D03*
X166900D02*
D03*
X176900D02*
D03*
X186900D02*
D03*
X196900D02*
D03*
X206900D02*
D03*
X216900D02*
D03*
X226900D02*
D03*
X236900D02*
D03*
X246900D02*
D03*
X256900D02*
D03*
X346800Y-127100D02*
D03*
X356800D02*
D03*
X366800D02*
D03*
X336800Y-97100D02*
D03*
X346800D02*
D03*
X356800D02*
D03*
X366800D02*
D03*
D37*
X207200Y-86300D02*
D03*
X76900Y-195600D02*
D03*
X468424Y-231600D02*
D03*
X72700Y-38100D02*
D03*
X527400Y-151600D02*
D03*
X266900Y-286242D02*
D03*
D38*
X542700Y-296600D02*
D03*
Y-301600D02*
D03*
X462400Y-61600D02*
D03*
Y-56600D02*
D03*
D39*
X542700Y-306600D02*
D03*
X462400Y-51600D02*
D03*
D40*
X492400Y-96443D02*
D03*
X537400Y-86443D02*
D03*
X442400Y-176757D02*
D03*
D41*
X492400Y-76757D02*
D03*
X537400Y-66757D02*
D03*
X442400Y-196443D02*
D03*
D42*
X482400Y-190576D02*
D03*
X135200Y-95800D02*
D03*
X266900Y-210100D02*
D03*
X336800Y-127100D02*
D03*
D43*
X437400Y-321600D02*
D03*
X432400D02*
D03*
D44*
X427400D02*
D03*
D45*
X307900Y-27200D02*
D03*
D46*
X317900D02*
D03*
X327900D02*
D03*
X88300Y-112100D02*
D03*
Y-122100D02*
D03*
X143300Y-144700D02*
D03*
X173300D02*
D03*
X166500Y-33300D02*
D03*
X136500D02*
D03*
X245300Y-39400D02*
D03*
X215300D02*
D03*
X219300Y-125000D02*
D03*
X249300D02*
D03*
D47*
X88300Y-102100D02*
D03*
D48*
X300900Y-203450D02*
D03*
D49*
Y-211324D02*
D03*
Y-219198D02*
D03*
Y-227073D02*
D03*
Y-234947D02*
D03*
Y-242821D02*
D03*
Y-250695D02*
D03*
Y-258569D02*
D03*
Y-266443D02*
D03*
Y-274317D02*
D03*
X387514D02*
D03*
Y-266443D02*
D03*
Y-258569D02*
D03*
Y-250695D02*
D03*
Y-242821D02*
D03*
Y-234947D02*
D03*
Y-227073D02*
D03*
Y-219198D02*
D03*
Y-211324D02*
D03*
Y-203450D02*
D03*
D50*
X105400Y-325100D02*
D03*
D51*
X115400D02*
D03*
X125400D02*
D03*
X135400D02*
D03*
X145400D02*
D03*
X155400D02*
D03*
X165400D02*
D03*
X175400D02*
D03*
X185400D02*
D03*
X195400D02*
D03*
X205400D02*
D03*
X215400D02*
D03*
X225400D02*
D03*
X235400D02*
D03*
X245400D02*
D03*
X255400D02*
D03*
M02*
