M48
;Layer_Color=9474304
;FILE_FORMAT=2:5
INCH,LZ
;TYPE=PLATED
T1F00S00C0.02500
T2F00S00C0.02756
T3F00S00C0.03543
T4F00S00C0.04000
T5F00S00C0.04724
%
T01
X0154709Y03255
Y0412114
X0162583
X0170457
X0178331
X0186205
X0194079
X0201953
X0209827
X0217701
X0225575
Y03255
X0217701
X0209827
X0201953
X0194079
X0186205
X0178331
X0170457
X0162583
T02
X03855Y0191
X03955
X04055
X0423Y03805
X04435
Y04105
X0423
X03585
X03375
Y03805
X03585
T03
X0322Y01955
X0332
Y02555
X0322
X0365
X0375
X0385
X0395
X0405
X0415
X0425
X0435
Y02255
X0425
X0415
X0405
X0395
X0385
X0375
X0365
X0312Y01955
X0302
X0292
X0282
X0272
X0262
X0252
X0242
X0232
X0222
X0212
X0202
X0192
X0182
X0172
X0162
Y02555
X0172
X0182
X0192
X0202
X0212
X0222
X0232
X0242
X0252
X0262
X0272
X0282
X0292
X0302
X0312
Y03035
X0302
X019Y0289
Y0279
X0152Y02555
X0142
Y01955
X0152
X0302Y03135
X0312
Y03235
X0302
Y03335
X0312
X0397Y03905
Y04005
Y04105
T04
X01595Y0159358
X01695
X01795
X01895
X01995
X02095
X02195
X02295
X02395
X02495
X02595
X02695
X02795
X02895
X02995
X03095
T05
X03085Y0388
Y0398
Y0408
M30
