G04 Layer_Physical_Order=1*
G04 Layer_Color=255*
%FSLAX25Y25*%
%MOIN*%
G70*
G01*
G75*
%ADD10C,0.01000*%
%ADD11C,0.05906*%
%ADD12R,0.05906X0.05906*%
%ADD13C,0.05906*%
%ADD14R,0.05906X0.05906*%
%ADD15C,0.04724*%
%ADD16R,0.07087X0.07087*%
%ADD17C,0.07087*%
%ADD18R,0.04724X0.04724*%
G04:AMPARAMS|DCode=19|XSize=40mil|YSize=40mil|CornerRadius=10mil|HoleSize=0mil|Usage=FLASHONLY|Rotation=90.000|XOffset=0mil|YOffset=0mil|HoleType=Round|Shape=RoundedRectangle|*
%AMROUNDEDRECTD19*
21,1,0.04000,0.02000,0,0,90.0*
21,1,0.02000,0.04000,0,0,90.0*
1,1,0.02000,0.01000,0.01000*
1,1,0.02000,0.01000,-0.01000*
1,1,0.02000,-0.01000,-0.01000*
1,1,0.02000,-0.01000,0.01000*
%
%ADD19ROUNDEDRECTD19*%
%ADD20C,0.04000*%
%ADD21R,0.07000X0.07000*%
%ADD22C,0.07000*%
G36*
X452453Y141548D02*
X129048D01*
Y426953D01*
X452453D01*
Y141548D01*
D02*
G37*
%LPC*%
G36*
X332000Y203491D02*
X330441Y203338D01*
X328942Y202883D01*
X327560Y202145D01*
X327000Y201685D01*
X326440Y202145D01*
X325058Y202883D01*
X323559Y203338D01*
X322000Y203491D01*
X320441Y203338D01*
X318942Y202883D01*
X317560Y202145D01*
X317000Y201685D01*
X316440Y202145D01*
X315058Y202883D01*
X313559Y203338D01*
X312000Y203491D01*
X310441Y203338D01*
X308942Y202883D01*
X307560Y202145D01*
X307000Y201685D01*
X306440Y202145D01*
X305058Y202883D01*
X303559Y203338D01*
X302000Y203491D01*
X300441Y203338D01*
X298942Y202883D01*
X297560Y202145D01*
X297000Y201685D01*
X296440Y202145D01*
X295058Y202883D01*
X293559Y203338D01*
X292000Y203491D01*
X290441Y203338D01*
X288942Y202883D01*
X287560Y202145D01*
X287000Y201685D01*
X286440Y202145D01*
X285058Y202883D01*
X283559Y203338D01*
X282000Y203491D01*
X280441Y203338D01*
X278942Y202883D01*
X277560Y202145D01*
X277000Y201685D01*
X276440Y202145D01*
X275058Y202883D01*
X273559Y203338D01*
X272000Y203491D01*
X270441Y203338D01*
X268942Y202883D01*
X267560Y202145D01*
X267000Y201685D01*
X266440Y202145D01*
X265058Y202883D01*
X263559Y203338D01*
X262000Y203491D01*
X260441Y203338D01*
X258942Y202883D01*
X257560Y202145D01*
X257000Y201685D01*
X256440Y202145D01*
X255058Y202883D01*
X253559Y203338D01*
X252000Y203491D01*
X250441Y203338D01*
X248942Y202883D01*
X247560Y202145D01*
X246349Y201151D01*
X245356Y199940D01*
X244824Y198945D01*
X244183Y198807D01*
X243993Y198953D01*
X243032Y199351D01*
X242500Y199421D01*
Y195500D01*
Y191579D01*
X243032Y191649D01*
X243993Y192047D01*
X244183Y192193D01*
X244824Y192054D01*
X245356Y191060D01*
X246349Y189849D01*
X247560Y188856D01*
X248942Y188117D01*
X250441Y187662D01*
X252000Y187509D01*
X253559Y187662D01*
X255058Y188117D01*
X256440Y188856D01*
X257000Y189315D01*
X257560Y188856D01*
X258942Y188117D01*
X260441Y187662D01*
X262000Y187509D01*
X263559Y187662D01*
X265058Y188117D01*
X266440Y188856D01*
X267000Y189315D01*
X267560Y188856D01*
X268942Y188117D01*
X270441Y187662D01*
X272000Y187509D01*
X273559Y187662D01*
X275058Y188117D01*
X276440Y188856D01*
X277000Y189315D01*
X277560Y188856D01*
X278942Y188117D01*
X280441Y187662D01*
X282000Y187509D01*
X283559Y187662D01*
X285058Y188117D01*
X286440Y188856D01*
X287000Y189315D01*
X287560Y188856D01*
X288942Y188117D01*
X290441Y187662D01*
X292000Y187509D01*
X293559Y187662D01*
X295058Y188117D01*
X296440Y188856D01*
X297000Y189315D01*
X297560Y188856D01*
X298942Y188117D01*
X300441Y187662D01*
X302000Y187509D01*
X303559Y187662D01*
X305058Y188117D01*
X306440Y188856D01*
X307000Y189315D01*
X307560Y188856D01*
X308942Y188117D01*
X310441Y187662D01*
X312000Y187509D01*
X313559Y187662D01*
X315058Y188117D01*
X316440Y188856D01*
X317000Y189315D01*
X317560Y188856D01*
X318942Y188117D01*
X320441Y187662D01*
X322000Y187509D01*
X323559Y187662D01*
X325058Y188117D01*
X326440Y188856D01*
X327000Y189315D01*
X327560Y188856D01*
X328942Y188117D01*
X330441Y187662D01*
X332000Y187509D01*
X333559Y187662D01*
X335058Y188117D01*
X336440Y188856D01*
X337651Y189849D01*
X338645Y191060D01*
X339383Y192442D01*
X339838Y193941D01*
X339991Y195500D01*
X339838Y197059D01*
X339383Y198558D01*
X338645Y199940D01*
X337651Y201151D01*
X336440Y202145D01*
X335058Y202883D01*
X333559Y203338D01*
X332000Y203491D01*
D02*
G37*
G36*
X395000Y233491D02*
X393441Y233338D01*
X391942Y232883D01*
X390560Y232144D01*
X390000Y231685D01*
X389440Y232144D01*
X388058Y232883D01*
X386559Y233338D01*
X385000Y233491D01*
X383441Y233338D01*
X381942Y232883D01*
X380560Y232144D01*
X380000Y231685D01*
X379440Y232144D01*
X378058Y232883D01*
X376559Y233338D01*
X375000Y233491D01*
X373441Y233338D01*
X371942Y232883D01*
X370560Y232144D01*
X370000Y231685D01*
X369440Y232144D01*
X368058Y232883D01*
X366559Y233338D01*
X365000Y233491D01*
X363441Y233338D01*
X361942Y232883D01*
X360560Y232144D01*
X359349Y231151D01*
X358355Y229940D01*
X357617Y228558D01*
X357162Y227059D01*
X357009Y225500D01*
X357162Y223941D01*
X357617Y222442D01*
X358355Y221060D01*
X359349Y219849D01*
X360560Y218856D01*
X361942Y218117D01*
X363441Y217662D01*
X365000Y217509D01*
X366559Y217662D01*
X368058Y218117D01*
X369440Y218856D01*
X370000Y219315D01*
X370560Y218856D01*
X371942Y218117D01*
X373441Y217662D01*
X375000Y217509D01*
X376559Y217662D01*
X378058Y218117D01*
X379440Y218856D01*
X380000Y219315D01*
X380560Y218856D01*
X381942Y218117D01*
X383441Y217662D01*
X385000Y217509D01*
X386559Y217662D01*
X388058Y218117D01*
X389440Y218856D01*
X390000Y219315D01*
X390560Y218856D01*
X391942Y218117D01*
X393441Y217662D01*
X395000Y217509D01*
X396559Y217662D01*
X398058Y218117D01*
X399440Y218856D01*
X400651Y219849D01*
X401645Y221060D01*
X402176Y222055D01*
X402817Y222193D01*
X403007Y222047D01*
X403968Y221649D01*
X404500Y221579D01*
Y225500D01*
Y229421D01*
X403968Y229351D01*
X403007Y228953D01*
X402817Y228807D01*
X402176Y228945D01*
X401645Y229940D01*
X400651Y231151D01*
X399440Y232144D01*
X398058Y232883D01*
X396559Y233338D01*
X395000Y233491D01*
D02*
G37*
G36*
X435000D02*
X433441Y233338D01*
X431942Y232883D01*
X430560Y232144D01*
X430000Y231685D01*
X429440Y232144D01*
X428058Y232883D01*
X426559Y233338D01*
X425000Y233491D01*
X423441Y233338D01*
X421942Y232883D01*
X420560Y232144D01*
X420000Y231685D01*
X419440Y232144D01*
X418058Y232883D01*
X416559Y233338D01*
X415000Y233491D01*
X413441Y233338D01*
X411942Y232883D01*
X410560Y232144D01*
X409349Y231151D01*
X408356Y229940D01*
X407824Y228945D01*
X407183Y228807D01*
X406993Y228953D01*
X406032Y229351D01*
X405500Y229421D01*
Y225500D01*
Y221579D01*
X406032Y221649D01*
X406993Y222047D01*
X407183Y222193D01*
X407824Y222055D01*
X408356Y221060D01*
X409349Y219849D01*
X410560Y218856D01*
X411942Y218117D01*
X413441Y217662D01*
X415000Y217509D01*
X416559Y217662D01*
X418058Y218117D01*
X419440Y218856D01*
X420000Y219315D01*
X420560Y218856D01*
X421942Y218117D01*
X423441Y217662D01*
X425000Y217509D01*
X426559Y217662D01*
X428058Y218117D01*
X429440Y218856D01*
X430000Y219315D01*
X430560Y218856D01*
X431942Y218117D01*
X433441Y217662D01*
X435000Y217509D01*
X436559Y217662D01*
X438058Y218117D01*
X439440Y218856D01*
X440651Y219849D01*
X441644Y221060D01*
X442383Y222442D01*
X442838Y223941D01*
X442991Y225500D01*
X442838Y227059D01*
X442383Y228558D01*
X441644Y229940D01*
X440651Y231151D01*
X439440Y232144D01*
X438058Y232883D01*
X436559Y233338D01*
X435000Y233491D01*
D02*
G37*
G36*
X232000Y203491D02*
X230441Y203338D01*
X228942Y202883D01*
X227560Y202145D01*
X227000Y201685D01*
X226440Y202145D01*
X225058Y202883D01*
X223559Y203338D01*
X222000Y203491D01*
X220441Y203338D01*
X218942Y202883D01*
X217560Y202145D01*
X217000Y201685D01*
X216440Y202145D01*
X215058Y202883D01*
X213559Y203338D01*
X212000Y203491D01*
X210441Y203338D01*
X208942Y202883D01*
X207560Y202145D01*
X207000Y201685D01*
X206440Y202145D01*
X205058Y202883D01*
X203559Y203338D01*
X202000Y203491D01*
X200441Y203338D01*
X198942Y202883D01*
X197560Y202145D01*
X197000Y201685D01*
X196440Y202145D01*
X195058Y202883D01*
X193559Y203338D01*
X192000Y203491D01*
X190441Y203338D01*
X188942Y202883D01*
X187560Y202145D01*
X187000Y201685D01*
X186440Y202145D01*
X185058Y202883D01*
X183559Y203338D01*
X182000Y203491D01*
X180441Y203338D01*
X178942Y202883D01*
X177560Y202145D01*
X177000Y201685D01*
X176440Y202145D01*
X175058Y202883D01*
X173559Y203338D01*
X172000Y203491D01*
X170441Y203338D01*
X168942Y202883D01*
X167560Y202145D01*
X167000Y201685D01*
X166440Y202145D01*
X165058Y202883D01*
X163559Y203338D01*
X162000Y203491D01*
X160441Y203338D01*
X158942Y202883D01*
X157560Y202145D01*
X157000Y201685D01*
X156440Y202145D01*
X155058Y202883D01*
X153559Y203338D01*
X152000Y203491D01*
X150441Y203338D01*
X148942Y202883D01*
X147560Y202145D01*
X147000Y201685D01*
X146440Y202145D01*
X145058Y202883D01*
X143559Y203338D01*
X142000Y203491D01*
X140441Y203338D01*
X138942Y202883D01*
X137560Y202145D01*
X136349Y201151D01*
X135355Y199940D01*
X134617Y198558D01*
X134162Y197059D01*
X134009Y195500D01*
X134162Y193941D01*
X134617Y192442D01*
X135355Y191060D01*
X136349Y189849D01*
X137560Y188856D01*
X138942Y188117D01*
X140441Y187662D01*
X142000Y187509D01*
X143559Y187662D01*
X145058Y188117D01*
X146440Y188856D01*
X147000Y189315D01*
X147560Y188856D01*
X148942Y188117D01*
X150441Y187662D01*
X152000Y187509D01*
X153559Y187662D01*
X155058Y188117D01*
X156440Y188856D01*
X157000Y189315D01*
X157560Y188856D01*
X158942Y188117D01*
X160441Y187662D01*
X162000Y187509D01*
X163559Y187662D01*
X165058Y188117D01*
X166440Y188856D01*
X167000Y189315D01*
X167560Y188856D01*
X168942Y188117D01*
X170441Y187662D01*
X172000Y187509D01*
X173559Y187662D01*
X175058Y188117D01*
X176440Y188856D01*
X177000Y189315D01*
X177560Y188856D01*
X178942Y188117D01*
X180441Y187662D01*
X182000Y187509D01*
X183559Y187662D01*
X185058Y188117D01*
X186440Y188856D01*
X187000Y189315D01*
X187560Y188856D01*
X188942Y188117D01*
X190441Y187662D01*
X192000Y187509D01*
X193559Y187662D01*
X195058Y188117D01*
X196440Y188856D01*
X197000Y189315D01*
X197560Y188856D01*
X198942Y188117D01*
X200441Y187662D01*
X202000Y187509D01*
X203559Y187662D01*
X205058Y188117D01*
X206440Y188856D01*
X207000Y189315D01*
X207560Y188856D01*
X208942Y188117D01*
X210441Y187662D01*
X212000Y187509D01*
X213559Y187662D01*
X215058Y188117D01*
X216440Y188856D01*
X217000Y189315D01*
X217560Y188856D01*
X218942Y188117D01*
X220441Y187662D01*
X222000Y187509D01*
X223559Y187662D01*
X225058Y188117D01*
X226440Y188856D01*
X227000Y189315D01*
X227560Y188856D01*
X228942Y188117D01*
X230441Y187662D01*
X232000Y187509D01*
X233559Y187662D01*
X235058Y188117D01*
X236440Y188856D01*
X237651Y189849D01*
X238645Y191060D01*
X239176Y192054D01*
X239817Y192193D01*
X240007Y192047D01*
X240968Y191649D01*
X241500Y191579D01*
Y195500D01*
Y199421D01*
X240968Y199351D01*
X240007Y198953D01*
X239817Y198807D01*
X239176Y198945D01*
X238645Y199940D01*
X237651Y201151D01*
X236440Y202145D01*
X235058Y202883D01*
X233559Y203338D01*
X232000Y203491D01*
D02*
G37*
G36*
X309500Y167899D02*
X307834Y167735D01*
X306231Y167249D01*
X304755Y166460D01*
X304500Y166251D01*
X304245Y166460D01*
X302769Y167249D01*
X301166Y167735D01*
X299500Y167899D01*
X297834Y167735D01*
X296231Y167249D01*
X294755Y166460D01*
X294500Y166251D01*
X294245Y166460D01*
X292769Y167249D01*
X291166Y167735D01*
X289500Y167899D01*
X287834Y167735D01*
X286231Y167249D01*
X284755Y166460D01*
X284500Y166251D01*
X284245Y166460D01*
X282769Y167249D01*
X281166Y167735D01*
X279500Y167899D01*
X277834Y167735D01*
X276231Y167249D01*
X274755Y166460D01*
X274500Y166251D01*
X274245Y166460D01*
X272769Y167249D01*
X271166Y167735D01*
X269500Y167899D01*
X267834Y167735D01*
X266231Y167249D01*
X264755Y166460D01*
X264500Y166251D01*
X264245Y166460D01*
X262769Y167249D01*
X261166Y167735D01*
X259500Y167899D01*
X257834Y167735D01*
X256231Y167249D01*
X254755Y166460D01*
X253461Y165398D01*
X252398Y164103D01*
X251988Y163336D01*
X251769Y163289D01*
X250675Y163742D01*
X250000Y163831D01*
Y159358D01*
Y154885D01*
X250675Y154974D01*
X251769Y155428D01*
X251988Y155380D01*
X252398Y154613D01*
X253461Y153319D01*
X254755Y152257D01*
X256231Y151467D01*
X257834Y150981D01*
X259500Y150817D01*
X261166Y150981D01*
X262769Y151467D01*
X264245Y152257D01*
X264500Y152466D01*
X264755Y152257D01*
X266231Y151467D01*
X267834Y150981D01*
X269500Y150817D01*
X271166Y150981D01*
X272769Y151467D01*
X274245Y152257D01*
X274500Y152466D01*
X274755Y152257D01*
X276231Y151467D01*
X277834Y150981D01*
X279500Y150817D01*
X281166Y150981D01*
X282769Y151467D01*
X284245Y152257D01*
X284500Y152466D01*
X284755Y152257D01*
X286231Y151467D01*
X287834Y150981D01*
X289500Y150817D01*
X291166Y150981D01*
X292769Y151467D01*
X294245Y152257D01*
X294500Y152466D01*
X294755Y152257D01*
X296231Y151467D01*
X297834Y150981D01*
X299500Y150817D01*
X301166Y150981D01*
X302769Y151467D01*
X304245Y152257D01*
X304500Y152466D01*
X304755Y152257D01*
X306231Y151467D01*
X307834Y150981D01*
X309500Y150817D01*
X311166Y150981D01*
X312769Y151467D01*
X314245Y152257D01*
X315540Y153319D01*
X316602Y154613D01*
X317391Y156090D01*
X317877Y157692D01*
X318041Y159358D01*
X317877Y161024D01*
X317391Y162627D01*
X316602Y164103D01*
X315540Y165398D01*
X314245Y166460D01*
X312769Y167249D01*
X311166Y167735D01*
X309500Y167899D01*
D02*
G37*
G36*
X392862Y198362D02*
X378138D01*
Y183638D01*
X392862D01*
Y188156D01*
X393362Y188402D01*
X393804Y188063D01*
X394622Y187724D01*
X395000Y187675D01*
Y191000D01*
Y194325D01*
X394622Y194276D01*
X393804Y193937D01*
X393362Y193598D01*
X392862Y193844D01*
Y198362D01*
D02*
G37*
G36*
X405500Y198398D02*
X404057Y198256D01*
X402669Y197835D01*
X401390Y197151D01*
X400269Y196231D01*
X399349Y195110D01*
X398665Y193831D01*
X398513Y193327D01*
X398021Y193238D01*
X397898Y193398D01*
X397196Y193937D01*
X396378Y194276D01*
X396000Y194325D01*
Y191000D01*
Y187675D01*
X396378Y187724D01*
X397196Y188063D01*
X397898Y188602D01*
X398021Y188762D01*
X398513Y188672D01*
X398665Y188169D01*
X399349Y186890D01*
X400269Y185769D01*
X401390Y184849D01*
X402669Y184165D01*
X404057Y183744D01*
X405500Y183602D01*
X406943Y183744D01*
X408331Y184165D01*
X409610Y184849D01*
X410731Y185769D01*
X411651Y186890D01*
X412335Y188169D01*
X412756Y189557D01*
X412898Y191000D01*
X412756Y192443D01*
X412335Y193831D01*
X411651Y195110D01*
X410731Y196231D01*
X409610Y197151D01*
X408331Y197835D01*
X406943Y198256D01*
X405500Y198398D01*
D02*
G37*
G36*
X364500Y255000D02*
X361079D01*
X361149Y254468D01*
X361547Y253507D01*
X362181Y252681D01*
X363007Y252047D01*
X363968Y251649D01*
X364500Y251579D01*
Y255000D01*
D02*
G37*
G36*
X190000Y289000D02*
D01*
Y288500D01*
X186079D01*
X186149Y287968D01*
X186363Y287453D01*
X186028Y286953D01*
X182047D01*
Y271047D01*
X197953D01*
Y286953D01*
X193972D01*
X193638Y287453D01*
X193851Y287968D01*
X193921Y288500D01*
X190000D01*
Y289000D01*
D02*
G37*
G36*
X189500Y292921D02*
X188968Y292851D01*
X188007Y292453D01*
X187181Y291819D01*
X186547Y290993D01*
X186149Y290032D01*
X186079Y289500D01*
X189500D01*
Y292921D01*
D02*
G37*
G36*
X190500D02*
Y289500D01*
X193921D01*
X193851Y290032D01*
X193453Y290993D01*
X192819Y291819D01*
X191993Y292453D01*
X191032Y292851D01*
X190500Y292921D01*
D02*
G37*
G36*
X425000Y263491D02*
X423441Y263338D01*
X421942Y262883D01*
X420560Y262144D01*
X420000Y261685D01*
X419440Y262144D01*
X418058Y262883D01*
X416559Y263338D01*
X415000Y263491D01*
X413441Y263338D01*
X411942Y262883D01*
X410560Y262144D01*
X410000Y261685D01*
X409440Y262144D01*
X408058Y262883D01*
X406559Y263338D01*
X405000Y263491D01*
X403441Y263338D01*
X401942Y262883D01*
X400560Y262144D01*
X400000Y261685D01*
X399440Y262144D01*
X398058Y262883D01*
X396559Y263338D01*
X395000Y263491D01*
X393441Y263338D01*
X391942Y262883D01*
X390560Y262144D01*
X390000Y261685D01*
X389440Y262144D01*
X388058Y262883D01*
X386559Y263338D01*
X385000Y263491D01*
X383441Y263338D01*
X381942Y262883D01*
X380560Y262144D01*
X380000Y261685D01*
X379440Y262144D01*
X378058Y262883D01*
X376559Y263338D01*
X375000Y263491D01*
X373441Y263338D01*
X371942Y262883D01*
X370560Y262144D01*
X369349Y261151D01*
X368355Y259940D01*
X367824Y258945D01*
X367183Y258807D01*
X366993Y258953D01*
X366032Y259351D01*
X365500Y259421D01*
Y255500D01*
Y251579D01*
X366032Y251649D01*
X366993Y252047D01*
X367183Y252193D01*
X367824Y252055D01*
X368355Y251060D01*
X369349Y249849D01*
X370560Y248855D01*
X371942Y248117D01*
X373441Y247662D01*
X375000Y247509D01*
X376559Y247662D01*
X378058Y248117D01*
X379440Y248855D01*
X380000Y249315D01*
X380560Y248855D01*
X381942Y248117D01*
X383441Y247662D01*
X385000Y247509D01*
X386559Y247662D01*
X388058Y248117D01*
X389440Y248855D01*
X390000Y249315D01*
X390560Y248855D01*
X391942Y248117D01*
X393441Y247662D01*
X395000Y247509D01*
X396559Y247662D01*
X398058Y248117D01*
X399440Y248855D01*
X400000Y249315D01*
X400560Y248855D01*
X401942Y248117D01*
X403441Y247662D01*
X405000Y247509D01*
X406559Y247662D01*
X408058Y248117D01*
X409440Y248855D01*
X410000Y249315D01*
X410560Y248855D01*
X411942Y248117D01*
X413441Y247662D01*
X415000Y247509D01*
X416559Y247662D01*
X418058Y248117D01*
X419440Y248855D01*
X420000Y249315D01*
X420560Y248855D01*
X421942Y248117D01*
X423441Y247662D01*
X425000Y247509D01*
X426547Y247661D01*
X426876Y247674D01*
X427047Y247547D01*
Y247547D01*
X442953D01*
Y263453D01*
X427047D01*
Y263453D01*
X426876Y263326D01*
X426547Y263339D01*
X425000Y263491D01*
D02*
G37*
G36*
X364500Y259421D02*
X363968Y259351D01*
X363007Y258953D01*
X362181Y258319D01*
X361547Y257493D01*
X361149Y256532D01*
X361079Y256000D01*
X364500D01*
Y259421D01*
D02*
G37*
G36*
X222000Y263491D02*
X220441Y263338D01*
X218942Y262883D01*
X217560Y262144D01*
X217000Y261685D01*
X216440Y262144D01*
X215058Y262883D01*
X213559Y263338D01*
X212000Y263491D01*
X210441Y263338D01*
X208942Y262883D01*
X207560Y262144D01*
X207000Y261685D01*
X206440Y262144D01*
X205058Y262883D01*
X203559Y263338D01*
X202000Y263491D01*
X200441Y263338D01*
X198942Y262883D01*
X197560Y262144D01*
X197000Y261685D01*
X196440Y262144D01*
X195058Y262883D01*
X193559Y263338D01*
X192000Y263491D01*
X190441Y263338D01*
X188942Y262883D01*
X187560Y262144D01*
X187000Y261685D01*
X186440Y262144D01*
X185058Y262883D01*
X183559Y263338D01*
X182000Y263491D01*
X180441Y263338D01*
X178942Y262883D01*
X177560Y262144D01*
X177000Y261685D01*
X176440Y262144D01*
X175058Y262883D01*
X173559Y263338D01*
X172000Y263491D01*
X170441Y263338D01*
X168942Y262883D01*
X167560Y262144D01*
X167000Y261685D01*
X166440Y262144D01*
X165058Y262883D01*
X163559Y263338D01*
X162000Y263491D01*
X160441Y263338D01*
X158942Y262883D01*
X157560Y262144D01*
X157000Y261685D01*
X156440Y262144D01*
X155058Y262883D01*
X153559Y263338D01*
X152000Y263491D01*
X150441Y263338D01*
X148942Y262883D01*
X147560Y262144D01*
X147000Y261685D01*
X146440Y262144D01*
X145058Y262883D01*
X143559Y263338D01*
X142000Y263491D01*
X140441Y263338D01*
X138942Y262883D01*
X137560Y262144D01*
X136349Y261151D01*
X135355Y259940D01*
X134617Y258558D01*
X134162Y257059D01*
X134009Y255500D01*
X134162Y253941D01*
X134617Y252442D01*
X135355Y251060D01*
X136349Y249849D01*
X137560Y248855D01*
X138942Y248117D01*
X140441Y247662D01*
X142000Y247509D01*
X143559Y247662D01*
X145058Y248117D01*
X146440Y248855D01*
X147000Y249315D01*
X147560Y248855D01*
X148942Y248117D01*
X150441Y247662D01*
X152000Y247509D01*
X153559Y247662D01*
X155058Y248117D01*
X156440Y248855D01*
X157000Y249315D01*
X157560Y248855D01*
X158942Y248117D01*
X160441Y247662D01*
X162000Y247509D01*
X163559Y247662D01*
X165058Y248117D01*
X166440Y248855D01*
X167000Y249315D01*
X167560Y248855D01*
X168942Y248117D01*
X170441Y247662D01*
X172000Y247509D01*
X173559Y247662D01*
X175058Y248117D01*
X176440Y248855D01*
X177000Y249315D01*
X177560Y248855D01*
X178942Y248117D01*
X180441Y247662D01*
X182000Y247509D01*
X183559Y247662D01*
X185058Y248117D01*
X186440Y248855D01*
X187000Y249315D01*
X187560Y248855D01*
X188942Y248117D01*
X190441Y247662D01*
X192000Y247509D01*
X193559Y247662D01*
X195058Y248117D01*
X196440Y248855D01*
X197000Y249315D01*
X197560Y248855D01*
X198942Y248117D01*
X200441Y247662D01*
X202000Y247509D01*
X203559Y247662D01*
X205058Y248117D01*
X206440Y248855D01*
X207000Y249315D01*
X207560Y248855D01*
X208942Y248117D01*
X210441Y247662D01*
X212000Y247509D01*
X213559Y247662D01*
X215058Y248117D01*
X216440Y248855D01*
X217000Y249315D01*
X217560Y248855D01*
X218942Y248117D01*
X220441Y247662D01*
X222000Y247509D01*
X223559Y247662D01*
X225058Y248117D01*
X226440Y248855D01*
X227651Y249849D01*
X228644Y251060D01*
X229176Y252055D01*
X229817Y252193D01*
X230007Y252047D01*
X230968Y251649D01*
X231500Y251579D01*
Y255500D01*
Y259421D01*
X230968Y259351D01*
X230007Y258953D01*
X229817Y258807D01*
X229176Y258945D01*
X228644Y259940D01*
X227651Y261151D01*
X226440Y262144D01*
X225058Y262883D01*
X223559Y263338D01*
X222000Y263491D01*
D02*
G37*
G36*
X322000D02*
X320441Y263338D01*
X318942Y262883D01*
X317560Y262144D01*
X317000Y261685D01*
X316440Y262144D01*
X315058Y262883D01*
X313559Y263338D01*
X312000Y263491D01*
X310441Y263338D01*
X308942Y262883D01*
X307560Y262144D01*
X307000Y261685D01*
X306440Y262144D01*
X305058Y262883D01*
X303559Y263338D01*
X302000Y263491D01*
X300441Y263338D01*
X298942Y262883D01*
X297560Y262144D01*
X297000Y261685D01*
X296440Y262144D01*
X295058Y262883D01*
X293559Y263338D01*
X292000Y263491D01*
X290441Y263338D01*
X288942Y262883D01*
X287560Y262144D01*
X287000Y261685D01*
X286440Y262144D01*
X285058Y262883D01*
X283559Y263338D01*
X282000Y263491D01*
X280441Y263338D01*
X278942Y262883D01*
X277560Y262144D01*
X277000Y261685D01*
X276440Y262144D01*
X275058Y262883D01*
X273559Y263338D01*
X272000Y263491D01*
X270441Y263338D01*
X268942Y262883D01*
X267560Y262144D01*
X267000Y261685D01*
X266440Y262144D01*
X265058Y262883D01*
X263559Y263338D01*
X262000Y263491D01*
X260441Y263338D01*
X258942Y262883D01*
X257560Y262144D01*
X257000Y261685D01*
X256440Y262144D01*
X255058Y262883D01*
X253559Y263338D01*
X252000Y263491D01*
X250441Y263338D01*
X248942Y262883D01*
X247560Y262144D01*
X247000Y261685D01*
X246440Y262144D01*
X245058Y262883D01*
X243559Y263338D01*
X242000Y263491D01*
X240441Y263338D01*
X238942Y262883D01*
X237560Y262144D01*
X236349Y261151D01*
X235355Y259940D01*
X234824Y258945D01*
X234183Y258807D01*
X233993Y258953D01*
X233032Y259351D01*
X232500Y259421D01*
Y255500D01*
Y251579D01*
X233032Y251649D01*
X233993Y252047D01*
X234183Y252193D01*
X234824Y252055D01*
X235355Y251060D01*
X236349Y249849D01*
X237560Y248855D01*
X238942Y248117D01*
X240441Y247662D01*
X242000Y247509D01*
X243559Y247662D01*
X245058Y248117D01*
X246440Y248855D01*
X247000Y249315D01*
X247560Y248855D01*
X248942Y248117D01*
X250441Y247662D01*
X252000Y247509D01*
X253559Y247662D01*
X255058Y248117D01*
X256440Y248855D01*
X257000Y249315D01*
X257560Y248855D01*
X258942Y248117D01*
X260441Y247662D01*
X262000Y247509D01*
X263559Y247662D01*
X265058Y248117D01*
X266440Y248855D01*
X267000Y249315D01*
X267560Y248855D01*
X268942Y248117D01*
X270441Y247662D01*
X272000Y247509D01*
X273559Y247662D01*
X275058Y248117D01*
X276440Y248855D01*
X277000Y249315D01*
X277560Y248855D01*
X278942Y248117D01*
X280441Y247662D01*
X282000Y247509D01*
X283559Y247662D01*
X285058Y248117D01*
X286440Y248855D01*
X287000Y249315D01*
X287560Y248855D01*
X288942Y248117D01*
X290441Y247662D01*
X292000Y247509D01*
X293559Y247662D01*
X295058Y248117D01*
X296440Y248855D01*
X297000Y249315D01*
X297560Y248855D01*
X298942Y248117D01*
X300441Y247662D01*
X302000Y247509D01*
X303559Y247662D01*
X305058Y248117D01*
X306440Y248855D01*
X307000Y249315D01*
X307560Y248855D01*
X308942Y248117D01*
X310441Y247662D01*
X312000Y247509D01*
X313559Y247662D01*
X315058Y248117D01*
X316440Y248855D01*
X317000Y249315D01*
X317560Y248855D01*
X318942Y248117D01*
X320441Y247662D01*
X322000Y247509D01*
X323547Y247661D01*
X323877Y247674D01*
X324047Y247547D01*
Y247547D01*
X339953D01*
Y263453D01*
X324047D01*
Y263453D01*
X323877Y263326D01*
X323547Y263339D01*
X322000Y263491D01*
D02*
G37*
G36*
X189500Y167899D02*
X187834Y167735D01*
X186231Y167249D01*
X184755Y166460D01*
X184500Y166251D01*
X184245Y166460D01*
X182769Y167249D01*
X181166Y167735D01*
X179500Y167899D01*
X177834Y167735D01*
X176231Y167249D01*
X174755Y166460D01*
X174500Y166251D01*
X174245Y166460D01*
X172769Y167249D01*
X171166Y167735D01*
X169500Y167899D01*
X167834Y167735D01*
X166231Y167249D01*
X164755Y166460D01*
X163461Y165398D01*
X162398Y164103D01*
X162267Y163858D01*
X160000D01*
Y159358D01*
Y154858D01*
X162267D01*
X162398Y154613D01*
X163461Y153319D01*
X164755Y152257D01*
X166231Y151467D01*
X167834Y150981D01*
X169500Y150817D01*
X171166Y150981D01*
X172769Y151467D01*
X174245Y152257D01*
X174500Y152466D01*
X174755Y152257D01*
X176231Y151467D01*
X177834Y150981D01*
X179500Y150817D01*
X181166Y150981D01*
X182769Y151467D01*
X184245Y152257D01*
X184500Y152466D01*
X184755Y152257D01*
X186231Y151467D01*
X187834Y150981D01*
X189500Y150817D01*
X191166Y150981D01*
X192769Y151467D01*
X194245Y152257D01*
X195539Y153319D01*
X196602Y154613D01*
X197012Y155380D01*
X197231Y155428D01*
X198325Y154974D01*
X199000Y154885D01*
Y159358D01*
Y163831D01*
X198325Y163742D01*
X197231Y163289D01*
X197012Y163336D01*
X196602Y164103D01*
X195539Y165398D01*
X194245Y166460D01*
X192769Y167249D01*
X191166Y167735D01*
X189500Y167899D01*
D02*
G37*
G36*
X233973Y158858D02*
X230000D01*
Y154885D01*
X230675Y154974D01*
X231769Y155428D01*
X232709Y156149D01*
X233431Y157089D01*
X233884Y158184D01*
X233973Y158858D01*
D02*
G37*
G36*
X243973D02*
X240000D01*
Y154885D01*
X240675Y154974D01*
X241769Y155428D01*
X242709Y156149D01*
X243431Y157089D01*
X243884Y158184D01*
X243973Y158858D01*
D02*
G37*
G36*
X223973D02*
X220000D01*
Y154885D01*
X220675Y154974D01*
X221769Y155428D01*
X222709Y156149D01*
X223431Y157089D01*
X223884Y158184D01*
X223973Y158858D01*
D02*
G37*
G36*
X249000D02*
X245027D01*
X245116Y158184D01*
X245569Y157089D01*
X246291Y156149D01*
X247231Y155428D01*
X248325Y154974D01*
X249000Y154885D01*
Y158858D01*
D02*
G37*
G36*
X159000D02*
X155000D01*
Y154858D01*
X159000D01*
Y158858D01*
D02*
G37*
G36*
X229000D02*
X225027D01*
X225116Y158184D01*
X225569Y157089D01*
X226291Y156149D01*
X227231Y155428D01*
X228325Y154974D01*
X229000Y154885D01*
Y158858D01*
D02*
G37*
G36*
X239000D02*
X235027D01*
X235116Y158184D01*
X235569Y157089D01*
X236291Y156149D01*
X237231Y155428D01*
X238325Y154974D01*
X239000Y154885D01*
Y158858D01*
D02*
G37*
G36*
X159000Y163858D02*
X155000D01*
Y159858D01*
X159000D01*
Y163858D01*
D02*
G37*
G36*
X230000Y163831D02*
Y159858D01*
X233973D01*
X233884Y160533D01*
X233431Y161628D01*
X232709Y162568D01*
X231769Y163289D01*
X230675Y163742D01*
X230000Y163831D01*
D02*
G37*
G36*
X240000D02*
Y159858D01*
X243973D01*
X243884Y160533D01*
X243431Y161628D01*
X242709Y162568D01*
X241769Y163289D01*
X240675Y163742D01*
X240000Y163831D01*
D02*
G37*
G36*
X209500Y167899D02*
X207834Y167735D01*
X206231Y167249D01*
X204755Y166460D01*
X203461Y165398D01*
X202398Y164103D01*
X201988Y163336D01*
X201769Y163289D01*
X200675Y163742D01*
X200000Y163831D01*
Y159358D01*
Y154885D01*
X200675Y154974D01*
X201769Y155428D01*
X201988Y155380D01*
X202398Y154613D01*
X203461Y153319D01*
X204755Y152257D01*
X206231Y151467D01*
X207834Y150981D01*
X209500Y150817D01*
X211166Y150981D01*
X212769Y151467D01*
X214245Y152257D01*
X215540Y153319D01*
X216602Y154613D01*
X217012Y155380D01*
X217231Y155428D01*
X218325Y154974D01*
X219000Y154885D01*
Y159358D01*
Y163831D01*
X218325Y163742D01*
X217231Y163289D01*
X217012Y163336D01*
X216602Y164103D01*
X215540Y165398D01*
X214245Y166460D01*
X212769Y167249D01*
X211166Y167735D01*
X209500Y167899D01*
D02*
G37*
G36*
X220000Y163831D02*
Y159858D01*
X223973D01*
X223884Y160533D01*
X223431Y161628D01*
X222709Y162568D01*
X221769Y163289D01*
X220675Y163742D01*
X220000Y163831D01*
D02*
G37*
G36*
X229000D02*
X228325Y163742D01*
X227231Y163289D01*
X226291Y162568D01*
X225569Y161628D01*
X225116Y160533D01*
X225027Y159858D01*
X229000D01*
Y163831D01*
D02*
G37*
G36*
X239000D02*
X238325Y163742D01*
X237231Y163289D01*
X236291Y162568D01*
X235569Y161628D01*
X235116Y160533D01*
X235027Y159858D01*
X239000D01*
Y163831D01*
D02*
G37*
G36*
X249000D02*
X248325Y163742D01*
X247231Y163289D01*
X246291Y162568D01*
X245569Y161628D01*
X245116Y160533D01*
X245027Y159858D01*
X249000D01*
Y163831D01*
D02*
G37*
G36*
X423000Y417898D02*
X421557Y417756D01*
X420169Y417335D01*
X418890Y416651D01*
X417769Y415731D01*
X416849Y414610D01*
X416165Y413331D01*
X415744Y411943D01*
X415602Y410500D01*
X415744Y409057D01*
X416165Y407669D01*
X416849Y406390D01*
X417769Y405269D01*
X418890Y404349D01*
X420169Y403665D01*
X421557Y403244D01*
X423000Y403102D01*
X424443Y403244D01*
X425831Y403665D01*
X427110Y404349D01*
X428231Y405269D01*
X429151Y406390D01*
X429835Y407669D01*
X430256Y409057D01*
X430398Y410500D01*
X430256Y411943D01*
X429835Y413331D01*
X429151Y414610D01*
X428231Y415731D01*
X427110Y416651D01*
X425831Y417335D01*
X424443Y417756D01*
X423000Y417898D01*
D02*
G37*
G36*
X308500Y416585D02*
X306825Y416420D01*
X305215Y415931D01*
X303731Y415138D01*
X302430Y414070D01*
X301362Y412769D01*
X300569Y411285D01*
X300080Y409675D01*
X299915Y408000D01*
X300080Y406325D01*
X300569Y404715D01*
X301362Y403231D01*
X302430Y401930D01*
X303731Y400862D01*
X304497Y400453D01*
X304531Y400291D01*
X304074Y399186D01*
X303983Y398500D01*
X308500D01*
X313017D01*
X312926Y399186D01*
X312469Y400291D01*
X312503Y400453D01*
X313269Y400862D01*
X314570Y401930D01*
X315638Y403231D01*
X316431Y404715D01*
X316920Y406325D01*
X317085Y408000D01*
X316920Y409675D01*
X316431Y411285D01*
X315638Y412769D01*
X314570Y414070D01*
X313269Y415138D01*
X311785Y415931D01*
X310175Y416420D01*
X308500Y416585D01*
D02*
G37*
G36*
X337000Y410000D02*
X334175D01*
X334224Y409622D01*
X334563Y408804D01*
X335102Y408102D01*
X335804Y407563D01*
X336622Y407224D01*
X337000Y407175D01*
Y410000D01*
D02*
G37*
G36*
X443500Y417898D02*
X442057Y417756D01*
X440669Y417335D01*
X439390Y416651D01*
X438269Y415731D01*
X437349Y414610D01*
X436665Y413331D01*
X436244Y411943D01*
X436102Y410500D01*
X436244Y409057D01*
X436665Y407669D01*
X437349Y406390D01*
X438269Y405269D01*
X439390Y404349D01*
X440669Y403665D01*
X442057Y403244D01*
X443500Y403102D01*
X444943Y403244D01*
X446331Y403665D01*
X447610Y404349D01*
X448731Y405269D01*
X449651Y406390D01*
X450335Y407669D01*
X450756Y409057D01*
X450898Y410500D01*
X450756Y411943D01*
X450335Y413331D01*
X449651Y414610D01*
X448731Y415731D01*
X447610Y416651D01*
X446331Y417335D01*
X444943Y417756D01*
X443500Y417898D01*
D02*
G37*
G36*
X396500Y390000D02*
X393047D01*
Y386547D01*
X396500D01*
Y390000D01*
D02*
G37*
G36*
X444000Y383825D02*
Y381000D01*
X446825D01*
X446776Y381378D01*
X446437Y382196D01*
X445898Y382898D01*
X445196Y383437D01*
X444378Y383776D01*
X444000Y383825D01*
D02*
G37*
G36*
X397000Y418491D02*
X395441Y418338D01*
X393942Y417883D01*
X392560Y417144D01*
X391349Y416151D01*
X390355Y414940D01*
X389617Y413558D01*
X389162Y412059D01*
X389009Y410500D01*
X389162Y408941D01*
X389617Y407442D01*
X390355Y406060D01*
X390815Y405500D01*
X390355Y404940D01*
X389617Y403558D01*
X389162Y402059D01*
X389009Y400500D01*
X389162Y398941D01*
X389617Y397442D01*
X390355Y396060D01*
X391349Y394849D01*
X392560Y393856D01*
X393047Y393595D01*
Y391000D01*
X397000D01*
X400953D01*
Y393595D01*
X401440Y393856D01*
X402651Y394849D01*
X403645Y396060D01*
X404383Y397442D01*
X404838Y398941D01*
X404991Y400500D01*
X404838Y402059D01*
X404383Y403558D01*
X403645Y404940D01*
X403185Y405500D01*
X403645Y406060D01*
X404383Y407442D01*
X404838Y408941D01*
X404991Y410500D01*
X404838Y412059D01*
X404383Y413558D01*
X403645Y414940D01*
X402651Y416151D01*
X401440Y417144D01*
X400058Y417883D01*
X398559Y418338D01*
X397000Y418491D01*
D02*
G37*
G36*
X400953Y390000D02*
X397500D01*
Y386547D01*
X400953D01*
Y390000D01*
D02*
G37*
G36*
X338000Y413825D02*
Y411000D01*
X340825D01*
X340776Y411378D01*
X340437Y412196D01*
X339898Y412898D01*
X339196Y413437D01*
X338378Y413776D01*
X338000Y413825D01*
D02*
G37*
G36*
X358000D02*
X357622Y413776D01*
X356804Y413437D01*
X356102Y412898D01*
X355563Y412196D01*
X355224Y411378D01*
X355175Y411000D01*
X358000D01*
Y413825D01*
D02*
G37*
G36*
X225575Y419148D02*
X224203Y419013D01*
X222883Y418613D01*
X221667Y417963D01*
X221638Y417939D01*
X221609Y417963D01*
X220392Y418613D01*
X219073Y419013D01*
X217701Y419148D01*
X216329Y419013D01*
X215009Y418613D01*
X213793Y417963D01*
X213764Y417939D01*
X213735Y417963D01*
X212519Y418613D01*
X211199Y419013D01*
X209827Y419148D01*
X208455Y419013D01*
X207135Y418613D01*
X205919Y417963D01*
X205890Y417939D01*
X205861Y417963D01*
X204645Y418613D01*
X203325Y419013D01*
X201953Y419148D01*
X200581Y419013D01*
X199261Y418613D01*
X198045Y417963D01*
X198016Y417939D01*
X197987Y417963D01*
X196771Y418613D01*
X195451Y419013D01*
X194079Y419148D01*
X192707Y419013D01*
X191387Y418613D01*
X190171Y417963D01*
X190142Y417939D01*
X190113Y417963D01*
X188897Y418613D01*
X187577Y419013D01*
X186205Y419148D01*
X184833Y419013D01*
X183513Y418613D01*
X182297Y417963D01*
X182268Y417939D01*
X182239Y417963D01*
X181023Y418613D01*
X179703Y419013D01*
X178331Y419148D01*
X176959Y419013D01*
X175639Y418613D01*
X174423Y417963D01*
X174394Y417939D01*
X174364Y417963D01*
X173148Y418613D01*
X171829Y419013D01*
X170457Y419148D01*
X169084Y419013D01*
X167765Y418613D01*
X166549Y417963D01*
X166520Y417939D01*
X166490Y417963D01*
X165274Y418613D01*
X163955Y419013D01*
X162583Y419148D01*
X161210Y419013D01*
X159891Y418613D01*
X158675Y417963D01*
X158646Y417939D01*
X158616Y417963D01*
X157400Y418613D01*
X156081Y419013D01*
X154709Y419148D01*
X153336Y419013D01*
X152017Y418613D01*
X150801Y417963D01*
X149735Y417088D01*
X148860Y416022D01*
X148210Y414806D01*
X147810Y413486D01*
X147675Y412114D01*
X147810Y410742D01*
X148210Y409422D01*
X148860Y408206D01*
X149735Y407140D01*
X150801Y406266D01*
X152017Y405616D01*
X153336Y405216D01*
X154709Y405080D01*
X156081Y405216D01*
X157400Y405616D01*
X158616Y406266D01*
X158646Y406290D01*
X158675Y406266D01*
X159891Y405616D01*
X161210Y405216D01*
X162583Y405080D01*
X163955Y405216D01*
X165274Y405616D01*
X166490Y406266D01*
X166520Y406290D01*
X166549Y406266D01*
X167765Y405616D01*
X169084Y405216D01*
X170457Y405080D01*
X171829Y405216D01*
X173148Y405616D01*
X174364Y406266D01*
X174394Y406290D01*
X174423Y406266D01*
X175639Y405616D01*
X176959Y405216D01*
X178331Y405080D01*
X179703Y405216D01*
X181023Y405616D01*
X182239Y406266D01*
X182268Y406290D01*
X182297Y406266D01*
X183513Y405616D01*
X184833Y405216D01*
X186205Y405080D01*
X187577Y405216D01*
X188897Y405616D01*
X190113Y406266D01*
X190142Y406290D01*
X190171Y406266D01*
X191387Y405616D01*
X192707Y405216D01*
X194079Y405080D01*
X195451Y405216D01*
X196771Y405616D01*
X197987Y406266D01*
X198016Y406290D01*
X198045Y406266D01*
X199261Y405616D01*
X200581Y405216D01*
X201953Y405080D01*
X203325Y405216D01*
X204645Y405616D01*
X205861Y406266D01*
X205890Y406290D01*
X205919Y406266D01*
X207135Y405616D01*
X208455Y405216D01*
X209827Y405080D01*
X211199Y405216D01*
X212519Y405616D01*
X213735Y406266D01*
X213764Y406290D01*
X213793Y406266D01*
X215009Y405616D01*
X216329Y405216D01*
X217701Y405080D01*
X219073Y405216D01*
X220392Y405616D01*
X221609Y406266D01*
X221638Y406290D01*
X221667Y406266D01*
X222883Y405616D01*
X224203Y405216D01*
X225575Y405080D01*
X226947Y405216D01*
X228267Y405616D01*
X229483Y406266D01*
X230549Y407140D01*
X231423Y408206D01*
X232073Y409422D01*
X232473Y410742D01*
X232609Y412114D01*
X232473Y413486D01*
X232073Y414806D01*
X231423Y416022D01*
X230549Y417088D01*
X229483Y417963D01*
X228267Y418613D01*
X226947Y419013D01*
X225575Y419148D01*
D02*
G37*
G36*
X359000Y413825D02*
Y411000D01*
X361825D01*
X361776Y411378D01*
X361437Y412196D01*
X360898Y412898D01*
X360196Y413437D01*
X359378Y413776D01*
X359000Y413825D01*
D02*
G37*
G36*
X340825Y410000D02*
X338000D01*
Y407175D01*
X338378Y407224D01*
X339196Y407563D01*
X339898Y408102D01*
X340437Y408804D01*
X340776Y409622D01*
X340825Y410000D01*
D02*
G37*
G36*
X358000D02*
X355175D01*
X355224Y409622D01*
X355563Y408804D01*
X356102Y408102D01*
X356804Y407563D01*
X357622Y407224D01*
X358000Y407175D01*
Y410000D01*
D02*
G37*
G36*
X337000Y413825D02*
X336622Y413776D01*
X335804Y413437D01*
X335102Y412898D01*
X334563Y412196D01*
X334224Y411378D01*
X334175Y411000D01*
X337000D01*
Y413825D01*
D02*
G37*
G36*
X361825Y410000D02*
X359000D01*
Y407175D01*
X359378Y407224D01*
X360196Y407563D01*
X360898Y408102D01*
X361437Y408804D01*
X361776Y409622D01*
X361825Y410000D01*
D02*
G37*
G36*
X312500Y337421D02*
Y334000D01*
X315921D01*
X315851Y334532D01*
X315453Y335493D01*
X314819Y336319D01*
X313993Y336953D01*
X313032Y337351D01*
X312500Y337421D01*
D02*
G37*
G36*
X217701Y332534D02*
X216329Y332399D01*
X215009Y331998D01*
X213793Y331348D01*
X213764Y331325D01*
X213735Y331348D01*
X212519Y331998D01*
X211199Y332399D01*
X209827Y332534D01*
X208455Y332399D01*
X207135Y331998D01*
X205919Y331348D01*
X205890Y331325D01*
X205861Y331348D01*
X204645Y331998D01*
X203325Y332399D01*
X201953Y332534D01*
X200581Y332399D01*
X199261Y331998D01*
X198045Y331348D01*
X198016Y331325D01*
X197987Y331348D01*
X196771Y331998D01*
X195451Y332399D01*
X194079Y332534D01*
X192707Y332399D01*
X191387Y331998D01*
X190171Y331348D01*
X190142Y331325D01*
X190113Y331348D01*
X188897Y331998D01*
X187577Y332399D01*
X186205Y332534D01*
X184833Y332399D01*
X183513Y331998D01*
X182297Y331348D01*
X182268Y331325D01*
X182239Y331348D01*
X181023Y331998D01*
X179703Y332399D01*
X178331Y332534D01*
X176959Y332399D01*
X175639Y331998D01*
X174423Y331348D01*
X174394Y331324D01*
X174364Y331348D01*
X173148Y331998D01*
X171829Y332399D01*
X170457Y332534D01*
X169084Y332399D01*
X167765Y331998D01*
X166549Y331348D01*
X166520Y331325D01*
X166490Y331348D01*
X165274Y331998D01*
X163955Y332399D01*
X162583Y332534D01*
X161210Y332399D01*
X159891Y331998D01*
X159020Y331533D01*
X158016Y332070D01*
X156885Y332413D01*
X155709Y332529D01*
X153709D01*
X152532Y332413D01*
X151401Y332070D01*
X150359Y331513D01*
X149445Y330763D01*
X148696Y329850D01*
X148138Y328807D01*
X147795Y327676D01*
X147680Y326500D01*
Y324500D01*
X147795Y323324D01*
X148138Y322193D01*
X148696Y321150D01*
X149445Y320237D01*
X150359Y319487D01*
X151401Y318930D01*
X152532Y318587D01*
X153709Y318471D01*
X155709D01*
X156885Y318587D01*
X158016Y318930D01*
X159020Y319467D01*
X159891Y319002D01*
X161210Y318601D01*
X162583Y318466D01*
X163955Y318601D01*
X165274Y319002D01*
X166490Y319652D01*
X166520Y319675D01*
X166549Y319652D01*
X167765Y319002D01*
X169084Y318601D01*
X170457Y318466D01*
X171829Y318601D01*
X173148Y319002D01*
X174364Y319652D01*
X174394Y319676D01*
X174423Y319652D01*
X175639Y319002D01*
X176959Y318601D01*
X178331Y318466D01*
X179703Y318601D01*
X181023Y319002D01*
X182239Y319652D01*
X182268Y319675D01*
X182297Y319652D01*
X183513Y319002D01*
X184833Y318601D01*
X186205Y318466D01*
X187577Y318601D01*
X188897Y319002D01*
X190113Y319652D01*
X190142Y319675D01*
X190171Y319652D01*
X191387Y319002D01*
X192707Y318601D01*
X194079Y318466D01*
X195451Y318601D01*
X196771Y319002D01*
X197987Y319652D01*
X198016Y319675D01*
X198045Y319652D01*
X199261Y319002D01*
X200581Y318601D01*
X201953Y318466D01*
X203325Y318601D01*
X204645Y319002D01*
X205861Y319652D01*
X205890Y319675D01*
X205919Y319652D01*
X207135Y319002D01*
X208455Y318601D01*
X209827Y318466D01*
X211199Y318601D01*
X212519Y319002D01*
X213735Y319652D01*
X213764Y319675D01*
X213793Y319652D01*
X215009Y319002D01*
X216329Y318601D01*
X217701Y318466D01*
X219073Y318601D01*
X220392Y319002D01*
X221609Y319652D01*
X222674Y320526D01*
X223549Y321592D01*
X224199Y322808D01*
X224215Y322816D01*
X224792Y322577D01*
X225075Y322540D01*
Y325500D01*
Y328460D01*
X224792Y328423D01*
X224215Y328184D01*
X224199Y328192D01*
X223549Y329408D01*
X222674Y330474D01*
X221609Y331348D01*
X220392Y331998D01*
X219073Y332399D01*
X217701Y332534D01*
D02*
G37*
G36*
X358500Y387898D02*
X357057Y387756D01*
X355669Y387335D01*
X354390Y386651D01*
X353269Y385731D01*
X352349Y384610D01*
X351665Y383331D01*
X351244Y381943D01*
X351102Y380500D01*
X351244Y379057D01*
X351665Y377669D01*
X352349Y376390D01*
X353269Y375269D01*
X354390Y374349D01*
X355669Y373665D01*
X357057Y373244D01*
X358500Y373102D01*
X359943Y373244D01*
X361331Y373665D01*
X362610Y374349D01*
X363731Y375269D01*
X364651Y376390D01*
X365335Y377669D01*
X365756Y379057D01*
X365898Y380500D01*
X365756Y381943D01*
X365335Y383331D01*
X364651Y384610D01*
X363731Y385731D01*
X362610Y386651D01*
X361331Y387335D01*
X359943Y387756D01*
X358500Y387898D01*
D02*
G37*
G36*
X337500D02*
X336057Y387756D01*
X334669Y387335D01*
X333390Y386651D01*
X332269Y385731D01*
X331349Y384610D01*
X330665Y383331D01*
X330244Y381943D01*
X330102Y380500D01*
X330244Y379057D01*
X330665Y377669D01*
X331349Y376390D01*
X332269Y375269D01*
X333390Y374349D01*
X334669Y373665D01*
X336057Y373244D01*
X337500Y373102D01*
X338943Y373244D01*
X340331Y373665D01*
X341610Y374349D01*
X342731Y375269D01*
X343651Y376390D01*
X344335Y377669D01*
X344756Y379057D01*
X344898Y380500D01*
X344756Y381943D01*
X344335Y383331D01*
X343651Y384610D01*
X342731Y385731D01*
X341610Y386651D01*
X340331Y387335D01*
X338943Y387756D01*
X337500Y387898D01*
D02*
G37*
G36*
X449500Y371498D02*
X367000D01*
Y309000D01*
X449500D01*
Y371498D01*
D02*
G37*
G36*
X309953Y341453D02*
X294047D01*
Y325547D01*
X294047D01*
X294174Y325377D01*
X294161Y325047D01*
X294009Y323500D01*
X294162Y321941D01*
X294617Y320442D01*
X295356Y319060D01*
X295815Y318500D01*
X295356Y317940D01*
X294617Y316558D01*
X294162Y315059D01*
X294009Y313500D01*
X294162Y311941D01*
X294617Y310442D01*
X295356Y309060D01*
X295815Y308500D01*
X295356Y307940D01*
X294617Y306558D01*
X294162Y305059D01*
X294009Y303500D01*
X294162Y301941D01*
X294617Y300442D01*
X295356Y299060D01*
X296349Y297849D01*
X297560Y296855D01*
X298942Y296117D01*
X300441Y295662D01*
X302000Y295509D01*
X303559Y295662D01*
X305058Y296117D01*
X306440Y296855D01*
X307000Y297315D01*
X307560Y296855D01*
X308942Y296117D01*
X310441Y295662D01*
X312000Y295509D01*
X313559Y295662D01*
X315058Y296117D01*
X316440Y296855D01*
X317651Y297849D01*
X318644Y299060D01*
X319383Y300442D01*
X319838Y301941D01*
X319991Y303500D01*
X319838Y305059D01*
X319383Y306558D01*
X318644Y307940D01*
X318185Y308500D01*
X318644Y309060D01*
X319383Y310442D01*
X319838Y311941D01*
X319991Y313500D01*
X319838Y315059D01*
X319383Y316558D01*
X318644Y317940D01*
X318185Y318500D01*
X318644Y319060D01*
X319383Y320442D01*
X319838Y321941D01*
X319991Y323500D01*
X319838Y325059D01*
X319383Y326558D01*
X318644Y327940D01*
X317651Y329151D01*
X316440Y330145D01*
X315445Y330676D01*
X315307Y331317D01*
X315453Y331507D01*
X315851Y332468D01*
X315921Y333000D01*
X312000D01*
Y333500D01*
X311500D01*
Y337421D01*
X310968Y337351D01*
X310453Y337138D01*
X309953Y337472D01*
Y341453D01*
D02*
G37*
G36*
X226075Y328460D02*
Y326000D01*
X228535D01*
X228498Y326283D01*
X228195Y327013D01*
X227714Y327640D01*
X227088Y328120D01*
X226358Y328423D01*
X226075Y328460D01*
D02*
G37*
G36*
X228535Y325000D02*
X226075D01*
Y322540D01*
X226358Y322577D01*
X227088Y322880D01*
X227714Y323360D01*
X228195Y323987D01*
X228498Y324717D01*
X228535Y325000D01*
D02*
G37*
G36*
X443000Y383825D02*
X442622Y383776D01*
X441804Y383437D01*
X441102Y382898D01*
X440563Y382196D01*
X440224Y381378D01*
X440175Y381000D01*
X443000D01*
Y383825D01*
D02*
G37*
G36*
X313017Y397500D02*
X308500D01*
X303983D01*
X304043Y397043D01*
X303696Y396543D01*
X299957D01*
Y379457D01*
X317043D01*
Y396543D01*
X313303D01*
X312957Y397043D01*
X313017Y397500D01*
D02*
G37*
G36*
X423500Y383825D02*
Y381000D01*
X426325D01*
X426276Y381378D01*
X425937Y382196D01*
X425398Y382898D01*
X424696Y383437D01*
X423878Y383776D01*
X423500Y383825D01*
D02*
G37*
G36*
X422500D02*
X422122Y383776D01*
X421304Y383437D01*
X420602Y382898D01*
X420063Y382196D01*
X419724Y381378D01*
X419675Y381000D01*
X422500D01*
Y383825D01*
D02*
G37*
G36*
Y380000D02*
X419675D01*
X419724Y379622D01*
X420063Y378804D01*
X420602Y378102D01*
X421304Y377563D01*
X422122Y377224D01*
X422500Y377175D01*
Y380000D01*
D02*
G37*
G36*
X443000D02*
X440175D01*
X440224Y379622D01*
X440563Y378804D01*
X441102Y378102D01*
X441804Y377563D01*
X442622Y377224D01*
X443000Y377175D01*
Y380000D01*
D02*
G37*
G36*
X446825D02*
X444000D01*
Y377175D01*
X444378Y377224D01*
X445196Y377563D01*
X445898Y378102D01*
X446437Y378804D01*
X446776Y379622D01*
X446825Y380000D01*
D02*
G37*
G36*
X426325D02*
X423500D01*
Y377175D01*
X423878Y377224D01*
X424696Y377563D01*
X425398Y378102D01*
X425937Y378804D01*
X426276Y379622D01*
X426325Y380000D01*
D02*
G37*
%LPD*%
D10*
X373857Y332797D02*
Y326798D01*
X374143Y332797D02*
X375856Y327655D01*
X373857Y332797D02*
X375856Y326798D01*
X377856Y332797D02*
X375856Y326798D01*
X377856Y332797D02*
Y326798D01*
X378142Y332797D02*
Y326798D01*
X373000Y332797D02*
X374143D01*
X377856D02*
X378999D01*
X373000Y326798D02*
X374714D01*
X376999D02*
X378999D01*
X380256Y330797D02*
X381969Y326798D01*
X380541Y330797D02*
X381969Y327369D01*
X383683Y330797D02*
X381969Y326798D01*
X381398Y325655D01*
X380827Y325084D01*
X380256Y324798D01*
X379970D01*
X379684Y325084D01*
X379970Y325370D01*
X380256Y325084D01*
X379684Y330797D02*
X381398D01*
X382541D02*
X384255D01*
X388797Y331940D02*
X389082Y332797D01*
Y331083D01*
X388797Y331940D01*
X388225Y332511D01*
X387368Y332797D01*
X386511D01*
X385654Y332511D01*
X385083Y331940D01*
Y331368D01*
X385369Y330797D01*
X385654Y330511D01*
X386226Y330226D01*
X387940Y329655D01*
X388511Y329369D01*
X389082Y328798D01*
X385083Y331368D02*
X385654Y330797D01*
X386226Y330511D01*
X387940Y329940D01*
X388511Y329655D01*
X388797Y329369D01*
X389082Y328798D01*
Y327655D01*
X388511Y327084D01*
X387654Y326798D01*
X386797D01*
X385940Y327084D01*
X385369Y327655D01*
X385083Y328512D01*
Y326798D01*
X385369Y327655D01*
X390825Y332797D02*
Y326798D01*
X391110Y332797D02*
Y326798D01*
Y329940D02*
X391682Y330511D01*
X392539Y330797D01*
X393110D01*
X393967Y330511D01*
X394253Y329940D01*
Y326798D01*
X393110Y330797D02*
X393681Y330511D01*
X393967Y329940D01*
Y326798D01*
X389968Y332797D02*
X391110D01*
X389968Y326798D02*
X391967D01*
X393110D02*
X395110D01*
X396166Y329083D02*
X399594D01*
Y329655D01*
X399309Y330226D01*
X399023Y330511D01*
X398452Y330797D01*
X397595D01*
X396738Y330511D01*
X396166Y329940D01*
X395881Y329083D01*
Y328512D01*
X396166Y327655D01*
X396738Y327084D01*
X397595Y326798D01*
X398166D01*
X399023Y327084D01*
X399594Y327655D01*
X399309Y329083D02*
Y329940D01*
X399023Y330511D01*
X397595Y330797D02*
X397023Y330511D01*
X396452Y329940D01*
X396166Y329083D01*
Y328512D01*
X396452Y327655D01*
X397023Y327084D01*
X397595Y326798D01*
X401365Y332797D02*
Y326798D01*
X401651Y332797D02*
Y326798D01*
X400508Y332797D02*
X401651D01*
X400508Y326798D02*
X402508D01*
X405307D02*
X405022Y327084D01*
X404736Y327941D01*
Y332797D01*
X404450D01*
Y327941D01*
X404736Y327084D01*
X405307Y326798D01*
X405879D01*
X406450Y327084D01*
X406736Y327655D01*
X403593Y330797D02*
X405879D01*
X407993Y329083D02*
X411420D01*
Y329655D01*
X411135Y330226D01*
X410849Y330511D01*
X410278Y330797D01*
X409421D01*
X408564Y330511D01*
X407993Y329940D01*
X407707Y329083D01*
Y328512D01*
X407993Y327655D01*
X408564Y327084D01*
X409421Y326798D01*
X409992D01*
X410849Y327084D01*
X411420Y327655D01*
X411135Y329083D02*
Y329940D01*
X410849Y330511D01*
X409421Y330797D02*
X408849Y330511D01*
X408278Y329940D01*
X407993Y329083D01*
Y328512D01*
X408278Y327655D01*
X408849Y327084D01*
X409421Y326798D01*
X413191Y330797D02*
Y326798D01*
X413477Y330797D02*
Y326798D01*
Y329083D02*
X413763Y329940D01*
X414334Y330511D01*
X414905Y330797D01*
X415762D01*
X416048Y330511D01*
Y330226D01*
X415762Y329940D01*
X415477Y330226D01*
X415762Y330511D01*
X412334Y330797D02*
X413477D01*
X412334Y326798D02*
X414334D01*
X423218Y332797D02*
Y326798D01*
X423503Y332797D02*
X425217Y327655D01*
X423218Y332797D02*
X425217Y326798D01*
X427217Y332797D02*
X425217Y326798D01*
X427217Y332797D02*
Y326798D01*
X427503Y332797D02*
Y326798D01*
X422361Y332797D02*
X423503D01*
X427217D02*
X428360D01*
X422361Y326798D02*
X424075D01*
X426360D02*
X428360D01*
X429616Y330226D02*
Y329940D01*
X429331D01*
Y330226D01*
X429616Y330511D01*
X430188Y330797D01*
X431330D01*
X431902Y330511D01*
X432187Y330226D01*
X432473Y329655D01*
Y327655D01*
X432759Y327084D01*
X433044Y326798D01*
X432187Y330226D02*
Y327655D01*
X432473Y327084D01*
X433044Y326798D01*
X433330D01*
X432187Y329655D02*
X431902Y329369D01*
X430188Y329083D01*
X429331Y328798D01*
X429045Y328226D01*
Y327655D01*
X429331Y327084D01*
X430188Y326798D01*
X431045D01*
X431616Y327084D01*
X432187Y327655D01*
X430188Y329083D02*
X429616Y328798D01*
X429331Y328226D01*
Y327655D01*
X429616Y327084D01*
X430188Y326798D01*
X435044Y332797D02*
X434758Y332511D01*
X435044Y332225D01*
X435329Y332511D01*
X435044Y332797D01*
Y330797D02*
Y326798D01*
X435329Y330797D02*
Y326798D01*
X434187Y330797D02*
X435329D01*
X434187Y326798D02*
X436186D01*
X438129Y330797D02*
Y326798D01*
X438414Y330797D02*
Y326798D01*
Y329940D02*
X438986Y330511D01*
X439843Y330797D01*
X440414D01*
X441271Y330511D01*
X441557Y329940D01*
Y326798D01*
X440414Y330797D02*
X440985Y330511D01*
X441271Y329940D01*
Y326798D01*
X437272Y330797D02*
X438414D01*
X437272Y326798D02*
X439271D01*
X440414D02*
X442414D01*
X373857Y320999D02*
Y315000D01*
X374143Y320999D02*
Y315000D01*
X373000Y320999D02*
X376428D01*
X377285Y320713D01*
X377570Y320427D01*
X377856Y319856D01*
Y319285D01*
X377570Y318713D01*
X377285Y318428D01*
X376428Y318142D01*
Y320999D02*
X376999Y320713D01*
X377285Y320427D01*
X377570Y319856D01*
Y319285D01*
X377285Y318713D01*
X376999Y318428D01*
X376428Y318142D01*
X374143D02*
X376428D01*
X377285Y317857D01*
X377570Y317571D01*
X377856Y317000D01*
Y316143D01*
X377570Y315571D01*
X377285Y315286D01*
X376428Y315000D01*
X373000D01*
X376428Y318142D02*
X376999Y317857D01*
X377285Y317571D01*
X377570Y317000D01*
Y316143D01*
X377285Y315571D01*
X376999Y315286D01*
X376428Y315000D01*
X380370Y318999D02*
X379513Y318713D01*
X378942Y318142D01*
X378656Y317285D01*
Y316714D01*
X378942Y315857D01*
X379513Y315286D01*
X380370Y315000D01*
X380941D01*
X381798Y315286D01*
X382369Y315857D01*
X382655Y316714D01*
Y317285D01*
X382369Y318142D01*
X381798Y318713D01*
X380941Y318999D01*
X380370D01*
X379799Y318713D01*
X379227Y318142D01*
X378942Y317285D01*
Y316714D01*
X379227Y315857D01*
X379799Y315286D01*
X380370Y315000D01*
X380941D02*
X381512Y315286D01*
X382084Y315857D01*
X382369Y316714D01*
Y317285D01*
X382084Y318142D01*
X381512Y318713D01*
X380941Y318999D01*
X384112Y318428D02*
Y318142D01*
X383826D01*
Y318428D01*
X384112Y318713D01*
X384683Y318999D01*
X385826D01*
X386397Y318713D01*
X386683Y318428D01*
X386968Y317857D01*
Y315857D01*
X387254Y315286D01*
X387540Y315000D01*
X386683Y318428D02*
Y315857D01*
X386968Y315286D01*
X387540Y315000D01*
X387825D01*
X386683Y317857D02*
X386397Y317571D01*
X384683Y317285D01*
X383826Y317000D01*
X383541Y316428D01*
Y315857D01*
X383826Y315286D01*
X384683Y315000D01*
X385540D01*
X386111Y315286D01*
X386683Y315857D01*
X384683Y317285D02*
X384112Y317000D01*
X383826Y316428D01*
Y315857D01*
X384112Y315286D01*
X384683Y315000D01*
X389539Y318999D02*
Y315000D01*
X389825Y318999D02*
Y315000D01*
Y317285D02*
X390111Y318142D01*
X390682Y318713D01*
X391253Y318999D01*
X392110D01*
X392396Y318713D01*
Y318428D01*
X392110Y318142D01*
X391825Y318428D01*
X392110Y318713D01*
X388682Y318999D02*
X389825D01*
X388682Y315000D02*
X390682D01*
X396738Y320999D02*
Y315000D01*
X397023Y320999D02*
Y315000D01*
X396738Y318142D02*
X396166Y318713D01*
X395595Y318999D01*
X395024D01*
X394167Y318713D01*
X393596Y318142D01*
X393310Y317285D01*
Y316714D01*
X393596Y315857D01*
X394167Y315286D01*
X395024Y315000D01*
X395595D01*
X396166Y315286D01*
X396738Y315857D01*
X395024Y318999D02*
X394453Y318713D01*
X393881Y318142D01*
X393596Y317285D01*
Y316714D01*
X393881Y315857D01*
X394453Y315286D01*
X395024Y315000D01*
X395881Y320999D02*
X397023D01*
X396738Y315000D02*
X397880D01*
D11*
X365000Y255500D02*
D03*
X375000D02*
D03*
X385000D02*
D03*
X395000D02*
D03*
X405000D02*
D03*
X415000D02*
D03*
X425000D02*
D03*
X435000Y225500D02*
D03*
X425000D02*
D03*
X415000D02*
D03*
X405000D02*
D03*
X395000D02*
D03*
X385000D02*
D03*
X375000D02*
D03*
X365000D02*
D03*
D12*
X435000Y255500D02*
D03*
D13*
X312000Y303500D02*
D03*
X302000D02*
D03*
X312000Y313500D02*
D03*
X302000D02*
D03*
X312000Y323500D02*
D03*
X302000D02*
D03*
X312000Y333500D02*
D03*
X142000Y195500D02*
D03*
X152000D02*
D03*
X162000D02*
D03*
X172000D02*
D03*
X182000D02*
D03*
X192000D02*
D03*
X202000D02*
D03*
X212000D02*
D03*
X222000D02*
D03*
X232000D02*
D03*
X242000D02*
D03*
X252000D02*
D03*
X262000D02*
D03*
X272000D02*
D03*
X282000D02*
D03*
X292000D02*
D03*
X302000D02*
D03*
X312000D02*
D03*
X322000D02*
D03*
X332000D02*
D03*
X142000Y255500D02*
D03*
X152000D02*
D03*
X162000D02*
D03*
X172000D02*
D03*
X182000D02*
D03*
X192000D02*
D03*
X202000D02*
D03*
X212000D02*
D03*
X222000D02*
D03*
X232000D02*
D03*
X242000D02*
D03*
X252000D02*
D03*
X262000D02*
D03*
X272000D02*
D03*
X282000D02*
D03*
X292000D02*
D03*
X302000D02*
D03*
X312000D02*
D03*
X322000D02*
D03*
X397000Y400500D02*
D03*
Y410500D02*
D03*
X190000Y289000D02*
D03*
D14*
X302000Y333500D02*
D03*
X332000Y255500D02*
D03*
X397000Y390500D02*
D03*
X190000Y279000D02*
D03*
D15*
X443500Y410500D02*
D03*
Y380500D02*
D03*
X423000D02*
D03*
Y410500D02*
D03*
X358500Y380500D02*
D03*
Y410500D02*
D03*
X337500Y380500D02*
D03*
Y410500D02*
D03*
X395500Y191000D02*
D03*
X405500D02*
D03*
D16*
X308500Y388000D02*
D03*
D17*
Y398000D02*
D03*
Y408000D02*
D03*
D18*
X385500Y191000D02*
D03*
D19*
X154709Y325500D02*
D03*
D20*
X162583D02*
D03*
X170457D02*
D03*
X178331D02*
D03*
X186205D02*
D03*
X194079D02*
D03*
X201953D02*
D03*
X209827D02*
D03*
X217701D02*
D03*
X225575D02*
D03*
Y412114D02*
D03*
X217701D02*
D03*
X209827D02*
D03*
X201953D02*
D03*
X194079D02*
D03*
X186205D02*
D03*
X178331D02*
D03*
X170457D02*
D03*
X162583D02*
D03*
X154709D02*
D03*
D21*
X159500Y159358D02*
D03*
D22*
X169500D02*
D03*
X179500D02*
D03*
X189500D02*
D03*
X199500D02*
D03*
X209500D02*
D03*
X219500D02*
D03*
X229500D02*
D03*
X239500D02*
D03*
X249500D02*
D03*
X259500D02*
D03*
X269500D02*
D03*
X279500D02*
D03*
X289500D02*
D03*
X299500D02*
D03*
X309500D02*
D03*
M02*
