M48
;Layer_Color=9474304
;FILE_FORMAT=2:5
INCH,LZ
;TYPE=PLATED
T1F00S00C0.03150
T2F00S00C0.03346
T3F00S00C0.03543
%
T01
X0029157Y-0091
X0048843
X0042843Y-0019
X0023157
X0096Y-0019157
Y-0038843
X01265Y-0034657
Y-0054343
X02005Y-0031843
X02395Y-0053657
Y-0073343
X02005Y-0012157
T02
X00295Y-01285
X00595
X0054Y-00625
X0024
X0071Y-0049
Y-0019
X012
X015
X01695
Y-0049
X01325Y-0083
X01025
X00755Y-00795
Y-01095
X01495Y-0101
Y-0131
X02095Y-00865
X02395
X02345Y-0117
X02645
T03
X01045Y-0129
Y-0124
Y-0119
X01535Y-0073
Y-0068
Y-0063
X01805Y-0066024
X0202Y-0062
Y-0057
Y-0052
X02Y-0094524
X01805Y-0093976
X02Y-0122476
X02645Y-00975
Y-00925
Y-00875
X0269Y-00495
X0259
X02565Y-0019
X02665
X02765
M30
