G04 Layer_Physical_Order=2*
G04 Layer_Color=16711680*
%FSLAX25Y25*%
%MOIN*%
G70*
G01*
G75*
%ADD10C,0.03000*%
%ADD11C,0.05512*%
%ADD12C,0.05906*%
%ADD13R,0.05906X0.05906*%
%ADD14R,0.05315X0.05315*%
%ADD15C,0.05315*%
%ADD16R,0.05315X0.05315*%
%ADD17O,0.07874X0.03937*%
%ADD18O,0.07874X0.03937*%
%ADD19R,0.05906X0.05906*%
%ADD20C,0.01000*%
G36*
X124602Y-56203D02*
X124520Y-56134D01*
X124414Y-56073D01*
X124284Y-56019D01*
X124130Y-55972D01*
X123953Y-55933D01*
X123752Y-55900D01*
X123279Y-55857D01*
X122712Y-55843D01*
Y-52843D01*
X123007Y-52839D01*
X123752Y-52785D01*
X123953Y-52753D01*
X124130Y-52713D01*
X124284Y-52666D01*
X124414Y-52612D01*
X124520Y-52551D01*
X124602Y-52482D01*
Y-56203D01*
D02*
G37*
G36*
X150545Y-69709D02*
X150463Y-69669D01*
X150327Y-69634D01*
X150136Y-69602D01*
X149890Y-69575D01*
X148827Y-69519D01*
X147272Y-69500D01*
Y-66500D01*
X147845Y-66498D01*
X150463Y-66331D01*
X150545Y-66291D01*
Y-69709D01*
D02*
G37*
G36*
X155813Y-74916D02*
X155480Y-74849D01*
X155125Y-74845D01*
X154750Y-74904D01*
X154353Y-75027D01*
X153935Y-75213D01*
X153496Y-75463D01*
X153035Y-75776D01*
X152553Y-76152D01*
X152051Y-76592D01*
X151527Y-77095D01*
X147948Y-76430D01*
X148292Y-76068D01*
X148596Y-75710D01*
X148858Y-75357D01*
X149080Y-75007D01*
X149262Y-74662D01*
X149402Y-74321D01*
X149502Y-73984D01*
X149562Y-73652D01*
X149580Y-73324D01*
X149558Y-73000D01*
X155813Y-74916D01*
D02*
G37*
G36*
X122241Y-60969D02*
X122011Y-61469D01*
X118000D01*
X116726Y-61594D01*
X115500Y-61966D01*
X114371Y-62569D01*
X113382Y-63382D01*
X101453Y-75310D01*
X100980Y-75356D01*
X99518Y-75800D01*
X98170Y-76520D01*
X96989Y-77489D01*
X96020Y-78670D01*
X95300Y-80018D01*
X94856Y-81480D01*
X94707Y-83000D01*
X94856Y-84520D01*
X95300Y-85982D01*
X96020Y-87330D01*
X96989Y-88511D01*
X98170Y-89480D01*
X99518Y-90200D01*
X100980Y-90644D01*
X102500Y-90793D01*
X104020Y-90644D01*
X105482Y-90200D01*
X106830Y-89480D01*
X108011Y-88511D01*
X108980Y-87330D01*
X109700Y-85982D01*
X109894Y-85343D01*
X120705Y-74531D01*
X142078D01*
X142270Y-74993D01*
X139069Y-78194D01*
X138569Y-78170D01*
X138011Y-77489D01*
X136830Y-76520D01*
X135482Y-75800D01*
X134020Y-75356D01*
X132500Y-75207D01*
X130980Y-75356D01*
X129518Y-75800D01*
X128170Y-76520D01*
X126989Y-77489D01*
X126020Y-78670D01*
X125300Y-80018D01*
X124856Y-81480D01*
X124707Y-83000D01*
X124856Y-84520D01*
X125300Y-85982D01*
X126020Y-87330D01*
X126989Y-88511D01*
X127670Y-89069D01*
X127694Y-89569D01*
X104795Y-112469D01*
X104500D01*
X103226Y-112594D01*
X102000Y-112966D01*
X100871Y-113569D01*
X99882Y-114382D01*
X99069Y-115371D01*
X98466Y-116500D01*
X98172Y-117469D01*
X77705D01*
X73526Y-113289D01*
X73809Y-112865D01*
X74519Y-113159D01*
X75000Y-113223D01*
Y-110000D01*
X71777D01*
X71841Y-110480D01*
X72135Y-111191D01*
X71711Y-111474D01*
X70531Y-110295D01*
Y-86041D01*
X70983Y-85827D01*
X71170Y-85980D01*
X72518Y-86700D01*
X73980Y-87144D01*
X75500Y-87293D01*
X77020Y-87144D01*
X78482Y-86700D01*
X79830Y-85980D01*
X81011Y-85011D01*
X81980Y-83830D01*
X82700Y-82482D01*
X83144Y-81020D01*
X83293Y-79500D01*
X83144Y-77980D01*
X82700Y-76518D01*
X81980Y-75170D01*
X81011Y-73989D01*
X79830Y-73020D01*
X78916Y-72531D01*
X79041Y-72031D01*
X88500D01*
X89774Y-71906D01*
X91000Y-71534D01*
X92129Y-70931D01*
X93118Y-70118D01*
X102363Y-60874D01*
X122160D01*
X122241Y-60969D01*
D02*
G37*
G36*
X106422Y-81699D02*
X106208Y-81918D01*
X105563Y-82669D01*
X105455Y-82825D01*
X105368Y-82969D01*
X105303Y-83101D01*
X105259Y-83220D01*
X105236Y-83326D01*
X102881Y-80270D01*
X103013Y-80276D01*
X103155Y-80258D01*
X103306Y-80216D01*
X103467Y-80150D01*
X103637Y-80059D01*
X103817Y-79945D01*
X104006Y-79807D01*
X104205Y-79645D01*
X104631Y-79248D01*
X106422Y-81699D01*
D02*
G37*
G36*
X111450Y-117171D02*
X110770Y-117847D01*
X108205Y-120124D01*
X108152Y-120099D01*
X108177Y-119987D01*
X105231Y-117039D01*
X105461Y-117209D01*
X105732Y-117297D01*
X106041Y-117304D01*
X106391Y-117229D01*
X106779Y-117072D01*
X107208Y-116833D01*
X107676Y-116513D01*
X108183Y-116111D01*
X108730Y-115628D01*
X109317Y-115062D01*
X111450Y-117171D01*
D02*
G37*
G36*
X101545Y-125709D02*
X101463Y-125669D01*
X101327Y-125634D01*
X101136Y-125602D01*
X100891Y-125575D01*
X99827Y-125519D01*
X98272Y-125500D01*
Y-122500D01*
X98845Y-122498D01*
X101463Y-122331D01*
X101545Y-122291D01*
Y-125709D01*
D02*
G37*
G36*
X62266Y-128653D02*
X62298Y-128788D01*
X62353Y-128934D01*
X62430Y-129090D01*
X62530Y-129257D01*
X62652Y-129434D01*
X62797Y-129621D01*
X63153Y-130025D01*
X63365Y-130243D01*
X61243Y-132365D01*
X61026Y-132153D01*
X60434Y-131652D01*
X60257Y-131530D01*
X60091Y-131430D01*
X59934Y-131353D01*
X59789Y-131298D01*
X59653Y-131266D01*
X59528Y-131256D01*
X62256Y-128528D01*
X62266Y-128653D01*
D02*
G37*
G36*
X70382Y-128618D02*
X71371Y-129431D01*
X72500Y-130034D01*
X73726Y-130406D01*
X75000Y-130531D01*
X95714D01*
X96062Y-131680D01*
X96255Y-132040D01*
X95998Y-132469D01*
X72705D01*
X67112Y-126875D01*
X66755Y-125699D01*
X67197Y-125434D01*
X70382Y-128618D01*
D02*
G37*
G36*
X288000Y-141453D02*
X286468D01*
X286170Y-141051D01*
X286406Y-140274D01*
X286531Y-139000D01*
Y-22500D01*
X286406Y-21226D01*
X286034Y-20000D01*
X285431Y-18871D01*
X284618Y-17882D01*
X284453Y-17716D01*
Y-11047D01*
X268547D01*
Y-15028D01*
X268047Y-15362D01*
X267532Y-15149D01*
X267000Y-15079D01*
Y-19000D01*
Y-22921D01*
X267532Y-22851D01*
X268047Y-22637D01*
X268547Y-22972D01*
Y-26953D01*
X273469D01*
Y-49328D01*
X272969Y-49361D01*
X272942Y-49160D01*
X272851Y-48468D01*
X272453Y-47507D01*
X271819Y-46681D01*
X270993Y-46047D01*
X270032Y-45649D01*
X269500Y-45579D01*
Y-49500D01*
Y-53421D01*
X270032Y-53351D01*
X270993Y-52953D01*
X271819Y-52319D01*
X272453Y-51493D01*
X272851Y-50532D01*
X272942Y-49840D01*
X272969Y-49639D01*
X273469Y-49672D01*
Y-89848D01*
X272969Y-89922D01*
X272938Y-89820D01*
X272291Y-88610D01*
X271420Y-87549D01*
X270359Y-86678D01*
X269148Y-86031D01*
X269062Y-86005D01*
X269061Y-86003D01*
X268586Y-85383D01*
X267966Y-84907D01*
X267243Y-84608D01*
X266469Y-84506D01*
X262531D01*
X261757Y-84608D01*
X261034Y-84907D01*
X260414Y-85383D01*
X259939Y-86003D01*
X259938Y-86005D01*
X259852Y-86031D01*
X258641Y-86678D01*
X257580Y-87549D01*
X256709Y-88610D01*
X256062Y-89820D01*
X255664Y-91134D01*
X255529Y-92500D01*
X255664Y-93866D01*
X256008Y-95000D01*
X255664Y-96134D01*
X255529Y-97500D01*
X255664Y-98866D01*
X256062Y-100180D01*
X256709Y-101390D01*
X257580Y-102451D01*
X258641Y-103322D01*
X259852Y-103969D01*
X261165Y-104368D01*
X262531Y-104502D01*
X266469D01*
X267835Y-104368D01*
X269148Y-103969D01*
X270359Y-103322D01*
X271420Y-102451D01*
X272291Y-101390D01*
X272938Y-100180D01*
X272969Y-100078D01*
X273469Y-100152D01*
Y-132469D01*
X157521D01*
X157185Y-132098D01*
X157293Y-131000D01*
X157144Y-129480D01*
X156700Y-128018D01*
X155980Y-126670D01*
X155011Y-125489D01*
X153830Y-124520D01*
X152482Y-123800D01*
X151020Y-123356D01*
X149500Y-123207D01*
X147980Y-123356D01*
X146518Y-123800D01*
X145170Y-124520D01*
X143989Y-125489D01*
X143020Y-126670D01*
X142300Y-128018D01*
X141856Y-129480D01*
X141707Y-131000D01*
X141815Y-132098D01*
X141479Y-132469D01*
X113002D01*
X112745Y-132040D01*
X112938Y-131680D01*
X113336Y-130366D01*
X113471Y-129000D01*
X113336Y-127634D01*
X112992Y-126500D01*
X113336Y-125366D01*
X113471Y-124000D01*
X113336Y-122634D01*
X113282Y-122455D01*
X158118Y-77618D01*
X158931Y-76629D01*
X159534Y-75499D01*
X159906Y-74274D01*
X160003Y-73294D01*
X160420Y-72951D01*
X161291Y-71890D01*
X161938Y-70680D01*
X162336Y-69366D01*
X162471Y-68000D01*
X162336Y-66634D01*
X161992Y-65500D01*
X162336Y-64366D01*
X162471Y-63000D01*
X162336Y-61634D01*
X161938Y-60320D01*
X161291Y-59110D01*
X160420Y-58049D01*
X159359Y-57178D01*
X158148Y-56531D01*
X156835Y-56132D01*
X155468Y-55998D01*
X151532D01*
X150165Y-56132D01*
X148852Y-56531D01*
X147641Y-57178D01*
X146580Y-58049D01*
X145709Y-59110D01*
X145062Y-60320D01*
X144714Y-61469D01*
X130473D01*
X130348Y-60969D01*
X130775Y-60740D01*
X131941Y-59784D01*
X132898Y-58617D01*
X133609Y-57287D01*
X134047Y-55844D01*
X134195Y-54343D01*
X134047Y-52842D01*
X133609Y-51398D01*
X132898Y-50068D01*
X131941Y-48902D01*
X130775Y-47945D01*
X129445Y-47234D01*
X128001Y-46796D01*
X126500Y-46648D01*
X124999Y-46796D01*
X123555Y-47234D01*
X122475Y-47811D01*
X99657D01*
X98383Y-47937D01*
X97158Y-48308D01*
X96029Y-48912D01*
X95039Y-49724D01*
X85795Y-58969D01*
X72000D01*
X70726Y-59094D01*
X69500Y-59466D01*
X68371Y-60069D01*
X67382Y-60882D01*
X59382Y-68882D01*
X58569Y-69871D01*
X57966Y-71000D01*
X57594Y-72226D01*
X57469Y-73500D01*
Y-113000D01*
X57594Y-114274D01*
X57966Y-115499D01*
X58569Y-116629D01*
X59382Y-117618D01*
X62566Y-120803D01*
X62301Y-121245D01*
X61020Y-120856D01*
X59500Y-120707D01*
X57980Y-120856D01*
X56518Y-121300D01*
X55170Y-122020D01*
X53989Y-122989D01*
X53020Y-124170D01*
X52300Y-125518D01*
X51856Y-126980D01*
X51707Y-128500D01*
X51856Y-130020D01*
X52300Y-131482D01*
X53020Y-132830D01*
X53989Y-134011D01*
X55170Y-134980D01*
X56518Y-135700D01*
X57875Y-136112D01*
X62754Y-140991D01*
X62562Y-141453D01*
X19000D01*
Y-58500D01*
X9000D01*
Y-5548D01*
X288000D01*
Y-141453D01*
D02*
G37*
%LPC*%
G36*
X76000Y-105778D02*
Y-109000D01*
X79223D01*
X79159Y-108519D01*
X78781Y-107606D01*
X78179Y-106821D01*
X77394Y-106219D01*
X76481Y-105841D01*
X76000Y-105778D01*
D02*
G37*
G36*
X75000D02*
X74519Y-105841D01*
X73606Y-106219D01*
X72821Y-106821D01*
X72219Y-107606D01*
X71841Y-108519D01*
X71777Y-109000D01*
X75000D01*
Y-105778D01*
D02*
G37*
G36*
X79223Y-110000D02*
X76000D01*
Y-113223D01*
X76481Y-113159D01*
X77394Y-112781D01*
X78179Y-112179D01*
X78781Y-111394D01*
X79159Y-110480D01*
X79223Y-110000D01*
D02*
G37*
G36*
X201000Y-8534D02*
Y-11657D01*
X204123D01*
X204063Y-11203D01*
X203695Y-10313D01*
X203109Y-9549D01*
X202344Y-8963D01*
X201455Y-8594D01*
X201000Y-8534D01*
D02*
G37*
G36*
X200000D02*
X199545Y-8594D01*
X198655Y-8963D01*
X197891Y-9549D01*
X197305Y-10313D01*
X196937Y-11203D01*
X196877Y-11657D01*
X200000D01*
Y-8534D01*
D02*
G37*
G36*
X204123Y-12657D02*
X201000D01*
Y-15781D01*
X201455Y-15721D01*
X202344Y-15352D01*
X203109Y-14766D01*
X203695Y-14002D01*
X204063Y-13112D01*
X204123Y-12657D01*
D02*
G37*
G36*
X200000D02*
X196877D01*
X196937Y-13112D01*
X197305Y-14002D01*
X197891Y-14766D01*
X198655Y-15352D01*
X199545Y-15721D01*
X200000Y-15781D01*
Y-12657D01*
D02*
G37*
G36*
X23657Y-15377D02*
Y-18500D01*
X26781D01*
X26721Y-18045D01*
X26352Y-17155D01*
X25766Y-16391D01*
X25002Y-15805D01*
X24112Y-15437D01*
X23657Y-15377D01*
D02*
G37*
G36*
X22657D02*
X22203Y-15437D01*
X21313Y-15805D01*
X20549Y-16391D01*
X19963Y-17155D01*
X19594Y-18045D01*
X19534Y-18500D01*
X22657D01*
Y-15377D01*
D02*
G37*
G36*
X26781Y-19500D02*
X23657D01*
Y-22623D01*
X24112Y-22563D01*
X25002Y-22195D01*
X25766Y-21609D01*
X26352Y-20844D01*
X26721Y-19955D01*
X26781Y-19500D01*
D02*
G37*
G36*
X22657D02*
X19534D01*
X19594Y-19955D01*
X19963Y-20844D01*
X20549Y-21609D01*
X21313Y-22195D01*
X22203Y-22563D01*
X22657Y-22623D01*
Y-19500D01*
D02*
G37*
G36*
X256500Y-11009D02*
X254941Y-11162D01*
X253442Y-11617D01*
X252060Y-12355D01*
X250849Y-13349D01*
X249855Y-14560D01*
X249117Y-15942D01*
X248662Y-17441D01*
X248509Y-19000D01*
X248662Y-20559D01*
X249117Y-22058D01*
X249855Y-23440D01*
X250849Y-24651D01*
X252060Y-25644D01*
X253442Y-26383D01*
X254941Y-26838D01*
X256500Y-26991D01*
X258059Y-26838D01*
X259558Y-26383D01*
X260940Y-25644D01*
X262151Y-24651D01*
X263144Y-23440D01*
X263676Y-22445D01*
X264317Y-22307D01*
X264507Y-22453D01*
X265468Y-22851D01*
X266000Y-22921D01*
Y-19000D01*
Y-15079D01*
X265468Y-15149D01*
X264507Y-15547D01*
X264317Y-15693D01*
X263676Y-15554D01*
X263144Y-14560D01*
X262151Y-13349D01*
X260940Y-12355D01*
X259558Y-11617D01*
X258059Y-11162D01*
X256500Y-11009D01*
D02*
G37*
G36*
X50500Y-11343D02*
X35185D01*
Y-26658D01*
X50500D01*
Y-11343D01*
D02*
G37*
G36*
X169500Y-11207D02*
X167980Y-11356D01*
X166518Y-11800D01*
X165170Y-12520D01*
X163989Y-13489D01*
X163020Y-14670D01*
X162300Y-16018D01*
X161856Y-17480D01*
X161707Y-19000D01*
X161856Y-20520D01*
X162300Y-21982D01*
X163020Y-23330D01*
X163989Y-24511D01*
X165170Y-25480D01*
X166518Y-26200D01*
X167980Y-26644D01*
X169500Y-26793D01*
X171020Y-26644D01*
X172482Y-26200D01*
X173830Y-25480D01*
X175011Y-24511D01*
X175980Y-23330D01*
X176700Y-21982D01*
X177144Y-20520D01*
X177293Y-19000D01*
X177144Y-17480D01*
X176700Y-16018D01*
X175980Y-14670D01*
X175011Y-13489D01*
X173830Y-12520D01*
X172482Y-11800D01*
X171020Y-11356D01*
X169500Y-11207D01*
D02*
G37*
G36*
X150000D02*
X148480Y-11356D01*
X147018Y-11800D01*
X145670Y-12520D01*
X144489Y-13489D01*
X143520Y-14670D01*
X142800Y-16018D01*
X142356Y-17480D01*
X142207Y-19000D01*
X142356Y-20520D01*
X142800Y-21982D01*
X143520Y-23330D01*
X144489Y-24511D01*
X145670Y-25480D01*
X147018Y-26200D01*
X148480Y-26644D01*
X150000Y-26793D01*
X151520Y-26644D01*
X152982Y-26200D01*
X154330Y-25480D01*
X155511Y-24511D01*
X156480Y-23330D01*
X157200Y-21982D01*
X157644Y-20520D01*
X157793Y-19000D01*
X157644Y-17480D01*
X157200Y-16018D01*
X156480Y-14670D01*
X155511Y-13489D01*
X154330Y-12520D01*
X152982Y-11800D01*
X151520Y-11356D01*
X150000Y-11207D01*
D02*
G37*
G36*
X71000D02*
X69480Y-11356D01*
X68018Y-11800D01*
X66670Y-12520D01*
X65489Y-13489D01*
X64520Y-14670D01*
X63800Y-16018D01*
X63356Y-17480D01*
X63207Y-19000D01*
X63356Y-20520D01*
X63800Y-21982D01*
X64520Y-23330D01*
X65489Y-24511D01*
X66670Y-25480D01*
X68018Y-26200D01*
X69480Y-26644D01*
X71000Y-26793D01*
X72520Y-26644D01*
X73982Y-26200D01*
X75330Y-25480D01*
X76511Y-24511D01*
X77480Y-23330D01*
X78200Y-21982D01*
X78644Y-20520D01*
X78793Y-19000D01*
X78644Y-17480D01*
X78200Y-16018D01*
X77480Y-14670D01*
X76511Y-13489D01*
X75330Y-12520D01*
X73982Y-11800D01*
X72520Y-11356D01*
X71000Y-11207D01*
D02*
G37*
G36*
X103657Y-11500D02*
X88342D01*
Y-26815D01*
X103657D01*
Y-11500D01*
D02*
G37*
G36*
X208157Y-24185D02*
X192842D01*
Y-39500D01*
X208157D01*
Y-24185D01*
D02*
G37*
G36*
X120000Y-11207D02*
X118480Y-11356D01*
X117018Y-11800D01*
X115670Y-12520D01*
X114489Y-13489D01*
X113520Y-14670D01*
X112800Y-16018D01*
X112356Y-17480D01*
X112207Y-19000D01*
X112356Y-20520D01*
X112800Y-21982D01*
X113520Y-23330D01*
X114489Y-24511D01*
X115670Y-25480D01*
X117018Y-26200D01*
X118480Y-26644D01*
X118492Y-26645D01*
X118842Y-27000D01*
X118842Y-27182D01*
Y-42315D01*
X134158D01*
Y-27000D01*
X122069D01*
X121994Y-26500D01*
X122982Y-26200D01*
X124330Y-25480D01*
X125511Y-24511D01*
X126480Y-23330D01*
X127200Y-21982D01*
X127644Y-20520D01*
X127793Y-19000D01*
X127644Y-17480D01*
X127200Y-16018D01*
X126480Y-14670D01*
X125511Y-13489D01*
X124330Y-12520D01*
X122982Y-11800D01*
X121520Y-11356D01*
X120000Y-11207D01*
D02*
G37*
G36*
X96000Y-31148D02*
X94499Y-31296D01*
X93055Y-31734D01*
X91725Y-32445D01*
X90559Y-33402D01*
X89602Y-34568D01*
X88891Y-35898D01*
X88453Y-37341D01*
X88305Y-38843D01*
X88453Y-40344D01*
X88891Y-41787D01*
X89602Y-43117D01*
X90559Y-44283D01*
X91725Y-45240D01*
X93055Y-45951D01*
X94499Y-46389D01*
X96000Y-46537D01*
X97501Y-46389D01*
X98945Y-45951D01*
X100275Y-45240D01*
X101441Y-44283D01*
X102398Y-43117D01*
X103109Y-41787D01*
X103547Y-40344D01*
X103694Y-38843D01*
X103547Y-37341D01*
X103109Y-35898D01*
X102398Y-34568D01*
X101441Y-33402D01*
X100275Y-32445D01*
X98945Y-31734D01*
X97501Y-31296D01*
X96000Y-31148D01*
D02*
G37*
G36*
X266953Y-41547D02*
X251047D01*
Y-57453D01*
X266953D01*
Y-53472D01*
X267453Y-53137D01*
X267968Y-53351D01*
X268500Y-53421D01*
Y-49500D01*
Y-45579D01*
X267968Y-45649D01*
X267453Y-45862D01*
X266953Y-45528D01*
Y-41547D01*
D02*
G37*
G36*
X169500Y-41207D02*
X167980Y-41356D01*
X166518Y-41800D01*
X165170Y-42520D01*
X163989Y-43489D01*
X163020Y-44670D01*
X162300Y-46018D01*
X161856Y-47480D01*
X161707Y-49000D01*
X161856Y-50520D01*
X162300Y-51982D01*
X163020Y-53330D01*
X163989Y-54511D01*
X165170Y-55480D01*
X166518Y-56200D01*
X167980Y-56644D01*
X169500Y-56793D01*
X171020Y-56644D01*
X172482Y-56200D01*
X173830Y-55480D01*
X175011Y-54511D01*
X175980Y-53330D01*
X176700Y-51982D01*
X177144Y-50520D01*
X177293Y-49000D01*
X177144Y-47480D01*
X176700Y-46018D01*
X175980Y-44670D01*
X175011Y-43489D01*
X173830Y-42520D01*
X172482Y-41800D01*
X171020Y-41356D01*
X169500Y-41207D01*
D02*
G37*
G36*
X71000D02*
X69480Y-41356D01*
X68018Y-41800D01*
X66670Y-42520D01*
X65489Y-43489D01*
X64520Y-44670D01*
X63800Y-46018D01*
X63356Y-47480D01*
X63207Y-49000D01*
X63356Y-50520D01*
X63800Y-51982D01*
X64520Y-53330D01*
X65489Y-54511D01*
X66670Y-55480D01*
X68018Y-56200D01*
X69480Y-56644D01*
X71000Y-56793D01*
X72520Y-56644D01*
X73982Y-56200D01*
X75330Y-55480D01*
X76511Y-54511D01*
X77480Y-53330D01*
X78200Y-51982D01*
X78644Y-50520D01*
X78793Y-49000D01*
X78644Y-47480D01*
X78200Y-46018D01*
X77480Y-44670D01*
X76511Y-43489D01*
X75330Y-42520D01*
X73982Y-41800D01*
X72520Y-41356D01*
X71000Y-41207D01*
D02*
G37*
G36*
X239500Y-45963D02*
X237999Y-46111D01*
X236555Y-46549D01*
X235225Y-47260D01*
X234059Y-48217D01*
X233102Y-49382D01*
X232391Y-50713D01*
X231953Y-52156D01*
X231805Y-53657D01*
X231953Y-55159D01*
X232391Y-56602D01*
X233102Y-57932D01*
X234059Y-59098D01*
X235225Y-60055D01*
X236555Y-60766D01*
X237999Y-61204D01*
X239500Y-61352D01*
X241001Y-61204D01*
X242445Y-60766D01*
X243775Y-60055D01*
X244941Y-59098D01*
X245898Y-57932D01*
X246609Y-56602D01*
X247047Y-55159D01*
X247195Y-53657D01*
X247047Y-52156D01*
X246609Y-50713D01*
X245898Y-49382D01*
X244941Y-48217D01*
X243775Y-47260D01*
X242445Y-46549D01*
X241001Y-46111D01*
X239500Y-45963D01*
D02*
G37*
G36*
X24500Y-58777D02*
Y-62000D01*
X27722D01*
X27659Y-61519D01*
X27281Y-60606D01*
X26679Y-59821D01*
X25894Y-59219D01*
X24981Y-58841D01*
X24500Y-58777D01*
D02*
G37*
G36*
X23500D02*
X23020Y-58841D01*
X22106Y-59219D01*
X21321Y-59821D01*
X20719Y-60606D01*
X20341Y-61519D01*
X20278Y-62000D01*
X23500D01*
Y-58777D01*
D02*
G37*
G36*
X27722Y-63000D02*
X24500D01*
Y-66223D01*
X24981Y-66159D01*
X25894Y-65781D01*
X26679Y-65179D01*
X27281Y-64394D01*
X27659Y-63481D01*
X27722Y-63000D01*
D02*
G37*
G36*
X23500D02*
X20278D01*
X20341Y-63481D01*
X20719Y-64394D01*
X21321Y-65179D01*
X22106Y-65781D01*
X23020Y-66159D01*
X23500Y-66223D01*
Y-63000D01*
D02*
G37*
G36*
X203969Y-44998D02*
X200031D01*
X198665Y-45132D01*
X197352Y-45531D01*
X196141Y-46178D01*
X195080Y-47049D01*
X194209Y-48110D01*
X193562Y-49320D01*
X193164Y-50634D01*
X193029Y-52000D01*
X193164Y-53366D01*
X193508Y-54500D01*
X193164Y-55634D01*
X193029Y-57000D01*
X193164Y-58366D01*
X193508Y-59500D01*
X193164Y-60634D01*
X193029Y-62000D01*
X193164Y-63366D01*
X193562Y-64680D01*
X194209Y-65890D01*
X195080Y-66951D01*
X196141Y-67822D01*
X197352Y-68469D01*
X198665Y-68868D01*
X200031Y-69002D01*
X203969D01*
X205335Y-68868D01*
X206648Y-68469D01*
X207859Y-67822D01*
X208920Y-66951D01*
X209791Y-65890D01*
X210438Y-64680D01*
X210836Y-63366D01*
X210971Y-62000D01*
X210836Y-60634D01*
X210492Y-59500D01*
X210836Y-58366D01*
X210971Y-57000D01*
X210836Y-55634D01*
X210492Y-54500D01*
X210836Y-53366D01*
X210971Y-52000D01*
X210836Y-50634D01*
X210438Y-49320D01*
X209791Y-48110D01*
X208920Y-47049D01*
X207859Y-46178D01*
X206648Y-45531D01*
X205335Y-45132D01*
X203969Y-44998D01*
D02*
G37*
G36*
X54000Y-54707D02*
X52480Y-54856D01*
X51018Y-55300D01*
X49670Y-56020D01*
X48489Y-56989D01*
X47520Y-58170D01*
X46800Y-59518D01*
X46356Y-60980D01*
X46207Y-62500D01*
X46356Y-64020D01*
X46800Y-65482D01*
X47520Y-66830D01*
X48489Y-68011D01*
X49670Y-68980D01*
X51018Y-69700D01*
X52480Y-70144D01*
X54000Y-70293D01*
X55520Y-70144D01*
X56982Y-69700D01*
X58330Y-68980D01*
X59511Y-68011D01*
X60480Y-66830D01*
X61200Y-65482D01*
X61644Y-64020D01*
X61793Y-62500D01*
X61644Y-60980D01*
X61200Y-59518D01*
X60480Y-58170D01*
X59511Y-56989D01*
X58330Y-56020D01*
X56982Y-55300D01*
X55520Y-54856D01*
X54000Y-54707D01*
D02*
G37*
G36*
X180500Y-58032D02*
X178941Y-58186D01*
X177442Y-58641D01*
X176060Y-59379D01*
X174849Y-60373D01*
X173855Y-61584D01*
X173117Y-62966D01*
X172662Y-64465D01*
X172509Y-66024D01*
X172662Y-67583D01*
X173117Y-69082D01*
X173855Y-70463D01*
X174849Y-71674D01*
X176060Y-72668D01*
X177442Y-73406D01*
X178941Y-73861D01*
X180500Y-74015D01*
X182059Y-73861D01*
X183558Y-73406D01*
X184940Y-72668D01*
X186151Y-71674D01*
X187144Y-70463D01*
X187883Y-69082D01*
X188338Y-67583D01*
X188491Y-66024D01*
X188338Y-64465D01*
X187883Y-62966D01*
X187144Y-61584D01*
X186151Y-60373D01*
X184940Y-59379D01*
X183558Y-58641D01*
X182059Y-58186D01*
X180500Y-58032D01*
D02*
G37*
G36*
X209500Y-78707D02*
X207980Y-78856D01*
X206518Y-79300D01*
X205170Y-80020D01*
X203989Y-80989D01*
X203020Y-82170D01*
X202300Y-83518D01*
X201856Y-84980D01*
X201734Y-86217D01*
X201618Y-86528D01*
X201219Y-86652D01*
X200000Y-86532D01*
X198441Y-86686D01*
X196942Y-87141D01*
X195560Y-87879D01*
X194349Y-88873D01*
X193356Y-90084D01*
X192617Y-91466D01*
X192162Y-92965D01*
X192009Y-94524D01*
X192162Y-96083D01*
X192617Y-97582D01*
X193356Y-98963D01*
X194349Y-100174D01*
X195560Y-101168D01*
X196942Y-101907D01*
X198441Y-102361D01*
X200000Y-102515D01*
X201559Y-102361D01*
X203058Y-101907D01*
X204440Y-101168D01*
X205651Y-100174D01*
X206645Y-98963D01*
X207383Y-97582D01*
X207838Y-96083D01*
X207979Y-94646D01*
X208154Y-94408D01*
X208461Y-94191D01*
X209500Y-94293D01*
X211020Y-94144D01*
X212482Y-93700D01*
X213830Y-92980D01*
X215011Y-92011D01*
X215980Y-90830D01*
X216700Y-89482D01*
X217144Y-88020D01*
X217293Y-86500D01*
X217144Y-84980D01*
X216700Y-83518D01*
X215980Y-82170D01*
X215011Y-80989D01*
X213830Y-80020D01*
X212482Y-79300D01*
X211020Y-78856D01*
X209500Y-78707D01*
D02*
G37*
G36*
X247158Y-65685D02*
X231842D01*
Y-81000D01*
X233396D01*
X233609Y-81452D01*
X233020Y-82170D01*
X232300Y-83518D01*
X231856Y-84980D01*
X231707Y-86500D01*
X231856Y-88020D01*
X232300Y-89482D01*
X233020Y-90830D01*
X233989Y-92011D01*
X235170Y-92980D01*
X236518Y-93700D01*
X237980Y-94144D01*
X239500Y-94293D01*
X241020Y-94144D01*
X242482Y-93700D01*
X243830Y-92980D01*
X245011Y-92011D01*
X245980Y-90830D01*
X246700Y-89482D01*
X247144Y-88020D01*
X247293Y-86500D01*
X247144Y-84980D01*
X246700Y-83518D01*
X245980Y-82170D01*
X245391Y-81452D01*
X245604Y-81000D01*
X247158D01*
Y-65685D01*
D02*
G37*
G36*
X56500Y-83342D02*
X41185D01*
Y-98658D01*
X56500D01*
Y-83342D01*
D02*
G37*
G36*
X29157Y-83306D02*
X27656Y-83453D01*
X26213Y-83891D01*
X24883Y-84602D01*
X23717Y-85559D01*
X22760Y-86725D01*
X22049Y-88055D01*
X21611Y-89499D01*
X21463Y-91000D01*
X21611Y-92501D01*
X22049Y-93945D01*
X22760Y-95275D01*
X23717Y-96441D01*
X24883Y-97398D01*
X26213Y-98109D01*
X27656Y-98547D01*
X29157Y-98694D01*
X30659Y-98547D01*
X32102Y-98109D01*
X33432Y-97398D01*
X34598Y-96441D01*
X35555Y-95275D01*
X36266Y-93945D01*
X36704Y-92501D01*
X36852Y-91000D01*
X36704Y-89499D01*
X36266Y-88055D01*
X35555Y-86725D01*
X34598Y-85559D01*
X33432Y-84602D01*
X32102Y-83891D01*
X30659Y-83453D01*
X29157Y-83306D01*
D02*
G37*
G36*
X188453Y-86024D02*
X172547D01*
Y-101929D01*
X188453D01*
Y-86024D01*
D02*
G37*
G36*
X149500Y-93207D02*
X147980Y-93356D01*
X146518Y-93800D01*
X145170Y-94520D01*
X143989Y-95489D01*
X143020Y-96670D01*
X142300Y-98018D01*
X141856Y-99480D01*
X141707Y-101000D01*
X141856Y-102520D01*
X142300Y-103982D01*
X143020Y-105330D01*
X143989Y-106511D01*
X145170Y-107480D01*
X146518Y-108200D01*
X147980Y-108644D01*
X149500Y-108793D01*
X151020Y-108644D01*
X152482Y-108200D01*
X153830Y-107480D01*
X155011Y-106511D01*
X155980Y-105330D01*
X156700Y-103982D01*
X157144Y-102520D01*
X157293Y-101000D01*
X157144Y-99480D01*
X156700Y-98018D01*
X155980Y-96670D01*
X155011Y-95489D01*
X153830Y-94520D01*
X152482Y-93800D01*
X151020Y-93356D01*
X149500Y-93207D01*
D02*
G37*
G36*
X264500Y-109207D02*
X262980Y-109356D01*
X261518Y-109800D01*
X260170Y-110520D01*
X258989Y-111489D01*
X258020Y-112670D01*
X257300Y-114018D01*
X256856Y-115480D01*
X256707Y-117000D01*
X256856Y-118520D01*
X257300Y-119982D01*
X258020Y-121330D01*
X258989Y-122511D01*
X260170Y-123480D01*
X261518Y-124200D01*
X262980Y-124644D01*
X264500Y-124793D01*
X266020Y-124644D01*
X267482Y-124200D01*
X268830Y-123480D01*
X270011Y-122511D01*
X270980Y-121330D01*
X271700Y-119982D01*
X272144Y-118520D01*
X272293Y-117000D01*
X272144Y-115480D01*
X271700Y-114018D01*
X270980Y-112670D01*
X270011Y-111489D01*
X268830Y-110520D01*
X267482Y-109800D01*
X266020Y-109356D01*
X264500Y-109207D01*
D02*
G37*
G36*
X234500D02*
X232980Y-109356D01*
X231518Y-109800D01*
X230170Y-110520D01*
X228989Y-111489D01*
X228020Y-112670D01*
X227300Y-114018D01*
X226856Y-115480D01*
X226707Y-117000D01*
X226856Y-118520D01*
X227300Y-119982D01*
X228020Y-121330D01*
X228989Y-122511D01*
X230170Y-123480D01*
X231518Y-124200D01*
X232980Y-124644D01*
X234500Y-124793D01*
X236020Y-124644D01*
X237482Y-124200D01*
X238830Y-123480D01*
X240011Y-122511D01*
X240980Y-121330D01*
X241700Y-119982D01*
X242144Y-118520D01*
X242293Y-117000D01*
X242144Y-115480D01*
X241700Y-114018D01*
X240980Y-112670D01*
X240011Y-111489D01*
X238830Y-110520D01*
X237482Y-109800D01*
X236020Y-109356D01*
X234500Y-109207D01*
D02*
G37*
G36*
X207953Y-114524D02*
X192047D01*
Y-130429D01*
X207953D01*
Y-114524D01*
D02*
G37*
G36*
X29500Y-120707D02*
X27980Y-120856D01*
X26518Y-121300D01*
X25170Y-122020D01*
X23989Y-122989D01*
X23020Y-124170D01*
X22300Y-125518D01*
X21856Y-126980D01*
X21707Y-128500D01*
X21856Y-130020D01*
X22300Y-131482D01*
X23020Y-132830D01*
X23989Y-134011D01*
X25170Y-134980D01*
X26518Y-135700D01*
X27980Y-136144D01*
X29500Y-136293D01*
X31020Y-136144D01*
X32482Y-135700D01*
X33830Y-134980D01*
X35011Y-134011D01*
X35980Y-132830D01*
X36700Y-131482D01*
X37144Y-130020D01*
X37293Y-128500D01*
X37144Y-126980D01*
X36700Y-125518D01*
X35980Y-124170D01*
X35011Y-122989D01*
X33830Y-122020D01*
X32482Y-121300D01*
X31020Y-120856D01*
X29500Y-120707D01*
D02*
G37*
%LPD*%
D10*
X107500Y-119000D02*
X153500Y-73000D01*
X104500Y-119000D02*
X107500D01*
X102500Y-83000D02*
X103000D01*
X118000Y-68000D01*
X153500D01*
X75000Y-124000D02*
X104500D01*
X64000Y-113000D02*
X75000Y-124000D01*
X64000Y-113000D02*
Y-73500D01*
X72000Y-65500D01*
X88500D01*
X99657Y-54343D01*
X126500D01*
X59500Y-128500D02*
X70000Y-139000D01*
X280000D01*
Y-22500D01*
X276500Y-19000D02*
X280000Y-22500D01*
D11*
X75500Y-109500D02*
D03*
Y-79500D02*
D03*
X132500Y-83000D02*
D03*
X102500D02*
D03*
X149500Y-131000D02*
D03*
Y-101000D02*
D03*
X54000Y-62500D02*
D03*
X24000D02*
D03*
X59500Y-128500D02*
D03*
X29500D02*
D03*
X264500Y-117000D02*
D03*
X234500D02*
D03*
X209500Y-86500D02*
D03*
X239500D02*
D03*
X71000Y-19000D02*
D03*
Y-49000D02*
D03*
X169500D02*
D03*
Y-19000D02*
D03*
X120000D02*
D03*
X150000D02*
D03*
D12*
X200000Y-94524D02*
D03*
X269000Y-49500D02*
D03*
X180500Y-66024D02*
D03*
X256500Y-19000D02*
D03*
X266500D02*
D03*
D13*
X200000Y-122476D02*
D03*
X180500Y-93976D02*
D03*
D14*
X239500Y-73343D02*
D03*
X200500Y-31843D02*
D03*
X96000Y-19157D02*
D03*
X126500Y-34657D02*
D03*
D15*
X239500Y-53657D02*
D03*
X200500Y-12157D02*
D03*
X23157Y-19000D02*
D03*
X96000Y-38843D02*
D03*
X29157Y-91000D02*
D03*
X126500Y-54343D02*
D03*
D16*
X42843Y-19000D02*
D03*
X48843Y-91000D02*
D03*
D17*
X104500Y-119000D02*
D03*
X153500Y-73000D02*
D03*
X202000Y-62000D02*
D03*
X264500Y-87500D02*
D03*
D18*
X104500Y-124000D02*
D03*
Y-129000D02*
D03*
X153500Y-68000D02*
D03*
Y-63000D02*
D03*
X202000Y-57000D02*
D03*
Y-52000D02*
D03*
X264500Y-97500D02*
D03*
Y-92500D02*
D03*
D19*
X259000Y-49500D02*
D03*
X276500Y-19000D02*
D03*
D20*
X11001Y-64500D02*
X7002D01*
X5003Y-66499D01*
X7002Y-68499D01*
X11001D01*
X8002D01*
Y-64500D01*
X5003Y-70498D02*
X11001D01*
Y-73497D01*
X10001Y-74497D01*
X9001D01*
X8002Y-73497D01*
Y-70498D01*
Y-73497D01*
X7002Y-74497D01*
X6002D01*
X5003Y-73497D01*
Y-70498D01*
X11001Y-82494D02*
X7002D01*
X5003Y-84493D01*
X7002Y-86493D01*
X11001D01*
X8002D01*
Y-82494D01*
X11001Y-88492D02*
X7002D01*
Y-89492D01*
X8002Y-90492D01*
X11001D01*
X8002D01*
X7002Y-91491D01*
X8002Y-92491D01*
X11001D01*
X13000Y-94490D02*
X7002D01*
Y-97489D01*
X8002Y-98489D01*
X10001D01*
X11001Y-97489D01*
Y-94490D01*
Y-100488D02*
Y-102488D01*
Y-101488D01*
X5003D01*
Y-100488D01*
X11001Y-105487D02*
Y-107486D01*
Y-106486D01*
X7002D01*
Y-105487D01*
X11001Y-111485D02*
X6002D01*
X8002D01*
Y-110485D01*
Y-112485D01*
Y-111485D01*
X6002D01*
X5003Y-112485D01*
X11001Y-115483D02*
Y-117483D01*
Y-116483D01*
X7002D01*
Y-115483D01*
X11001Y-123481D02*
Y-121482D01*
X10001Y-120482D01*
X8002D01*
X7002Y-121482D01*
Y-123481D01*
X8002Y-124481D01*
X9001D01*
Y-120482D01*
X7002Y-126480D02*
X11001D01*
X9001D01*
X8002Y-127480D01*
X7002Y-128479D01*
Y-129479D01*
M02*
