G04 Layer_Color=255*
%FSLAX25Y25*%
%MOIN*%
G70*
G01*
G75*
%ADD11C,0.05512*%
%ADD12C,0.05906*%
%ADD13R,0.05906X0.05906*%
%ADD14R,0.05315X0.05315*%
%ADD15C,0.05315*%
%ADD16R,0.05315X0.05315*%
%ADD17O,0.07874X0.03937*%
%ADD18O,0.07874X0.03937*%
%ADD19R,0.05906X0.05906*%
D11*
X75500Y-109500D02*
D03*
Y-79500D02*
D03*
X132500Y-83000D02*
D03*
X102500D02*
D03*
X149500Y-131000D02*
D03*
Y-101000D02*
D03*
X54000Y-62500D02*
D03*
X24000D02*
D03*
X59500Y-128500D02*
D03*
X29500D02*
D03*
X264500Y-117000D02*
D03*
X234500D02*
D03*
X209500Y-86500D02*
D03*
X239500D02*
D03*
X71000Y-19000D02*
D03*
Y-49000D02*
D03*
X169500D02*
D03*
Y-19000D02*
D03*
X120000D02*
D03*
X150000D02*
D03*
D12*
X200000Y-94524D02*
D03*
X269000Y-49500D02*
D03*
X180500Y-66024D02*
D03*
X256500Y-19000D02*
D03*
X266500D02*
D03*
D13*
X200000Y-122476D02*
D03*
X180500Y-93976D02*
D03*
D14*
X239500Y-73343D02*
D03*
X200500Y-31843D02*
D03*
X96000Y-19157D02*
D03*
X126500Y-34657D02*
D03*
D15*
X239500Y-53657D02*
D03*
X200500Y-12157D02*
D03*
X23157Y-19000D02*
D03*
X96000Y-38843D02*
D03*
X29157Y-91000D02*
D03*
X126500Y-54343D02*
D03*
D16*
X42843Y-19000D02*
D03*
X48843Y-91000D02*
D03*
D17*
X104500Y-119000D02*
D03*
X153500Y-73000D02*
D03*
X202000Y-62000D02*
D03*
X264500Y-87500D02*
D03*
D18*
X104500Y-124000D02*
D03*
Y-129000D02*
D03*
X153500Y-68000D02*
D03*
Y-63000D02*
D03*
X202000Y-57000D02*
D03*
Y-52000D02*
D03*
X264500Y-97500D02*
D03*
Y-92500D02*
D03*
D19*
X259000Y-49500D02*
D03*
X276500Y-19000D02*
D03*
M02*
